<svg width="14" height="12" viewBox="0 0 14 12" fill="none" xmlns="http://www.w3.org/2000/svg">
<path d="M13.058 2.25H0.870536C0.634766 2.25 0.430734 2.17773 0.25844 2.0332C0.0861467 1.88867 0 1.71289 0 1.50586C0 1.29883 0.0838797 1.12109 0.251639 0.972656C0.419399 0.824219 0.625697 0.75 0.870536 0.75H5.22321C5.22321 0.546875 5.30709 0.371094 5.47485 0.222656C5.64261 0.0742188 5.84891 0 6.09375 0H7.83482C8.07966 0 8.28596 0.0742188 8.45372 0.222656C8.62148 0.371094 8.70536 0.546875 8.70536 0.75H13.058C13.2938 0.75 13.4978 0.824219 13.6701 0.972656C13.8424 1.12109 13.9286 1.29883 13.9286 1.50586C13.9286 1.71289 13.8424 1.88867 13.6701 2.0332C13.4978 2.17773 13.2938 2.25 13.058 2.25ZM13.058 10.5C13.058 10.9141 12.888 11.2676 12.548 11.5605C12.2079 11.8535 11.7976 12 11.317 12H2.61161C2.131 12 1.72067 11.8535 1.38062 11.5605C1.04056 11.2676 0.870536 10.9141 0.870536 10.5V3H13.058V10.5ZM4.35268 5.25C4.35268 5.04688 4.26653 4.87109 4.09424 4.72266C3.92194 4.57422 3.71565 4.5 3.47534 4.5C3.23504 4.5 3.03101 4.57422 2.86325 4.72266C2.69549 4.87109 2.61161 5.04688 2.61161 5.25V9.75C2.61161 9.96094 2.69549 10.1387 2.86325 10.2832C3.03101 10.4277 3.23504 10.5 3.47534 10.5C3.71565 10.5 3.92194 10.4277 4.09424 10.2832C4.26653 10.1387 4.35268 9.96094 4.35268 9.75V5.25ZM7.83482 5.25C7.83482 5.04688 7.74867 4.87109 7.57638 4.72266C7.40409 4.57422 7.19779 4.5 6.95748 4.5C6.71718 4.5 6.51315 4.57422 6.34539 4.72266C6.17763 4.87109 6.09375 5.04688 6.09375 5.25V9.75C6.09375 9.96094 6.17763 10.1387 6.34539 10.2832C6.51315 10.4277 6.71718 10.5 6.95748 10.5C7.19779 10.5 7.40409 10.4277 7.57638 10.2832C7.74867 10.1387 7.83482 9.96094 7.83482 9.75V5.25ZM11.317 5.25C11.317 5.04688 11.2308 4.87109 11.0585 4.72266C10.8862 4.57422 10.6799 4.5 10.4396 4.5C10.1993 4.5 9.99529 4.57422 9.82753 4.72266C9.65977 4.87109 9.57589 5.04688 9.57589 5.25V9.75C9.57589 9.96094 9.65977 10.1387 9.82753 10.2832C9.99529 10.4277 10.1993 10.5 10.4396 10.5C10.6799 10.5 10.8862 10.4277 11.0585 10.2832C11.2308 10.1387 11.317 9.96094 11.317 9.75V5.25Z" fill="#C10202"/>
</svg>
