<svg width="15" height="12" viewBox="0 0 15 12" fill="none" xmlns="http://www.w3.org/2000/svg">
<path d="M13.3494 2.22188H1.45917C1.22915 2.22188 1.03009 2.15051 0.862 2.00779C0.693909 1.86506 0.609863 1.69148 0.609863 1.48704C0.609863 1.28259 0.691697 1.10708 0.855365 0.960499C1.01903 0.813916 1.2203 0.740625 1.45917 0.740625H5.70568C5.70568 0.540039 5.78752 0.366455 5.95118 0.219873C6.11485 0.073291 6.31612 0 6.55498 0H8.25359C8.49246 0 8.69372 0.073291 8.85739 0.219873C9.02106 0.366455 9.10289 0.540039 9.10289 0.740625H13.3494C13.5794 0.740625 13.7785 0.813916 13.9466 0.960499C14.1147 1.10708 14.1987 1.28259 14.1987 1.48704C14.1987 1.69148 14.1147 1.86506 13.9466 2.00779C13.7785 2.15051 13.5794 2.22188 13.3494 2.22188ZM13.3494 10.3688C13.3494 10.7776 13.1835 11.1267 12.8518 11.416C12.52 11.7054 12.1197 11.85 11.6508 11.85H3.15777C2.68889 11.85 2.28856 11.7054 1.9568 11.416C1.62505 11.1267 1.45917 10.7776 1.45917 10.3688V2.9625H13.3494V10.3688ZM4.85638 5.18438C4.85638 4.98379 4.77233 4.81021 4.60424 4.66363C4.43615 4.51704 4.23488 4.44375 4.00044 4.44375C3.766 4.44375 3.56694 4.51704 3.40327 4.66363C3.23961 4.81021 3.15777 4.98379 3.15777 5.18438V9.62813C3.15777 9.83643 3.23961 10.0119 3.40327 10.1547C3.56694 10.2974 3.766 10.3688 4.00044 10.3688C4.23488 10.3688 4.43615 10.2974 4.60424 10.1547C4.77233 10.0119 4.85638 9.83643 4.85638 9.62813V5.18438ZM8.25359 5.18438C8.25359 4.98379 8.16954 4.81021 8.00145 4.66363C7.83336 4.51704 7.6321 4.44375 7.39765 4.44375C7.16321 4.44375 6.96415 4.51704 6.80049 4.66363C6.63682 4.81021 6.55498 4.98379 6.55498 5.18438V9.62813C6.55498 9.83643 6.63682 10.0119 6.80049 10.1547C6.96415 10.2974 7.16321 10.3688 7.39765 10.3688C7.6321 10.3688 7.83336 10.2974 8.00145 10.1547C8.16954 10.0119 8.25359 9.83643 8.25359 9.62813V5.18438ZM11.6508 5.18438C11.6508 4.98379 11.5668 4.81021 11.3987 4.66363C11.2306 4.51704 11.0293 4.44375 10.7949 4.44375C10.5604 4.44375 10.3614 4.51704 10.1977 4.66363C10.034 4.81021 9.9522 4.98379 9.9522 5.18438V9.62813C9.9522 9.83643 10.034 10.0119 10.1977 10.1547C10.3614 10.2974 10.5604 10.3688 10.7949 10.3688C11.0293 10.3688 11.2306 10.2974 11.3987 10.1547C11.5668 10.0119 11.6508 9.83643 11.6508 9.62813V5.18438Z" fill="#C10202"/>
</svg>
