<svg width="20" height="20" viewBox="0 0 20 20" fill="none" xmlns="http://www.w3.org/2000/svg">
<path d="M13.4178 7.85897C13.5479 7.73012 13.7237 7.65784 13.9068 7.65784C14.0899 7.65784 14.2657 7.73012 14.3958 7.85897C14.4601 7.92224 14.5111 7.99766 14.5459 8.08084C14.5807 8.16402 14.5987 8.2533 14.5987 8.34347C14.5987 8.43365 14.5807 8.52292 14.5459 8.6061C14.5111 8.68928 14.4601 8.7647 14.3958 8.82797L10.4878 12.658C10.3574 12.7866 10.1815 12.8588 9.99831 12.8588C9.81509 12.8588 9.63924 12.7866 9.50881 12.658L5.60081 8.82797C5.53656 8.7647 5.48554 8.68928 5.45071 8.6061C5.41588 8.52292 5.39795 8.43365 5.39795 8.34347C5.39795 8.2533 5.41588 8.16402 5.45071 8.08084C5.48554 7.99766 5.53656 7.92224 5.60081 7.85897C5.73095 7.73012 5.90668 7.65784 6.08981 7.65784C6.27295 7.65784 6.44868 7.73012 6.57881 7.85897L9.99981 11L13.4178 7.85897Z" fill="#333333"/>
</svg>
