<svg width="16" height="16" viewBox="0 0 16 16" fill="none" xmlns="http://www.w3.org/2000/svg">
<path d="M13.6001 0.799988H12.0001C11.7879 0.799988 11.5844 0.884273 11.4344 1.0343C11.2844 1.18433 11.2001 1.38781 11.2001 1.59999V15.1936H14.4001V1.59999C14.4001 1.38781 14.3158 1.18433 14.1658 1.0343C14.0158 0.884273 13.8123 0.799988 13.6001 0.799988ZM8.8001 5.59999H7.2001C6.98792 5.59999 6.78444 5.68427 6.63441 5.8343C6.48438 5.98433 6.4001 6.18781 6.4001 6.39999V15.1936H9.6001V6.39999C9.6001 6.18781 9.51581 5.98433 9.36578 5.8343C9.21575 5.68427 9.01227 5.59999 8.8001 5.59999ZM4.0001 10.4H2.4001C2.18792 10.4 1.98444 10.4843 1.83441 10.6343C1.68438 10.7843 1.6001 10.9878 1.6001 11.2V15.1936H4.8001V11.2C4.8001 10.9878 4.71581 10.7843 4.56578 10.6343C4.41575 10.4843 4.21227 10.4 4.0001 10.4Z" fill="white"/>
</svg>
