<svg width="14" height="14" viewBox="0 0 14 14" fill="none" xmlns="http://www.w3.org/2000/svg">
<path d="M6.7207 0C3.0086 0 3.64655e-08 3.0086 3.64655e-08 6.72C-9.19059e-05 7.6026 0.173681 8.47658 0.511396 9.29201C0.84911 10.1074 1.34415 10.8484 1.96824 11.4725C2.59234 12.0966 3.33326 12.5916 4.14869 12.9293C4.96413 13.267 5.8381 13.4408 6.7207 13.4407C10.4314 13.4407 13.4407 10.4321 13.4407 6.72C13.4407 3.0086 10.4314 0 6.7207 0ZM7.3479 2.4262C8.0031 2.4262 8.1956 2.8063 8.1956 3.241C8.1956 3.7835 7.7616 4.2854 7.0203 4.2854C6.4001 4.2854 6.1047 3.9739 6.1229 3.458C6.1229 3.0233 6.4862 2.4262 7.3479 2.4262ZM5.6693 10.745C5.2213 10.745 4.8944 10.4727 5.2073 9.2792L5.7204 7.1617C5.8093 6.8229 5.824 6.6871 5.7204 6.6871C5.5867 6.6871 5.005 6.9209 4.662 7.1519L4.4387 6.7858C5.5272 5.8765 6.7788 5.3431 7.3143 5.3431C7.7623 5.3431 7.8365 5.8723 7.6132 6.6871L7.0252 8.9131C6.9209 9.3065 6.9657 9.4423 7.07 9.4423C7.2044 9.4423 7.644 9.2799 8.0766 8.939L8.33 9.2792C7.2709 10.3376 6.1166 10.745 5.6693 10.745Z" fill="#365899"/>
</svg>
