<svg width="18" height="16" viewBox="0 0 18 16" fill="none" xmlns="http://www.w3.org/2000/svg">
<path d="M9.12425 0.0999756C4.81378 0.0999756 1.31937 3.6367 1.31937 7.99998H0.609863L1.79238 10.3938L2.9749 7.99998H2.26539C2.26539 4.17216 5.34204 1.05752 9.12425 1.05752C11.2036 1.05752 13.0686 2.00029 14.3273 3.48448V2.11317C12.9463 0.861742 11.1233 0.0999756 9.12425 0.0999756Z" fill="black"/>
<path d="M16.4556 5.60614L15.2731 8H15.9826C15.9826 11.8278 12.9057 14.9425 9.12373 14.9425C7.04439 14.9425 5.17961 13.9997 3.92065 12.5155V13.8868C5.30167 15.138 7.12445 15.9 9.12373 15.9C13.4342 15.9 16.9286 12.3633 16.9286 8H17.6381L16.4556 5.60614Z" fill="black"/>
<path d="M9.12437 8.95751L5.34033 6.32428V11.112H12.9084V6.32428L9.12437 8.95751Z" fill="black"/>
<path d="M9.12437 3.69104L12.9084 6.3243H5.34033L9.12437 3.69104Z" fill="black"/>
</svg>
