<svg width="215" height="353" viewBox="0 0 215 353" fill="none" xmlns="http://www.w3.org/2000/svg">
<path d="M22 207L22 147" stroke="#0DCBE5"/>
<path d="M22 309L22 249" stroke="#0DCBE5"/>
<path d="M22 104L22 44" stroke="#0DCBE5"/>
<path d="M22 206.5C33.8741 206.5 43.5 216.126 43.5 228C43.5 239.874 33.8741 249.5 22 249.5C10.1259 249.5 0.5 239.874 0.499999 228C0.499999 216.126 10.1259 206.5 22 206.5Z" stroke="#0DCBE5"/>
<path d="M21.634 235.252C21.016 235.252 20.419 235.168 19.843 235C19.267 234.832 18.751 234.583 18.295 234.253C17.839 233.923 17.476 233.515 17.206 233.029C16.942 232.537 16.81 231.97 16.81 231.328H19.042C19.066 231.736 19.189 232.09 19.411 232.39C19.633 232.684 19.933 232.912 20.311 233.074C20.695 233.23 21.136 233.308 21.634 233.308C22.366 233.308 22.939 233.14 23.353 232.804C23.767 232.468 23.974 232.042 23.974 231.526C23.974 231.19 23.89 230.902 23.722 230.662C23.554 230.416 23.296 230.23 22.948 230.104C22.6 229.972 22.156 229.906 21.616 229.906H20.068V228.232H21.382C22.066 228.232 22.603 228.085 22.993 227.791C23.383 227.497 23.578 227.098 23.578 226.594C23.578 226.144 23.41 225.769 23.074 225.469C22.738 225.163 22.234 225.01 21.562 225.01C21.016 225.01 20.527 225.121 20.095 225.343C19.669 225.565 19.396 225.952 19.276 226.504H17.044C17.128 225.706 17.368 225.055 17.764 224.551C18.166 224.047 18.685 223.678 19.321 223.444C19.957 223.204 20.674 223.084 21.472 223.084C22.318 223.084 23.071 223.222 23.731 223.498C24.391 223.774 24.91 224.158 25.288 224.65C25.672 225.136 25.864 225.7 25.864 226.342C25.864 226.936 25.702 227.455 25.378 227.899C25.054 228.337 24.574 228.664 23.938 228.88C24.646 229.12 25.213 229.477 25.639 229.951C26.065 230.425 26.278 231.016 26.278 231.724C26.278 232.414 26.083 233.026 25.693 233.56C25.309 234.088 24.769 234.502 24.073 234.802C23.377 235.102 22.564 235.252 21.634 235.252Z" fill="#2E70A9"/>
<path d="M22 309.5C33.8741 309.5 43.5 319.126 43.5 331C43.5 342.874 33.8741 352.5 22 352.5C10.1259 352.5 0.5 342.874 0.499999 331C0.499999 319.126 10.1259 309.5 22 309.5Z" fill="white" stroke="#0DCBE5"/>
<g clip-path="url(#clip0)">
<path d="M26.4824 336.407H17.7505V340.147H26.4824V336.407Z" fill="#333333"/>
<path d="M24.6744 337.103H19.5586V339.394H24.6744V337.103Z" fill="#0059C3"/>
<path d="M24.2829 339.176H19.9504C19.9307 339.176 19.9119 339.169 19.8979 339.155C19.8839 339.141 19.8758 339.122 19.8755 339.103V337.359C19.8755 337.34 19.8834 337.32 19.8974 337.306C19.9115 337.292 19.9305 337.284 19.9504 337.284H24.2829C24.3028 337.284 24.3218 337.292 24.3359 337.306C24.3499 337.32 24.3578 337.34 24.3578 337.359V339.104C24.3572 339.123 24.3491 339.142 24.3351 339.155C24.3211 339.169 24.3024 339.176 24.2829 339.176ZM20.0241 339.029H24.2092V337.431H20.0241V339.029Z" fill="white"/>
<path fill-rule="evenodd" clip-rule="evenodd" d="M17.7515 335.935C17.7787 335.161 20.2559 334.999 22.1172 333.751C23.9899 335.158 26.4557 335.163 26.4829 335.935V336.404H17.7515V335.935Z" fill="#FBCB22"/>
<path d="M25.8264 336.015H18.4064C18.3905 336.015 18.3754 336.008 18.3642 335.997C18.353 335.986 18.3467 335.971 18.3467 335.955C18.3467 335.939 18.353 335.924 18.3642 335.913C18.3754 335.901 18.3905 335.895 18.4064 335.895H25.8264C25.8422 335.895 25.8574 335.901 25.8686 335.913C25.8797 335.924 25.886 335.939 25.886 335.955C25.886 335.971 25.8797 335.986 25.8686 335.997C25.8574 336.008 25.8422 336.015 25.8264 336.015Z" fill="#ECA400"/>
<path fill-rule="evenodd" clip-rule="evenodd" d="M20.9897 331.348C20.9897 331.348 21.2394 331.722 21.4469 332.382C21.5149 332.598 21.5838 332.827 21.5815 333.072C21.5793 333.317 21.5021 333.544 21.433 333.762C21.2247 334.415 20.9897 334.796 20.9897 334.796C20.9897 335.418 23.243 335.418 23.243 334.796C23.243 334.796 23.008 334.415 22.7998 333.762C22.7306 333.544 22.6537 333.319 22.6512 333.072C22.6487 332.825 22.7181 332.598 22.7858 332.382C22.9936 331.721 23.243 331.348 23.243 331.348C23.243 331.049 23.1243 330.763 22.913 330.551C22.7017 330.34 22.4152 330.221 22.1164 330.221C21.8176 330.221 21.531 330.34 21.3197 330.551C21.1084 330.763 20.9897 331.049 20.9897 331.348Z" fill="#ECA400"/>
<path d="M17.1615 328.756C16.517 328.756 15.7692 328.592 15.1639 328.122C14.4263 327.55 14.0355 326.658 14.002 325.471C13.9736 324.463 14.2423 323.746 14.8011 323.339C15.6678 322.708 16.8698 323.123 16.9205 323.141C17.0142 323.174 17.0909 323.243 17.1337 323.333C17.1765 323.422 17.182 323.525 17.1489 323.619C17.1157 323.713 17.0468 323.789 16.9571 323.832C16.8675 323.875 16.7645 323.88 16.6708 323.847C16.6581 323.843 15.7834 323.548 15.239 323.947C14.8942 324.2 14.7302 324.705 14.7506 325.449C14.7776 326.401 15.0713 327.101 15.6246 327.53C16.283 328.043 17.1822 328.074 17.7515 327.946C17.7997 327.934 17.8498 327.932 17.8988 327.94C17.9477 327.948 17.9946 327.966 18.0368 327.992C18.0789 328.018 18.1154 328.053 18.1441 328.093C18.1729 328.133 18.1933 328.179 18.2042 328.228C18.2152 328.276 18.2164 328.326 18.2078 328.375C18.1992 328.424 18.181 328.47 18.1543 328.512C18.1275 328.554 18.0927 328.59 18.0519 328.618C18.0111 328.646 17.9651 328.666 17.9166 328.676C17.6685 328.73 17.4153 328.757 17.1615 328.756Z" fill="#ECA400"/>
<path d="M27.0405 328.756C26.7865 328.757 26.5331 328.73 26.285 328.676C26.1898 328.653 26.1076 328.593 26.0562 328.509C26.0047 328.426 25.9881 328.325 26.0098 328.23C26.0315 328.134 26.0898 328.051 26.1723 327.998C26.2547 327.945 26.3547 327.926 26.4508 327.946C27.0206 328.074 27.9197 328.043 28.5794 327.531C29.1318 327.102 29.4252 326.402 29.4534 325.45C29.4744 324.706 29.3098 324.2 28.9645 323.946C28.4191 323.547 27.5412 323.845 27.5327 323.847C27.439 323.88 27.336 323.874 27.2464 323.831C27.1567 323.789 27.0878 323.712 27.0547 323.618C27.0215 323.525 27.027 323.422 27.0698 323.332C27.1126 323.242 27.1893 323.173 27.283 323.14C27.3329 323.122 28.5357 322.707 29.4024 323.338C29.9613 323.745 30.2302 324.462 30.2015 325.47C30.168 326.657 29.777 327.549 29.0394 328.122C28.4339 328.592 27.6858 328.756 27.0405 328.756Z" fill="#ECA400"/>
<path fill-rule="evenodd" clip-rule="evenodd" d="M16.4683 323.631V322.124C16.4683 321.826 16.5866 321.54 16.7974 321.329C17.0081 321.118 17.2939 321 17.5919 321H26.6107C26.9087 321 27.1945 321.118 27.4052 321.329C27.616 321.54 27.7344 321.826 27.7344 322.124V323.658C27.7244 328.227 25.2042 331.933 22.1014 331.933C18.9925 331.933 16.4683 328.213 16.4683 323.631Z" fill="#FBCB22"/>
<path d="M22.0858 329.345C23.6757 329.345 24.9646 328.056 24.9646 326.467C24.9646 324.877 23.6757 323.588 22.0858 323.588C20.4959 323.588 19.207 324.877 19.207 326.467C19.207 328.056 20.4959 329.345 22.0858 329.345Z" fill="#FEEDB4"/>
<path d="M22.0857 329.824C20.2342 329.824 18.728 328.318 18.728 326.466C18.728 324.615 20.2342 323.109 22.0857 323.109C23.9372 323.109 25.4434 324.615 25.4434 326.466C25.4434 328.318 23.9372 329.824 22.0857 329.824ZM22.0857 323.259C21.2353 323.26 20.4201 323.598 19.8188 324.199C19.2175 324.801 18.8793 325.616 18.8783 326.466C18.8783 328.235 20.3171 329.674 22.0857 329.674C23.8543 329.674 25.2923 328.235 25.2923 326.466C25.2914 325.616 24.9533 324.801 24.3521 324.2C23.751 323.598 22.9359 323.26 22.0857 323.259Z" fill="#ECA400"/>
<path fill-rule="evenodd" clip-rule="evenodd" d="M21.9791 324.906C21.9865 324.883 22.0008 324.863 22.02 324.849C22.0391 324.835 22.0623 324.828 22.086 324.828C22.1097 324.828 22.1329 324.835 22.1521 324.849C22.1713 324.863 22.1855 324.883 22.1929 324.906C22.303 325.245 22.4675 325.751 22.53 325.943C22.5372 325.965 22.5514 325.985 22.5706 325.999C22.5898 326.013 22.6129 326.02 22.6366 326.02H23.727C23.7507 326.02 23.7737 326.028 23.7929 326.042C23.8121 326.055 23.8265 326.075 23.834 326.097C23.8414 326.12 23.8416 326.144 23.8345 326.167C23.8274 326.189 23.8134 326.209 23.7944 326.223L22.9123 326.864C22.8932 326.878 22.879 326.897 22.8717 326.919C22.8643 326.942 22.8642 326.966 22.8713 326.989C22.9337 327.181 23.0983 327.686 23.2084 328.026C23.2155 328.048 23.2153 328.072 23.2079 328.095C23.2005 328.117 23.1862 328.137 23.167 328.15C23.1478 328.164 23.1248 328.172 23.1012 328.172C23.0775 328.172 23.0545 328.164 23.0354 328.15L22.1532 327.509C22.1339 327.496 22.1108 327.488 22.0871 327.488C22.0634 327.488 22.0403 327.496 22.0211 327.509L21.1377 328.153C21.1185 328.167 21.0955 328.174 21.0719 328.174C21.0484 328.174 21.0254 328.166 21.0063 328.153C20.9872 328.139 20.9729 328.119 20.9654 328.097C20.958 328.075 20.9578 328.051 20.9649 328.028C21.075 327.689 21.2395 327.183 21.3017 326.991C21.3088 326.969 21.3087 326.944 21.3014 326.922C21.2941 326.9 21.28 326.88 21.261 326.866L20.3788 326.223C20.3596 326.209 20.3454 326.189 20.338 326.167C20.3307 326.144 20.3307 326.12 20.338 326.097C20.3453 326.075 20.3596 326.055 20.3788 326.041C20.3979 326.027 20.421 326.02 20.4447 326.02H21.5352C21.5589 326.02 21.5821 326.012 21.6013 325.998C21.6205 325.984 21.6348 325.964 21.642 325.942C21.7045 325.751 21.869 325.245 21.9791 324.906Z" fill="#FBCB22"/>
<path d="M18.1953 327.905C18.151 327.905 18.1077 327.892 18.0708 327.868C18.0339 327.843 18.005 327.809 17.9878 327.768C17.0048 325.455 17.1074 323.264 17.1121 323.173C17.1138 323.144 17.1212 323.115 17.134 323.088C17.1468 323.062 17.1647 323.038 17.1868 323.018C17.2088 322.998 17.2345 322.983 17.2624 322.973C17.2903 322.964 17.3198 322.959 17.3493 322.961C17.3788 322.963 17.4077 322.97 17.4344 322.983C17.461 322.996 17.4849 323.014 17.5046 323.036C17.5243 323.058 17.5395 323.083 17.5493 323.111C17.559 323.139 17.5632 323.169 17.5616 323.198C17.5616 323.227 17.4629 325.384 18.4021 327.593C18.4168 327.627 18.4228 327.665 18.4195 327.702C18.4162 327.739 18.4037 327.775 18.3832 327.806C18.3626 327.837 18.3346 327.862 18.3017 327.88C18.2689 327.898 18.2321 327.907 18.1948 327.907L18.1953 327.905Z" fill="#FEEDB4"/>
<path d="M19.2076 329.686C19.1725 329.687 19.1377 329.678 19.1063 329.663C19.0749 329.647 19.0476 329.624 19.0266 329.596C18.7873 329.273 18.571 328.933 18.3794 328.58C18.3509 328.527 18.3444 328.465 18.3613 328.408C18.3783 328.351 18.4174 328.302 18.4699 328.274C18.5225 328.245 18.5842 328.239 18.6415 328.256C18.6989 328.273 18.7471 328.312 18.7757 328.364C18.9572 328.699 19.162 329.021 19.3887 329.327C19.4138 329.36 19.4291 329.4 19.4329 329.442C19.4366 329.483 19.4287 329.525 19.4099 329.563C19.3911 329.6 19.3622 329.631 19.3265 329.653C19.2908 329.675 19.2497 329.687 19.2079 329.686H19.2076Z" fill="#FEEDB4"/>
<path fill-rule="evenodd" clip-rule="evenodd" d="M28.0982 321.619C28.0982 321.538 28.0821 321.458 28.051 321.382C28.0198 321.307 27.9742 321.239 27.9166 321.181C27.8591 321.124 27.7908 321.078 27.7156 321.047C27.6404 321.016 27.5598 321 27.4784 321H16.6935C16.6121 321 16.5315 321.016 16.4563 321.047C16.3811 321.078 16.3128 321.124 16.2553 321.181C16.1977 321.239 16.1521 321.307 16.1209 321.382C16.0898 321.458 16.0737 321.538 16.0737 321.619C16.0737 321.784 16.139 321.942 16.2553 322.058C16.3715 322.174 16.5291 322.239 16.6935 322.239H27.4784C27.6428 322.239 27.8004 322.174 27.9166 322.058C28.0329 321.942 28.0982 321.784 28.0982 321.619Z" fill="#FEEDB4"/>
<path d="M27.161 321.728H17.0732C17.059 321.728 17.045 321.726 17.0319 321.72C17.0188 321.715 17.0069 321.707 16.9969 321.697C16.9869 321.687 16.979 321.675 16.9735 321.662C16.9681 321.649 16.9653 321.635 16.9653 321.621C16.9653 321.606 16.9681 321.592 16.9735 321.579C16.979 321.566 16.9869 321.554 16.9969 321.544C17.0069 321.534 17.0188 321.526 17.0319 321.521C17.045 321.515 17.059 321.513 17.0732 321.513H27.161C27.1896 321.513 27.217 321.524 27.2372 321.544C27.2575 321.564 27.2688 321.592 27.2688 321.621C27.2688 321.649 27.2575 321.677 27.2372 321.697C27.217 321.717 27.1896 321.728 27.161 321.728Z" fill="#FBCB22"/>
</g>
<path d="M22 104.5C33.8741 104.5 43.5 114.126 43.5 126C43.5 137.874 33.8741 147.5 22 147.5C10.1259 147.5 0.5 137.874 0.499999 126C0.499999 114.126 10.1259 104.5 22 104.5Z" stroke="#0DCBE5"/>
<ellipse cx="22" cy="126" rx="16" ry="16" transform="rotate(-90 22 126)" fill="#0DCBE5"/>
<ellipse cx="22" cy="228" rx="16" ry="16" transform="rotate(-90 22 228)" fill="#0DCBE5"/>
<path d="M22 0.500003C33.8741 0.500002 43.5 10.1259 43.5 22C43.5 33.8741 33.8741 43.5 22 43.5C10.1259 43.5 0.5 33.8741 0.499999 22C0.499999 10.1259 10.1259 0.500003 22 0.500003Z" stroke="#0DCBE5"/>
<path d="M22.132 16.246H23.734V28H21.61V18.784C21.292 18.928 20.98 19.039 20.674 19.117C20.368 19.195 20.062 19.234 19.756 19.234V17.2C20.164 17.158 20.56 17.065 20.944 16.921C21.328 16.771 21.724 16.546 22.132 16.246Z" fill="white"/>
<ellipse cx="22" cy="22" rx="16" ry="16" transform="rotate(-90 22 22)" fill="#0DCBE5"/>
<path d="M16 21.4737L20.1053 25.5789L28 18" stroke="white" stroke-width="2" stroke-linecap="round" stroke-linejoin="round"/>
<path d="M16 125.474L20.1053 129.579L28 122" stroke="white" stroke-width="2" stroke-linecap="round" stroke-linejoin="round"/>
<path d="M16 227.474L20.1053 231.579L28 224" stroke="white" stroke-width="2" stroke-linecap="round" stroke-linejoin="round"/>
<path d="M64.785 27.21C64.11 27.21 63.4875 27.0925 62.9175 26.8575C62.3525 26.6225 61.8925 26.265 61.5375 25.785C61.1875 25.305 61 24.695 60.975 23.955H62.715C62.715 24.33 62.8075 24.6375 62.9925 24.8775C63.1775 25.1175 63.425 25.2975 63.735 25.4175C64.05 25.5325 64.395 25.59 64.77 25.59C65.13 25.59 65.45 25.5425 65.73 25.4475C66.015 25.3525 66.2375 25.2175 66.3975 25.0425C66.5625 24.8625 66.645 24.65 66.645 24.405C66.645 24.08 66.545 23.825 66.345 23.64C66.15 23.455 65.835 23.285 65.4 23.13L63.48 22.365C62.73 22.07 62.155 21.7275 61.755 21.3375C61.355 20.9475 61.155 20.41 61.155 19.725C61.155 18.935 61.4675 18.295 62.0925 17.805C62.7175 17.315 63.59 17.07 64.71 17.07C65.8 17.07 66.6425 17.325 67.2375 17.835C67.8325 18.34 68.17 19.045 68.25 19.95H66.51C66.445 19.565 66.27 19.2575 65.985 19.0275C65.7 18.7925 65.275 18.675 64.71 18.675C64.21 18.675 63.815 18.78 63.525 18.99C63.235 19.195 63.09 19.455 63.09 19.77C63.09 20.04 63.18 20.255 63.36 20.415C63.545 20.57 63.83 20.72 64.215 20.865L66.345 21.69C67.065 21.97 67.6175 22.3225 68.0025 22.7475C68.3875 23.1725 68.58 23.705 68.58 24.345C68.58 24.93 68.4325 25.4375 68.1375 25.8675C67.8425 26.2925 67.4125 26.6225 66.8475 26.8575C66.2825 27.0925 65.595 27.21 64.785 27.21ZM73.6754 27.21C73.0554 27.21 72.4879 27.05 71.9729 26.73C71.4579 26.41 71.0454 25.9625 70.7354 25.3875C70.4254 24.8075 70.2704 24.13 70.2704 23.355C70.2704 22.555 70.4229 21.8675 70.7279 21.2925C71.0379 20.7175 71.4504 20.2775 71.9654 19.9725C72.4804 19.6675 73.0504 19.515 73.6754 19.515C74.2554 19.515 74.7554 19.6325 75.1754 19.8675C75.6004 20.0975 75.9404 20.4125 76.1954 20.8125C76.4554 21.2075 76.6304 21.655 76.7204 22.155C76.8104 22.655 76.8154 23.17 76.7354 23.7H71.6804V22.74H75.4829L75.1379 22.965C75.1529 22.73 75.1404 22.4925 75.1004 22.2525C75.0654 22.0125 74.9954 21.7925 74.8904 21.5925C74.7854 21.3925 74.6354 21.2325 74.4404 21.1125C74.2504 20.9875 74.0054 20.925 73.7054 20.925C73.3454 20.925 73.0404 21.015 72.7904 21.195C72.5404 21.375 72.3504 21.62 72.2204 21.93C72.0904 22.24 72.0254 22.59 72.0254 22.98V23.685C72.0254 24.095 72.0854 24.4575 72.2054 24.7725C72.3304 25.0875 72.5129 25.335 72.7529 25.515C72.9979 25.695 73.3054 25.785 73.6754 25.785C74.0204 25.785 74.3104 25.705 74.5454 25.545C74.7804 25.385 74.9304 25.145 74.9954 24.825H76.7804C76.7054 25.295 76.5279 25.71 76.2479 26.07C75.9729 26.425 75.6154 26.705 75.1754 26.91C74.7354 27.11 74.2354 27.21 73.6754 27.21ZM78.9145 27V16.71H80.6845V27H78.9145ZM86.1998 27.21C85.5798 27.21 85.0123 27.05 84.4973 26.73C83.9823 26.41 83.5698 25.9625 83.2598 25.3875C82.9498 24.8075 82.7948 24.13 82.7948 23.355C82.7948 22.555 82.9473 21.8675 83.2523 21.2925C83.5623 20.7175 83.9748 20.2775 84.4898 19.9725C85.0048 19.6675 85.5748 19.515 86.1998 19.515C86.7798 19.515 87.2798 19.6325 87.6998 19.8675C88.1248 20.0975 88.4648 20.4125 88.7198 20.8125C88.9798 21.2075 89.1548 21.655 89.2448 22.155C89.3348 22.655 89.3398 23.17 89.2598 23.7H84.2048V22.74H88.0073L87.6623 22.965C87.6773 22.73 87.6648 22.4925 87.6248 22.2525C87.5898 22.0125 87.5198 21.7925 87.4148 21.5925C87.3098 21.3925 87.1598 21.2325 86.9648 21.1125C86.7748 20.9875 86.5298 20.925 86.2298 20.925C85.8698 20.925 85.5648 21.015 85.3148 21.195C85.0648 21.375 84.8748 21.62 84.7448 21.93C84.6148 22.24 84.5498 22.59 84.5498 22.98V23.685C84.5498 24.095 84.6098 24.4575 84.7298 24.7725C84.8548 25.0875 85.0373 25.335 85.2773 25.515C85.5223 25.695 85.8298 25.785 86.1998 25.785C86.5448 25.785 86.8348 25.705 87.0698 25.545C87.3048 25.385 87.4548 25.145 87.5198 24.825H89.3048C89.2298 25.295 89.0523 25.71 88.7723 26.07C88.4973 26.425 88.1398 26.705 87.6998 26.91C87.2598 27.11 86.7598 27.21 86.1998 27.21ZM94.1989 27.21C93.5889 27.21 93.0214 27.0525 92.4964 26.7375C91.9764 26.4175 91.5539 25.97 91.2289 25.395C90.9089 24.815 90.7489 24.135 90.7489 23.355C90.7489 22.53 90.9089 21.8325 91.2289 21.2625C91.5539 20.6875 91.9764 20.2525 92.4964 19.9575C93.0214 19.6625 93.5889 19.515 94.1989 19.515C94.6739 19.515 95.0914 19.5925 95.4514 19.7475C95.8164 19.8975 96.1264 20.1025 96.3814 20.3625C96.6364 20.6175 96.8364 20.9025 96.9814 21.2175C97.1264 21.5325 97.2189 21.85 97.2589 22.17L95.4739 22.215C95.3939 21.895 95.2439 21.63 95.0239 21.42C94.8089 21.21 94.5289 21.105 94.1839 21.105C93.8989 21.105 93.6314 21.185 93.3814 21.345C93.1314 21.5 92.9264 21.7425 92.7664 22.0725C92.6114 22.4025 92.5339 22.83 92.5339 23.355C92.5339 23.855 92.6064 24.2725 92.7514 24.6075C92.9014 24.9375 93.1014 25.1875 93.3514 25.3575C93.6014 25.5225 93.8789 25.605 94.1839 25.605C94.6339 25.605 94.9614 25.4975 95.1664 25.2825C95.3714 25.0625 95.4739 24.77 95.4739 24.405H97.2589C97.2589 24.92 97.1414 25.39 96.9064 25.815C96.6714 26.24 96.3264 26.58 95.8714 26.835C95.4164 27.085 94.8589 27.21 94.1989 27.21ZM101.838 27.21C101.408 27.21 101.013 27.13 100.653 26.97C100.298 26.81 100.013 26.565 99.7984 26.235C99.5884 25.905 99.4834 25.485 99.4834 24.975V17.79H101.253V24.915C101.253 25.515 101.538 25.815 102.108 25.815C102.283 25.815 102.458 25.795 102.633 25.755C102.808 25.715 103.008 25.655 103.233 25.575L103.488 26.82C103.208 26.93 102.936 27.0225 102.671 27.0975C102.406 27.1725 102.128 27.21 101.838 27.21ZM98.4634 20.895V19.725H103.233V20.895H98.4634ZM112.63 27.21C111.775 27.21 111.03 27.0075 110.395 26.6025C109.765 26.1925 109.275 25.6075 108.925 24.8475C108.575 24.0875 108.4 23.175 108.4 22.11C108.4 21.01 108.58 20.0875 108.94 19.3425C109.305 18.5925 109.805 18.0275 110.44 17.6475C111.08 17.2625 111.81 17.07 112.63 17.07C113.765 17.07 114.65 17.345 115.285 17.895C115.925 18.445 116.335 19.16 116.515 20.04L114.625 20.385C114.47 19.875 114.223 19.4625 113.883 19.1475C113.543 18.8325 113.125 18.675 112.63 18.675C112.195 18.675 111.803 18.8025 111.453 19.0575C111.103 19.3075 110.823 19.6875 110.613 20.1975C110.408 20.7075 110.305 21.345 110.305 22.11C110.305 22.83 110.395 23.45 110.575 23.97C110.76 24.49 111.025 24.89 111.37 25.17C111.715 25.45 112.135 25.59 112.63 25.59C113.265 25.59 113.755 25.4225 114.1 25.0875C114.45 24.7475 114.625 24.315 114.625 23.79H116.515C116.515 24.515 116.358 25.1325 116.043 25.6425C115.733 26.1475 115.288 26.535 114.708 26.805C114.128 27.075 113.435 27.21 112.63 27.21ZM123.592 27V22.74C123.592 22.2 123.462 21.7925 123.202 21.5175C122.942 21.2425 122.602 21.105 122.182 21.105C121.827 21.105 121.512 21.2025 121.237 21.3975C120.967 21.5925 120.755 21.8875 120.6 22.2825C120.445 22.6725 120.367 23.16 120.367 23.745H119.782C119.782 22.8 119.9 22.015 120.135 21.39C120.37 20.76 120.702 20.29 121.132 19.98C121.562 19.67 122.067 19.515 122.647 19.515C123.247 19.515 123.747 19.65 124.147 19.92C124.552 20.185 124.855 20.56 125.055 21.045C125.26 21.53 125.362 22.095 125.362 22.74V27H123.592ZM118.597 27V16.71H120.367V27H118.597ZM132.578 27L132.353 25.23V22.305C132.353 21.795 132.248 21.4175 132.038 21.1725C131.833 20.9275 131.483 20.805 130.988 20.805C130.703 20.805 130.455 20.8475 130.245 20.9325C130.035 21.0175 129.873 21.14 129.758 21.3C129.648 21.455 129.593 21.645 129.593 21.87H127.658C127.658 21.32 127.79 20.8725 128.055 20.5275C128.32 20.1775 128.7 19.9225 129.195 19.7625C129.695 19.5975 130.293 19.515 130.988 19.515C131.618 19.515 132.168 19.6175 132.638 19.8225C133.108 20.0225 133.473 20.3325 133.733 20.7525C133.993 21.1725 134.123 21.71 134.123 22.365V27H132.578ZM130.193 27.21C129.568 27.21 129.045 27.1025 128.625 26.8875C128.21 26.6675 127.898 26.38 127.688 26.025C127.478 25.67 127.373 25.285 127.373 24.87C127.373 24.41 127.493 24.025 127.733 23.715C127.978 23.4 128.323 23.165 128.768 23.01C129.213 22.85 129.738 22.77 130.343 22.77C130.738 22.77 131.11 22.8 131.46 22.86C131.815 22.92 132.168 23 132.518 23.1V24.135C132.243 24.045 131.943 23.975 131.618 23.925C131.293 23.875 130.988 23.85 130.703 23.85C130.283 23.85 129.938 23.9275 129.668 24.0825C129.398 24.2375 129.263 24.5 129.263 24.87C129.263 25.14 129.373 25.3725 129.593 25.5675C129.813 25.7625 130.163 25.86 130.643 25.86C131.008 25.86 131.318 25.78 131.573 25.62C131.828 25.46 132.02 25.26 132.15 25.02C132.285 24.78 132.353 24.54 132.353 24.3H132.773C132.773 24.825 132.675 25.31 132.48 25.755C132.285 26.195 131.995 26.5475 131.61 26.8125C131.23 27.0775 130.758 27.21 130.193 27.21ZM141.712 27V22.74C141.712 22.2 141.582 21.7925 141.322 21.5175C141.062 21.2425 140.722 21.105 140.302 21.105C139.947 21.105 139.632 21.2025 139.357 21.3975C139.087 21.5925 138.875 21.8875 138.72 22.2825C138.565 22.6725 138.487 23.16 138.487 23.745H137.902C137.902 22.8 138.02 22.015 138.255 21.39C138.49 20.76 138.822 20.29 139.252 19.98C139.682 19.67 140.187 19.515 140.767 19.515C141.367 19.515 141.867 19.65 142.267 19.92C142.672 20.185 142.975 20.56 143.175 21.045C143.38 21.53 143.482 22.095 143.482 22.74V27H141.712ZM136.717 27V19.725H138.262L138.487 21.165V27H136.717ZM151.058 27V22.74C151.058 22.2 150.928 21.7925 150.668 21.5175C150.408 21.2425 150.068 21.105 149.648 21.105C149.293 21.105 148.978 21.2025 148.703 21.3975C148.433 21.5925 148.22 21.8875 148.065 22.2825C147.91 22.6725 147.833 23.16 147.833 23.745H147.248C147.248 22.8 147.365 22.015 147.6 21.39C147.835 20.76 148.168 20.29 148.598 19.98C149.028 19.67 149.533 19.515 150.113 19.515C150.713 19.515 151.213 19.65 151.613 19.92C152.018 20.185 152.32 20.56 152.52 21.045C152.725 21.53 152.828 22.095 152.828 22.74V27H151.058ZM146.063 27V19.725H147.608L147.833 21.165V27H146.063ZM158.124 27.21C157.504 27.21 156.936 27.05 156.421 26.73C155.906 26.41 155.494 25.9625 155.184 25.3875C154.874 24.8075 154.719 24.13 154.719 23.355C154.719 22.555 154.871 21.8675 155.176 21.2925C155.486 20.7175 155.899 20.2775 156.414 19.9725C156.929 19.6675 157.499 19.515 158.124 19.515C158.704 19.515 159.204 19.6325 159.624 19.8675C160.049 20.0975 160.389 20.4125 160.644 20.8125C160.904 21.2075 161.079 21.655 161.169 22.155C161.259 22.655 161.264 23.17 161.184 23.7H156.129V22.74H159.931L159.586 22.965C159.601 22.73 159.589 22.4925 159.549 22.2525C159.514 22.0125 159.444 21.7925 159.339 21.5925C159.234 21.3925 159.084 21.2325 158.889 21.1125C158.699 20.9875 158.454 20.925 158.154 20.925C157.794 20.925 157.489 21.015 157.239 21.195C156.989 21.375 156.799 21.62 156.669 21.93C156.539 22.24 156.474 22.59 156.474 22.98V23.685C156.474 24.095 156.534 24.4575 156.654 24.7725C156.779 25.0875 156.961 25.335 157.201 25.515C157.446 25.695 157.754 25.785 158.124 25.785C158.469 25.785 158.759 25.705 158.994 25.545C159.229 25.385 159.379 25.145 159.444 24.825H161.229C161.154 25.295 160.976 25.71 160.696 26.07C160.421 26.425 160.064 26.705 159.624 26.91C159.184 27.11 158.684 27.21 158.124 27.21ZM163.363 27V16.71H165.133V27H163.363Z" fill="white"/>
<path d="M61.395 131V121.265H64.995C66.16 121.265 67.0525 121.537 67.6725 122.082C68.2975 122.627 68.61 123.35 68.61 124.25C68.61 125.135 68.2975 125.85 67.6725 126.395C67.0525 126.935 66.16 127.205 64.995 127.205H63.165V131H61.395ZM66.66 131L64.08 126.44H65.97L68.97 131H66.66ZM63.165 126.02H64.815C65.465 126.02 65.9575 125.872 66.2925 125.577C66.6275 125.277 66.795 124.89 66.795 124.415C66.795 123.93 66.6425 123.54 66.3375 123.245C66.0325 122.945 65.585 122.795 64.995 122.795H63.165V126.02ZM73.7633 131.21C73.1433 131.21 72.5758 131.05 72.0608 130.73C71.5458 130.41 71.1333 129.962 70.8233 129.387C70.5133 128.807 70.3583 128.13 70.3583 127.355C70.3583 126.555 70.5108 125.867 70.8158 125.292C71.1258 124.717 71.5383 124.277 72.0533 123.972C72.5683 123.667 73.1383 123.515 73.7633 123.515C74.3433 123.515 74.8433 123.632 75.2633 123.867C75.6883 124.097 76.0283 124.412 76.2833 124.812C76.5433 125.207 76.7183 125.655 76.8083 126.155C76.8983 126.655 76.9033 127.17 76.8233 127.7H71.7683V126.74H75.5708L75.2258 126.965C75.2408 126.73 75.2283 126.492 75.1883 126.252C75.1533 126.012 75.0833 125.792 74.9783 125.592C74.8733 125.392 74.7233 125.232 74.5283 125.112C74.3383 124.987 74.0933 124.925 73.7933 124.925C73.4333 124.925 73.1283 125.015 72.8783 125.195C72.6283 125.375 72.4383 125.62 72.3083 125.93C72.1783 126.24 72.1133 126.59 72.1133 126.98V127.685C72.1133 128.095 72.1733 128.457 72.2933 128.772C72.4183 129.087 72.6008 129.335 72.8408 129.515C73.0858 129.695 73.3933 129.785 73.7633 129.785C74.1083 129.785 74.3983 129.705 74.6333 129.545C74.8683 129.385 75.0183 129.145 75.0833 128.825H76.8683C76.7933 129.295 76.6158 129.71 76.3358 130.07C76.0608 130.425 75.7033 130.705 75.2633 130.91C74.8233 131.11 74.3233 131.21 73.7633 131.21ZM81.7174 131.21C81.1224 131.21 80.5649 131.058 80.0449 130.753C79.5299 130.447 79.1124 130.007 78.7924 129.432C78.4724 128.857 78.3124 128.165 78.3124 127.355C78.3124 126.55 78.4699 125.862 78.7849 125.292C79.0999 124.717 79.5099 124.277 80.0149 123.972C80.5199 123.667 81.0574 123.515 81.6274 123.515C82.0974 123.515 82.5299 123.632 82.9249 123.867C83.3199 124.102 83.6374 124.465 83.8774 124.955C84.1174 125.44 84.2374 126.065 84.2374 126.83H83.5774C83.5774 126.465 83.5024 126.155 83.3524 125.9C83.2074 125.64 83.0099 125.442 82.7599 125.307C82.5149 125.172 82.2424 125.105 81.9424 125.105C81.5874 125.105 81.2699 125.195 80.9899 125.375C80.7149 125.555 80.4974 125.815 80.3374 126.155C80.1774 126.49 80.0974 126.89 80.0974 127.355C80.0974 127.865 80.1899 128.287 80.3749 128.622C80.5649 128.952 80.8024 129.2 81.0874 129.365C81.3774 129.525 81.6724 129.605 81.9724 129.605C82.2474 129.605 82.5074 129.545 82.7524 129.425C82.9974 129.3 83.1949 129.122 83.3449 128.892C83.4999 128.662 83.5774 128.385 83.5774 128.06H83.9224C83.9224 128.68 83.8499 129.227 83.7049 129.702C83.5599 130.172 83.3249 130.542 82.9999 130.812C82.6799 131.078 82.2524 131.21 81.7174 131.21ZM85.8424 134.765C85.0274 134.56 84.4449 134.24 84.0949 133.805C83.7499 133.37 83.5774 132.765 83.5774 131.99V125.525L84.2074 123.725H85.3474V132.125C85.3474 132.42 85.3774 132.65 85.4374 132.815C85.4974 132.985 85.5999 133.118 85.7449 133.213C85.8949 133.308 86.0974 133.395 86.3524 133.475L85.8424 134.765ZM93.0027 123.695H94.7727V131H93.0027V123.695ZM88.0077 123.695H89.7777V128.165C89.7777 128.64 89.8952 128.997 90.1302 129.237C90.3652 129.472 90.6877 129.59 91.0977 129.59C91.4477 129.59 91.7652 129.5 92.0502 129.32C92.3402 129.135 92.5702 128.865 92.7402 128.51C92.9152 128.15 93.0027 127.705 93.0027 127.175H93.4827C93.4827 128.065 93.3677 128.802 93.1377 129.387C92.9077 129.972 92.5902 130.41 92.1852 130.7C91.7802 130.99 91.3127 131.135 90.7827 131.135C90.2627 131.135 89.7927 131.043 89.3727 130.857C88.9527 130.672 88.6202 130.375 88.3752 129.965C88.1302 129.555 88.0077 129.015 88.0077 128.345V123.695ZM100.277 131.21C99.657 131.21 99.0895 131.05 98.5745 130.73C98.0595 130.41 97.647 129.962 97.337 129.387C97.027 128.807 96.872 128.13 96.872 127.355C96.872 126.555 97.0245 125.867 97.3295 125.292C97.6395 124.717 98.052 124.277 98.567 123.972C99.082 123.667 99.652 123.515 100.277 123.515C100.857 123.515 101.357 123.632 101.777 123.867C102.202 124.097 102.542 124.412 102.797 124.812C103.057 125.207 103.232 125.655 103.322 126.155C103.412 126.655 103.417 127.17 103.337 127.7H98.282V126.74H102.084L101.739 126.965C101.754 126.73 101.742 126.492 101.702 126.252C101.667 126.012 101.597 125.792 101.492 125.592C101.387 125.392 101.237 125.232 101.042 125.112C100.852 124.987 100.607 124.925 100.307 124.925C99.947 124.925 99.642 125.015 99.392 125.195C99.142 125.375 98.952 125.62 98.822 125.93C98.692 126.24 98.627 126.59 98.627 126.98V127.685C98.627 128.095 98.687 128.457 98.807 128.772C98.932 129.087 99.1145 129.335 99.3545 129.515C99.5995 129.695 99.907 129.785 100.277 129.785C100.622 129.785 100.912 129.705 101.147 129.545C101.382 129.385 101.532 129.145 101.597 128.825H103.382C103.307 129.295 103.129 129.71 102.849 130.07C102.574 130.425 102.217 130.705 101.777 130.91C101.337 131.11 100.837 131.21 100.277 131.21ZM108.231 131.21C107.531 131.21 106.929 131.115 106.424 130.925C105.924 130.73 105.539 130.452 105.269 130.092C104.999 129.727 104.861 129.29 104.856 128.78H106.491C106.506 129.14 106.649 129.402 106.919 129.567C107.189 129.732 107.556 129.815 108.021 129.815C108.276 129.815 108.501 129.777 108.696 129.702C108.896 129.627 109.051 129.525 109.161 129.395C109.271 129.265 109.326 129.12 109.326 128.96C109.326 128.755 109.251 128.595 109.101 128.48C108.956 128.36 108.721 128.25 108.396 128.15L106.806 127.58C106.236 127.375 105.799 127.105 105.494 126.77C105.189 126.435 105.036 126.035 105.036 125.57C105.036 124.955 105.314 124.46 105.869 124.085C106.429 123.705 107.176 123.515 108.111 123.515C109.041 123.515 109.759 123.72 110.264 124.13C110.774 124.535 111.036 125.05 111.051 125.675H109.386C109.361 125.435 109.246 125.245 109.041 125.105C108.836 124.965 108.526 124.895 108.111 124.895C107.736 124.895 107.441 124.972 107.226 125.127C107.016 125.277 106.911 125.455 106.911 125.66C106.911 126.005 107.206 126.265 107.796 126.44L109.521 127.085C110.081 127.275 110.516 127.52 110.826 127.82C111.136 128.12 111.291 128.5 111.291 128.96C111.291 129.345 111.161 129.71 110.901 130.055C110.646 130.395 110.289 130.672 109.829 130.887C109.369 131.103 108.836 131.21 108.231 131.21ZM115.886 131.21C115.456 131.21 115.061 131.13 114.701 130.97C114.346 130.81 114.061 130.565 113.846 130.235C113.636 129.905 113.531 129.485 113.531 128.975V121.79H115.301V128.915C115.301 129.515 115.586 129.815 116.156 129.815C116.331 129.815 116.506 129.795 116.681 129.755C116.856 129.715 117.056 129.655 117.281 129.575L117.536 130.82C117.256 130.93 116.984 131.023 116.719 131.098C116.454 131.173 116.176 131.21 115.886 131.21ZM112.511 124.895V123.725H117.281V124.895H112.511ZM123.138 131V121.265H124.908V131H123.138ZM127.708 121.265H130.858C131.848 121.265 132.716 121.465 133.461 121.865C134.206 122.26 134.786 122.822 135.201 123.552C135.616 124.282 135.823 125.145 135.823 126.14C135.823 127.125 135.616 127.982 135.201 128.712C134.786 129.437 134.206 130 133.461 130.4C132.716 130.8 131.848 131 130.858 131H127.708V121.265ZM129.478 122.87V129.41H130.858C131.488 129.41 132.031 129.267 132.486 128.982C132.946 128.697 133.298 128.31 133.543 127.82C133.793 127.325 133.918 126.765 133.918 126.14C133.918 125.505 133.793 124.942 133.543 124.452C133.298 123.962 132.946 123.577 132.486 123.297C132.031 123.012 131.488 122.87 130.858 122.87H129.478Z" fill="white"/>
<path d="M60.33 233L63.645 223.265H65.865L69.045 233H67.185L66.51 230.9H62.895L62.205 233H60.33ZM63.345 229.565H66.09L64.725 225.38L63.345 229.565ZM73.5446 233.21C72.9346 233.21 72.3671 233.053 71.8421 232.737C71.3221 232.417 70.8996 231.97 70.5746 231.395C70.2546 230.815 70.0946 230.135 70.0946 229.355C70.0946 228.53 70.2546 227.832 70.5746 227.262C70.8996 226.687 71.3221 226.252 71.8421 225.957C72.3671 225.662 72.9346 225.515 73.5446 225.515C74.0196 225.515 74.4371 225.592 74.7971 225.747C75.1621 225.897 75.4721 226.102 75.7271 226.362C75.9821 226.617 76.1821 226.902 76.3271 227.217C76.4721 227.532 76.5646 227.85 76.6046 228.17L74.8196 228.215C74.7396 227.895 74.5896 227.63 74.3696 227.42C74.1546 227.21 73.8746 227.105 73.5296 227.105C73.2446 227.105 72.9771 227.185 72.7271 227.345C72.4771 227.5 72.2721 227.742 72.1121 228.072C71.9571 228.402 71.8796 228.83 71.8796 229.355C71.8796 229.855 71.9521 230.272 72.0971 230.607C72.2471 230.937 72.4471 231.187 72.6971 231.357C72.9471 231.522 73.2246 231.605 73.5296 231.605C73.9796 231.605 74.3071 231.497 74.5121 231.282C74.7171 231.062 74.8196 230.77 74.8196 230.405H76.6046C76.6046 230.92 76.4871 231.39 76.2521 231.815C76.0171 232.24 75.6721 232.58 75.2171 232.835C74.7621 233.085 74.2046 233.21 73.5446 233.21ZM81.4841 233.21C80.8741 233.21 80.3066 233.053 79.7816 232.737C79.2616 232.417 78.8391 231.97 78.5141 231.395C78.1941 230.815 78.0341 230.135 78.0341 229.355C78.0341 228.53 78.1941 227.832 78.5141 227.262C78.8391 226.687 79.2616 226.252 79.7816 225.957C80.3066 225.662 80.8741 225.515 81.4841 225.515C81.9591 225.515 82.3766 225.592 82.7366 225.747C83.1016 225.897 83.4116 226.102 83.6666 226.362C83.9216 226.617 84.1216 226.902 84.2666 227.217C84.4116 227.532 84.5041 227.85 84.5441 228.17L82.7591 228.215C82.6791 227.895 82.5291 227.63 82.3091 227.42C82.0941 227.21 81.8141 227.105 81.4691 227.105C81.1841 227.105 80.9166 227.185 80.6666 227.345C80.4166 227.5 80.2116 227.742 80.0516 228.072C79.8966 228.402 79.8191 228.83 79.8191 229.355C79.8191 229.855 79.8916 230.272 80.0366 230.607C80.1866 230.937 80.3866 231.187 80.6366 231.357C80.8866 231.522 81.1641 231.605 81.4691 231.605C81.9191 231.605 82.2466 231.497 82.4516 231.282C82.6566 231.062 82.7591 230.77 82.7591 230.405H84.5441C84.5441 230.92 84.4266 231.39 84.1916 231.815C83.9566 232.24 83.6116 232.58 83.1566 232.835C82.7016 233.085 82.1441 233.21 81.4841 233.21ZM89.5286 233.21C88.8636 233.21 88.2611 233.068 87.7211 232.782C87.1861 232.497 86.7611 232.072 86.4461 231.507C86.1311 230.937 85.9736 230.225 85.9736 229.37C85.9736 228.5 86.1311 227.78 86.4461 227.21C86.7611 226.64 87.1861 226.215 87.7211 225.935C88.2611 225.655 88.8636 225.515 89.5286 225.515C90.1836 225.515 90.7761 225.655 91.3061 225.935C91.8411 226.215 92.2661 226.64 92.5811 227.21C92.8961 227.78 93.0536 228.5 93.0536 229.37C93.0536 230.225 92.8961 230.937 92.5811 231.507C92.2661 232.072 91.8411 232.497 91.3061 232.782C90.7761 233.068 90.1836 233.21 89.5286 233.21ZM89.4686 231.665C89.8186 231.665 90.1286 231.58 90.3986 231.41C90.6736 231.235 90.8886 230.977 91.0436 230.637C91.2036 230.297 91.2836 229.875 91.2836 229.37C91.2836 228.6 91.1311 228.02 90.8261 227.63C90.5261 227.24 90.1136 227.045 89.5886 227.045C89.2336 227.045 88.9186 227.132 88.6436 227.307C88.3686 227.477 88.1511 227.735 87.9911 228.08C87.8361 228.425 87.7586 228.855 87.7586 229.37C87.7586 230.13 87.9111 230.702 88.2161 231.087C88.5261 231.472 88.9436 231.665 89.4686 231.665ZM100.005 225.695H101.775V233H100.005V225.695ZM95.0096 225.695H96.7796V230.165C96.7796 230.64 96.8971 230.997 97.1321 231.237C97.3671 231.472 97.6896 231.59 98.0996 231.59C98.4496 231.59 98.7671 231.5 99.0521 231.32C99.3421 231.135 99.5721 230.865 99.7421 230.51C99.9171 230.15 100.005 229.705 100.005 229.175H100.485C100.485 230.065 100.37 230.802 100.14 231.387C99.9096 231.972 99.5921 232.41 99.1871 232.7C98.7821 232.99 98.3146 233.135 97.7846 233.135C97.2646 233.135 96.7946 233.043 96.3746 232.857C95.9546 232.672 95.6221 232.375 95.3771 231.965C95.1321 231.555 95.0096 231.015 95.0096 230.345V225.695ZM109.559 233V228.74C109.559 228.2 109.429 227.792 109.169 227.517C108.909 227.242 108.569 227.105 108.149 227.105C107.794 227.105 107.479 227.202 107.204 227.397C106.934 227.592 106.721 227.887 106.566 228.282C106.411 228.672 106.334 229.16 106.334 229.745H105.749C105.749 228.8 105.866 228.015 106.101 227.39C106.336 226.76 106.669 226.29 107.099 225.98C107.529 225.67 108.034 225.515 108.614 225.515C109.214 225.515 109.714 225.65 110.114 225.92C110.519 226.185 110.821 226.56 111.021 227.045C111.226 227.53 111.329 228.095 111.329 228.74V233H109.559ZM104.564 233V225.725H106.109L106.334 227.165V233H104.564ZM116.37 233.21C115.94 233.21 115.545 233.13 115.185 232.97C114.83 232.81 114.545 232.565 114.33 232.235C114.12 231.905 114.015 231.485 114.015 230.975V223.79H115.785V230.915C115.785 231.515 116.07 231.815 116.64 231.815C116.815 231.815 116.99 231.795 117.165 231.755C117.34 231.715 117.54 231.655 117.765 231.575L118.02 232.82C117.74 232.93 117.467 233.023 117.202 233.098C116.937 233.173 116.66 233.21 116.37 233.21ZM112.995 226.895V225.725H117.765V226.895H112.995ZM127.012 233.21C126.337 233.21 125.714 233.093 125.144 232.857C124.579 232.622 124.119 232.265 123.764 231.785C123.414 231.305 123.227 230.695 123.202 229.955H124.942C124.942 230.33 125.034 230.637 125.219 230.877C125.404 231.117 125.652 231.297 125.962 231.417C126.277 231.532 126.622 231.59 126.997 231.59C127.357 231.59 127.677 231.542 127.957 231.447C128.242 231.352 128.464 231.217 128.624 231.042C128.789 230.862 128.872 230.65 128.872 230.405C128.872 230.08 128.772 229.825 128.572 229.64C128.377 229.455 128.062 229.285 127.627 229.13L125.707 228.365C124.957 228.07 124.382 227.727 123.982 227.337C123.582 226.947 123.382 226.41 123.382 225.725C123.382 224.935 123.694 224.295 124.319 223.805C124.944 223.315 125.817 223.07 126.937 223.07C128.027 223.07 128.869 223.325 129.464 223.835C130.059 224.34 130.397 225.045 130.477 225.95H128.737C128.672 225.565 128.497 225.257 128.212 225.027C127.927 224.792 127.502 224.675 126.937 224.675C126.437 224.675 126.042 224.78 125.752 224.99C125.462 225.195 125.317 225.455 125.317 225.77C125.317 226.04 125.407 226.255 125.587 226.415C125.772 226.57 126.057 226.72 126.442 226.865L128.572 227.69C129.292 227.97 129.844 228.322 130.229 228.747C130.614 229.172 130.807 229.705 130.807 230.345C130.807 230.93 130.659 231.437 130.364 231.867C130.069 232.292 129.639 232.622 129.074 232.857C128.509 233.093 127.822 233.21 127.012 233.21ZM135.902 233.21C135.282 233.21 134.714 233.05 134.199 232.73C133.684 232.41 133.272 231.962 132.962 231.387C132.652 230.807 132.497 230.13 132.497 229.355C132.497 228.555 132.649 227.867 132.954 227.292C133.264 226.717 133.677 226.277 134.192 225.972C134.707 225.667 135.277 225.515 135.902 225.515C136.482 225.515 136.982 225.632 137.402 225.867C137.827 226.097 138.167 226.412 138.422 226.812C138.682 227.207 138.857 227.655 138.947 228.155C139.037 228.655 139.042 229.17 138.962 229.7H133.907V228.74H137.709L137.364 228.965C137.379 228.73 137.367 228.492 137.327 228.252C137.292 228.012 137.222 227.792 137.117 227.592C137.012 227.392 136.862 227.232 136.667 227.112C136.477 226.987 136.232 226.925 135.932 226.925C135.572 226.925 135.267 227.015 135.017 227.195C134.767 227.375 134.577 227.62 134.447 227.93C134.317 228.24 134.252 228.59 134.252 228.98V229.685C134.252 230.095 134.312 230.457 134.432 230.772C134.557 231.087 134.739 231.335 134.979 231.515C135.224 231.695 135.532 231.785 135.902 231.785C136.247 231.785 136.537 231.705 136.772 231.545C137.007 231.385 137.157 231.145 137.222 230.825H139.007C138.932 231.295 138.754 231.71 138.474 232.07C138.199 232.425 137.842 232.705 137.402 232.91C136.962 233.11 136.462 233.21 135.902 233.21ZM143.601 233.21C143.171 233.21 142.776 233.13 142.416 232.97C142.061 232.81 141.776 232.565 141.561 232.235C141.351 231.905 141.246 231.485 141.246 230.975V223.79H143.016V230.915C143.016 231.515 143.301 231.815 143.871 231.815C144.046 231.815 144.221 231.795 144.396 231.755C144.571 231.715 144.771 231.655 144.996 231.575L145.251 232.82C144.971 232.93 144.699 233.023 144.434 233.098C144.169 233.173 143.891 233.21 143.601 233.21ZM140.226 226.895V225.725H144.996V226.895H140.226ZM151.904 225.695H153.674V233H151.904V225.695ZM146.909 225.695H148.679V230.165C148.679 230.64 148.797 230.997 149.032 231.237C149.267 231.472 149.589 231.59 149.999 231.59C150.349 231.59 150.667 231.5 150.952 231.32C151.242 231.135 151.472 230.865 151.642 230.51C151.817 230.15 151.904 229.705 151.904 229.175H152.384C152.384 230.065 152.269 230.802 152.039 231.387C151.809 231.972 151.492 232.41 151.087 232.7C150.682 232.99 150.214 233.135 149.684 233.135C149.164 233.135 148.694 233.043 148.274 232.857C147.854 232.672 147.522 232.375 147.277 231.965C147.032 231.555 146.909 231.015 146.909 230.345V225.695ZM160.108 233.21C159.573 233.21 159.118 233.095 158.743 232.865C158.368 232.635 158.081 232.287 157.881 231.822C157.686 231.352 157.588 230.765 157.588 230.06H158.233C158.233 230.385 158.308 230.662 158.458 230.892C158.608 231.122 158.806 231.3 159.051 231.425C159.301 231.545 159.568 231.605 159.853 231.605C160.148 231.605 160.438 231.525 160.723 231.365C161.013 231.2 161.253 230.952 161.443 230.622C161.633 230.287 161.728 229.865 161.728 229.355C161.728 228.89 161.648 228.49 161.488 228.155C161.328 227.815 161.108 227.555 160.828 227.375C160.553 227.195 160.238 227.105 159.883 227.105C159.583 227.105 159.308 227.172 159.058 227.307C158.808 227.442 158.608 227.64 158.458 227.9C158.308 228.155 158.233 228.465 158.233 228.83H157.588C157.588 228.065 157.706 227.44 157.941 226.955C158.176 226.465 158.491 226.102 158.886 225.867C159.281 225.632 159.713 225.515 160.183 225.515C160.758 225.515 161.298 225.667 161.803 225.972C162.313 226.277 162.726 226.717 163.041 227.292C163.356 227.862 163.513 228.55 163.513 229.355C163.513 230.165 163.353 230.857 163.033 231.432C162.713 232.007 162.293 232.447 161.773 232.753C161.258 233.058 160.703 233.21 160.108 233.21ZM156.463 236.555V225.725H157.918L158.233 227.525V236.555H156.463Z" fill="white"/>
<path d="M64.95 336.21C64.155 336.21 63.4375 336 62.7975 335.58C62.1575 335.16 61.6475 334.575 61.2675 333.825C60.8925 333.07 60.705 332.19 60.705 331.185C60.705 330.39 60.82 329.677 61.05 329.047C61.285 328.417 61.61 327.88 62.025 327.435C62.44 326.99 62.9275 326.652 63.4875 326.422C64.0475 326.187 64.655 326.07 65.31 326.07C66.22 326.07 66.9825 326.267 67.5975 326.662C68.2175 327.057 68.7 327.68 69.045 328.53L67.23 328.95C66.975 328.535 66.68 328.22 66.345 328.005C66.015 327.785 65.64 327.675 65.22 327.675C64.74 327.675 64.3025 327.817 63.9075 328.102C63.5125 328.382 63.1975 328.785 62.9625 329.31C62.7275 329.835 62.61 330.46 62.61 331.185C62.61 331.865 62.7125 332.46 62.9175 332.97C63.1275 333.48 63.42 333.877 63.795 334.162C64.17 334.447 64.605 334.59 65.1 334.59C65.52 334.59 65.895 334.497 66.225 334.312C66.56 334.122 66.8225 333.852 67.0125 333.502C67.2075 333.152 67.305 332.73 67.305 332.235H67.695C67.695 333.045 67.5975 333.747 67.4025 334.342C67.2125 334.937 66.915 335.397 66.51 335.722C66.105 336.048 65.585 336.21 64.95 336.21ZM67.56 336L67.305 333.855V332.175L65.115 332.13V331.005H69V336H67.56ZM74.4114 336.21C73.7464 336.21 73.1439 336.068 72.6039 335.782C72.0689 335.497 71.6439 335.072 71.3289 334.507C71.0139 333.937 70.8564 333.225 70.8564 332.37C70.8564 331.5 71.0139 330.78 71.3289 330.21C71.6439 329.64 72.0689 329.215 72.6039 328.935C73.1439 328.655 73.7464 328.515 74.4114 328.515C75.0664 328.515 75.6589 328.655 76.1889 328.935C76.7239 329.215 77.1489 329.64 77.4639 330.21C77.7789 330.78 77.9364 331.5 77.9364 332.37C77.9364 333.225 77.7789 333.937 77.4639 334.507C77.1489 335.072 76.7239 335.497 76.1889 335.782C75.6589 336.068 75.0664 336.21 74.4114 336.21ZM74.3514 334.665C74.7014 334.665 75.0114 334.58 75.2814 334.41C75.5564 334.235 75.7714 333.977 75.9264 333.637C76.0864 333.297 76.1664 332.875 76.1664 332.37C76.1664 331.6 76.0139 331.02 75.7089 330.63C75.4089 330.24 74.9964 330.045 74.4714 330.045C74.1164 330.045 73.8014 330.132 73.5264 330.307C73.2514 330.477 73.0339 330.735 72.8739 331.08C72.7189 331.425 72.6414 331.855 72.6414 332.37C72.6414 333.13 72.7939 333.702 73.0989 334.087C73.4089 334.472 73.8264 334.665 74.3514 334.665ZM86.2964 336.21C85.8664 336.21 85.4714 336.13 85.1114 335.97C84.7564 335.81 84.4714 335.565 84.2564 335.235C84.0464 334.905 83.9414 334.485 83.9414 333.975V326.79H85.7114V333.915C85.7114 334.515 85.9964 334.815 86.5664 334.815C86.7414 334.815 86.9164 334.795 87.0914 334.755C87.2664 334.715 87.4664 334.655 87.6914 334.575L87.9464 335.82C87.6664 335.93 87.3939 336.023 87.1289 336.098C86.8639 336.173 86.5864 336.21 86.2964 336.21ZM82.9214 329.895V328.725H87.6914V329.895H82.9214ZM92.6194 336.21C91.9544 336.21 91.3519 336.068 90.8119 335.782C90.2769 335.497 89.8519 335.072 89.5369 334.507C89.2219 333.937 89.0644 333.225 89.0644 332.37C89.0644 331.5 89.2219 330.78 89.5369 330.21C89.8519 329.64 90.2769 329.215 90.8119 328.935C91.3519 328.655 91.9544 328.515 92.6194 328.515C93.2744 328.515 93.8669 328.655 94.3969 328.935C94.9319 329.215 95.3569 329.64 95.6719 330.21C95.9869 330.78 96.1444 331.5 96.1444 332.37C96.1444 333.225 95.9869 333.937 95.6719 334.507C95.3569 335.072 94.9319 335.497 94.3969 335.782C93.8669 336.068 93.2744 336.21 92.6194 336.21ZM92.5594 334.665C92.9094 334.665 93.2194 334.58 93.4894 334.41C93.7644 334.235 93.9794 333.977 94.1344 333.637C94.2944 333.297 94.3744 332.875 94.3744 332.37C94.3744 331.6 94.2219 331.02 93.9169 330.63C93.6169 330.24 93.2044 330.045 92.6794 330.045C92.3244 330.045 92.0094 330.132 91.7344 330.307C91.4594 330.477 91.2419 330.735 91.0819 331.08C90.9269 331.425 90.8494 331.855 90.8494 332.37C90.8494 333.13 91.0019 333.702 91.3069 334.087C91.6169 334.472 92.0344 334.665 92.5594 334.665ZM100.934 328.725H102.944L104.879 334.455H104.564L106.229 328.725H108.029L105.239 337.32C104.954 338.18 104.602 338.803 104.182 339.188C103.767 339.573 103.259 339.765 102.659 339.765C102.314 339.765 101.977 339.725 101.647 339.645C101.322 339.57 100.989 339.45 100.649 339.285V337.725C100.924 337.895 101.189 338.02 101.444 338.1C101.704 338.18 101.964 338.22 102.224 338.22C102.459 338.22 102.664 338.155 102.839 338.025C103.019 337.9 103.174 337.723 103.304 337.493C103.434 337.268 103.544 337.005 103.634 336.705L103.859 336L100.934 328.725ZM112.468 336.21C111.803 336.21 111.201 336.068 110.661 335.782C110.126 335.497 109.701 335.072 109.386 334.507C109.071 333.937 108.913 333.225 108.913 332.37C108.913 331.5 109.071 330.78 109.386 330.21C109.701 329.64 110.126 329.215 110.661 328.935C111.201 328.655 111.803 328.515 112.468 328.515C113.123 328.515 113.716 328.655 114.246 328.935C114.781 329.215 115.206 329.64 115.521 330.21C115.836 330.78 115.993 331.5 115.993 332.37C115.993 333.225 115.836 333.937 115.521 334.507C115.206 335.072 114.781 335.497 114.246 335.782C113.716 336.068 113.123 336.21 112.468 336.21ZM112.408 334.665C112.758 334.665 113.068 334.58 113.338 334.41C113.613 334.235 113.828 333.977 113.983 333.637C114.143 333.297 114.223 332.875 114.223 332.37C114.223 331.6 114.071 331.02 113.766 330.63C113.466 330.24 113.053 330.045 112.528 330.045C112.173 330.045 111.858 330.132 111.583 330.307C111.308 330.477 111.091 330.735 110.931 331.08C110.776 331.425 110.698 331.855 110.698 332.37C110.698 333.13 110.851 333.702 111.156 334.087C111.466 334.472 111.883 334.665 112.408 334.665ZM122.944 328.695H124.714V336H122.944V328.695ZM117.949 328.695H119.719V333.165C119.719 333.64 119.837 333.997 120.072 334.237C120.307 334.472 120.629 334.59 121.039 334.59C121.389 334.59 121.707 334.5 121.992 334.32C122.282 334.135 122.512 333.865 122.682 333.51C122.857 333.15 122.944 332.705 122.944 332.175H123.424C123.424 333.065 123.309 333.802 123.079 334.387C122.849 334.972 122.532 335.41 122.127 335.7C121.722 335.99 121.254 336.135 120.724 336.135C120.204 336.135 119.734 336.043 119.314 335.857C118.894 335.672 118.562 335.375 118.317 334.965C118.072 334.555 117.949 334.015 117.949 333.345V328.695ZM127.503 336V328.695H129.273V336H127.503ZM128.838 332.805C128.838 331.85 128.946 331.06 129.161 330.435C129.376 329.81 129.663 329.347 130.023 329.047C130.388 328.742 130.793 328.59 131.238 328.59C131.358 328.59 131.471 328.597 131.576 328.612C131.686 328.627 131.793 328.65 131.898 328.68L131.868 330.45C131.738 330.42 131.598 330.395 131.448 330.375C131.298 330.355 131.163 330.345 131.043 330.345C130.653 330.345 130.326 330.44 130.061 330.63C129.801 330.815 129.603 331.09 129.468 331.455C129.338 331.82 129.273 332.27 129.273 332.805H128.838ZM137.186 326.265H140.336C141.326 326.265 142.194 326.465 142.939 326.865C143.684 327.26 144.264 327.822 144.679 328.552C145.094 329.282 145.301 330.145 145.301 331.14C145.301 332.125 145.094 332.982 144.679 333.712C144.264 334.437 143.684 335 142.939 335.4C142.194 335.8 141.326 336 140.336 336H137.186V326.265ZM138.956 327.87V334.41H140.336C140.966 334.41 141.509 334.267 141.964 333.982C142.424 333.697 142.776 333.31 143.021 332.82C143.271 332.325 143.396 331.765 143.396 331.14C143.396 330.505 143.271 329.942 143.021 329.452C142.776 328.962 142.424 328.577 141.964 328.297C141.509 328.012 140.966 327.87 140.336 327.87H138.956ZM152.119 336L151.894 334.23V331.305C151.894 330.795 151.789 330.417 151.579 330.172C151.374 329.927 151.024 329.805 150.529 329.805C150.244 329.805 149.996 329.847 149.786 329.932C149.576 330.017 149.414 330.14 149.299 330.3C149.189 330.455 149.134 330.645 149.134 330.87H147.199C147.199 330.32 147.331 329.872 147.596 329.527C147.861 329.177 148.241 328.922 148.736 328.762C149.236 328.597 149.834 328.515 150.529 328.515C151.159 328.515 151.709 328.617 152.179 328.822C152.649 329.022 153.014 329.332 153.274 329.752C153.534 330.172 153.664 330.71 153.664 331.365V336H152.119ZM149.734 336.21C149.109 336.21 148.586 336.103 148.166 335.887C147.751 335.667 147.439 335.38 147.229 335.025C147.019 334.67 146.914 334.285 146.914 333.87C146.914 333.41 147.034 333.025 147.274 332.715C147.519 332.4 147.864 332.165 148.309 332.01C148.754 331.85 149.279 331.77 149.884 331.77C150.279 331.77 150.651 331.8 151.001 331.86C151.356 331.92 151.709 332 152.059 332.1V333.135C151.784 333.045 151.484 332.975 151.159 332.925C150.834 332.875 150.529 332.85 150.244 332.85C149.824 332.85 149.479 332.927 149.209 333.082C148.939 333.237 148.804 333.5 148.804 333.87C148.804 334.14 148.914 334.372 149.134 334.567C149.354 334.762 149.704 334.86 150.184 334.86C150.549 334.86 150.859 334.78 151.114 334.62C151.369 334.46 151.561 334.26 151.691 334.02C151.826 333.78 151.894 333.54 151.894 333.3H152.314C152.314 333.825 152.216 334.31 152.021 334.755C151.826 335.195 151.536 335.547 151.151 335.812C150.771 336.078 150.299 336.21 149.734 336.21ZM158.973 336.21C158.273 336.21 157.671 336.115 157.166 335.925C156.666 335.73 156.281 335.452 156.011 335.092C155.741 334.727 155.603 334.29 155.598 333.78H157.233C157.248 334.14 157.391 334.402 157.661 334.567C157.931 334.732 158.298 334.815 158.763 334.815C159.018 334.815 159.243 334.777 159.438 334.702C159.638 334.627 159.793 334.525 159.903 334.395C160.013 334.265 160.068 334.12 160.068 333.96C160.068 333.755 159.993 333.595 159.843 333.48C159.698 333.36 159.463 333.25 159.138 333.15L157.548 332.58C156.978 332.375 156.541 332.105 156.236 331.77C155.931 331.435 155.778 331.035 155.778 330.57C155.778 329.955 156.056 329.46 156.611 329.085C157.171 328.705 157.918 328.515 158.853 328.515C159.783 328.515 160.501 328.72 161.006 329.13C161.516 329.535 161.778 330.05 161.793 330.675H160.128C160.103 330.435 159.988 330.245 159.783 330.105C159.578 329.965 159.268 329.895 158.853 329.895C158.478 329.895 158.183 329.972 157.968 330.127C157.758 330.277 157.653 330.455 157.653 330.66C157.653 331.005 157.948 331.265 158.538 331.44L160.263 332.085C160.823 332.275 161.258 332.52 161.568 332.82C161.878 333.12 162.033 333.5 162.033 333.96C162.033 334.345 161.903 334.71 161.643 335.055C161.388 335.395 161.031 335.672 160.571 335.887C160.111 336.103 159.578 336.21 158.973 336.21ZM169.163 336V331.74C169.163 331.2 169.033 330.792 168.773 330.517C168.513 330.242 168.173 330.105 167.753 330.105C167.398 330.105 167.083 330.202 166.808 330.397C166.538 330.592 166.326 330.887 166.171 331.282C166.016 331.672 165.938 332.16 165.938 332.745H165.353C165.353 331.8 165.471 331.015 165.706 330.39C165.941 329.76 166.273 329.29 166.703 328.98C167.133 328.67 167.638 328.515 168.218 328.515C168.818 328.515 169.318 328.65 169.718 328.92C170.123 329.185 170.426 329.56 170.626 330.045C170.831 330.53 170.933 331.095 170.933 331.74V336H169.163ZM164.168 336V325.71H165.938V336H164.168ZM177.234 336.21C176.779 336.21 176.362 336.082 175.982 335.827C175.607 335.572 175.307 335.192 175.082 334.687C174.857 334.177 174.744 333.54 174.744 332.775H175.284C175.284 333.14 175.367 333.46 175.532 333.735C175.697 334.01 175.909 334.225 176.169 334.38C176.429 334.53 176.699 334.605 176.979 334.605C177.324 334.605 177.632 334.51 177.902 334.32C178.172 334.13 178.384 333.865 178.539 333.525C178.699 333.185 178.779 332.785 178.779 332.325C178.779 331.88 178.702 331.492 178.547 331.162C178.392 330.827 178.177 330.567 177.902 330.382C177.632 330.197 177.319 330.105 176.964 330.105C176.669 330.105 176.394 330.177 176.139 330.322C175.884 330.462 175.677 330.667 175.517 330.937C175.362 331.202 175.284 331.525 175.284 331.905H174.744C174.744 331.17 174.849 330.55 175.059 330.045C175.274 329.54 175.577 329.16 175.967 328.905C176.362 328.645 176.829 328.515 177.369 328.515C177.959 328.515 178.494 328.672 178.974 328.987C179.459 329.297 179.844 329.74 180.129 330.315C180.419 330.885 180.564 331.555 180.564 332.325C180.564 333.105 180.414 333.787 180.114 334.372C179.819 334.952 179.419 335.405 178.914 335.73C178.409 336.05 177.849 336.21 177.234 336.21ZM173.514 336V325.71H175.284V334.2L174.669 336H173.514ZM185.593 336.21C184.928 336.21 184.326 336.068 183.786 335.782C183.251 335.497 182.826 335.072 182.511 334.507C182.196 333.937 182.038 333.225 182.038 332.37C182.038 331.5 182.196 330.78 182.511 330.21C182.826 329.64 183.251 329.215 183.786 328.935C184.326 328.655 184.928 328.515 185.593 328.515C186.248 328.515 186.841 328.655 187.371 328.935C187.906 329.215 188.331 329.64 188.646 330.21C188.961 330.78 189.118 331.5 189.118 332.37C189.118 333.225 188.961 333.937 188.646 334.507C188.331 335.072 187.906 335.497 187.371 335.782C186.841 336.068 186.248 336.21 185.593 336.21ZM185.533 334.665C185.883 334.665 186.193 334.58 186.463 334.41C186.738 334.235 186.953 333.977 187.108 333.637C187.268 333.297 187.348 332.875 187.348 332.37C187.348 331.6 187.196 331.02 186.891 330.63C186.591 330.24 186.178 330.045 185.653 330.045C185.298 330.045 184.983 330.132 184.708 330.307C184.433 330.477 184.216 330.735 184.056 331.08C183.901 331.425 183.823 331.855 183.823 332.37C183.823 333.13 183.976 333.702 184.281 334.087C184.591 334.472 185.008 334.665 185.533 334.665ZM195.859 336L195.634 334.23V331.305C195.634 330.795 195.529 330.417 195.319 330.172C195.114 329.927 194.764 329.805 194.269 329.805C193.984 329.805 193.737 329.847 193.527 329.932C193.317 330.017 193.154 330.14 193.039 330.3C192.929 330.455 192.874 330.645 192.874 330.87H190.939C190.939 330.32 191.072 329.872 191.337 329.527C191.602 329.177 191.982 328.922 192.477 328.762C192.977 328.597 193.574 328.515 194.269 328.515C194.899 328.515 195.449 328.617 195.919 328.822C196.389 329.022 196.754 329.332 197.014 329.752C197.274 330.172 197.404 330.71 197.404 331.365V336H195.859ZM193.474 336.21C192.849 336.21 192.327 336.103 191.907 335.887C191.492 335.667 191.179 335.38 190.969 335.025C190.759 334.67 190.654 334.285 190.654 333.87C190.654 333.41 190.774 333.025 191.014 332.715C191.259 332.4 191.604 332.165 192.049 332.01C192.494 331.85 193.019 331.77 193.624 331.77C194.019 331.77 194.392 331.8 194.742 331.86C195.097 331.92 195.449 332 195.799 332.1V333.135C195.524 333.045 195.224 332.975 194.899 332.925C194.574 332.875 194.269 332.85 193.984 332.85C193.564 332.85 193.219 332.927 192.949 333.082C192.679 333.237 192.544 333.5 192.544 333.87C192.544 334.14 192.654 334.372 192.874 334.567C193.094 334.762 193.444 334.86 193.924 334.86C194.289 334.86 194.599 334.78 194.854 334.62C195.109 334.46 195.302 334.26 195.432 334.02C195.567 333.78 195.634 333.54 195.634 333.3H196.054C196.054 333.825 195.957 334.31 195.762 334.755C195.567 335.195 195.277 335.547 194.892 335.812C194.512 336.078 194.039 336.21 193.474 336.21ZM199.999 336V328.695H201.769V336H199.999ZM201.334 332.805C201.334 331.85 201.441 331.06 201.656 330.435C201.871 329.81 202.159 329.347 202.519 329.047C202.884 328.742 203.289 328.59 203.734 328.59C203.854 328.59 203.966 328.597 204.071 328.612C204.181 328.627 204.289 328.65 204.394 328.68L204.364 330.45C204.234 330.42 204.094 330.395 203.944 330.375C203.794 330.355 203.659 330.345 203.539 330.345C203.149 330.345 202.821 330.44 202.556 330.63C202.296 330.815 202.099 331.09 201.964 331.455C201.834 331.82 201.769 332.27 201.769 332.805H201.334ZM208.572 336.21C207.962 336.21 207.405 336.05 206.9 335.73C206.4 335.405 206 334.952 205.7 334.372C205.405 333.787 205.257 333.105 205.257 332.325C205.257 331.555 205.4 330.885 205.685 330.315C205.975 329.74 206.36 329.297 206.84 328.987C207.325 328.672 207.862 328.515 208.452 328.515C208.992 328.515 209.46 328.645 209.855 328.905C210.25 329.16 210.552 329.54 210.762 330.045C210.972 330.55 211.077 331.17 211.077 331.905H210.522C210.522 331.525 210.445 331.202 210.29 330.937C210.135 330.667 209.93 330.462 209.675 330.322C209.425 330.177 209.152 330.105 208.857 330.105C208.502 330.105 208.187 330.197 207.912 330.382C207.642 330.567 207.43 330.827 207.275 331.162C207.12 331.492 207.042 331.88 207.042 332.325C207.042 332.785 207.12 333.185 207.275 333.525C207.43 333.865 207.642 334.13 207.912 334.32C208.187 334.51 208.497 334.605 208.842 334.605C209.122 334.605 209.39 334.53 209.645 334.38C209.905 334.225 210.115 334.01 210.275 333.735C210.44 333.46 210.522 333.14 210.522 332.775H211.077C211.077 333.54 210.962 334.177 210.732 334.687C210.507 335.192 210.205 335.572 209.825 335.827C209.445 336.082 209.027 336.21 208.572 336.21ZM210.852 336L210.522 334.2V325.71H212.307V336H210.852Z" fill="white"/>
<defs>
<clipPath id="clip0">
<rect width="16.2029" height="20" fill="white" transform="translate(14 321)"/>
</clipPath>
</defs>
</svg>
