<svg width="194" height="306" viewBox="0 0 194 306" fill="none" xmlns="http://www.w3.org/2000/svg">
<path d="M21.562 281.01C20.254 281.01 19.492 281.508 19.276 282.504H17.044C17.164 281.352 17.632 280.482 18.448 279.894C19.216 279.354 20.224 279.084 21.472 279.084C22.756 279.084 23.8 279.384 24.604 279.984C25.444 280.596 25.864 281.382 25.864 282.342C25.864 282.942 25.702 283.464 25.378 283.908C25.054 284.34 24.574 284.664 23.938 284.88C24.646 285.12 25.21 285.48 25.63 285.96C26.062 286.428 26.278 286.968 26.278 287.58C26.278 288.192 26.164 288.714 25.936 289.146C25.72 289.578 25.408 289.95 25 290.262C24.136 290.922 23.014 291.252 21.634 291.252C20.314 291.252 19.204 290.916 18.304 290.244C17.296 289.512 16.792 288.54 16.792 287.328H19.06C19.096 287.94 19.342 288.42 19.798 288.768C20.266 289.116 20.872 289.29 21.616 289.29C22.36 289.29 22.936 289.128 23.344 288.804C23.764 288.468 23.974 288.048 23.974 287.544C23.974 287.028 23.782 286.626 23.398 286.338C23.026 286.05 22.432 285.906 21.616 285.906H20.068V284.232H21.4C22.084 284.232 22.618 284.088 23.002 283.8C23.386 283.5 23.578 283.11 23.578 282.63C23.578 282.15 23.41 281.76 23.074 281.46C22.75 281.16 22.246 281.01 21.562 281.01Z" fill="white"/>
<ellipse cx="22" cy="153" rx="16" ry="16" transform="rotate(-90 22 153)" fill="#0DCBE5"/>
<path d="M22 262L22 165" stroke="#0DCBE5"/>
<path d="M22 141L22 34" stroke="#0DCBE5"/>
<path d="M22 262.5C33.8741 262.5 43.5 272.126 43.5 284C43.5 295.874 33.8741 305.5 22 305.5C10.1259 305.5 0.5 295.874 0.499999 284C0.499999 272.126 10.1259 262.5 22 262.5Z" stroke="#0DCBE5"/>
<path d="M22 131.5C33.8741 131.5 43.5 141.126 43.5 153C43.5 164.874 33.8741 174.5 22 174.5C10.1259 174.5 0.5 164.874 0.499999 153C0.499999 141.126 10.1259 131.5 22 131.5Z" stroke="#0DCBE5"/>
<path d="M22 0.500003C33.8741 0.500002 43.5 10.1259 43.5 22C43.5 33.8741 33.8741 43.5 22 43.5C10.1259 43.5 0.5 33.8741 0.499999 22C0.499999 10.1259 10.1259 0.500003 22 0.500003Z" stroke="#0DCBE5"/>
<ellipse cx="22" cy="22" rx="16" ry="16" transform="rotate(-90 22 22)" fill="#0DCBE5"/>
<path d="M181.742 288.233L184.975 285L181.742 281.767C181.664 281.689 181.603 281.598 181.562 281.497C181.52 281.396 181.498 281.288 181.498 281.179C181.498 281.07 181.52 280.962 181.562 280.861C181.603 280.76 181.664 280.669 181.742 280.592C181.819 280.514 181.91 280.453 182.011 280.412C182.112 280.37 182.22 280.348 182.329 280.348C182.438 280.348 182.546 280.37 182.647 280.412C182.748 280.453 182.839 280.514 182.917 280.592L186.742 284.417C186.819 284.494 186.88 284.585 186.922 284.686C186.964 284.787 186.985 284.895 186.985 285.004C186.985 285.113 186.964 285.221 186.922 285.322C186.88 285.423 186.819 285.515 186.742 285.592L182.917 289.417C182.84 289.494 182.748 289.555 182.647 289.597C182.546 289.639 182.438 289.66 182.329 289.66C182.22 289.66 182.112 289.639 182.011 289.597C181.91 289.555 181.819 289.494 181.742 289.417C181.425 289.092 181.417 288.558 181.742 288.233Z" fill="white"/>
<path d="M16 21.4737L20.1053 25.5789L28 18" stroke="white" stroke-width="2" stroke-linecap="round" stroke-linejoin="round"/>
<path d="M16 152.474L20.1053 156.579L28 149" stroke="white" stroke-width="2" stroke-linecap="round" stroke-linejoin="round"/>
<path d="M73.51 19.95C73.35 19.1 72.75 18.675 71.71 18.675C71.2 18.675 70.8 18.78 70.51 18.99C70.23 19.19 70.09 19.435 70.09 19.725C70.09 20.015 70.18 20.245 70.36 20.415C70.55 20.575 70.84 20.725 71.23 20.865L73.345 21.69C74.065 21.97 74.62 22.325 75.01 22.755C75.4 23.175 75.595 23.705 75.595 24.345C75.595 25.225 75.265 25.925 74.605 26.445C73.945 26.955 73.005 27.21 71.785 27.21C70.705 27.21 69.83 26.945 69.16 26.415C68.41 25.835 68.015 25.015 67.975 23.955H69.73C69.73 24.755 70.145 25.26 70.975 25.47C71.225 25.54 71.555 25.575 71.965 25.575C72.375 25.575 72.755 25.475 73.105 25.275C73.455 25.065 73.63 24.79 73.63 24.45C73.63 24.1 73.535 23.835 73.345 23.655C73.155 23.465 72.845 23.29 72.415 23.13L70.48 22.365C69.73 22.075 69.155 21.735 68.755 21.345C68.355 20.955 68.155 20.415 68.155 19.725C68.155 18.915 68.47 18.275 69.1 17.805C69.74 17.315 70.605 17.07 71.695 17.07C72.795 17.07 73.64 17.325 74.23 17.835C74.83 18.335 75.175 19.04 75.265 19.95H73.51ZM83.0454 20.58C83.2954 20.9 83.4804 21.27 83.6004 21.69C83.7304 22.11 83.7954 22.495 83.7954 22.845C83.7954 23.195 83.7754 23.51 83.7354 23.79H79.0254C79.0454 24.38 79.1904 24.86 79.4604 25.23C79.7304 25.6 80.1404 25.785 80.6904 25.785C81.4204 25.785 81.8554 25.465 81.9954 24.825H83.7804C83.6604 25.555 83.3254 26.13 82.7754 26.55C82.2054 26.99 81.5104 27.21 80.6904 27.21C79.7304 27.21 78.9254 26.86 78.2754 26.16C77.6054 25.43 77.2704 24.495 77.2704 23.355C77.2704 22.185 77.6054 21.245 78.2754 20.535C78.9154 19.855 79.7204 19.515 80.6904 19.515C81.7004 19.515 82.4854 19.87 83.0454 20.58ZM80.7054 20.925C80.2054 20.925 79.8154 21.09 79.5354 21.42C79.2554 21.74 79.0904 22.155 79.0404 22.665H82.1454C82.1454 21.875 81.8954 21.345 81.3954 21.075C81.2054 20.975 80.9754 20.925 80.7054 20.925ZM85.9145 16.71H87.6845V27H85.9145V16.71ZM95.5552 20.58C95.8052 20.9 95.9902 21.27 96.1102 21.69C96.2402 22.11 96.3052 22.495 96.3052 22.845C96.3052 23.195 96.2852 23.51 96.2452 23.79H91.5352C91.5552 24.38 91.7002 24.86 91.9702 25.23C92.2402 25.6 92.6502 25.785 93.2002 25.785C93.9302 25.785 94.3652 25.465 94.5052 24.825H96.2902C96.1702 25.555 95.8352 26.13 95.2852 26.55C94.7152 26.99 94.0202 27.21 93.2002 27.21C92.2402 27.21 91.4352 26.86 90.7852 26.16C90.1152 25.43 89.7802 24.495 89.7802 23.355C89.7802 22.185 90.1152 21.245 90.7852 20.535C91.4252 19.855 92.2302 19.515 93.2002 19.515C94.2102 19.515 94.9952 19.87 95.5552 20.58ZM93.2152 20.925C92.7152 20.925 92.3252 21.09 92.0452 21.42C91.7652 21.74 91.6002 22.155 91.5502 22.665H94.6552C94.6552 21.875 94.4052 21.345 93.9052 21.075C93.7152 20.975 93.4852 20.925 93.2152 20.925ZM101.199 19.515C101.659 19.515 102.069 19.595 102.429 19.755C102.799 19.905 103.109 20.105 103.359 20.355C103.859 20.835 104.154 21.44 104.244 22.17L102.459 22.215C102.379 21.895 102.229 21.63 102.009 21.42C101.799 21.21 101.554 21.105 101.274 21.105C100.994 21.105 100.754 21.15 100.554 21.24C100.354 21.32 100.179 21.45 100.029 21.63C99.6893 22.05 99.5193 22.63 99.5193 23.37C99.5193 24.11 99.6793 24.67 99.9993 25.05C100.319 25.42 100.704 25.605 101.154 25.605C101.614 25.605 101.944 25.5 102.144 25.29C102.354 25.07 102.459 24.775 102.459 24.405H104.244C104.244 25.205 103.979 25.87 103.449 26.4C102.909 26.94 102.154 27.21 101.184 27.21C100.224 27.21 99.4193 26.86 98.7693 26.16C98.0793 25.41 97.7343 24.475 97.7343 23.355C97.7343 22.175 98.0793 21.23 98.7693 20.52C99.4193 19.85 100.229 19.515 101.199 19.515ZM110.488 26.82C109.828 27.08 109.308 27.21 108.928 27.21C108.548 27.21 108.213 27.165 107.923 27.075C107.643 26.985 107.393 26.85 107.173 26.67C106.713 26.26 106.483 25.695 106.483 24.975V20.895H105.463V19.71H106.483V17.79H108.253V19.71H110.233V20.895H108.253V24.915C108.253 25.515 108.538 25.815 109.108 25.815C109.398 25.815 109.773 25.735 110.233 25.575L110.488 26.82ZM121.205 19.95C121.045 19.1 120.445 18.675 119.405 18.675C118.895 18.675 118.495 18.78 118.205 18.99C117.925 19.19 117.785 19.435 117.785 19.725C117.785 20.015 117.875 20.245 118.055 20.415C118.245 20.575 118.535 20.725 118.925 20.865L121.04 21.69C121.76 21.97 122.315 22.325 122.705 22.755C123.095 23.175 123.29 23.705 123.29 24.345C123.29 25.225 122.96 25.925 122.3 26.445C121.64 26.955 120.7 27.21 119.48 27.21C118.4 27.21 117.525 26.945 116.855 26.415C116.105 25.835 115.71 25.015 115.67 23.955H117.425C117.425 24.755 117.84 25.26 118.67 25.47C118.92 25.54 119.25 25.575 119.66 25.575C120.07 25.575 120.45 25.475 120.8 25.275C121.15 25.065 121.325 24.79 121.325 24.45C121.325 24.1 121.23 23.835 121.04 23.655C120.85 23.465 120.54 23.29 120.11 23.13L118.175 22.365C117.425 22.075 116.85 21.735 116.45 21.345C116.05 20.955 115.85 20.415 115.85 19.725C115.85 18.915 116.165 18.275 116.795 17.805C117.435 17.315 118.3 17.07 119.39 17.07C120.49 17.07 121.335 17.325 121.925 17.835C122.525 18.335 122.87 19.04 122.96 19.95H121.205ZM130.741 20.58C130.991 20.9 131.176 21.27 131.296 21.69C131.426 22.11 131.491 22.495 131.491 22.845C131.491 23.195 131.471 23.51 131.431 23.79H126.721C126.741 24.38 126.886 24.86 127.156 25.23C127.426 25.6 127.836 25.785 128.386 25.785C129.116 25.785 129.551 25.465 129.691 24.825H131.476C131.356 25.555 131.021 26.13 130.471 26.55C129.901 26.99 129.206 27.21 128.386 27.21C127.426 27.21 126.621 26.86 125.971 26.16C125.301 25.43 124.966 24.495 124.966 23.355C124.966 22.185 125.301 21.245 125.971 20.535C126.611 19.855 127.416 19.515 128.386 19.515C129.396 19.515 130.181 19.87 130.741 20.58ZM128.401 20.925C127.901 20.925 127.511 21.09 127.231 21.42C126.951 21.74 126.786 22.155 126.736 22.665H129.841C129.841 21.875 129.591 21.345 129.091 21.075C128.901 20.975 128.671 20.925 128.401 20.925ZM135.38 21.15C135.82 20.1 136.48 19.575 137.36 19.575C137.53 19.575 137.745 19.61 138.005 19.68L137.975 21.45C137.695 21.39 137.42 21.36 137.15 21.36C135.97 21.36 135.38 22.175 135.38 23.805V27H133.61V19.695H135.38V21.15ZM140.675 19.71L142.34 25.245L144.02 19.71H146.06L143.345 27H141.35L138.635 19.71H140.675ZM147.778 19.695H149.548V27H147.778V19.695ZM147.568 17.355C147.568 17.035 147.663 16.785 147.853 16.605C148.043 16.415 148.313 16.32 148.663 16.32C149.003 16.32 149.268 16.415 149.458 16.605C149.658 16.785 149.758 17.035 149.758 17.355C149.758 17.675 149.658 17.93 149.458 18.12C149.268 18.3 149.003 18.39 148.663 18.39C148.313 18.39 148.043 18.3 147.853 18.12C147.663 17.93 147.568 17.675 147.568 17.355ZM155.325 19.515C155.785 19.515 156.195 19.595 156.555 19.755C156.925 19.905 157.235 20.105 157.485 20.355C157.985 20.835 158.28 21.44 158.37 22.17L156.585 22.215C156.505 21.895 156.355 21.63 156.135 21.42C155.925 21.21 155.68 21.105 155.4 21.105C155.12 21.105 154.88 21.15 154.68 21.24C154.48 21.32 154.305 21.45 154.155 21.63C153.815 22.05 153.645 22.63 153.645 23.37C153.645 24.11 153.805 24.67 154.125 25.05C154.445 25.42 154.83 25.605 155.28 25.605C155.74 25.605 156.07 25.5 156.27 25.29C156.48 25.07 156.585 24.775 156.585 24.405H158.37C158.37 25.205 158.105 25.87 157.575 26.4C157.035 26.94 156.28 27.21 155.31 27.21C154.35 27.21 153.545 26.86 152.895 26.16C152.205 25.41 151.86 24.475 151.86 23.355C151.86 22.175 152.205 21.23 152.895 20.52C153.545 19.85 154.355 19.515 155.325 19.515ZM165.589 20.58C165.839 20.9 166.024 21.27 166.144 21.69C166.274 22.11 166.339 22.495 166.339 22.845C166.339 23.195 166.319 23.51 166.279 23.79H161.569C161.589 24.38 161.734 24.86 162.004 25.23C162.274 25.6 162.684 25.785 163.234 25.785C163.964 25.785 164.399 25.465 164.539 24.825H166.324C166.204 25.555 165.869 26.13 165.319 26.55C164.749 26.99 164.054 27.21 163.234 27.21C162.274 27.21 161.469 26.86 160.819 26.16C160.149 25.43 159.814 24.495 159.814 23.355C159.814 22.185 160.149 21.245 160.819 20.535C161.459 19.855 162.264 19.515 163.234 19.515C164.244 19.515 165.029 19.87 165.589 20.58ZM163.249 20.925C162.749 20.925 162.359 21.09 162.079 21.42C161.799 21.74 161.634 22.155 161.584 22.665H164.689C164.689 21.875 164.439 21.345 163.939 21.075C163.749 20.975 163.519 20.925 163.249 20.925Z" fill="#D7D7D7"/>
<path d="M75.625 151.25C75.625 151.94 75.43 152.53 75.04 153.02C74.65 153.51 74.09 153.85 73.36 154.04L75.97 158H73.66L71.515 154.205H70.165V158H68.395V148.265H71.995C73.145 148.265 74.04 148.54 74.68 149.09C75.31 149.62 75.625 150.34 75.625 151.25ZM71.83 153.02C72.48 153.02 72.97 152.875 73.3 152.585C73.63 152.285 73.795 151.895 73.795 151.415C73.795 150.925 73.645 150.535 73.345 150.245C73.045 149.945 72.595 149.795 71.995 149.795H70.165V153.02H71.83ZM83.1333 151.58C83.3833 151.9 83.5683 152.27 83.6883 152.69C83.8183 153.11 83.8833 153.495 83.8833 153.845C83.8833 154.195 83.8633 154.51 83.8233 154.79H79.1133C79.1333 155.38 79.2783 155.86 79.5483 156.23C79.8183 156.6 80.2283 156.785 80.7783 156.785C81.5083 156.785 81.9433 156.465 82.0833 155.825H83.8683C83.7483 156.555 83.4133 157.13 82.8633 157.55C82.2933 157.99 81.5983 158.21 80.7783 158.21C79.8183 158.21 79.0133 157.86 78.3633 157.16C77.6933 156.43 77.3583 155.495 77.3583 154.355C77.3583 153.185 77.6933 152.245 78.3633 151.535C79.0033 150.855 79.8083 150.515 80.7783 150.515C81.7883 150.515 82.5733 150.87 83.1333 151.58ZM80.7933 151.925C80.2933 151.925 79.9033 152.09 79.6233 152.42C79.3433 152.74 79.1783 153.155 79.1283 153.665H82.2333C82.2333 152.875 81.9833 152.345 81.4833 152.075C81.2933 151.975 81.0633 151.925 80.7933 151.925ZM90.5774 157.055C90.2174 157.825 89.5974 158.21 88.7174 158.21C87.7774 158.21 86.9874 157.87 86.3474 157.19C85.6574 156.47 85.3124 155.525 85.3124 154.355C85.3124 153.205 85.6474 152.265 86.3174 151.535C86.9474 150.855 87.7174 150.515 88.6274 150.515C89.0774 150.515 89.4924 150.625 89.8724 150.845C90.2624 151.055 90.5774 151.385 90.8174 151.835L91.2074 150.71H92.3624V159.125C92.3624 159.555 92.4124 159.84 92.5124 159.98C92.6224 160.12 92.7424 160.22 92.8724 160.28C93.0024 160.35 93.1624 160.415 93.3524 160.475L92.8424 161.765C92.0224 161.565 91.4374 161.245 91.0874 160.805C90.7474 160.365 90.5774 159.76 90.5774 158.99V157.055ZM90.5774 153.83C90.5774 153.28 90.4174 152.855 90.0974 152.555C89.7774 152.255 89.3674 152.105 88.8674 152.105C88.3774 152.105 87.9574 152.305 87.6074 152.705C87.2674 153.105 87.0974 153.655 87.0974 154.355C87.0974 155.065 87.2974 155.63 87.6974 156.05C88.0474 156.42 88.4724 156.605 88.9724 156.605C89.3824 156.605 89.7424 156.48 90.0524 156.23C90.3824 155.95 90.5574 155.585 90.5774 155.135V153.83ZM100.003 156.68C99.5427 157.65 98.8027 158.135 97.7827 158.135C96.4927 158.135 95.6427 157.63 95.2327 156.62C95.0827 156.27 95.0077 155.845 95.0077 155.345V150.695H96.7777V155.165C96.7777 155.645 96.8927 156.005 97.1227 156.245C97.3527 156.475 97.6327 156.59 97.9627 156.59C98.3027 156.59 98.5877 156.545 98.8177 156.455C99.0477 156.355 99.2477 156.21 99.4177 156.02C99.7877 155.59 99.9827 155.015 100.003 154.295V150.695H101.773V158H100.003V156.68ZM109.647 151.58C109.897 151.9 110.082 152.27 110.202 152.69C110.332 153.11 110.397 153.495 110.397 153.845C110.397 154.195 110.377 154.51 110.337 154.79H105.627C105.647 155.38 105.792 155.86 106.062 156.23C106.332 156.6 106.742 156.785 107.292 156.785C108.022 156.785 108.457 156.465 108.597 155.825H110.382C110.262 156.555 109.927 157.13 109.377 157.55C108.807 157.99 108.112 158.21 107.292 158.21C106.332 158.21 105.527 157.86 104.877 157.16C104.207 156.43 103.872 155.495 103.872 154.355C103.872 153.185 104.207 152.245 104.877 151.535C105.517 150.855 106.322 150.515 107.292 150.515C108.302 150.515 109.087 150.87 109.647 151.58ZM107.307 151.925C106.807 151.925 106.417 152.09 106.137 152.42C105.857 152.74 105.692 153.155 105.642 153.665H108.747C108.747 152.875 108.497 152.345 107.997 152.075C107.807 151.975 107.577 151.925 107.307 151.925ZM113.506 155.78C113.526 156.47 114.031 156.815 115.021 156.815C115.401 156.815 115.711 156.735 115.951 156.575C116.201 156.405 116.326 156.21 116.326 155.99C116.326 155.77 116.251 155.6 116.101 155.48C115.951 155.36 115.716 155.25 115.396 155.15L113.806 154.58C112.626 154.17 112.036 153.5 112.036 152.57C112.036 151.95 112.311 151.455 112.861 151.085C113.421 150.705 114.166 150.515 115.096 150.515C116.036 150.515 116.756 150.72 117.256 151.13C117.766 151.54 118.031 152.055 118.051 152.675H116.386C116.366 152.435 116.251 152.245 116.041 152.105C115.831 151.965 115.531 151.895 115.141 151.895C114.751 151.895 114.446 151.975 114.226 152.135C114.016 152.285 113.911 152.46 113.911 152.66C113.911 153.01 114.206 153.27 114.796 153.44L116.521 154.085C117.091 154.275 117.526 154.52 117.826 154.82C118.136 155.11 118.291 155.49 118.291 155.96C118.291 156.56 118.006 157.08 117.436 157.52C116.846 157.98 116.066 158.21 115.096 158.21C114.126 158.21 113.346 158 112.756 157.58C112.166 157.15 111.866 156.55 111.856 155.78H113.506ZM124.536 157.82C123.876 158.08 123.356 158.21 122.976 158.21C122.596 158.21 122.261 158.165 121.971 158.075C121.691 157.985 121.441 157.85 121.221 157.67C120.761 157.26 120.531 156.695 120.531 155.975V151.895H119.511V150.71H120.531V148.79H122.301V150.71H124.281V151.895H122.301V155.915C122.301 156.515 122.586 156.815 123.156 156.815C123.446 156.815 123.821 156.735 124.281 156.575L124.536 157.82ZM130.138 148.265H131.908V158H130.138V148.265ZM137.844 148.265C139.324 148.265 140.519 148.705 141.429 149.585C142.349 150.465 142.809 151.65 142.809 153.14C142.809 154.62 142.349 155.8 141.429 156.68C140.519 157.56 139.324 158 137.844 158H134.679V148.265H137.844ZM136.464 156.395H137.844C138.764 156.395 139.509 156.085 140.079 155.465C140.619 154.865 140.889 154.09 140.889 153.14C140.889 152.17 140.619 151.385 140.079 150.785C139.519 150.175 138.774 149.87 137.844 149.87H136.464V156.395Z" fill="#D7D7D7"/>
<path d="M74.365 287.455C73.945 288.625 73.14 289.21 71.95 289.21C70.73 289.21 69.725 288.75 68.935 287.83C68.115 286.88 67.705 285.665 67.705 284.185C67.705 282.625 68.145 281.375 69.025 280.435C69.875 279.525 70.97 279.07 72.31 279.07C73.22 279.07 73.98 279.27 74.59 279.67C75.21 280.06 75.695 280.68 76.045 281.53L74.23 281.95C73.7 281.1 73.03 280.675 72.22 280.675C71.48 280.675 70.865 280.99 70.375 281.62C69.865 282.26 69.61 283.115 69.61 284.185C69.61 285.195 69.84 286.015 70.3 286.645C70.75 287.265 71.35 287.575 72.1 287.575C72.74 287.575 73.265 287.37 73.675 286.96C74.095 286.54 74.305 285.965 74.305 285.235V285.175L72.115 285.13V283.99H76V289H74.56L74.365 287.455ZM83.6314 282.58C83.8814 282.9 84.0664 283.27 84.1864 283.69C84.3164 284.11 84.3814 284.495 84.3814 284.845C84.3814 285.195 84.3614 285.51 84.3214 285.79H79.6114C79.6314 286.38 79.7764 286.86 80.0464 287.23C80.3164 287.6 80.7264 287.785 81.2764 287.785C82.0064 287.785 82.4414 287.465 82.5814 286.825H84.3664C84.2464 287.555 83.9114 288.13 83.3614 288.55C82.7914 288.99 82.0964 289.21 81.2764 289.21C80.3164 289.21 79.5114 288.86 78.8614 288.16C78.1914 287.43 77.8564 286.495 77.8564 285.355C77.8564 284.185 78.1914 283.245 78.8614 282.535C79.5014 281.855 80.3064 281.515 81.2764 281.515C82.2864 281.515 83.0714 281.87 83.6314 282.58ZM81.2914 282.925C80.7914 282.925 80.4014 283.09 80.1214 283.42C79.8414 283.74 79.6764 284.155 79.6264 284.665H82.7314C82.7314 283.875 82.4814 283.345 81.9814 283.075C81.7914 282.975 81.5614 282.925 81.2914 282.925ZM90.6105 288.82C89.9505 289.08 89.4305 289.21 89.0505 289.21C88.6705 289.21 88.3355 289.165 88.0455 289.075C87.7655 288.985 87.5155 288.85 87.2955 288.67C86.8355 288.26 86.6055 287.695 86.6055 286.975V282.895H85.5855V281.71H86.6055V279.79H88.3755V281.71H90.3555V282.895H88.3755V286.915C88.3755 287.515 88.6605 287.815 89.2305 287.815C89.5205 287.815 89.8955 287.735 90.3555 287.575L90.6105 288.82ZM101.327 281.95C101.167 281.1 100.567 280.675 99.5274 280.675C99.0174 280.675 98.6174 280.78 98.3274 280.99C98.0474 281.19 97.9074 281.435 97.9074 281.725C97.9074 282.015 97.9974 282.245 98.1774 282.415C98.3674 282.575 98.6574 282.725 99.0474 282.865L101.162 283.69C101.882 283.97 102.437 284.325 102.827 284.755C103.217 285.175 103.412 285.705 103.412 286.345C103.412 287.225 103.082 287.925 102.422 288.445C101.762 288.955 100.822 289.21 99.6024 289.21C98.5224 289.21 97.6474 288.945 96.9774 288.415C96.2274 287.835 95.8324 287.015 95.7924 285.955H97.5474C97.5474 286.755 97.9624 287.26 98.7924 287.47C99.0424 287.54 99.3724 287.575 99.7824 287.575C100.192 287.575 100.572 287.475 100.922 287.275C101.272 287.065 101.447 286.79 101.447 286.45C101.447 286.1 101.352 285.835 101.162 285.655C100.972 285.465 100.662 285.29 100.232 285.13L98.2974 284.365C97.5474 284.075 96.9724 283.735 96.5724 283.345C96.1724 282.955 95.9724 282.415 95.9724 281.725C95.9724 280.915 96.2874 280.275 96.9174 279.805C97.5574 279.315 98.4224 279.07 99.5124 279.07C100.612 279.07 101.457 279.325 102.047 279.835C102.647 280.335 102.992 281.04 103.082 281.95H101.327ZM109.888 288.82C109.228 289.08 108.708 289.21 108.328 289.21C107.948 289.21 107.613 289.165 107.323 289.075C107.043 288.985 106.793 288.85 106.573 288.67C106.113 288.26 105.883 287.695 105.883 286.975V282.895H104.863V281.71H105.883V279.79H107.653V281.71H109.633V282.895H107.653V286.915C107.653 287.515 107.938 287.815 108.508 287.815C108.798 287.815 109.173 287.735 109.633 287.575L109.888 288.82ZM114.096 284.74C114.676 284.74 115.346 284.835 116.106 285.025V284.305C116.106 283.795 116.001 283.42 115.791 283.18C115.591 282.93 115.256 282.805 114.786 282.805C114.326 282.805 113.971 282.9 113.721 283.09C113.471 283.27 113.346 283.53 113.346 283.87H111.411C111.411 283.04 111.701 282.44 112.281 282.07C112.871 281.7 113.691 281.515 114.741 281.515C116.241 281.515 117.211 282.04 117.651 283.09C117.801 283.45 117.876 283.875 117.876 284.365V289H116.331L116.196 288.025C115.726 288.815 115.006 289.21 114.036 289.21C113.096 289.21 112.366 288.98 111.846 288.52C111.366 288.08 111.126 287.525 111.126 286.855C111.126 286.175 111.391 285.655 111.921 285.295C112.451 284.925 113.176 284.74 114.096 284.74ZM116.106 286.15C115.516 285.99 114.966 285.91 114.456 285.91C113.496 285.91 113.016 286.23 113.016 286.87C113.016 287.14 113.126 287.375 113.346 287.575C113.566 287.765 113.916 287.86 114.396 287.86C114.886 287.86 115.286 287.7 115.596 287.38C115.916 287.05 116.086 286.64 116.106 286.15ZM122.226 283.15C122.666 282.1 123.326 281.575 124.206 281.575C124.376 281.575 124.591 281.61 124.851 281.68L124.821 283.45C124.541 283.39 124.266 283.36 123.996 283.36C122.816 283.36 122.226 284.175 122.226 285.805V289H120.456V281.695H122.226V283.15ZM130.806 288.82C130.146 289.08 129.626 289.21 129.246 289.21C128.866 289.21 128.531 289.165 128.241 289.075C127.961 288.985 127.711 288.85 127.491 288.67C127.031 288.26 126.801 287.695 126.801 286.975V282.895H125.781V281.71H126.801V279.79H128.571V281.71H130.551V282.895H128.571V286.915C128.571 287.515 128.856 287.815 129.426 287.815C129.716 287.815 130.091 287.735 130.551 287.575L130.806 288.82ZM137.699 282.58C137.949 282.9 138.134 283.27 138.254 283.69C138.384 284.11 138.449 284.495 138.449 284.845C138.449 285.195 138.429 285.51 138.389 285.79H133.679C133.699 286.38 133.844 286.86 134.114 287.23C134.384 287.6 134.794 287.785 135.344 287.785C136.074 287.785 136.509 287.465 136.649 286.825H138.434C138.314 287.555 137.979 288.13 137.429 288.55C136.859 288.99 136.164 289.21 135.344 289.21C134.384 289.21 133.579 288.86 132.929 288.16C132.259 287.43 131.924 286.495 131.924 285.355C131.924 284.185 132.259 283.245 132.929 282.535C133.569 281.855 134.374 281.515 135.344 281.515C136.354 281.515 137.139 281.87 137.699 282.58ZM135.359 282.925C134.859 282.925 134.469 283.09 134.189 283.42C133.909 283.74 133.744 284.155 133.694 284.665H136.799C136.799 283.875 136.549 283.345 136.049 283.075C135.859 282.975 135.629 282.925 135.359 282.925ZM145.323 287.875C144.873 288.765 144.183 289.21 143.253 289.21C142.323 289.21 141.543 288.855 140.913 288.145C140.263 287.405 139.938 286.465 139.938 285.325C139.938 284.185 140.248 283.26 140.868 282.55C141.478 281.86 142.238 281.515 143.148 281.515C144.058 281.515 144.743 281.88 145.203 282.61V278.71H146.988V289H145.533L145.323 287.875ZM143.478 283.105C142.978 283.105 142.558 283.31 142.218 283.72C141.888 284.12 141.723 284.66 141.723 285.34C141.723 286.02 141.893 286.57 142.233 286.99C142.573 287.4 143.003 287.605 143.523 287.605C143.953 287.605 144.338 287.435 144.678 287.095C145.028 286.745 145.203 286.305 145.203 285.775V284.83C145.183 284.31 145.008 283.885 144.678 283.555C144.378 283.255 143.978 283.105 143.478 283.105Z" fill="white"/>
</svg>
