<svg width="177" height="306" viewBox="0 0 177 306" fill="none" xmlns="http://www.w3.org/2000/svg">
<path d="M21.8379 280.01C20.5299 280.01 19.7679 280.508 19.5519 281.504H17.3199C17.4399 280.352 17.9079 279.482 18.7239 278.894C19.4919 278.354 20.4999 278.084 21.7479 278.084C23.0319 278.084 24.0759 278.384 24.8799 278.984C25.7199 279.596 26.1399 280.382 26.1399 281.342C26.1399 281.942 25.9779 282.464 25.6539 282.908C25.3299 283.34 24.8499 283.664 24.2139 283.88C24.9219 284.12 25.4859 284.48 25.9059 284.96C26.3379 285.428 26.5539 285.968 26.5539 286.58C26.5539 287.192 26.4399 287.714 26.2119 288.146C25.9959 288.578 25.6839 288.95 25.2759 289.262C24.4119 289.922 23.2899 290.252 21.9099 290.252C20.5899 290.252 19.4799 289.916 18.5799 289.244C17.5719 288.512 17.0679 287.54 17.0679 286.328H19.3359C19.3719 286.94 19.6179 287.42 20.0739 287.768C20.5419 288.116 21.1479 288.29 21.8919 288.29C22.6359 288.29 23.2119 288.128 23.6199 287.804C24.0399 287.468 24.2499 287.048 24.2499 286.544C24.2499 286.028 24.0579 285.626 23.6739 285.338C23.3019 285.05 22.7079 284.906 21.8919 284.906H20.3439V283.232H21.6759C22.3599 283.232 22.8939 283.088 23.2779 282.8C23.6619 282.5 23.8539 282.11 23.8539 281.63C23.8539 281.15 23.6859 280.76 23.3499 280.46C23.0259 280.16 22.5219 280.01 21.8379 280.01Z" fill="white"/>
<path d="M19.4799 157.056H26.1579V159H17.3559V157.002C17.3559 155.598 17.8539 154.578 18.8499 153.942C19.1859 153.726 19.5759 153.534 20.0199 153.366L22.4139 152.448C22.9419 152.244 23.3259 151.992 23.5659 151.692C23.8179 151.38 23.9439 150.996 23.9439 150.54C23.9439 150.084 23.7819 149.706 23.4579 149.406C23.1339 149.094 22.6719 148.938 22.0719 148.938C21.4719 148.938 20.9739 149.082 20.5779 149.37C20.1939 149.658 19.9719 150.084 19.9119 150.648H17.5539C17.5779 149.508 18.0159 148.614 18.8679 147.966C19.6479 147.378 20.6979 147.084 22.0179 147.084C23.2299 147.084 24.2319 147.408 25.0239 148.056C25.8279 148.728 26.2299 149.55 26.2299 150.522C26.2299 151.494 25.9839 152.274 25.4919 152.862C25.0119 153.438 24.2619 153.924 23.2419 154.32L20.8119 155.256C20.3439 155.436 20.0019 155.64 19.7859 155.868C19.5819 156.084 19.4799 156.366 19.4799 156.714V157.056Z" fill="white"/>
<path d="M20.0836 17.2C20.9836 17.068 21.7756 16.75 22.4596 16.246H24.0616V28H21.9376V18.784C21.3256 19.084 20.7076 19.234 20.0836 19.234V17.2Z" fill="white"/>
<path d="M22.3793 262L22.3793 175" stroke="#0DCBE5"/>
<path d="M22.3793 131L22.3793 44" stroke="#0DCBE5"/>
<path d="M22.3793 262.5C34.471 262.5 44.2586 272.134 44.2586 284C44.2586 295.866 34.471 305.5 22.3793 305.5C10.2876 305.5 0.5 295.866 0.499999 284C0.499999 272.134 10.2876 262.5 22.3793 262.5Z" stroke="#0DCBE5"/>
<path d="M22.3793 131.5C34.471 131.5 44.2586 141.134 44.2586 153C44.2586 164.866 34.471 174.5 22.3793 174.5C10.2876 174.5 0.5 164.866 0.499999 153C0.499999 141.134 10.2876 131.5 22.3793 131.5Z" stroke="#0DCBE5"/>
<path d="M22.3793 0.500003C34.471 0.500002 44.2586 10.1339 44.2586 22C44.2586 33.8661 34.471 43.5 22.3793 43.5C10.2876 43.5 0.5 33.8661 0.499999 22C0.499999 10.1339 10.2876 0.500003 22.3793 0.500003Z" stroke="#0DCBE5"/>
<path d="M70.3722 19.95C70.2122 19.1 69.6122 18.675 68.5722 18.675C68.0622 18.675 67.6622 18.78 67.3722 18.99C67.0922 19.19 66.9522 19.435 66.9522 19.725C66.9522 20.015 67.0422 20.245 67.2222 20.415C67.4122 20.575 67.7022 20.725 68.0922 20.865L70.2072 21.69C70.9272 21.97 71.4822 22.325 71.8722 22.755C72.2622 23.175 72.4572 23.705 72.4572 24.345C72.4572 25.225 72.1272 25.925 71.4672 26.445C70.8072 26.955 69.8672 27.21 68.6472 27.21C67.5672 27.21 66.6922 26.945 66.0222 26.415C65.2722 25.835 64.8772 25.015 64.8372 23.955H66.5922C66.5922 24.755 67.0072 25.26 67.8372 25.47C68.0872 25.54 68.4172 25.575 68.8272 25.575C69.2372 25.575 69.6172 25.475 69.9672 25.275C70.3172 25.065 70.4922 24.79 70.4922 24.45C70.4922 24.1 70.3972 23.835 70.2072 23.655C70.0172 23.465 69.7072 23.29 69.2772 23.13L67.3422 22.365C66.5922 22.075 66.0172 21.735 65.6172 21.345C65.2172 20.955 65.0172 20.415 65.0172 19.725C65.0172 18.915 65.3322 18.275 65.9622 17.805C66.6022 17.315 67.4672 17.07 68.5572 17.07C69.6572 17.07 70.5022 17.325 71.0922 17.835C71.6922 18.335 72.0372 19.04 72.1272 19.95H70.3722ZM79.9076 20.58C80.1576 20.9 80.3426 21.27 80.4626 21.69C80.5926 22.11 80.6576 22.495 80.6576 22.845C80.6576 23.195 80.6376 23.51 80.5976 23.79H75.8876C75.9076 24.38 76.0526 24.86 76.3226 25.23C76.5926 25.6 77.0026 25.785 77.5526 25.785C78.2826 25.785 78.7176 25.465 78.8576 24.825H80.6426C80.5226 25.555 80.1876 26.13 79.6376 26.55C79.0676 26.99 78.3726 27.21 77.5526 27.21C76.5926 27.21 75.7876 26.86 75.1376 26.16C74.4676 25.43 74.1326 24.495 74.1326 23.355C74.1326 22.185 74.4676 21.245 75.1376 20.535C75.7776 19.855 76.5826 19.515 77.5526 19.515C78.5626 19.515 79.3476 19.87 79.9076 20.58ZM77.5676 20.925C77.0676 20.925 76.6776 21.09 76.3976 21.42C76.1176 21.74 75.9526 22.155 75.9026 22.665H79.0076C79.0076 21.875 78.7576 21.345 78.2576 21.075C78.0676 20.975 77.8376 20.925 77.5676 20.925ZM82.7767 16.71H84.5467V27H82.7767V16.71ZM92.4174 20.58C92.6674 20.9 92.8524 21.27 92.9724 21.69C93.1024 22.11 93.1674 22.495 93.1674 22.845C93.1674 23.195 93.1474 23.51 93.1074 23.79H88.3974C88.4174 24.38 88.5624 24.86 88.8324 25.23C89.1024 25.6 89.5124 25.785 90.0624 25.785C90.7924 25.785 91.2274 25.465 91.3674 24.825H93.1524C93.0324 25.555 92.6974 26.13 92.1474 26.55C91.5774 26.99 90.8824 27.21 90.0624 27.21C89.1024 27.21 88.2974 26.86 87.6474 26.16C86.9774 25.43 86.6424 24.495 86.6424 23.355C86.6424 22.185 86.9774 21.245 87.6474 20.535C88.2874 19.855 89.0924 19.515 90.0624 19.515C91.0724 19.515 91.8574 19.87 92.4174 20.58ZM90.0774 20.925C89.5774 20.925 89.1874 21.09 88.9074 21.42C88.6274 21.74 88.4624 22.155 88.4124 22.665H91.5174C91.5174 21.875 91.2674 21.345 90.7674 21.075C90.5774 20.975 90.3474 20.925 90.0774 20.925ZM98.0615 19.515C98.5215 19.515 98.9315 19.595 99.2915 19.755C99.6615 19.905 99.9715 20.105 100.221 20.355C100.721 20.835 101.016 21.44 101.106 22.17L99.3215 22.215C99.2415 21.895 99.0915 21.63 98.8715 21.42C98.6615 21.21 98.4165 21.105 98.1365 21.105C97.8565 21.105 97.6165 21.15 97.4165 21.24C97.2165 21.32 97.0415 21.45 96.8915 21.63C96.5515 22.05 96.3815 22.63 96.3815 23.37C96.3815 24.11 96.5415 24.67 96.8615 25.05C97.1815 25.42 97.5665 25.605 98.0165 25.605C98.4765 25.605 98.8065 25.5 99.0065 25.29C99.2165 25.07 99.3215 24.775 99.3215 24.405H101.106C101.106 25.205 100.841 25.87 100.311 26.4C99.7715 26.94 99.0165 27.21 98.0465 27.21C97.0865 27.21 96.2815 26.86 95.6315 26.16C94.9415 25.41 94.5965 24.475 94.5965 23.355C94.5965 22.175 94.9415 21.23 95.6315 20.52C96.2815 19.85 97.0915 19.515 98.0615 19.515ZM107.351 26.82C106.691 27.08 106.171 27.21 105.791 27.21C105.411 27.21 105.076 27.165 104.786 27.075C104.506 26.985 104.256 26.85 104.036 26.67C103.576 26.26 103.346 25.695 103.346 24.975V20.895H102.326V19.71H103.346V17.79H105.116V19.71H107.096V20.895H105.116V24.915C105.116 25.515 105.401 25.815 105.971 25.815C106.261 25.815 106.636 25.735 107.096 25.575L107.351 26.82ZM118.067 19.95C117.907 19.1 117.307 18.675 116.267 18.675C115.757 18.675 115.357 18.78 115.067 18.99C114.787 19.19 114.647 19.435 114.647 19.725C114.647 20.015 114.737 20.245 114.917 20.415C115.107 20.575 115.397 20.725 115.787 20.865L117.902 21.69C118.622 21.97 119.177 22.325 119.567 22.755C119.957 23.175 120.152 23.705 120.152 24.345C120.152 25.225 119.822 25.925 119.162 26.445C118.502 26.955 117.562 27.21 116.342 27.21C115.262 27.21 114.387 26.945 113.717 26.415C112.967 25.835 112.572 25.015 112.532 23.955H114.287C114.287 24.755 114.702 25.26 115.532 25.47C115.782 25.54 116.112 25.575 116.522 25.575C116.932 25.575 117.312 25.475 117.662 25.275C118.012 25.065 118.187 24.79 118.187 24.45C118.187 24.1 118.092 23.835 117.902 23.655C117.712 23.465 117.402 23.29 116.972 23.13L115.037 22.365C114.287 22.075 113.712 21.735 113.312 21.345C112.912 20.955 112.712 20.415 112.712 19.725C112.712 18.915 113.027 18.275 113.657 17.805C114.297 17.315 115.162 17.07 116.252 17.07C117.352 17.07 118.197 17.325 118.787 17.835C119.387 18.335 119.732 19.04 119.822 19.95H118.067ZM127.603 20.58C127.853 20.9 128.038 21.27 128.158 21.69C128.288 22.11 128.353 22.495 128.353 22.845C128.353 23.195 128.333 23.51 128.293 23.79H123.583C123.603 24.38 123.748 24.86 124.018 25.23C124.288 25.6 124.698 25.785 125.248 25.785C125.978 25.785 126.413 25.465 126.553 24.825H128.338C128.218 25.555 127.883 26.13 127.333 26.55C126.763 26.99 126.068 27.21 125.248 27.21C124.288 27.21 123.483 26.86 122.833 26.16C122.163 25.43 121.828 24.495 121.828 23.355C121.828 22.185 122.163 21.245 122.833 20.535C123.473 19.855 124.278 19.515 125.248 19.515C126.258 19.515 127.043 19.87 127.603 20.58ZM125.263 20.925C124.763 20.925 124.373 21.09 124.093 21.42C123.813 21.74 123.648 22.155 123.598 22.665H126.703C126.703 21.875 126.453 21.345 125.953 21.075C125.763 20.975 125.533 20.925 125.263 20.925ZM132.242 21.15C132.682 20.1 133.342 19.575 134.222 19.575C134.392 19.575 134.607 19.61 134.867 19.68L134.837 21.45C134.557 21.39 134.282 21.36 134.012 21.36C132.832 21.36 132.242 22.175 132.242 23.805V27H130.472V19.695H132.242V21.15ZM137.537 19.71L139.202 25.245L140.882 19.71H142.922L140.207 27H138.212L135.497 19.71H137.537ZM144.641 19.695H146.411V27H144.641V19.695ZM144.431 17.355C144.431 17.035 144.526 16.785 144.716 16.605C144.906 16.415 145.176 16.32 145.526 16.32C145.866 16.32 146.131 16.415 146.321 16.605C146.521 16.785 146.621 17.035 146.621 17.355C146.621 17.675 146.521 17.93 146.321 18.12C146.131 18.3 145.866 18.39 145.526 18.39C145.176 18.39 144.906 18.3 144.716 18.12C144.526 17.93 144.431 17.675 144.431 17.355ZM152.187 19.515C152.647 19.515 153.057 19.595 153.417 19.755C153.787 19.905 154.097 20.105 154.347 20.355C154.847 20.835 155.142 21.44 155.232 22.17L153.447 22.215C153.367 21.895 153.217 21.63 152.997 21.42C152.787 21.21 152.542 21.105 152.262 21.105C151.982 21.105 151.742 21.15 151.542 21.24C151.342 21.32 151.167 21.45 151.017 21.63C150.677 22.05 150.507 22.63 150.507 23.37C150.507 24.11 150.667 24.67 150.987 25.05C151.307 25.42 151.692 25.605 152.142 25.605C152.602 25.605 152.932 25.5 153.132 25.29C153.342 25.07 153.447 24.775 153.447 24.405H155.232C155.232 25.205 154.967 25.87 154.437 26.4C153.897 26.94 153.142 27.21 152.172 27.21C151.212 27.21 150.407 26.86 149.757 26.16C149.067 25.41 148.722 24.475 148.722 23.355C148.722 22.175 149.067 21.23 149.757 20.52C150.407 19.85 151.217 19.515 152.187 19.515ZM162.452 20.58C162.702 20.9 162.887 21.27 163.007 21.69C163.137 22.11 163.202 22.495 163.202 22.845C163.202 23.195 163.182 23.51 163.142 23.79H158.432C158.452 24.38 158.597 24.86 158.867 25.23C159.137 25.6 159.547 25.785 160.097 25.785C160.827 25.785 161.262 25.465 161.402 24.825H163.187C163.067 25.555 162.732 26.13 162.182 26.55C161.612 26.99 160.917 27.21 160.097 27.21C159.137 27.21 158.332 26.86 157.682 26.16C157.012 25.43 156.677 24.495 156.677 23.355C156.677 22.185 157.012 21.245 157.682 20.535C158.322 19.855 159.127 19.515 160.097 19.515C161.107 19.515 161.892 19.87 162.452 20.58ZM160.112 20.925C159.612 20.925 159.222 21.09 158.942 21.42C158.662 21.74 158.497 22.155 158.447 22.665H161.552C161.552 21.875 161.302 21.345 160.802 21.075C160.612 20.975 160.382 20.925 160.112 20.925Z" fill="white"/>
<path d="M72.4872 151.25C72.4872 151.94 72.2922 152.53 71.9022 153.02C71.5122 153.51 70.9522 153.85 70.2222 154.04L72.8322 158H70.5222L68.3772 154.205H67.0272V158H65.2572V148.265H68.8572C70.0072 148.265 70.9022 148.54 71.5422 149.09C72.1722 149.62 72.4872 150.34 72.4872 151.25ZM68.6922 153.02C69.3422 153.02 69.8322 152.875 70.1622 152.585C70.4922 152.285 70.6572 151.895 70.6572 151.415C70.6572 150.925 70.5072 150.535 70.2072 150.245C69.9072 149.945 69.4572 149.795 68.8572 149.795H67.0272V153.02H68.6922ZM79.9955 151.58C80.2455 151.9 80.4305 152.27 80.5505 152.69C80.6805 153.11 80.7455 153.495 80.7455 153.845C80.7455 154.195 80.7255 154.51 80.6855 154.79H75.9755C75.9955 155.38 76.1405 155.86 76.4105 156.23C76.6805 156.6 77.0905 156.785 77.6405 156.785C78.3705 156.785 78.8055 156.465 78.9455 155.825H80.7305C80.6105 156.555 80.2755 157.13 79.7255 157.55C79.1555 157.99 78.4605 158.21 77.6405 158.21C76.6805 158.21 75.8755 157.86 75.2255 157.16C74.5555 156.43 74.2205 155.495 74.2205 154.355C74.2205 153.185 74.5555 152.245 75.2255 151.535C75.8655 150.855 76.6705 150.515 77.6405 150.515C78.6505 150.515 79.4355 150.87 79.9955 151.58ZM77.6555 151.925C77.1555 151.925 76.7655 152.09 76.4855 152.42C76.2055 152.74 76.0405 153.155 75.9905 153.665H79.0955C79.0955 152.875 78.8455 152.345 78.3455 152.075C78.1555 151.975 77.9255 151.925 77.6555 151.925ZM87.4396 157.055C87.0796 157.825 86.4596 158.21 85.5796 158.21C84.6396 158.21 83.8496 157.87 83.2096 157.19C82.5196 156.47 82.1746 155.525 82.1746 154.355C82.1746 153.205 82.5096 152.265 83.1796 151.535C83.8096 150.855 84.5796 150.515 85.4896 150.515C85.9396 150.515 86.3546 150.625 86.7346 150.845C87.1246 151.055 87.4396 151.385 87.6796 151.835L88.0696 150.71H89.2246V159.125C89.2246 159.555 89.2746 159.84 89.3746 159.98C89.4846 160.12 89.6046 160.22 89.7346 160.28C89.8646 160.35 90.0246 160.415 90.2146 160.475L89.7046 161.765C88.8846 161.565 88.2996 161.245 87.9496 160.805C87.6096 160.365 87.4396 159.76 87.4396 158.99V157.055ZM87.4396 153.83C87.4396 153.28 87.2796 152.855 86.9596 152.555C86.6396 152.255 86.2296 152.105 85.7296 152.105C85.2396 152.105 84.8196 152.305 84.4696 152.705C84.1296 153.105 83.9596 153.655 83.9596 154.355C83.9596 155.065 84.1596 155.63 84.5596 156.05C84.9096 156.42 85.3346 156.605 85.8346 156.605C86.2446 156.605 86.6046 156.48 86.9146 156.23C87.2446 155.95 87.4196 155.585 87.4396 155.135V153.83ZM96.8649 156.68C96.4049 157.65 95.6649 158.135 94.6449 158.135C93.3549 158.135 92.5049 157.63 92.0949 156.62C91.9449 156.27 91.8699 155.845 91.8699 155.345V150.695H93.6399V155.165C93.6399 155.645 93.7549 156.005 93.9849 156.245C94.2149 156.475 94.4949 156.59 94.8249 156.59C95.1649 156.59 95.4499 156.545 95.6799 156.455C95.9099 156.355 96.1099 156.21 96.2799 156.02C96.6499 155.59 96.8449 155.015 96.8649 154.295V150.695H98.6349V158H96.8649V156.68ZM106.509 151.58C106.759 151.9 106.944 152.27 107.064 152.69C107.194 153.11 107.259 153.495 107.259 153.845C107.259 154.195 107.239 154.51 107.199 154.79H102.489C102.509 155.38 102.654 155.86 102.924 156.23C103.194 156.6 103.604 156.785 104.154 156.785C104.884 156.785 105.319 156.465 105.459 155.825H107.244C107.124 156.555 106.789 157.13 106.239 157.55C105.669 157.99 104.974 158.21 104.154 158.21C103.194 158.21 102.389 157.86 101.739 157.16C101.069 156.43 100.734 155.495 100.734 154.355C100.734 153.185 101.069 152.245 101.739 151.535C102.379 150.855 103.184 150.515 104.154 150.515C105.164 150.515 105.949 150.87 106.509 151.58ZM104.169 151.925C103.669 151.925 103.279 152.09 102.999 152.42C102.719 152.74 102.554 153.155 102.504 153.665H105.609C105.609 152.875 105.359 152.345 104.859 152.075C104.669 151.975 104.439 151.925 104.169 151.925ZM110.368 155.78C110.388 156.47 110.893 156.815 111.883 156.815C112.263 156.815 112.573 156.735 112.813 156.575C113.063 156.405 113.188 156.21 113.188 155.99C113.188 155.77 113.113 155.6 112.963 155.48C112.813 155.36 112.578 155.25 112.258 155.15L110.668 154.58C109.488 154.17 108.898 153.5 108.898 152.57C108.898 151.95 109.173 151.455 109.723 151.085C110.283 150.705 111.028 150.515 111.958 150.515C112.898 150.515 113.618 150.72 114.118 151.13C114.628 151.54 114.893 152.055 114.913 152.675H113.248C113.228 152.435 113.113 152.245 112.903 152.105C112.693 151.965 112.393 151.895 112.003 151.895C111.613 151.895 111.308 151.975 111.088 152.135C110.878 152.285 110.773 152.46 110.773 152.66C110.773 153.01 111.068 153.27 111.658 153.44L113.383 154.085C113.953 154.275 114.388 154.52 114.688 154.82C114.998 155.11 115.153 155.49 115.153 155.96C115.153 156.56 114.868 157.08 114.298 157.52C113.708 157.98 112.928 158.21 111.958 158.21C110.988 158.21 110.208 158 109.618 157.58C109.028 157.15 108.728 156.55 108.718 155.78H110.368ZM121.398 157.82C120.738 158.08 120.218 158.21 119.838 158.21C119.458 158.21 119.123 158.165 118.833 158.075C118.553 157.985 118.303 157.85 118.083 157.67C117.623 157.26 117.393 156.695 117.393 155.975V151.895H116.373V150.71H117.393V148.79H119.163V150.71H121.143V151.895H119.163V155.915C119.163 156.515 119.448 156.815 120.018 156.815C120.308 156.815 120.683 156.735 121.143 156.575L121.398 157.82ZM127 148.265H128.77V158H127V148.265ZM134.706 148.265C136.186 148.265 137.381 148.705 138.291 149.585C139.211 150.465 139.671 151.65 139.671 153.14C139.671 154.62 139.211 155.8 138.291 156.68C137.381 157.56 136.186 158 134.706 158H131.541V148.265H134.706ZM133.326 156.395H134.706C135.626 156.395 136.371 156.085 136.941 155.465C137.481 154.865 137.751 154.09 137.751 153.14C137.751 152.17 137.481 151.385 136.941 150.785C136.381 150.175 135.636 149.87 134.706 149.87H133.326V156.395Z" fill="#66A7D7"/>
<path d="M71.2272 287.455C70.8072 288.625 70.0022 289.21 68.8122 289.21C67.5922 289.21 66.5872 288.75 65.7972 287.83C64.9772 286.88 64.5672 285.665 64.5672 284.185C64.5672 282.625 65.0072 281.375 65.8872 280.435C66.7372 279.525 67.8322 279.07 69.1722 279.07C70.0822 279.07 70.8422 279.27 71.4522 279.67C72.0722 280.06 72.5572 280.68 72.9072 281.53L71.0922 281.95C70.5622 281.1 69.8922 280.675 69.0822 280.675C68.3422 280.675 67.7272 280.99 67.2372 281.62C66.7272 282.26 66.4722 283.115 66.4722 284.185C66.4722 285.195 66.7022 286.015 67.1622 286.645C67.6122 287.265 68.2122 287.575 68.9622 287.575C69.6022 287.575 70.1272 287.37 70.5372 286.96C70.9572 286.54 71.1672 285.965 71.1672 285.235V285.175L68.9772 285.13V283.99H72.8622V289H71.4222L71.2272 287.455ZM80.4935 282.58C80.7436 282.9 80.9286 283.27 81.0485 283.69C81.1786 284.11 81.2436 284.495 81.2436 284.845C81.2436 285.195 81.2236 285.51 81.1836 285.79H76.4735C76.4935 286.38 76.6385 286.86 76.9085 287.23C77.1785 287.6 77.5885 287.785 78.1385 287.785C78.8686 287.785 79.3036 287.465 79.4436 286.825H81.2286C81.1086 287.555 80.7736 288.13 80.2236 288.55C79.6536 288.99 78.9586 289.21 78.1385 289.21C77.1785 289.21 76.3735 288.86 75.7235 288.16C75.0535 287.43 74.7185 286.495 74.7185 285.355C74.7185 284.185 75.0535 283.245 75.7235 282.535C76.3635 281.855 77.1685 281.515 78.1385 281.515C79.1486 281.515 79.9336 281.87 80.4935 282.58ZM78.1536 282.925C77.6536 282.925 77.2635 283.09 76.9836 283.42C76.7035 283.74 76.5385 284.155 76.4885 284.665H79.5935C79.5935 283.875 79.3436 283.345 78.8436 283.075C78.6535 282.975 78.4235 282.925 78.1536 282.925ZM87.4727 288.82C86.8127 289.08 86.2927 289.21 85.9127 289.21C85.5327 289.21 85.1977 289.165 84.9077 289.075C84.6277 288.985 84.3777 288.85 84.1577 288.67C83.6977 288.26 83.4677 287.695 83.4677 286.975V282.895H82.4477V281.71H83.4677V279.79H85.2377V281.71H87.2177V282.895H85.2377V286.915C85.2377 287.515 85.5227 287.815 86.0927 287.815C86.3827 287.815 86.7577 287.735 87.2177 287.575L87.4727 288.82ZM98.1896 281.95C98.0296 281.1 97.4296 280.675 96.3896 280.675C95.8796 280.675 95.4796 280.78 95.1896 280.99C94.9096 281.19 94.7696 281.435 94.7696 281.725C94.7696 282.015 94.8596 282.245 95.0396 282.415C95.2296 282.575 95.5196 282.725 95.9096 282.865L98.0246 283.69C98.7446 283.97 99.2996 284.325 99.6896 284.755C100.08 285.175 100.275 285.705 100.275 286.345C100.275 287.225 99.9446 287.925 99.2846 288.445C98.6246 288.955 97.6846 289.21 96.4646 289.21C95.3846 289.21 94.5096 288.945 93.8396 288.415C93.0896 287.835 92.6946 287.015 92.6546 285.955H94.4096C94.4096 286.755 94.8246 287.26 95.6546 287.47C95.9046 287.54 96.2346 287.575 96.6446 287.575C97.0546 287.575 97.4346 287.475 97.7846 287.275C98.1346 287.065 98.3096 286.79 98.3096 286.45C98.3096 286.1 98.2146 285.835 98.0246 285.655C97.8346 285.465 97.5246 285.29 97.0946 285.13L95.1596 284.365C94.4096 284.075 93.8346 283.735 93.4346 283.345C93.0346 282.955 92.8346 282.415 92.8346 281.725C92.8346 280.915 93.1496 280.275 93.7796 279.805C94.4196 279.315 95.2846 279.07 96.3746 279.07C97.4746 279.07 98.3196 279.325 98.9096 279.835C99.5096 280.335 99.8546 281.04 99.9446 281.95H98.1896ZM106.75 288.82C106.09 289.08 105.57 289.21 105.19 289.21C104.81 289.21 104.475 289.165 104.185 289.075C103.905 288.985 103.655 288.85 103.435 288.67C102.975 288.26 102.745 287.695 102.745 286.975V282.895H101.725V281.71H102.745V279.79H104.515V281.71H106.495V282.895H104.515V286.915C104.515 287.515 104.8 287.815 105.37 287.815C105.66 287.815 106.035 287.735 106.495 287.575L106.75 288.82ZM110.958 284.74C111.538 284.74 112.208 284.835 112.968 285.025V284.305C112.968 283.795 112.863 283.42 112.653 283.18C112.453 282.93 112.118 282.805 111.648 282.805C111.188 282.805 110.833 282.9 110.583 283.09C110.333 283.27 110.208 283.53 110.208 283.87H108.273C108.273 283.04 108.563 282.44 109.143 282.07C109.733 281.7 110.553 281.515 111.603 281.515C113.103 281.515 114.073 282.04 114.513 283.09C114.663 283.45 114.738 283.875 114.738 284.365V289H113.193L113.058 288.025C112.588 288.815 111.868 289.21 110.898 289.21C109.958 289.21 109.228 288.98 108.708 288.52C108.228 288.08 107.988 287.525 107.988 286.855C107.988 286.175 108.253 285.655 108.783 285.295C109.313 284.925 110.038 284.74 110.958 284.74ZM112.968 286.15C112.378 285.99 111.828 285.91 111.318 285.91C110.358 285.91 109.878 286.23 109.878 286.87C109.878 287.14 109.988 287.375 110.208 287.575C110.428 287.765 110.778 287.86 111.258 287.86C111.748 287.86 112.148 287.7 112.458 287.38C112.778 287.05 112.948 286.64 112.968 286.15ZM119.088 283.15C119.528 282.1 120.188 281.575 121.068 281.575C121.238 281.575 121.453 281.61 121.713 281.68L121.683 283.45C121.403 283.39 121.128 283.36 120.858 283.36C119.678 283.36 119.088 284.175 119.088 285.805V289H117.318V281.695H119.088V283.15ZM127.668 288.82C127.008 289.08 126.488 289.21 126.108 289.21C125.728 289.21 125.393 289.165 125.103 289.075C124.823 288.985 124.573 288.85 124.353 288.67C123.893 288.26 123.663 287.695 123.663 286.975V282.895H122.643V281.71H123.663V279.79H125.433V281.71H127.413V282.895H125.433V286.915C125.433 287.515 125.718 287.815 126.288 287.815C126.578 287.815 126.953 287.735 127.413 287.575L127.668 288.82ZM134.561 282.58C134.811 282.9 134.996 283.27 135.116 283.69C135.246 284.11 135.311 284.495 135.311 284.845C135.311 285.195 135.291 285.51 135.251 285.79H130.541C130.561 286.38 130.706 286.86 130.976 287.23C131.246 287.6 131.656 287.785 132.206 287.785C132.936 287.785 133.371 287.465 133.511 286.825H135.296C135.176 287.555 134.841 288.13 134.291 288.55C133.721 288.99 133.026 289.21 132.206 289.21C131.246 289.21 130.441 288.86 129.791 288.16C129.121 287.43 128.786 286.495 128.786 285.355C128.786 284.185 129.121 283.245 129.791 282.535C130.431 281.855 131.236 281.515 132.206 281.515C133.216 281.515 134.001 281.87 134.561 282.58ZM132.221 282.925C131.721 282.925 131.331 283.09 131.051 283.42C130.771 283.74 130.606 284.155 130.556 284.665H133.661C133.661 283.875 133.411 283.345 132.911 283.075C132.721 282.975 132.491 282.925 132.221 282.925ZM142.185 287.875C141.735 288.765 141.045 289.21 140.115 289.21C139.185 289.21 138.405 288.855 137.775 288.145C137.125 287.405 136.8 286.465 136.8 285.325C136.8 284.185 137.11 283.26 137.73 282.55C138.34 281.86 139.1 281.515 140.01 281.515C140.92 281.515 141.605 281.88 142.065 282.61V278.71H143.85V289H142.395L142.185 287.875ZM140.34 283.105C139.84 283.105 139.42 283.31 139.08 283.72C138.75 284.12 138.585 284.66 138.585 285.34C138.585 286.02 138.755 286.57 139.095 286.99C139.435 287.4 139.865 287.605 140.385 287.605C140.815 287.605 141.2 287.435 141.54 287.095C141.89 286.745 142.065 286.305 142.065 285.775V284.83C142.045 284.31 141.87 283.885 141.54 283.555C141.24 283.255 140.84 283.105 140.34 283.105Z" fill="#66A7D7"/>
</svg>
