<svg width="194" height="306" viewBox="0 0 194 306" fill="none" xmlns="http://www.w3.org/2000/svg">
<path d="M21.562 281.01C20.254 281.01 19.492 281.508 19.276 282.504H17.044C17.164 281.352 17.632 280.482 18.448 279.894C19.216 279.354 20.224 279.084 21.472 279.084C22.756 279.084 23.8 279.384 24.604 279.984C25.444 280.596 25.864 281.382 25.864 282.342C25.864 282.942 25.702 283.464 25.378 283.908C25.054 284.34 24.574 284.664 23.938 284.88C24.646 285.12 25.21 285.48 25.63 285.96C26.062 286.428 26.278 286.968 26.278 287.58C26.278 288.192 26.164 288.714 25.936 289.146C25.72 289.578 25.408 289.95 25 290.262C24.136 290.922 23.014 291.252 21.634 291.252C20.314 291.252 19.204 290.916 18.304 290.244C17.296 289.512 16.792 288.54 16.792 287.328H19.06C19.096 287.94 19.342 288.42 19.798 288.768C20.266 289.116 20.872 289.29 21.616 289.29C22.36 289.29 22.936 289.128 23.344 288.804C23.764 288.468 23.974 288.048 23.974 287.544C23.974 287.028 23.782 286.626 23.398 286.338C23.026 286.05 22.432 285.906 21.616 285.906H20.068V284.232H21.4C22.084 284.232 22.618 284.088 23.002 283.8C23.386 283.5 23.578 283.11 23.578 282.63C23.578 282.15 23.41 281.76 23.074 281.46C22.75 281.16 22.246 281.01 21.562 281.01Z" fill="white"/>
<ellipse cx="22" cy="153" rx="16" ry="16" transform="rotate(-90 22 153)" fill="#0DCBE5"/>
<path d="M22 262L22 165" stroke="#0DCBE5"/>
<path d="M22 141L22 34" stroke="#0DCBE5"/>
<path d="M22 262.5C33.8741 262.5 43.5 272.126 43.5 284C43.5 295.874 33.8741 305.5 22 305.5C10.1259 305.5 0.5 295.874 0.499999 284C0.499999 272.126 10.1259 262.5 22 262.5Z" stroke="#0DCBE5"/>
<path d="M22 131.5C33.8741 131.5 43.5 141.126 43.5 153C43.5 164.874 33.8741 174.5 22 174.5C10.1259 174.5 0.5 164.874 0.499999 153C0.499999 141.126 10.1259 131.5 22 131.5Z" stroke="#0DCBE5"/>
<path d="M22 0.500003C33.8741 0.500002 43.5 10.1259 43.5 22C43.5 33.8741 33.8741 43.5 22 43.5C10.1259 43.5 0.5 33.8741 0.499999 22C0.499999 10.1259 10.1259 0.500003 22 0.500003Z" stroke="#0DCBE5"/>
<ellipse cx="22" cy="22" rx="16" ry="16" transform="rotate(-90 22 22)" fill="#0DCBE5"/>
<path d="M181.742 288.233L184.975 285L181.742 281.767C181.664 281.689 181.603 281.598 181.562 281.497C181.52 281.396 181.498 281.288 181.498 281.179C181.498 281.07 181.52 280.962 181.562 280.861C181.603 280.76 181.664 280.669 181.742 280.592C181.819 280.514 181.91 280.453 182.011 280.412C182.112 280.37 182.22 280.348 182.329 280.348C182.438 280.348 182.546 280.37 182.647 280.412C182.748 280.453 182.839 280.514 182.917 280.592L186.742 284.417C186.819 284.494 186.88 284.585 186.922 284.686C186.964 284.787 186.985 284.895 186.985 285.004C186.985 285.113 186.964 285.221 186.922 285.322C186.88 285.423 186.819 285.515 186.742 285.592L182.917 289.417C182.84 289.494 182.748 289.555 182.647 289.597C182.546 289.639 182.438 289.66 182.329 289.66C182.22 289.66 182.112 289.639 182.011 289.597C181.91 289.555 181.819 289.494 181.742 289.417C181.425 289.092 181.417 288.558 181.742 288.233Z" fill="white"/>
<path d="M16 21.4737L20.1053 25.5789L28 18" stroke="white" stroke-width="2" stroke-linecap="round" stroke-linejoin="round"/>
<path d="M16 152.474L20.1053 156.579L28 149" stroke="white" stroke-width="2" stroke-linecap="round" stroke-linejoin="round"/>
<path d="M75.625 20.25C75.625 20.94 75.43 21.53 75.04 22.02C74.65 22.51 74.09 22.85 73.36 23.04L75.97 27H73.66L71.515 23.205H70.165V27H68.395V17.265H71.995C73.145 17.265 74.04 17.54 74.68 18.09C75.31 18.62 75.625 19.34 75.625 20.25ZM71.83 22.02C72.48 22.02 72.97 21.875 73.3 21.585C73.63 21.285 73.795 20.895 73.795 20.415C73.795 19.925 73.645 19.535 73.345 19.245C73.045 18.945 72.595 18.795 71.995 18.795H70.165V22.02H71.83ZM83.1333 20.58C83.3833 20.9 83.5683 21.27 83.6883 21.69C83.8183 22.11 83.8833 22.495 83.8833 22.845C83.8833 23.195 83.8633 23.51 83.8233 23.79H79.1133C79.1333 24.38 79.2783 24.86 79.5483 25.23C79.8183 25.6 80.2283 25.785 80.7783 25.785C81.5083 25.785 81.9433 25.465 82.0833 24.825H83.8683C83.7483 25.555 83.4133 26.13 82.8633 26.55C82.2933 26.99 81.5983 27.21 80.7783 27.21C79.8183 27.21 79.0133 26.86 78.3633 26.16C77.6933 25.43 77.3583 24.495 77.3583 23.355C77.3583 22.185 77.6933 21.245 78.3633 20.535C79.0033 19.855 79.8083 19.515 80.7783 19.515C81.7883 19.515 82.5733 19.87 83.1333 20.58ZM80.7933 20.925C80.2933 20.925 79.9033 21.09 79.6233 21.42C79.3433 21.74 79.1783 22.155 79.1283 22.665H82.2333C82.2333 21.875 81.9833 21.345 81.4833 21.075C81.2933 20.975 81.0633 20.925 80.7933 20.925ZM90.5774 26.055C90.2174 26.825 89.5974 27.21 88.7174 27.21C87.7774 27.21 86.9874 26.87 86.3474 26.19C85.6574 25.47 85.3124 24.525 85.3124 23.355C85.3124 22.205 85.6474 21.265 86.3174 20.535C86.9474 19.855 87.7174 19.515 88.6274 19.515C89.0774 19.515 89.4924 19.625 89.8724 19.845C90.2624 20.055 90.5774 20.385 90.8174 20.835L91.2074 19.71H92.3624V28.125C92.3624 28.555 92.4124 28.84 92.5124 28.98C92.6224 29.12 92.7424 29.22 92.8724 29.28C93.0024 29.35 93.1624 29.415 93.3524 29.475L92.8424 30.765C92.0224 30.565 91.4374 30.245 91.0874 29.805C90.7474 29.365 90.5774 28.76 90.5774 27.99V26.055ZM90.5774 22.83C90.5774 22.28 90.4174 21.855 90.0974 21.555C89.7774 21.255 89.3674 21.105 88.8674 21.105C88.3774 21.105 87.9574 21.305 87.6074 21.705C87.2674 22.105 87.0974 22.655 87.0974 23.355C87.0974 24.065 87.2974 24.63 87.6974 25.05C88.0474 25.42 88.4724 25.605 88.9724 25.605C89.3824 25.605 89.7424 25.48 90.0524 25.23C90.3824 24.95 90.5574 24.585 90.5774 24.135V22.83ZM100.003 25.68C99.5427 26.65 98.8027 27.135 97.7827 27.135C96.4927 27.135 95.6427 26.63 95.2327 25.62C95.0827 25.27 95.0077 24.845 95.0077 24.345V19.695H96.7777V24.165C96.7777 24.645 96.8927 25.005 97.1227 25.245C97.3527 25.475 97.6327 25.59 97.9627 25.59C98.3027 25.59 98.5877 25.545 98.8177 25.455C99.0477 25.355 99.2477 25.21 99.4177 25.02C99.7877 24.59 99.9827 24.015 100.003 23.295V19.695H101.773V27H100.003V25.68ZM109.647 20.58C109.897 20.9 110.082 21.27 110.202 21.69C110.332 22.11 110.397 22.495 110.397 22.845C110.397 23.195 110.377 23.51 110.337 23.79H105.627C105.647 24.38 105.792 24.86 106.062 25.23C106.332 25.6 106.742 25.785 107.292 25.785C108.022 25.785 108.457 25.465 108.597 24.825H110.382C110.262 25.555 109.927 26.13 109.377 26.55C108.807 26.99 108.112 27.21 107.292 27.21C106.332 27.21 105.527 26.86 104.877 26.16C104.207 25.43 103.872 24.495 103.872 23.355C103.872 22.185 104.207 21.245 104.877 20.535C105.517 19.855 106.322 19.515 107.292 19.515C108.302 19.515 109.087 19.87 109.647 20.58ZM107.307 20.925C106.807 20.925 106.417 21.09 106.137 21.42C105.857 21.74 105.692 22.155 105.642 22.665H108.747C108.747 21.875 108.497 21.345 107.997 21.075C107.807 20.975 107.577 20.925 107.307 20.925ZM113.506 24.78C113.526 25.47 114.031 25.815 115.021 25.815C115.401 25.815 115.711 25.735 115.951 25.575C116.201 25.405 116.326 25.21 116.326 24.99C116.326 24.77 116.251 24.6 116.101 24.48C115.951 24.36 115.716 24.25 115.396 24.15L113.806 23.58C112.626 23.17 112.036 22.5 112.036 21.57C112.036 20.95 112.311 20.455 112.861 20.085C113.421 19.705 114.166 19.515 115.096 19.515C116.036 19.515 116.756 19.72 117.256 20.13C117.766 20.54 118.031 21.055 118.051 21.675H116.386C116.366 21.435 116.251 21.245 116.041 21.105C115.831 20.965 115.531 20.895 115.141 20.895C114.751 20.895 114.446 20.975 114.226 21.135C114.016 21.285 113.911 21.46 113.911 21.66C113.911 22.01 114.206 22.27 114.796 22.44L116.521 23.085C117.091 23.275 117.526 23.52 117.826 23.82C118.136 24.11 118.291 24.49 118.291 24.96C118.291 25.56 118.006 26.08 117.436 26.52C116.846 26.98 116.066 27.21 115.096 27.21C114.126 27.21 113.346 27 112.756 26.58C112.166 26.15 111.866 25.55 111.856 24.78H113.506ZM124.536 26.82C123.876 27.08 123.356 27.21 122.976 27.21C122.596 27.21 122.261 27.165 121.971 27.075C121.691 26.985 121.441 26.85 121.221 26.67C120.761 26.26 120.531 25.695 120.531 24.975V20.895H119.511V19.71H120.531V17.79H122.301V19.71H124.281V20.895H122.301V24.915C122.301 25.515 122.586 25.815 123.156 25.815C123.446 25.815 123.821 25.735 124.281 25.575L124.536 26.82ZM130.138 17.265H131.908V27H130.138V17.265ZM137.844 17.265C139.324 17.265 140.519 17.705 141.429 18.585C142.349 19.465 142.809 20.65 142.809 22.14C142.809 23.62 142.349 24.8 141.429 25.68C140.519 26.56 139.324 27 137.844 27H134.679V17.265H137.844ZM136.464 25.395H137.844C138.764 25.395 139.509 25.085 140.079 24.465C140.619 23.865 140.889 23.09 140.889 22.14C140.889 21.17 140.619 20.385 140.079 19.785C139.519 19.175 138.774 18.87 137.844 18.87H136.464V25.395Z" fill="#D7D7D7"/>
<path d="M68.395 148.265H74.53V149.795H70.165V152.36H74.155V153.875H70.165V158H68.395V148.265ZM81.0769 156.68C80.6169 157.65 79.8769 158.135 78.8569 158.135C77.5669 158.135 76.7169 157.63 76.3069 156.62C76.1569 156.27 76.0819 155.845 76.0819 155.345V150.695H77.8519V155.165C77.8519 155.645 77.9669 156.005 78.1969 156.245C78.4269 156.475 78.7069 156.59 79.0369 156.59C79.3769 156.59 79.6619 156.545 79.8919 156.455C80.1219 156.355 80.3219 156.21 80.4919 156.02C80.8619 155.59 81.0569 155.015 81.0769 154.295V150.695H82.8469V158H81.0769V156.68ZM87.3762 151.97C87.8562 151 88.6262 150.515 89.6862 150.515C90.5862 150.515 91.2612 150.81 91.7112 151.4C92.1712 151.99 92.4012 152.77 92.4012 153.74V158H90.6312V153.74C90.6312 153.2 90.5012 152.795 90.2412 152.525C89.9812 152.245 89.6162 152.105 89.1462 152.105C88.6762 152.105 88.2712 152.315 87.9312 152.735C87.6012 153.155 87.4262 153.785 87.4062 154.625V158H85.6362V150.71H87.1812L87.3762 151.97ZM99.7369 156.875C99.2869 157.765 98.5969 158.21 97.6669 158.21C96.7369 158.21 95.9569 157.855 95.3269 157.145C94.6769 156.405 94.3519 155.465 94.3519 154.325C94.3519 153.185 94.6619 152.26 95.2819 151.55C95.8919 150.86 96.6519 150.515 97.5619 150.515C98.4719 150.515 99.1569 150.88 99.6169 151.61V147.71H101.402V158H99.9469L99.7369 156.875ZM97.8919 152.105C97.3919 152.105 96.9719 152.31 96.6319 152.72C96.3019 153.12 96.1369 153.66 96.1369 154.34C96.1369 155.02 96.3069 155.57 96.6469 155.99C96.9869 156.4 97.4169 156.605 97.9369 156.605C98.3669 156.605 98.7519 156.435 99.0919 156.095C99.4419 155.745 99.6169 155.305 99.6169 154.775V153.83C99.5969 153.31 99.4219 152.885 99.0919 152.555C98.7919 152.255 98.3919 152.105 97.8919 152.105ZM108.875 148.265L111.02 155.66L113.105 148.91H114.305L116.51 155.69L118.79 148.265H120.785L117.44 158H115.58L113.75 152.51L111.935 158H110.075L106.895 148.265H108.875ZM124.262 153.74C124.842 153.74 125.512 153.835 126.272 154.025V153.305C126.272 152.795 126.167 152.42 125.957 152.18C125.757 151.93 125.422 151.805 124.952 151.805C124.492 151.805 124.137 151.9 123.887 152.09C123.637 152.27 123.512 152.53 123.512 152.87H121.577C121.577 152.04 121.867 151.44 122.447 151.07C123.037 150.7 123.857 150.515 124.907 150.515C126.407 150.515 127.377 151.04 127.817 152.09C127.967 152.45 128.042 152.875 128.042 153.365V158H126.497L126.362 157.025C125.892 157.815 125.172 158.21 124.202 158.21C123.262 158.21 122.532 157.98 122.012 157.52C121.532 157.08 121.292 156.525 121.292 155.855C121.292 155.175 121.557 154.655 122.087 154.295C122.617 153.925 123.342 153.74 124.262 153.74ZM126.272 155.15C125.682 154.99 125.132 154.91 124.622 154.91C123.662 154.91 123.182 155.23 123.182 155.87C123.182 156.14 123.292 156.375 123.512 156.575C123.732 156.765 124.082 156.86 124.562 156.86C125.052 156.86 125.452 156.7 125.762 156.38C126.082 156.05 126.252 155.64 126.272 155.15ZM130.622 147.71H132.392V158H130.622V147.71ZM135.177 147.71H136.947V158H135.177V147.71ZM144.818 151.58C145.068 151.9 145.253 152.27 145.373 152.69C145.503 153.11 145.568 153.495 145.568 153.845C145.568 154.195 145.548 154.51 145.508 154.79H140.798C140.818 155.38 140.963 155.86 141.233 156.23C141.503 156.6 141.913 156.785 142.463 156.785C143.193 156.785 143.628 156.465 143.768 155.825H145.553C145.433 156.555 145.098 157.13 144.548 157.55C143.978 157.99 143.283 158.21 142.463 158.21C141.503 158.21 140.698 157.86 140.048 157.16C139.378 156.43 139.043 155.495 139.043 154.355C139.043 153.185 139.378 152.245 140.048 151.535C140.688 150.855 141.493 150.515 142.463 150.515C143.473 150.515 144.258 150.87 144.818 151.58ZM142.478 151.925C141.978 151.925 141.588 152.09 141.308 152.42C141.028 152.74 140.863 153.155 140.813 153.665H143.918C143.918 152.875 143.668 152.345 143.168 152.075C142.978 151.975 142.748 151.925 142.478 151.925ZM151.797 157.82C151.137 158.08 150.617 158.21 150.237 158.21C149.857 158.21 149.522 158.165 149.232 158.075C148.952 157.985 148.702 157.85 148.482 157.67C148.022 157.26 147.792 156.695 147.792 155.975V151.895H146.772V150.71H147.792V148.79H149.562V150.71H151.542V151.895H149.562V155.915C149.562 156.515 149.847 156.815 150.417 156.815C150.707 156.815 151.082 156.735 151.542 156.575L151.797 157.82Z" fill="#D7D7D7"/>
<path d="M73.51 281.95C73.35 281.1 72.75 280.675 71.71 280.675C71.2 280.675 70.8 280.78 70.51 280.99C70.23 281.19 70.09 281.435 70.09 281.725C70.09 282.015 70.18 282.245 70.36 282.415C70.55 282.575 70.84 282.725 71.23 282.865L73.345 283.69C74.065 283.97 74.62 284.325 75.01 284.755C75.4 285.175 75.595 285.705 75.595 286.345C75.595 287.225 75.265 287.925 74.605 288.445C73.945 288.955 73.005 289.21 71.785 289.21C70.705 289.21 69.83 288.945 69.16 288.415C68.41 287.835 68.015 287.015 67.975 285.955H69.73C69.73 286.755 70.145 287.26 70.975 287.47C71.225 287.54 71.555 287.575 71.965 287.575C72.375 287.575 72.755 287.475 73.105 287.275C73.455 287.065 73.63 286.79 73.63 286.45C73.63 286.1 73.535 285.835 73.345 285.655C73.155 285.465 72.845 285.29 72.415 285.13L70.48 284.365C69.73 284.075 69.155 283.735 68.755 283.345C68.355 282.955 68.155 282.415 68.155 281.725C68.155 280.915 68.47 280.275 69.1 279.805C69.74 279.315 70.605 279.07 71.695 279.07C72.795 279.07 73.64 279.325 74.23 279.835C74.83 280.335 75.175 281.04 75.265 281.95H73.51ZM83.0454 282.58C83.2954 282.9 83.4804 283.27 83.6004 283.69C83.7304 284.11 83.7954 284.495 83.7954 284.845C83.7954 285.195 83.7754 285.51 83.7354 285.79H79.0254C79.0454 286.38 79.1904 286.86 79.4604 287.23C79.7304 287.6 80.1404 287.785 80.6904 287.785C81.4204 287.785 81.8554 287.465 81.9954 286.825H83.7804C83.6604 287.555 83.3254 288.13 82.7754 288.55C82.2054 288.99 81.5104 289.21 80.6904 289.21C79.7304 289.21 78.9254 288.86 78.2754 288.16C77.6054 287.43 77.2704 286.495 77.2704 285.355C77.2704 284.185 77.6054 283.245 78.2754 282.535C78.9154 281.855 79.7204 281.515 80.6904 281.515C81.7004 281.515 82.4854 281.87 83.0454 282.58ZM80.7054 282.925C80.2054 282.925 79.8154 283.09 79.5354 283.42C79.2554 283.74 79.0904 284.155 79.0404 284.665H82.1454C82.1454 283.875 81.8954 283.345 81.3954 283.075C81.2054 282.975 80.9754 282.925 80.7054 282.925ZM87.6545 282.97C88.1345 282 88.9045 281.515 89.9645 281.515C90.8645 281.515 91.5395 281.81 91.9895 282.4C92.4495 282.99 92.6795 283.77 92.6795 284.74V289H90.9095V284.74C90.9095 284.2 90.7795 283.795 90.5195 283.525C90.2595 283.245 89.8945 283.105 89.4245 283.105C88.9545 283.105 88.5495 283.315 88.2095 283.735C87.8795 284.155 87.7045 284.785 87.6845 285.625V289H85.9145V281.71H87.4595L87.6545 282.97ZM100.015 287.875C99.5652 288.765 98.8752 289.21 97.9452 289.21C97.0152 289.21 96.2352 288.855 95.6052 288.145C94.9552 287.405 94.6302 286.465 94.6302 285.325C94.6302 284.185 94.9402 283.26 95.5602 282.55C96.1702 281.86 96.9302 281.515 97.8402 281.515C98.7502 281.515 99.4352 281.88 99.8952 282.61V278.71H101.68V289H100.225L100.015 287.875ZM98.1702 283.105C97.6702 283.105 97.2502 283.31 96.9102 283.72C96.5802 284.12 96.4152 284.66 96.4152 285.34C96.4152 286.02 96.5852 286.57 96.9252 286.99C97.2652 287.4 97.6952 287.605 98.2152 287.605C98.6452 287.605 99.0302 287.435 99.3702 287.095C99.7202 286.745 99.8952 286.305 99.8952 285.775V284.83C99.8752 284.31 99.7002 283.885 99.3702 283.555C99.0702 283.255 98.6702 283.105 98.1702 283.105ZM110.803 279.265L113.473 285.055L116.143 279.265H118.588V289H116.803V281.605L114.043 287.935H112.888L110.038 281.395V289H108.268V279.265H110.803ZM126.463 282.58C126.713 282.9 126.898 283.27 127.018 283.69C127.148 284.11 127.213 284.495 127.213 284.845C127.213 285.195 127.193 285.51 127.153 285.79H122.443C122.463 286.38 122.608 286.86 122.878 287.23C123.148 287.6 123.558 287.785 124.108 287.785C124.838 287.785 125.273 287.465 125.413 286.825H127.198C127.078 287.555 126.743 288.13 126.193 288.55C125.623 288.99 124.928 289.21 124.108 289.21C123.148 289.21 122.343 288.86 121.693 288.16C121.023 287.43 120.688 286.495 120.688 285.355C120.688 284.185 121.023 283.245 121.693 282.535C122.333 281.855 123.138 281.515 124.108 281.515C125.118 281.515 125.903 281.87 126.463 282.58ZM124.123 282.925C123.623 282.925 123.233 283.09 122.953 283.42C122.673 283.74 122.508 284.155 122.458 284.665H125.563C125.563 283.875 125.313 283.345 124.813 283.075C124.623 282.975 124.393 282.925 124.123 282.925ZM130.323 286.78C130.343 287.47 130.848 287.815 131.838 287.815C132.218 287.815 132.528 287.735 132.768 287.575C133.018 287.405 133.143 287.21 133.143 286.99C133.143 286.77 133.068 286.6 132.918 286.48C132.768 286.36 132.533 286.25 132.213 286.15L130.623 285.58C129.443 285.17 128.853 284.5 128.853 283.57C128.853 282.95 129.128 282.455 129.678 282.085C130.238 281.705 130.983 281.515 131.913 281.515C132.853 281.515 133.573 281.72 134.073 282.13C134.583 282.54 134.848 283.055 134.868 283.675H133.203C133.183 283.435 133.068 283.245 132.858 283.105C132.648 282.965 132.348 282.895 131.958 282.895C131.568 282.895 131.263 282.975 131.043 283.135C130.833 283.285 130.728 283.46 130.728 283.66C130.728 284.01 131.023 284.27 131.613 284.44L133.338 285.085C133.908 285.275 134.343 285.52 134.643 285.82C134.953 286.11 135.108 286.49 135.108 286.96C135.108 287.56 134.823 288.08 134.253 288.52C133.663 288.98 132.883 289.21 131.913 289.21C130.943 289.21 130.163 289 129.573 288.58C128.983 288.15 128.683 287.55 128.673 286.78H130.323ZM138.233 286.78C138.253 287.47 138.758 287.815 139.748 287.815C140.128 287.815 140.438 287.735 140.678 287.575C140.928 287.405 141.053 287.21 141.053 286.99C141.053 286.77 140.978 286.6 140.828 286.48C140.678 286.36 140.443 286.25 140.123 286.15L138.533 285.58C137.353 285.17 136.763 284.5 136.763 283.57C136.763 282.95 137.038 282.455 137.588 282.085C138.148 281.705 138.893 281.515 139.823 281.515C140.763 281.515 141.483 281.72 141.983 282.13C142.493 282.54 142.758 283.055 142.778 283.675H141.113C141.093 283.435 140.978 283.245 140.768 283.105C140.558 282.965 140.258 282.895 139.868 282.895C139.478 282.895 139.173 282.975 138.953 283.135C138.743 283.285 138.638 283.46 138.638 283.66C138.638 284.01 138.933 284.27 139.523 284.44L141.248 285.085C141.818 285.275 142.253 285.52 142.553 285.82C142.863 286.11 143.018 286.49 143.018 286.96C143.018 287.56 142.733 288.08 142.163 288.52C141.573 288.98 140.793 289.21 139.823 289.21C138.853 289.21 138.073 289 137.483 288.58C136.893 288.15 136.593 287.55 136.583 286.78H138.233ZM147.553 284.74C148.133 284.74 148.803 284.835 149.563 285.025V284.305C149.563 283.795 149.458 283.42 149.248 283.18C149.048 282.93 148.713 282.805 148.243 282.805C147.783 282.805 147.428 282.9 147.178 283.09C146.928 283.27 146.803 283.53 146.803 283.87H144.868C144.868 283.04 145.158 282.44 145.738 282.07C146.328 281.7 147.148 281.515 148.198 281.515C149.698 281.515 150.668 282.04 151.108 283.09C151.258 283.45 151.333 283.875 151.333 284.365V289H149.788L149.653 288.025C149.183 288.815 148.463 289.21 147.493 289.21C146.553 289.21 145.823 288.98 145.303 288.52C144.823 288.08 144.583 287.525 144.583 286.855C144.583 286.175 144.848 285.655 145.378 285.295C145.908 284.925 146.633 284.74 147.553 284.74ZM149.563 286.15C148.973 285.99 148.423 285.91 147.913 285.91C146.953 285.91 146.473 286.23 146.473 286.87C146.473 287.14 146.583 287.375 146.803 287.575C147.023 287.765 147.373 287.86 147.853 287.86C148.343 287.86 148.743 287.7 149.053 287.38C149.373 287.05 149.543 286.64 149.563 286.15ZM154.543 286.015C153.953 285.515 153.658 284.89 153.658 284.14C153.658 283.35 153.968 282.71 154.588 282.22C155.188 281.75 155.873 281.515 156.643 281.515C157.423 281.515 158.073 281.66 158.593 281.95C158.653 281.38 158.898 280.92 159.328 280.57C159.748 280.22 160.243 280.045 160.813 280.045L160.723 281.74C159.863 281.74 159.418 282.025 159.388 282.595C159.758 283.055 159.943 283.525 159.943 284.005C159.943 284.485 159.858 284.89 159.688 285.22C159.518 285.54 159.288 285.81 158.998 286.03C158.398 286.51 157.668 286.75 156.808 286.75C156.318 286.75 155.873 286.675 155.473 286.525C155.073 286.645 154.873 286.885 154.873 287.245C154.873 287.695 155.253 287.92 156.013 287.92H158.458C160.118 287.92 160.948 288.5 160.948 289.66C160.948 290.05 160.848 290.43 160.648 290.8C160.458 291.18 160.178 291.515 159.808 291.805C158.988 292.445 157.958 292.765 156.718 292.765C155.518 292.765 154.543 292.52 153.793 292.03C153.093 291.56 152.743 290.985 152.743 290.305C152.743 289.855 152.878 289.495 153.148 289.225C153.428 288.965 153.793 288.8 154.243 288.73C153.653 288.37 153.358 287.925 153.358 287.395C153.358 287.045 153.468 286.755 153.688 286.525C153.908 286.285 154.193 286.115 154.543 286.015ZM155.893 289.165C154.953 289.205 154.483 289.56 154.483 290.23C154.483 290.57 154.678 290.84 155.068 291.04C155.468 291.25 155.938 291.355 156.478 291.355C157.018 291.355 157.438 291.31 157.738 291.22C158.048 291.13 158.308 291.01 158.518 290.86C158.968 290.56 159.193 290.2 159.193 289.78C159.193 289.6 159.128 289.45 158.998 289.33C158.878 289.22 158.698 289.165 158.458 289.165H155.893ZM158.188 284.125C158.188 283.715 158.073 283.385 157.843 283.135C157.623 282.875 157.283 282.745 156.823 282.745C156.363 282.745 156.013 282.875 155.773 283.135C155.533 283.385 155.413 283.715 155.413 284.125C155.413 284.525 155.533 284.855 155.773 285.115C156.013 285.375 156.363 285.505 156.823 285.505C157.283 285.505 157.623 285.375 157.843 285.115C158.073 284.855 158.188 284.525 158.188 284.125ZM167.728 282.58C167.978 282.9 168.163 283.27 168.283 283.69C168.413 284.11 168.478 284.495 168.478 284.845C168.478 285.195 168.458 285.51 168.418 285.79H163.708C163.728 286.38 163.873 286.86 164.143 287.23C164.413 287.6 164.823 287.785 165.373 287.785C166.103 287.785 166.538 287.465 166.678 286.825H168.463C168.343 287.555 168.008 288.13 167.458 288.55C166.888 288.99 166.193 289.21 165.373 289.21C164.413 289.21 163.608 288.86 162.958 288.16C162.288 287.43 161.953 286.495 161.953 285.355C161.953 284.185 162.288 283.245 162.958 282.535C163.598 281.855 164.403 281.515 165.373 281.515C166.383 281.515 167.168 281.87 167.728 282.58ZM165.388 282.925C164.888 282.925 164.498 283.09 164.218 283.42C163.938 283.74 163.773 284.155 163.723 284.665H166.828C166.828 283.875 166.578 283.345 166.078 283.075C165.888 282.975 165.658 282.925 165.388 282.925Z" fill="white"/>
</svg>
