<?xml version="1.0" encoding="utf-8"?>
<svg xmlns="http://www.w3.org/2000/svg" xmlns:xlink="http://www.w3.org/1999/xlink" style="margin: auto; background: rgb(241, 242, 243); display: block; shape-rendering: auto;" width="200px" height="200px" viewBox="0 0 100 100" preserveAspectRatio="xMidYMid">
<g transform="rotate(0 50 50)">
  <rect x="47" y="27.5" rx="3" ry="2.5" width="6" height="5" fill="#14151a">
    <animate attributeName="opacity" values="1;0" keyTimes="0;1" dur="0.9259259259259258s" begin="-0.8487654320987654s" repeatCount="indefinite"></animate>
  </rect>
</g><g transform="rotate(30 50 50)">
  <rect x="47" y="27.5" rx="3" ry="2.5" width="6" height="5" fill="#14151a">
    <animate attributeName="opacity" values="1;0" keyTimes="0;1" dur="0.9259259259259258s" begin="-0.7716049382716049s" repeatCount="indefinite"></animate>
  </rect>
</g><g transform="rotate(60 50 50)">
  <rect x="47" y="27.5" rx="3" ry="2.5" width="6" height="5" fill="#14151a">
    <animate attributeName="opacity" values="1;0" keyTimes="0;1" dur="0.9259259259259258s" begin="-0.6944444444444444s" repeatCount="indefinite"></animate>
  </rect>
</g><g transform="rotate(90 50 50)">
  <rect x="47" y="27.5" rx="3" ry="2.5" width="6" height="5" fill="#14151a">
    <animate attributeName="opacity" values="1;0" keyTimes="0;1" dur="0.9259259259259258s" begin="-0.6172839506172839s" repeatCount="indefinite"></animate>
  </rect>
</g><g transform="rotate(120 50 50)">
  <rect x="47" y="27.5" rx="3" ry="2.5" width="6" height="5" fill="#14151a">
    <animate attributeName="opacity" values="1;0" keyTimes="0;1" dur="0.9259259259259258s" begin="-0.5401234567901234s" repeatCount="indefinite"></animate>
  </rect>
</g><g transform="rotate(150 50 50)">
  <rect x="47" y="27.5" rx="3" ry="2.5" width="6" height="5" fill="#14151a">
    <animate attributeName="opacity" values="1;0" keyTimes="0;1" dur="0.9259259259259258s" begin="-0.4629629629629629s" repeatCount="indefinite"></animate>
  </rect>
</g><g transform="rotate(180 50 50)">
  <rect x="47" y="27.5" rx="3" ry="2.5" width="6" height="5" fill="#14151a">
    <animate attributeName="opacity" values="1;0" keyTimes="0;1" dur="0.9259259259259258s" begin="-0.38580246913580246s" repeatCount="indefinite"></animate>
  </rect>
</g><g transform="rotate(210 50 50)">
  <rect x="47" y="27.5" rx="3" ry="2.5" width="6" height="5" fill="#14151a">
    <animate attributeName="opacity" values="1;0" keyTimes="0;1" dur="0.9259259259259258s" begin="-0.30864197530864196s" repeatCount="indefinite"></animate>
  </rect>
</g><g transform="rotate(240 50 50)">
  <rect x="47" y="27.5" rx="3" ry="2.5" width="6" height="5" fill="#14151a">
    <animate attributeName="opacity" values="1;0" keyTimes="0;1" dur="0.9259259259259258s" begin="-0.23148148148148145s" repeatCount="indefinite"></animate>
  </rect>
</g><g transform="rotate(270 50 50)">
  <rect x="47" y="27.5" rx="3" ry="2.5" width="6" height="5" fill="#14151a">
    <animate attributeName="opacity" values="1;0" keyTimes="0;1" dur="0.9259259259259258s" begin="-0.15432098765432098s" repeatCount="indefinite"></animate>
  </rect>
</g><g transform="rotate(300 50 50)">
  <rect x="47" y="27.5" rx="3" ry="2.5" width="6" height="5" fill="#14151a">
    <animate attributeName="opacity" values="1;0" keyTimes="0;1" dur="0.9259259259259258s" begin="-0.07716049382716049s" repeatCount="indefinite"></animate>
  </rect>
</g><g transform="rotate(330 50 50)">
  <rect x="47" y="27.5" rx="3" ry="2.5" width="6" height="5" fill="#14151a">
    <animate attributeName="opacity" values="1;0" keyTimes="0;1" dur="0.9259259259259258s" begin="0s" repeatCount="indefinite"></animate>
  </rect>
</g>
<!-- [ldio] generated by https://loading.io/ --></svg>