<svg width="16" height="16" viewBox="0 0 16 16" fill="none" xmlns="http://www.w3.org/2000/svg">
<path d="M14.2202 0H1.76163C0.780931 0 0 0.780931 0 1.76163V14.2384C0 15.2009 0.780931 16 1.76163 16H14.2384C15.2009 16 16 15.2191 16 14.2384V1.76163C15.9818 0.780931 15.2009 0 14.2202 0ZM12.6583 11.9137C11.714 13.0397 10.3337 12.731 10.3337 12.731C8.35414 12.4404 6.59251 10.9149 6.59251 10.9149C3.30533 8.0454 3.26901 6.13848 3.26901 6.13848C2.86947 4.34052 4.14075 3.26901 4.14075 3.26901C4.66742 2.81498 5.1941 3.17821 5.1941 3.17821L6.68331 4.64926C7.35528 5.32123 6.66515 5.92054 6.66515 5.92054L6.24745 6.35641C6.084 6.51986 6.04767 6.75596 6.15664 6.95573C6.95573 8.44495 8.39047 9.46198 9.04427 9.86152C9.24404 9.98865 9.4983 9.95233 9.66175 9.78888L10.2792 9.18956C10.8604 8.82633 11.2236 9.24404 11.2236 9.24404L12.7128 10.7151C13.3121 11.4415 12.6583 11.9137 12.6583 11.9137Z" fill="white"/>
</svg>
