<svg width="30" height="30" viewBox="0 0 30 30" fill="none" xmlns="http://www.w3.org/2000/svg">
<path d="M26.6629 0H3.30306C1.46425 0 0 1.46425 0 3.30306V26.6969C0 28.5017 1.46425 30 3.30306 30H26.6969C28.5017 30 30 28.5358 30 26.6969V3.30306C29.9659 1.46425 28.5017 0 26.6629 0ZM23.7344 22.3383C21.9637 24.4495 19.3757 23.8706 19.3757 23.8706C15.664 23.3258 12.361 20.4654 12.361 20.4654C6.1975 15.0851 6.1294 11.5096 6.1294 11.5096C5.38025 8.13848 7.7639 6.1294 7.7639 6.1294C8.75142 5.27809 9.73893 5.95914 9.73893 5.95914L12.5312 8.71737C13.7911 9.9773 12.4972 11.101 12.4972 11.101L11.714 11.9183C11.4075 12.2247 11.3394 12.6674 11.5437 13.042C13.042 15.8343 15.7321 17.7412 16.958 18.4904C17.3326 18.7287 17.8093 18.6606 18.1158 18.3541L19.2736 17.2304C20.3632 16.5494 21.0443 17.3326 21.0443 17.3326L23.8365 20.0908C24.9603 21.4529 23.7344 22.3383 23.7344 22.3383Z" fill="#365899"/>
</svg>
