<svg width="140" height="140" viewBox="0 0 140 140" fill="none" xmlns="http://www.w3.org/2000/svg">
<circle opacity="0.1" cx="70" cy="70" r="60.9677" fill="#019D5B"/>
<path d="M117.376 22.6238C123.598 28.8454 128.533 36.2314 131.9 44.3602C135.267 52.489 137 61.2014 137 70C137 78.7986 135.267 87.511 131.9 95.6398C128.533 103.769 123.598 111.155 117.376 117.376C111.155 123.598 103.769 128.533 95.6398 131.9C87.511 135.267 78.7986 137 70 137C61.2014 137 52.489 135.267 44.3602 131.9C36.2314 128.533 28.8454 123.598 22.6238 117.376C16.4023 111.155 11.4671 103.769 8.10007 95.6398C4.73301 87.511 3 78.7986 3 70C3 61.2014 4.73301 52.489 8.10007 44.3602C11.4671 36.2314 16.4023 28.8454 22.6238 22.6238C28.8454 16.4023 36.2314 11.4671 44.3602 8.10007C52.489 4.73301 61.2014 3 70 3C78.7986 3 87.511 4.73301 95.6398 8.10007C103.769 11.4671 111.155 16.4023 117.376 22.6238L117.376 22.6238Z" stroke="#019D5B" stroke-width="6" stroke-linejoin="round"/>
<path d="M61.4645 96.1351L37.9128 72.2792C37.5429 71.8413 37.3496 71.2779 37.3716 70.7017C37.3935 70.1255 37.6291 69.5789 38.0312 69.1712C38.4334 68.7635 38.9725 68.5246 39.5408 68.5023C40.1091 68.4801 40.6647 68.6761 41.0967 69.0511L61.4193 89.656L101.139 49.4308C101.571 49.0557 102.126 48.8597 102.695 48.882C103.263 48.9042 103.802 49.1431 104.204 49.5508C104.606 49.9585 104.842 50.5051 104.864 51.0813C104.886 51.6575 104.692 52.2209 104.323 52.6588L61.4645 96.1351Z" fill="#019D5B"/>
</svg>
