<svg width="17" height="16" viewBox="0 0 17 16" fill="none" xmlns="http://www.w3.org/2000/svg">
<path d="M16.2626 2.27161H11.8145L11.9449 2.13415C12.4807 1.57021 12.3749 0.745446 11.7123 0.29077C11.0497 -0.163906 10.0804 -0.0757903 9.54467 0.488149L8.75163 1.32348C8.67409 1.28119 8.5895 1.24947 8.49433 1.24947C8.39917 1.24947 8.31458 1.28119 8.23704 1.32348L7.444 0.488149C6.90825 -0.0757903 5.93898 -0.163906 5.27636 0.29077C4.61373 0.745446 4.51151 1.57021 5.04373 2.13415L5.17414 2.27161H0.733121C0.32779 2.27161 0 2.60644 0 3.02235V4.36523C0 4.77761 0.32779 5.11597 0.733121 5.11597H1.25124H6.93293H10.0628H15.7445H16.2626C16.6679 5.11597 16.9957 4.78114 16.9957 4.36523V3.02235C16.9957 2.60644 16.6679 2.27161 16.2626 2.27161ZM9.68213 0.741921C10.1157 0.287245 10.9016 0.213228 11.4374 0.583313C11.9731 0.949874 12.0577 1.61955 11.6242 2.07423L11.4374 2.27161H9.14286L8.96311 2.0848C9.00893 2.00373 9.04417 1.9121 9.04417 1.80988C9.04417 1.69709 9.0054 1.60193 8.94901 1.51381L9.68213 0.741921ZM8.49786 1.37283C8.73401 1.37283 8.92081 1.56668 8.92081 1.80636C8.92081 2.04603 8.73048 2.23988 8.49786 2.23988C8.26523 2.23988 8.0749 2.04603 8.0749 1.80636C8.0749 1.56668 8.26171 1.37283 8.49786 1.37283ZM5.37152 2.07423C4.93799 1.61955 5.02258 0.949874 5.55832 0.583313C6.09407 0.216753 6.88006 0.287245 7.31359 0.741921L8.04318 1.51381C7.98679 1.60193 7.94802 1.69709 7.94802 1.80988C7.94802 1.9121 7.98326 2.00373 8.02908 2.0848L7.84933 2.27161H5.5548L5.37152 2.07423Z" fill="white"/>
<path d="M10.0627 5.86673V16H15.7444C16.2132 16 16.5903 15.6123 16.5903 15.133V5.97952C16.5903 5.94075 16.5833 5.9055 16.5798 5.86673H10.0627Z" fill="white"/>
<path d="M0.405273 5.97952V15.133C0.405273 15.6123 0.785933 16 1.25471 16H6.93639V5.86673H0.415847C0.408798 5.9055 0.405273 5.94075 0.405273 5.97952Z" fill="white"/>
</svg>
