<svg width="24" height="23" viewBox="0 0 24 23" fill="none" xmlns="http://www.w3.org/2000/svg">
<circle cx="11.8965" cy="11.3448" r="10.6724" stroke="#365899"/>
<circle cx="11.8966" cy="11.3449" r="8.68966" fill="#365899"/>
<path d="M11.204 6.704H12.996L12.8 12.934H11.386L11.204 6.704ZM12.1 16.126C11.764 16.126 11.4887 16.0233 11.274 15.818C11.0593 15.6127 10.952 15.3513 10.952 15.034C10.952 14.7167 11.0593 14.4507 11.274 14.236C11.4887 14.0213 11.764 13.914 12.1 13.914C12.436 13.914 12.716 14.0213 12.94 14.236C13.164 14.4507 13.276 14.7167 13.276 15.034C13.276 15.3513 13.164 15.6127 12.94 15.818C12.716 16.0233 12.436 16.126 12.1 16.126Z" fill="white"/>
</svg>
