<svg width="19" height="20" viewBox="0 0 19 20" fill="none" xmlns="http://www.w3.org/2000/svg">
<path d="M9.20471 2.78239C9.33107 2.78239 9.45225 2.73219 9.5416 2.64284C9.63095 2.55349 9.68114 2.43231 9.68114 2.30595V0.476436C9.68114 0.350077 9.63095 0.228894 9.5416 0.139545C9.45225 0.050196 9.33107 0 9.20471 0C9.07835 0 8.95717 0.050196 8.86782 0.139545C8.77847 0.228894 8.72827 0.350077 8.72827 0.476436V2.30595C8.72827 2.43231 8.77847 2.55349 8.86782 2.64284C8.95717 2.73219 9.07835 2.78239 9.20471 2.78239Z" fill="#00A912"/>
<path d="M3.98944 13.7436L2.69671 15.0395C2.63016 15.1061 2.58485 15.191 2.5665 15.2834C2.54816 15.3757 2.55759 15.4714 2.59362 15.5585C2.62964 15.6455 2.69064 15.7198 2.76892 15.7722C2.84719 15.8246 2.93922 15.8525 3.03339 15.8526C3.15817 15.8541 3.27873 15.8074 3.37007 15.7224L4.6628 14.4265C4.70736 14.3825 4.74274 14.33 4.76688 14.2723C4.79103 14.2145 4.80346 14.1524 4.80346 14.0898C4.80346 14.0272 4.79103 13.9652 4.76688 13.9074C4.74274 13.8496 4.70736 13.7971 4.6628 13.7531C4.57432 13.6634 4.45408 13.6121 4.32807 13.6103C4.20207 13.6085 4.08042 13.6564 3.98944 13.7436Z" fill="#00A912"/>
<path d="M14.0834 4.80248C14.2095 4.80134 14.3303 4.75123 14.4201 4.66272L15.7097 3.36999C15.7542 3.32598 15.7896 3.27355 15.8138 3.21575C15.8379 3.15796 15.8503 3.09595 15.8503 3.03331C15.8503 2.97068 15.8379 2.90866 15.8138 2.85087C15.7896 2.79308 15.7542 2.74065 15.7097 2.69663C15.6199 2.60818 15.499 2.55859 15.373 2.55859C15.247 2.55859 15.126 2.60818 15.0363 2.69663L13.7468 3.98936C13.6802 4.05599 13.6349 4.14085 13.6166 4.23321C13.5982 4.32557 13.6076 4.4213 13.6437 4.50831C13.6797 4.59532 13.7407 4.66969 13.819 4.72205C13.8972 4.77441 13.9893 4.80239 14.0834 4.80248Z" fill="#00A912"/>
<path d="M2.78239 9.20474C2.78239 9.07838 2.73219 8.9572 2.64284 8.86785C2.55349 8.7785 2.43231 8.7283 2.30595 8.7283H0.476436C0.350077 8.7283 0.228894 8.7785 0.139544 8.86785C0.0501954 8.9572 0 9.07838 0 9.20474C0 9.3311 0.0501954 9.45228 0.139544 9.54163C0.228894 9.63098 0.350077 9.68117 0.476436 9.68117H2.30595C2.43231 9.68117 2.55349 9.63098 2.64284 9.54163C2.73219 9.45228 2.78239 9.3311 2.78239 9.20474Z" fill="#00A912"/>
<path d="M17.9331 8.73465H16.1036C15.9773 8.73465 15.8561 8.78485 15.7667 8.87419C15.6774 8.96354 15.6272 9.08473 15.6272 9.21109C15.6272 9.33744 15.6774 9.45863 15.7667 9.54798C15.8561 9.63733 15.9773 9.68752 16.1036 9.68752H17.9331C18.0595 9.68752 18.1807 9.63733 18.27 9.54798C18.3594 9.45863 18.4096 9.33744 18.4096 9.21109C18.4096 9.08473 18.3594 8.96354 18.27 8.87419C18.1807 8.78485 18.0595 8.73465 17.9331 8.73465Z" fill="#00A912"/>
<path d="M3.98955 4.6659C4.07939 4.7544 4.20012 4.80452 4.32623 4.80565C4.4204 4.80557 4.51243 4.77758 4.5907 4.72522C4.66897 4.67287 4.72997 4.59849 4.766 4.51148C4.80203 4.42448 4.81146 4.32875 4.79311 4.23638C4.77476 4.14402 4.72945 4.05916 4.66291 3.99253L3.37018 2.6998C3.28044 2.61135 3.1595 2.56177 3.0335 2.56177C2.90749 2.56177 2.78655 2.61135 2.69682 2.6998C2.65226 2.74382 2.61688 2.79625 2.59273 2.85404C2.56859 2.91184 2.55615 2.97385 2.55615 3.03649C2.55615 3.09912 2.56859 3.16113 2.59273 3.21893C2.61688 3.27672 2.65226 3.32915 2.69682 3.37317L3.98955 4.6659Z" fill="#00A912"/>
<path d="M14.4169 13.7436C14.3726 13.6992 14.3201 13.6639 14.2623 13.6398C14.2044 13.6156 14.1424 13.6031 14.0797 13.603C14.017 13.6029 13.9549 13.615 13.897 13.6389C13.839 13.6627 13.7863 13.6978 13.7419 13.742C13.6975 13.7862 13.6622 13.8387 13.6381 13.8966C13.614 13.9544 13.6015 14.0165 13.6013 14.0791C13.6012 14.1418 13.6134 14.2039 13.6372 14.2619C13.6611 14.3198 13.6961 14.3725 13.7403 14.4169L15.0362 15.7224C15.1257 15.8115 15.2467 15.8617 15.3729 15.8621C15.4671 15.862 15.5591 15.8341 15.6374 15.7817C15.7156 15.7293 15.7766 15.655 15.8127 15.568C15.8487 15.481 15.8581 15.3852 15.8398 15.2929C15.8214 15.2005 15.7761 15.1156 15.7096 15.049L14.4169 13.7436Z" fill="#00A912"/>
<path d="M15.033 9.20476C15.0357 8.16147 14.7583 7.13659 14.2297 6.23709C13.7012 5.33759 12.9409 4.59644 12.0282 4.09102C11.1155 3.58559 10.0839 3.3344 9.04104 3.36369C7.99816 3.39297 6.98226 3.70164 6.09937 4.25748C5.21648 4.81332 4.49898 5.59596 4.02175 6.5237C3.54451 7.45144 3.32505 8.49027 3.38626 9.53176C3.44748 10.5733 3.78712 11.5792 4.36975 12.4447C4.95238 13.3101 5.75663 14.0033 6.69855 14.4519V17.3423C6.70131 17.5905 6.76646 17.8341 6.88801 18.0506C7.00957 18.267 7.18362 18.4494 7.39415 18.581C7.49377 18.9859 7.72626 19.3458 8.05446 19.603C8.38266 19.8602 8.78761 20 9.2046 20C9.62159 20 10.0265 19.8602 10.3547 19.603C10.6829 19.3458 10.9154 18.9859 11.0151 18.581C11.2268 18.4479 11.4014 18.2633 11.5225 18.0445C11.6435 17.8256 11.7072 17.5797 11.7075 17.3296V14.4519C12.7002 13.9799 13.5392 13.2368 14.1276 12.3083C14.716 11.3799 15.0299 10.304 15.033 9.20476ZM8.59477 18.8288H9.81444C9.64549 18.9762 9.42884 19.0575 9.2046 19.0575C8.98036 19.0575 8.76371 18.9762 8.59477 18.8288ZM10.7546 17.3423C10.7546 17.4838 10.6984 17.6195 10.5983 17.7196C10.4982 17.8197 10.3625 17.8759 10.221 17.8759H8.18821C8.04639 17.8759 7.91034 17.8198 7.80976 17.7198C7.70919 17.6198 7.65226 17.4841 7.65142 17.3423V16.9294H10.7546V17.3423ZM10.7546 15.9765H7.65142V14.8172C8.66578 15.1051 9.74025 15.1051 10.7546 14.8172V15.9765ZM9.2046 14.0708C8.23991 14.0708 7.2969 13.7846 6.49492 13.2484C5.69294 12.7123 5.06803 11.9502 4.6993 11.0588C4.33056 10.1674 4.23457 9.18657 4.42347 8.24055C4.61236 7.29453 5.07766 6.42581 5.76047 5.74434C6.44328 5.06286 7.3129 4.59927 8.25929 4.41222C9.20568 4.22518 10.1863 4.32309 11.077 4.69357C11.9677 5.06405 12.7285 5.69044 13.2631 6.49347C13.7977 7.2965 14.082 8.24006 14.0801 9.20476C14.0784 10.4973 13.5642 11.7364 12.6503 12.6504C11.7363 13.5644 10.4972 14.0786 9.2046 14.0803V14.0708Z" fill="#00A912"/>
</svg>
