<svg width="14" height="14" viewBox="0 0 14 14" fill="none" xmlns="http://www.w3.org/2000/svg">
<path d="M7 0.279999C3.2879 0.279999 0.279297 3.2886 0.279297 7C0.279205 7.8826 0.452978 8.75657 0.790693 9.57201C1.12841 10.3874 1.62345 11.1284 2.24754 11.7525C2.87163 12.3765 3.61255 12.8716 4.42799 13.2093C5.24342 13.547 6.1174 13.7208 7 13.7207C10.7107 13.7207 13.72 10.7121 13.72 7C13.72 3.2886 10.7107 0.279999 7 0.279999ZM7.6272 2.7062C8.2824 2.7062 8.4749 3.0863 8.4749 3.521C8.4749 4.0635 8.0409 4.5654 7.2996 4.5654C6.6794 4.5654 6.384 4.2539 6.4022 3.738C6.4022 3.3033 6.7655 2.7062 7.6272 2.7062ZM5.9486 11.025C5.5006 11.025 5.1737 10.7527 5.4866 9.5592L5.9997 7.4417C6.0886 7.1029 6.1033 6.9671 5.9997 6.9671C5.866 6.9671 5.2843 7.2009 4.9413 7.4319L4.718 7.0658C5.8065 6.1565 7.0581 5.6231 7.5936 5.6231C8.0416 5.6231 8.1158 6.1523 7.8925 6.9671L7.3045 9.1931C7.2002 9.5865 7.245 9.7223 7.3493 9.7223C7.4837 9.7223 7.9233 9.5599 8.3559 9.219L8.6093 9.5592C7.5502 10.6176 6.3959 11.025 5.9486 11.025Z" fill="#365899"/>
</svg>
