<svg width="60" height="60" viewBox="0 0 60 60" fill="none" xmlns="http://www.w3.org/2000/svg">
<path d="M30 41.25C32.6522 41.25 35.1957 40.1964 37.0711 38.3211C38.9464 36.4457 40 33.9022 40 31.25V11.25C40 8.59784 38.9464 6.0543 37.0711 4.17893C35.1957 2.30357 32.6522 1.25 30 1.25C27.3478 1.25 24.8043 2.30357 22.9289 4.17893C21.0536 6.0543 20 8.59784 20 11.25V31.25C20 33.9022 21.0536 36.4457 22.9289 38.3211C24.8043 40.1964 27.3478 41.25 30 41.25ZM25 11.25C25 9.92392 25.5268 8.65215 26.4645 7.71447C27.4021 6.77678 28.6739 6.25 30 6.25C31.3261 6.25 32.5979 6.77678 33.5355 7.71447C34.4732 8.65215 35 9.92392 35 11.25V31.25C35 32.5761 34.4732 33.8479 33.5355 34.7855C32.5979 35.7232 31.3261 36.25 30 36.25C28.6739 36.25 27.4021 35.7232 26.4645 34.7855C25.5268 33.8479 25 32.5761 25 31.25V11.25Z" fill="#365899"/>
<path d="M47.5 31.25C47.5 30.587 47.2366 29.9511 46.7678 29.4822C46.2989 29.0134 45.663 28.75 45 28.75C44.337 28.75 43.7011 29.0134 43.2322 29.4822C42.7634 29.9511 42.5 30.587 42.5 31.25C42.5 34.5652 41.183 37.7446 38.8388 40.0888C36.4946 42.433 33.3152 43.75 30 43.75C26.6848 43.75 23.5054 42.433 21.1612 40.0888C18.817 37.7446 17.5 34.5652 17.5 31.25C17.5 30.587 17.2366 29.9511 16.7678 29.4822C16.2989 29.0134 15.663 28.75 15 28.75C14.337 28.75 13.7011 29.0134 13.2322 29.4822C12.7634 29.9511 12.5 30.587 12.5 31.25C12.5049 35.4546 14.0235 39.5169 16.778 42.6937C19.5324 45.8705 23.3385 47.9493 27.5 48.55V53.75H26.25C25.587 53.75 24.9511 54.0134 24.4822 54.4822C24.0134 54.9511 23.75 55.587 23.75 56.25C23.75 56.913 24.0134 57.5489 24.4822 58.0178C24.9511 58.4866 25.587 58.75 26.25 58.75H33.75C34.413 58.75 35.0489 58.4866 35.5178 58.0178C35.9866 57.5489 36.25 56.913 36.25 56.25C36.25 55.587 35.9866 54.9511 35.5178 54.4822C35.0489 54.0134 34.413 53.75 33.75 53.75H32.5V48.55C36.6615 47.9493 40.4676 45.8705 43.2221 42.6937C45.9765 39.5169 47.4951 35.4546 47.5 31.25Z" fill="#365899"/>
</svg>
