<svg width="168" height="168" viewBox="0 0 168 168" fill="none" xmlns="http://www.w3.org/2000/svg">
<path d="M125.728 126.076C148.788 103.015 148.788 65.6256 125.728 42.5647C102.667 19.5038 65.2775 19.5038 42.2166 42.5647C19.1557 65.6256 19.1557 103.015 42.2166 126.076C65.2775 149.136 102.667 149.136 125.728 126.076Z" fill="#A2BACC"/>
<path d="M125.728 126.076C148.788 103.015 148.788 65.6256 125.728 42.5647C102.667 19.5038 65.2775 19.5038 42.2166 42.5647C19.1557 65.6256 19.1557 103.015 42.2166 126.076C65.2775 149.136 102.667 149.136 125.728 126.076Z" fill="#59B68D"/>
<path d="M116.572 48.3262C114.922 48.2567 113.414 47.4866 112.243 46.4474C110.924 45.2763 110.043 43.7576 109.375 42.2014C108.973 41.2692 108.638 40.3137 108.303 39.3601C108.155 38.9412 107.544 38.9537 107.391 39.3601C106.877 40.7237 106.248 42.0446 105.503 43.312C104.884 44.3654 104.195 45.4189 103.184 46.1943C103.141 46.2264 103.098 46.2585 103.054 46.2888C101.947 46.9234 100.64 47.2371 99.3229 47.1747C98.7988 47.1497 98.6687 47.943 99.1963 48.0303C102.799 48.6257 105.82 51.2246 106.916 54.4207C107.227 55.3262 107.378 56.262 107.353 57.2121C107.339 57.7291 108.105 57.7683 108.282 57.328C109.446 54.4207 110.795 51.18 114.014 49.7308C114.811 49.3726 115.683 49.1818 116.569 49.1961C117.182 49.2068 117.177 48.3512 116.572 48.3262Z" fill="#F5F5F5"/>
<path d="M122.307 67.1159C121.644 67.0856 121.038 66.7505 120.567 66.2959C120.038 65.7843 119.683 65.123 119.415 64.4456C119.255 64.0392 119.12 63.6239 118.986 63.2068C118.927 63.0232 118.681 63.0285 118.619 63.2068C118.412 63.8003 118.161 64.3761 117.861 64.9305C117.613 65.3886 117.335 65.8485 116.929 66.1872C116.911 66.2014 116.895 66.2157 116.877 66.2282C116.432 66.5045 115.907 66.6417 115.378 66.615C115.168 66.6043 115.114 66.9501 115.328 66.9875C116.776 67.2478 117.989 68.3797 118.43 69.7736C118.554 70.1676 118.615 70.5758 118.604 70.9911C118.599 71.2175 118.907 71.2335 118.977 71.041C119.444 69.7736 119.986 68.3601 121.28 67.7291C121.599 67.5722 121.95 67.4902 122.307 67.4956C122.553 67.4991 122.551 67.1266 122.307 67.1159Z" fill="#F5F5F5"/>
<path d="M58.6758 58.0125C57.838 57.9733 57.0698 57.5508 56.4762 56.9768C55.8059 56.3316 55.3585 55.4938 55.0198 54.6364C54.8166 54.123 54.6455 53.5954 54.4762 53.0695C54.4013 52.8378 54.0911 52.8449 54.0127 53.0695C53.7525 53.8218 53.4316 54.549 53.0537 55.2496C52.74 55.8307 52.3888 56.4118 51.8755 56.8396C51.8541 56.8574 51.8327 56.8752 51.8095 56.8913C51.2462 57.2406 50.5831 57.4136 49.9129 57.3797C49.6473 57.3654 49.5796 57.8039 49.8487 57.8521C51.6794 58.18 53.2141 59.6132 53.7721 61.3761C53.9307 61.8752 54.0056 62.3904 53.9931 62.9144C53.986 63.1996 54.3746 63.221 54.4655 62.9786C55.0573 61.3761 55.7418 59.59 57.3781 58.7897C57.7828 58.5918 58.2266 58.4866 58.6758 58.4938C58.986 58.4973 58.9824 58.0267 58.6758 58.0125Z" fill="#F5F5F5"/>
<path d="M108.103 133.182H60.3708C60.0643 133.182 59.8147 132.932 59.8147 132.626V125.8C59.8147 125.494 60.0643 125.244 60.3708 125.244H108.103C108.41 125.244 108.66 125.494 108.66 125.8V132.626C108.66 132.932 108.41 133.182 108.103 133.182Z" fill="#C45F43"/>
<path d="M109.811 131.733H62.0789C61.7723 131.733 61.5227 131.483 61.5227 131.176V124.351C61.5227 124.044 61.7723 123.795 62.0789 123.795H109.811C110.118 123.795 110.368 124.044 110.368 124.351V131.176C110.368 131.483 110.118 131.733 109.811 131.733Z" fill="#EBCB42"/>
<path d="M111.489 123.795H63.7561C63.4495 123.795 63.2 123.545 63.2 123.239V116.414C63.2 116.107 63.4495 115.857 63.7561 115.857H111.489C111.795 115.857 112.045 116.107 112.045 116.414V123.239C112.045 123.545 111.795 123.795 111.489 123.795Z" fill="#C45F43"/>
<path d="M111.489 122.346H63.7561C63.4495 122.346 63.2 122.096 63.2 121.79V114.964C63.2 114.658 63.4495 114.408 63.7561 114.408H111.489C111.795 114.408 112.045 114.658 112.045 114.964V121.79C112.045 122.094 111.795 122.346 111.489 122.346Z" fill="#EBCB42"/>
<path d="M103.982 114.369H56.2498C55.9432 114.369 55.6936 114.119 55.6936 113.813V106.987C55.6936 106.681 55.9432 106.431 56.2498 106.431H103.982C104.289 106.431 104.539 106.681 104.539 106.987V113.813C104.539 114.119 104.289 114.369 103.982 114.369Z" fill="#C45F43"/>
<path d="M103.982 112.92H56.2498C55.9432 112.92 55.6936 112.67 55.6936 112.364V105.538C55.6936 105.232 55.9432 104.982 56.2498 104.982H103.982C104.289 104.982 104.539 105.232 104.539 105.538V112.364C104.539 112.668 104.289 112.92 103.982 112.92Z" fill="#EBCB42"/>
<path d="M107.84 105.02H60.1072C59.8006 105.02 59.551 104.77 59.551 104.464V97.6382C59.551 97.3316 59.8006 97.082 60.1072 97.082H107.84C108.146 97.082 108.396 97.3316 108.396 97.6382V104.464C108.396 104.77 108.145 105.02 107.84 105.02Z" fill="#C45F43"/>
<path d="M107.84 103.57H60.1072C59.8006 103.57 59.551 103.321 59.551 103.014V96.189C59.551 95.8824 59.8006 95.6328 60.1072 95.6328H107.84C108.146 95.6328 108.396 95.8824 108.396 96.189V103.014C108.396 103.321 108.145 103.57 107.84 103.57Z" fill="#EBCB42"/>
<path d="M85.3619 96.0856C97.8331 96.0856 107.943 85.9757 107.943 73.5045C107.943 61.0333 97.8331 50.9234 85.3619 50.9234C72.8907 50.9234 62.7808 61.0333 62.7808 73.5045C62.7808 85.9757 72.8907 96.0856 85.3619 96.0856Z" fill="#C45F43"/>
<path d="M82.5831 96.0855C95.0543 96.0855 105.164 85.9757 105.164 73.5045C105.164 61.0333 95.0543 50.9234 82.5831 50.9234C70.1119 50.9234 60.002 61.0333 60.002 73.5045C60.002 85.9757 70.1119 96.0855 82.5831 96.0855Z" fill="#EBCB42"/>
<path d="M79.5208 66.1016V81.7576" stroke="#C45F43" stroke-width="3" stroke-miterlimit="10" stroke-linecap="round"/>
<path d="M83.0859 66.1016V81.7576" stroke="#C45F43" stroke-width="3" stroke-miterlimit="10" stroke-linecap="round"/>
<path d="M86.6509 66.1016V81.7576" stroke="#C45F43" stroke-width="3" stroke-miterlimit="10" stroke-linecap="round"/>
<path d="M63.3903 101.399H62.7058C62.6808 101.399 62.6594 101.378 62.6594 101.353V97.1301C62.6594 97.1051 62.6808 97.0837 62.7058 97.0837H63.3903C63.4152 97.0837 63.4366 97.1051 63.4366 97.1301V101.353C63.4366 101.378 63.417 101.399 63.3903 101.399Z" fill="#C45F43"/>
<path d="M64.9379 101.399H64.2534C64.2284 101.399 64.207 101.378 64.207 101.353V97.1301C64.207 97.1051 64.2284 97.0837 64.2534 97.0837H64.9379C64.9628 97.0837 64.9842 97.1051 64.9842 97.1301V101.353C64.9842 101.378 64.9646 101.399 64.9379 101.399Z" fill="#C45F43"/>
<path d="M66.485 101.399H65.8005C65.7755 101.399 65.7542 101.378 65.7542 101.353V97.1301C65.7542 97.1051 65.7755 97.0837 65.8005 97.0837H66.485C66.5099 97.0837 66.5313 97.1051 66.5313 97.1301V101.353C66.5313 101.378 66.5117 101.399 66.485 101.399Z" fill="#C45F43"/>
<path d="M68.0323 101.399H67.3479C67.3229 101.399 67.3015 101.378 67.3015 101.353V97.1301C67.3015 97.1051 67.3229 97.0837 67.3479 97.0837H68.0323C68.0573 97.0837 68.0787 97.1051 68.0787 97.1301V101.353C68.0787 101.378 68.0591 101.399 68.0323 101.399Z" fill="#C45F43"/>
<path d="M69.5812 101.399H68.8967C68.8717 101.399 68.8503 101.378 68.8503 101.353V97.1301C68.8503 97.1051 68.8717 97.0837 68.8967 97.0837H69.5812C69.6061 97.0837 69.6275 97.1051 69.6275 97.1301V101.353C69.6275 101.378 69.6061 101.399 69.5812 101.399Z" fill="#C45F43"/>
<path d="M59.1232 111.109H58.4387C58.4137 111.109 58.3923 111.087 58.3923 111.062V106.84C58.3923 106.815 58.4137 106.793 58.4387 106.793H59.1232C59.1481 106.793 59.1695 106.815 59.1695 106.84V111.062C59.1695 111.087 59.1481 111.109 59.1232 111.109Z" fill="#C45F43"/>
<path d="M60.6703 111.109H59.9858C59.9608 111.109 59.9395 111.087 59.9395 111.062V106.84C59.9395 106.815 59.9608 106.793 59.9858 106.793H60.6703C60.6952 106.793 60.7166 106.815 60.7166 106.84V111.062C60.7166 111.087 60.6952 111.109 60.6703 111.109Z" fill="#C45F43"/>
<path d="M62.2177 111.109H61.5332C61.5082 111.109 61.4868 111.087 61.4868 111.062V106.84C61.4868 106.815 61.5082 106.793 61.5332 106.793H62.2177C62.2427 106.793 62.264 106.815 62.264 106.84V111.062C62.264 111.087 62.2427 111.109 62.2177 111.109Z" fill="#C45F43"/>
<path d="M63.765 111.109H63.0805C63.0556 111.109 63.0342 111.087 63.0342 111.062V106.84C63.0342 106.815 63.0556 106.793 63.0805 106.793H63.765C63.79 106.793 63.8114 106.815 63.8114 106.84V111.062C63.8114 111.087 63.79 111.109 63.765 111.109Z" fill="#C45F43"/>
<path d="M65.3121 111.109H64.6276C64.6027 111.109 64.5813 111.087 64.5813 111.062V106.84C64.5813 106.815 64.6027 106.793 64.6276 106.793H65.3121C65.3371 106.793 65.3585 106.815 65.3585 106.84V111.062C65.3585 111.087 65.3371 111.109 65.3121 111.109Z" fill="#C45F43"/>
<path d="M66.7595 120.535H66.0749C66.05 120.535 66.0286 120.513 66.0286 120.488V116.266C66.0286 116.241 66.05 116.219 66.0749 116.219H66.7595C66.7844 116.219 66.8058 116.241 66.8058 116.266V120.488C66.8058 120.513 66.7844 120.535 66.7595 120.535Z" fill="#C45F43"/>
<path d="M68.3068 120.535H67.6223C67.5973 120.535 67.5759 120.513 67.5759 120.488V116.266C67.5759 116.241 67.5973 116.219 67.6223 116.219H68.3068C68.3317 116.219 68.3531 116.241 68.3531 116.266V120.488C68.3531 120.513 68.3317 120.535 68.3068 120.535Z" fill="#C45F43"/>
<path d="M69.8539 120.535H69.1694C69.1444 120.535 69.123 120.513 69.123 120.488V116.266C69.123 116.241 69.1444 116.219 69.1694 116.219H69.8539C69.8788 116.219 69.9002 116.241 69.9002 116.266V120.488C69.9002 120.513 69.8788 120.535 69.8539 120.535Z" fill="#C45F43"/>
<path d="M71.4012 120.535H70.7167C70.6918 120.535 70.6704 120.513 70.6704 120.488V116.266C70.6704 116.241 70.6918 116.219 70.7167 116.219H71.4012C71.4262 116.219 71.4476 116.241 71.4476 116.266V120.488C71.4476 120.513 71.4262 120.535 71.4012 120.535Z" fill="#C45F43"/>
<path d="M72.9486 120.535H72.2641C72.2392 120.535 72.2178 120.513 72.2178 120.488V116.266C72.2178 116.241 72.2392 116.219 72.2641 116.219H72.9486C72.9736 116.219 72.9949 116.241 72.9949 116.266V120.488C72.9949 120.513 72.9736 120.535 72.9486 120.535Z" fill="#C45F43"/>
<path d="M62.995 129.738H62.3105C62.2856 129.738 62.2642 129.717 62.2642 129.692V125.469C62.2642 125.444 62.2856 125.422 62.3105 125.422H62.995C63.02 125.422 63.0414 125.444 63.0414 125.469V129.692C63.0414 129.717 63.02 129.738 62.995 129.738Z" fill="#C45F43"/>
<path d="M64.5419 129.738H63.8574C63.8324 129.738 63.811 129.717 63.811 129.692V125.469C63.811 125.444 63.8324 125.422 63.8574 125.422H64.5419C64.5668 125.422 64.5882 125.444 64.5882 125.469V129.692C64.5882 129.717 64.5668 129.738 64.5419 129.738Z" fill="#C45F43"/>
<path d="M66.0892 129.738H65.4047C65.3798 129.738 65.3584 129.717 65.3584 129.692V125.469C65.3584 125.444 65.3798 125.422 65.4047 125.422H66.0892C66.1142 125.422 66.1356 125.444 66.1356 125.469V129.692C66.1356 129.717 66.1142 129.738 66.0892 129.738Z" fill="#C45F43"/>
<path d="M67.6366 129.738H66.9521C66.9271 129.738 66.9058 129.717 66.9058 129.692V125.469C66.9058 125.444 66.9271 125.422 66.9521 125.422H67.6366C67.6616 125.422 67.683 125.444 67.683 125.469V129.692C67.683 129.717 67.6616 129.738 67.6366 129.738Z" fill="#C45F43"/>
<path d="M69.1837 129.738H68.4992C68.4743 129.738 68.4529 129.717 68.4529 129.692V125.469C68.4529 125.444 68.4743 125.422 68.4992 125.422H69.1837C69.2087 125.422 69.2301 125.444 69.2301 125.469V129.692C69.2301 129.717 69.2087 129.738 69.1837 129.738Z" fill="#C45F43"/>
<path d="M135.38 34.6684L137.804 33.4118L140.212 34.6952C140.487 34.8413 140.809 34.6096 140.76 34.303L140.314 31.6096L142.28 29.7148C142.505 29.4991 142.383 29.1194 142.075 29.0731L139.376 28.6649L138.182 26.2103C138.047 25.9305 137.649 25.9287 137.51 26.2068L136.287 28.6471L133.583 29.0232C133.275 29.066 133.15 29.4438 133.371 29.6613L135.314 31.5775L134.836 34.2656C134.783 34.5758 135.104 34.811 135.38 34.6684Z" fill="#59B68D"/>
<path d="M55.4244 143.392L9.57417 126.144C7.50287 125.365 6.45652 123.055 7.23548 120.984L15.8897 97.9768C16.6686 95.9055 18.9788 94.8592 21.0501 95.6382L66.9003 112.886C68.9716 113.665 70.018 115.975 69.239 118.046L60.5848 141.053C59.8059 143.125 57.4957 144.171 55.4244 143.392Z" fill="#048049"/>
<path d="M31.5865 106.531L18.4475 101.588L15.5742 109.227L28.7132 114.169L31.5865 106.531Z" fill="#F7CC7F"/>
<path d="M65.7182 117.163L42.4199 108.399L41.8833 109.826L65.1815 118.59L65.7182 117.163Z" fill="#F7CC7F"/>
<path d="M57.8567 132.806L14.9792 116.677L14.3165 118.438L57.1939 134.568L57.8567 132.806Z" fill="#F7CC7F"/>
<path d="M56.2969 136.954L13.4194 120.825L12.7567 122.587L55.6341 138.716L56.2969 136.954Z" fill="#F7CC7F"/>
<path d="M94.7951 14.4545L95.1819 17.0784L91.0304 18.1676L91.1249 22.0731L88.1516 23.3957L88.8218 24.902L92.7987 23.1319L92.7095 19.4314L97.0286 18.2959L96.4439 14.3494L94.7951 14.4545Z" fill="#048049"/>
<path d="M43.0713 30.6881L40.5544 30.943L39.6952 26.9394L35.9697 26.8592L34.8378 23.9679L33.3726 24.5401L34.8877 28.4082L38.4189 28.4848L39.3119 32.6506L43.0998 32.2656L43.0713 30.6881Z" fill="#59B68D"/>
</svg>
