<svg width="50" height="50" viewBox="0 0 50 50" fill="none" xmlns="http://www.w3.org/2000/svg">
<path d="M40.3228 24.1936H43.5486C43.5486 14.4103 35.5899 6.45163 25.8066 6.45163V9.67744C33.8112 9.67744 40.3228 16.189 40.3228 24.1936Z" fill="#365899"/>
<path d="M48.3871 35.4839L35.4838 30.6452L30.6451 35.4839C24.2568 31.2252 18.7748 25.7432 14.5161 19.3548L19.3548 14.5161L14.5161 1.61292H13.6142C10.0613 1.61292 6.65354 3.02453 4.14064 5.53678C1.48968 8.18775 0 11.7839 0 15.5329C0 18.0361 0.664515 20.4942 1.92581 22.6561C8.06451 33.1793 16.8206 41.9355 27.3439 48.0742C29.5058 49.3355 31.9639 50 34.4671 50C38.2161 50 41.8122 48.5103 44.4632 45.8593C46.9755 43.3471 48.3871 39.9393 48.3871 36.3858V35.4839Z" fill="#365899"/>
<path d="M25.8066 0V3.2258C37.3679 3.2258 46.7744 12.6323 46.7744 24.1935H50.0002C50.0002 10.8529 39.1473 0 25.8066 0Z" fill="#365899"/>
</svg>
