<svg width="164" height="140" viewBox="0 0 164 140" fill="none" xmlns="http://www.w3.org/2000/svg">
<path opacity="0.65" d="M68.6008 4.26865C91.8528 3.89454 112.497 15.7104 124.48 33.7928L127.788 31.7918C115.116 12.5758 93.2104 0.0116544 68.5413 0.405612C30.1659 1.0178 -0.55144 32.7384 0.0607519 71.1139C0.675779 109.484 32.3936 140.207 70.7661 139.594C109.139 138.979 139.862 107.259 139.247 68.8862C139.062 57.3905 136.069 46.5921 130.965 37.1088L127.652 39.1098C132.416 48.0234 135.211 58.1614 135.381 68.9485C135.962 105.19 106.945 135.15 70.7038 135.726C34.4682 136.31 4.50765 107.293 3.92664 71.0543C3.34846 34.8103 32.3624 4.84967 68.6008 4.26865Z" fill="#019D5B"/>
<path opacity="0.65" d="M68.9069 23.4365C85.1272 23.1758 99.5335 31.2533 108.07 43.7012L121.38 35.6634C110.06 18.6552 90.6085 7.56484 68.6631 7.91629C34.3719 8.46613 7.0216 36.7063 7.57427 70.9948C8.12411 105.28 36.3643 132.636 70.6499 132.084C104.936 131.534 132.286 103.294 131.739 69.0052C131.58 58.8785 128.981 49.364 124.546 40.986L111.194 49.0494C114.269 55.1373 116.1 61.9763 116.216 69.2546C116.627 94.9695 96.1183 116.153 70.3977 116.563C44.6828 116.974 23.5054 96.4603 23.0888 70.7454C22.6835 45.0276 43.1948 23.8475 68.9069 23.4365Z" fill="#019D5B"/>
<path d="M69.1535 38.9567C79.6514 38.7895 88.9959 43.8656 94.7408 51.7504L108.067 43.7012C99.5307 31.2533 85.1243 23.1758 68.9041 23.4365C43.192 23.8475 22.6807 45.0276 23.086 70.7454C23.5026 96.4603 44.6828 116.974 70.3949 116.563C96.1126 116.152 116.624 94.9667 116.213 69.2546C116.097 61.9763 114.266 55.1401 111.191 49.0494L97.8755 57.0929C99.61 60.8795 100.625 65.0713 100.693 69.504C100.965 86.6454 87.2925 100.771 70.1426 101.043C53.0041 101.318 38.8811 87.6402 38.6062 70.4988C38.3369 53.3489 52.0149 39.2317 69.1535 38.9567Z" fill="white"/>
<path opacity="0.65" d="M69.4057 54.4797C74.1757 54.4032 78.4723 56.4892 81.3689 59.8251L94.7436 51.7504C88.9987 43.8656 79.6514 38.7895 69.1562 38.9567C52.0177 39.2316 38.3397 53.3489 38.6147 70.4988C38.8868 87.6402 53.0125 101.318 70.1511 101.043C87.2981 100.771 100.973 86.6482 100.701 69.504C100.63 65.0712 99.6185 60.8794 97.8839 57.0929L84.4299 65.2186C84.8919 66.6499 85.1526 68.1691 85.1781 69.7505C85.317 78.3212 78.4808 85.3813 69.9045 85.5202C61.3366 85.6562 54.2766 78.8172 54.1377 70.2465C53.9988 61.673 60.8321 54.613 69.4057 54.4797Z" fill="#019D5B"/>
<path d="M71.7099 65.658L81.369 59.8251C78.4695 56.4864 74.1757 54.4004 69.4057 54.4798C60.8321 54.6158 53.9988 61.6759 54.132 70.2494C54.2709 78.8201 61.331 85.6591 69.8989 85.5231C78.4752 85.3842 85.3114 78.3241 85.1725 69.7534C85.1498 68.1719 84.8862 66.6528 84.4243 65.2215L74.53 71.1961C73.2772 71.9528 71.6476 71.5815 70.837 70.3515L70.6896 70.1247C69.7118 68.6169 70.1681 66.5933 71.7099 65.658Z" fill="white"/>
<path d="M158.769 30.8084C159.387 31.1343 160.135 31.1116 160.727 30.7517L162.771 29.5188C163.08 29.3317 163.264 28.9916 163.25 28.6317C163.247 28.2689 163.037 27.943 162.717 27.7729L153.256 22.7875L154.319 22.147C154.543 22.0109 154.713 21.7842 154.773 21.5234C154.835 21.2655 154.79 20.9878 154.648 20.761L153.316 18.624C153.024 18.1592 152.414 18.0147 151.944 18.2953L150.847 18.9585L150.618 8.37262C150.609 8.01834 150.413 7.69241 150.102 7.51952C149.79 7.34946 149.407 7.3523 149.101 7.53936L147.069 8.76658C146.46 9.13503 146.094 9.79824 146.105 10.5096L146.352 21.6736L145.814 22.0053L145.575 11.4194C145.57 11.0623 145.369 10.7364 145.057 10.5606C144.748 10.3934 144.362 10.3991 144.053 10.5833L142.021 11.8105C141.409 12.1818 141.046 12.845 141.061 13.5564L141.31 24.7204L140.766 25.0492L140.528 14.4634C140.525 14.1063 140.326 13.7803 140.012 13.6074C139.706 13.4346 139.32 13.4402 139.011 13.6273L136.982 14.8545C136.373 15.2229 136.007 15.889 136.021 16.6004L136.234 26.1092C136.237 26.4635 136.055 26.7951 135.758 26.9765L127.788 31.789L124.48 33.79L121.38 35.6606L108.07 43.6984L94.7437 51.7476L81.369 59.8252L71.7099 65.658C70.1681 66.5933 69.709 68.617 70.6896 70.1219L70.837 70.3487C71.6476 71.5759 73.2772 71.95 74.53 71.1933L84.4243 65.2187L97.8783 57.093L111.193 49.0494L124.546 40.9861L127.655 39.1126L130.968 37.1117L138.932 32.302C139.224 32.1206 139.595 32.1093 139.901 32.2737L148.685 36.902C149.3 37.2279 150.045 37.2081 150.643 36.8424L152.687 35.6095C152.993 35.4253 153.177 35.0852 153.171 34.7253C153.16 34.3625 152.953 34.0365 152.638 33.8693L143.175 28.8839L143.696 28.5693L153.73 33.8552C154.347 34.1839 155.087 34.1613 155.688 33.7985L157.731 32.5656C158.04 32.3757 158.225 32.0384 158.219 31.6756C158.208 31.3185 158.004 30.9898 157.683 30.8225L148.223 25.84L148.738 25.5254L158.769 30.8084Z" fill="black"/>
</svg>
