<svg width="32" height="30" viewBox="0 0 32 30" fill="none" xmlns="http://www.w3.org/2000/svg">
<rect width="31.7143" height="30" rx="3" fill="#365899"/>
<path d="M16.0003 5.00001C14.2599 4.99744 12.5491 5.44978 11.0374 6.31218C9.52574 7.17459 8.26572 8.41711 7.38225 9.91657C6.49878 11.416 6.02256 13.1204 6.00078 14.8606C5.97901 16.6008 6.41244 18.3165 7.25811 19.8376L6.02609 24.1504C5.99347 24.2647 5.99201 24.3856 6.02184 24.5007C6.05168 24.6157 6.11172 24.7207 6.19577 24.8047C6.27981 24.8888 6.38479 24.9488 6.49983 24.9787C6.61488 25.0085 6.73581 25.007 6.8501 24.9744L11.1629 23.7424C12.4978 24.4812 13.9842 24.9046 15.5081 24.9801C17.032 25.0557 18.5529 24.7814 19.9544 24.1783C21.3559 23.5752 22.6008 22.6593 23.5936 21.5007C24.5864 20.3422 25.3009 18.9717 25.6822 17.4944C26.0635 16.017 26.1015 14.472 25.7934 12.9777C25.4853 11.4833 24.8392 10.0794 23.9047 8.87332C22.9701 7.66728 21.7719 6.69117 20.4018 6.01979C19.0317 5.34841 17.526 4.99957 16.0003 5.00001ZM16.0003 23.6671C14.4478 23.6647 12.9245 23.2447 11.5902 22.451C11.5121 22.4049 11.4254 22.3752 11.3354 22.3637C11.2454 22.3523 11.154 22.3593 11.0669 22.3844L7.63745 23.3644L8.61747 19.9336C8.64255 19.8465 8.64957 19.7551 8.63811 19.6651C8.62664 19.5751 8.59694 19.4884 8.5508 19.4103C7.57945 17.7653 7.17926 15.8453 7.41256 13.9493C7.64587 12.0532 8.49956 10.2875 9.84072 8.92706C11.1819 7.56662 12.9352 6.68783 14.8278 6.4275C16.7203 6.16717 18.6458 6.53991 20.3045 7.4877C21.9632 8.43549 23.2619 9.90513 23.9985 11.6678C24.7351 13.4304 24.8681 15.3872 24.377 17.2333C23.8859 19.0795 22.7981 20.7114 21.283 21.8751C19.768 23.0387 17.9106 23.6687 16.0003 23.6671Z" fill="white"/>
<path d="M21.5276 17.2923C21.5069 17.2743 19.1676 15.5496 18.3749 15.6876C17.9749 15.7582 17.7589 16.0162 17.3989 16.4449C17.3362 16.5189 17.2842 16.5783 17.2402 16.6309C17.1255 16.5876 16.9848 16.5289 16.8235 16.4509C15.8323 15.9685 15.0316 15.1676 14.5495 14.1762C14.4715 14.0155 14.4128 13.8749 14.3695 13.7602C14.4228 13.7135 14.4855 13.6609 14.5561 13.6009C14.9841 13.2422 15.2421 13.0255 15.3128 12.6248C15.4508 11.8362 13.7261 9.49144 13.7081 9.47211C13.6074 9.33479 13.4774 9.22165 13.3275 9.14092C13.1775 9.06019 13.0115 9.0139 12.8414 9.00543C12.0154 9.00543 10.0054 11.5575 10.0054 12.1548C10.0054 12.2582 10.0407 14.7349 13.1321 17.8809C16.2668 20.9617 18.7435 21.0003 18.8475 21.0003C19.4449 21.0003 22.0003 18.987 22.0003 18.1609C21.9915 17.99 21.9445 17.8232 21.8627 17.6729C21.7809 17.5226 21.6664 17.3925 21.5276 17.2923ZM18.7469 19.653C18.2769 19.5943 16.3988 19.2216 14.0728 16.9363C11.7687 14.5909 11.4001 12.7055 11.3467 12.2548C11.7752 11.6201 12.2637 11.0281 12.8054 10.4868C13.2231 11.0926 13.6 11.7256 13.9334 12.3815C13.8594 12.4482 13.7668 12.5242 13.7008 12.5815C13.4704 12.7563 13.2602 12.9562 13.0741 13.1775L12.9114 13.4042L12.9594 13.6795C13.0449 14.0546 13.1766 14.4176 13.3514 14.7602C13.965 16.0203 14.9833 17.0383 16.2435 17.6516C16.586 17.8269 16.949 17.9588 17.3242 18.0443L17.5995 18.0916L17.8255 17.9303C18.0469 17.744 18.247 17.5339 18.4222 17.3036C18.4809 17.2336 18.5555 17.1429 18.6222 17.0709C19.2782 17.4034 19.9112 17.7793 20.5169 18.1963C19.9747 18.7372 19.382 19.225 18.7469 19.653Z" fill="white"/>
</svg>
