<?xml version="1.0" encoding="utf-8"?>
<!-- Generator: Adobe Illustrator 24.1.2, SVG Export Plug-In . SVG Version: 6.00 Build 0)  -->
<svg version="1.1" id="Layer_1" xmlns="http://www.w3.org/2000/svg" xmlns:xlink="http://www.w3.org/1999/xlink" x="0px" y="0px"
	 viewBox="0 0 400 400" style="enable-background:new 0 0 400 400;" xml:space="preserve">
<style type="text/css">
	.st0{fill:#59B58C;}
	.st1{fill:#2D75AC;}
	.st2{fill:#3266A3;}
	.st3{fill:#2E70A9;}
	.st4{fill:#355F9E;}
	.st5{fill:#316CA6;}
	.st6{fill:#2982B5;}
	.st7{fill:#2988B9;}
	.st8{fill:#248EBC;}
	.st9{fill:#2C79AF;}
	.st10{fill:#2D7DB1;}
	.st11{fill:#36599A;}
	.st12{fill:#2094C1;}
	.st13{fill:#1C9BC5;}
	.st14{fill:#1FA2C9;}
	.st15{fill:#1AACCF;}
</style>
<g>
	<path class="st0" d="M350.35,122.21c-0.01,2-1.16,2.82-2.09,3.74c-25.97,25.77-56.81,43.06-91.95,52.92
		c-13.11,3.68-26.18,7.48-38.45,13.56c-26.04,12.89-46.55,31.14-57.37,58.85c-0.07,0.18-0.27,0.31-0.56,0.64
		c-1.94-1.22-3.1-3.2-4.41-4.95c-10.39-13.93-19.79-28.54-29.24-43.11c-1.57-2.42-1.5-4.11,0.45-6.45
		c14.24-17.12,32.34-28.49,53.07-35.97c14.97-5.4,30.47-8.43,46.36-8.81c31.29-0.75,61.87-5.18,91.34-16.12
		C328.59,132.39,339.54,127.92,350.35,122.21z"/>
	<path class="st0" d="M334.67,160.49c-2.04,6.61-6.38,10.62-10.26,14.86c-17.07,18.69-37.29,33.05-60.38,43.43
		c-15.75,7.08-30.64,15.59-42.78,28.12c-10.97,11.32-19.92,24-24.46,39.36c-0.38,1.29-0.67,2.62-0.98,3.93
		c-0.87,3.65-0.89,3.65-4.13,1.99c-2.08-1.06-3.87-2.47-5.36-4.22c-6.46-7.61-12.88-15.26-18.44-23.58
		c-0.97-1.46-0.73-2.61-0.17-4.04c6.54-16.7,17.68-29.73,31.95-40.28c14.61-10.8,31.02-17.62,48.59-21.84
		c18.32-4.41,36.38-9.54,53.33-18.04C312.85,174.52,323.76,168.28,334.67,160.49z"/>
	<path class="st1" d="M120.73,186.9c-0.87,1.13-1.75,2.26-2.87,3.72c-0.59-4.82-3.74-7.98-5.71-11.75
		c0.27-22.13,0.04-44.25,0.14-66.38c0.01-1.83-0.39-3.78,1-5.37c2.28-0.37,4.57-0.49,6.87-0.17c1.02,1.22,1.01,2.69,1.01,4.15
		c0.02,24.03,0,48.06,0.02,72.09C121.18,184.46,120.86,185.66,120.73,186.9z"/>
	<path class="st2" d="M98.09,160.87c-3.5-2.69-6.99-5.39-10.49-8.08c-0.5-1.09-0.34-2.24-0.34-3.38c0.07-9.99,0.01-19.99,0.04-29.98
		c0.01-1.68-0.42-3.3-0.43-4.97c3.56-1.94,7.26-3.49,11.22-4.39c2.18,0.44,1.75,2.27,1.79,3.66c0.14,4.97,0.05,9.94,0.05,14.91
		c0,9.32,0.06,18.63-0.06,27.95C99.86,158.12,100.62,160.27,98.09,160.87z"/>
	<path class="st3" d="M113.28,107.11c0,22.61,0.01,45.22-0.02,67.83c0,1.38,0.52,2.98-1.12,3.92c-2.18-3.29-4.37-6.58-6.55-9.87
		c-0.43-6.85-0.15-13.71-0.18-20.57c-0.06-12.37,0.01-24.75-0.04-37.12c0-1.04,0.04-2.08,0.26-3.1
		C108.12,107.44,110.67,107.08,113.28,107.11z"/>
	<path class="st4" d="M86.88,114.46c1.28,0.53,1.42,1.6,1.42,2.81c-0.02,10.95-0.02,21.91,0,32.86c0,0.97-0.29,1.82-0.7,2.66
		c-4.97-2.75-9.95-5.51-14.92-8.26c0.55-6.69,0.17-13.39,0.27-20.09c0.02-1.23-0.09-2.48,0.28-3.68
		C77.68,118.43,82.19,116.26,86.88,114.46z"/>
	<path class="st5" d="M105.63,108.21c1.15,0.84,0.76,2.07,0.76,3.16c0.02,18.16,0.02,36.33,0,54.49c0,1.09,0.39,2.33-0.8,3.14
		c-2.5-2.71-5-5.41-7.5-8.12c1.2-0.8,0.8-2.05,0.8-3.13c0.02-14.84,0.02-29.68,0-44.53c0-1.09,0.39-2.33-0.79-3.14
		C100.49,108.95,103,108.34,105.63,108.21z"/>
	<path class="st6" d="M128.9,107.75c1.98,0.25,3.9,0.73,5.63,1.77c0.87,1.02,0.99,2.26,1,3.51c0.04,18.98,0.03,37.97,0.01,56.95
		c0,1.38-0.21,2.69-1.04,3.83c-1.52,1.4-2.94,2.92-4.78,3.93c-1.49,0.03-1.51-1.17-1.7-2.13c-0.22-1.12-0.15-2.27-0.15-3.41
		c0-19.7-0.01-39.4,0.02-59.09C127.89,111.28,127.5,109.33,128.9,107.75z"/>
	<path class="st7" d="M134.49,173.81c0.01-21.43,0.02-42.87,0.04-64.3c2.63,0.69,4.82,2.15,6.82,3.92c0.42,1.09,0.44,2.22,0.44,3.37
		c-0.02,15.84,0,31.69-0.01,47.53c0,1.66,0.06,3.33-0.93,4.8C138.73,170.69,136.61,172.25,134.49,173.81z"/>
	<path class="st8" d="M140.85,169.13c-0.03-17.67-0.05-35.34-0.09-53c0-0.95,0.08-1.86,0.6-2.69c2.49,1.64,4.51,3.76,6.27,6.14
		c0.85,1.49,1.04,3.13,1.04,4.81c0,12.05,0.01,24.1-0.01,36.16c0,1.47-0.06,2.92-0.95,4.18
		C145.42,166.19,143.14,167.66,140.85,169.13z"/>
	<path class="st9" d="M120.73,186.9c-0.77-1.23-0.57-2.6-0.57-3.94c0-25.34,0-50.67,0-76.01c1.47-0.33,2.92-0.13,4.37,0.16
		c1.38,1.59,1,3.53,1.01,5.36c0.03,20.96,0.04,41.92-0.01,62.87c0,2.25,0.62,4.56-0.33,6.77
		C123.7,183.71,122.21,185.31,120.73,186.9z"/>
	<path class="st10" d="M125.19,182.11c-0.53-1.69-0.69-3.42-0.68-5.2c0.03-23.27,0.02-46.54,0.02-69.81
		c1.51-0.17,2.96,0.13,4.37,0.64c0,22.07-0.01,44.15,0.03,66.22c0,1.27-0.56,2.75,0.79,3.77C128.2,179.2,126.7,180.66,125.19,182.11
		z"/>
	<path class="st11" d="M73.23,120.76c0.21,0.34,0.61,0.67,0.61,1.01c0.05,7.1,0.05,14.19,0.07,21.29c0,0.85-0.37,1.36-1.23,1.47
		c-7.38-3.23-16.14-9.8-23.03-17.43C58.08,126.3,65.7,123.68,73.23,120.76z"/>
	<path class="st12" d="M147.71,164.72c-0.03-15.05-0.05-30.1-0.08-45.15c2.02,1.85,3.6,4.04,5,6.37c0.79,1.62,1.03,3.33,1.03,5.12
		c-0.02,8.8,0,17.61-0.01,26.42c0,1.56-0.01,3.12-1.01,4.46C150.99,162.86,149.35,163.79,147.71,164.72z"/>
	<path class="st13" d="M152.64,161.94c0-12,0-23.99,0-35.99c2.55,2.63,4.88,5.44,6.94,8.46c0.65,7.36,0.23,14.74,0.2,22.11
		c0,0.85-0.43,1.6-0.89,2.3C156.8,159.85,154.72,160.89,152.64,161.94z"/>
	<path class="st14" d="M158.88,158.81c0-6.83,0.01-13.67,0-20.5c0-1.35-0.06-2.7,0.7-3.91c2.48,2.95,4.96,5.89,7.44,8.84
		c0.46,4.16,0.96,8.32-0.64,12.36C163.88,156.68,161.38,157.74,158.88,158.81z"/>
	<path class="st15" d="M166.38,155.61c0.24-4.12-0.56-8.29,0.64-12.36c3.5,3.01,6.73,6.44,11.57,8.05
		C174.52,152.73,170.45,154.17,166.38,155.61z"/>
</g>
</svg>
