<svg width="224" height="180" viewBox="0 0 224 180" fill="none" xmlns="http://www.w3.org/2000/svg">
<g clip-path="url(#clip0)">
<path d="M111.682 180.001C173.363 180.001 223.365 169.163 223.365 155.793C223.365 142.423 173.363 131.585 111.682 131.585C50.0019 131.585 0 142.423 0 155.793C0 169.163 50.0019 180.001 111.682 180.001Z" fill="url(#paint0_radial)"/>
<path d="M117.188 149.107C112.944 149.107 108.703 148.669 104.581 147.807L94.9766 145.796L95.3044 144.227C99.3176 145.066 103.449 145.493 107.584 145.493C109.398 145.493 111.243 145.41 113.066 145.248C113.426 145.216 113.784 145.18 114.141 145.141L114.426 145.109C114.73 145.075 115.023 145.04 115.315 145.004L115.525 144.978C115.879 144.933 116.232 144.884 116.582 144.832L116.834 144.794C117.117 144.751 117.398 144.706 117.679 144.66L117.957 144.614C118.306 144.555 118.654 144.493 119.002 144.428L119.138 144.402C119.444 144.344 119.751 144.283 120.057 144.221L120.35 144.16C120.653 144.096 120.957 144.031 121.26 143.962L121.397 143.931C121.74 143.853 122.082 143.772 122.423 143.688L122.695 143.62C122.968 143.552 123.241 143.482 123.513 143.409L123.756 143.345C124.095 143.253 124.432 143.16 124.769 143.064L124.969 143.005C125.248 142.924 125.526 142.841 125.802 142.756L126.078 142.671C126.401 142.571 126.723 142.469 127.045 142.364L127.085 142.35C127.419 142.24 127.751 142.127 128.083 142.012L128.355 141.916C128.629 141.819 128.9 141.723 129.17 141.623L129.37 141.551C129.696 141.43 130.02 141.306 130.343 141.18L130.58 141.086C130.837 140.984 131.096 140.88 131.355 140.773L131.612 140.668C131.933 140.534 132.254 140.399 132.574 140.261L132.697 140.206C132.981 140.083 133.261 139.957 133.542 139.83L133.809 139.708C134.089 139.58 134.367 139.45 134.644 139.319L134.769 139.26C135.083 139.109 135.395 138.957 135.707 138.8L135.954 138.677C136.202 138.551 136.451 138.425 136.699 138.296L136.923 138.179C137.23 138.017 137.535 137.854 137.841 137.689L138.023 137.588C138.276 137.449 138.527 137.31 138.777 137.168L139.028 137.026C139.319 136.859 139.61 136.692 139.898 136.521L139.922 136.503L139.961 136.484C140.254 136.31 140.546 136.133 140.835 135.955L141.082 135.802C141.326 135.652 141.569 135.499 141.811 135.344L141.989 135.231C142.282 135.043 142.573 134.853 142.862 134.661L143.071 134.521C143.303 134.366 143.535 134.209 143.765 134.051L143.994 133.894C144.281 133.695 144.567 133.494 144.851 133.292L144.961 133.211C145.211 133.031 145.461 132.849 145.71 132.666C145.789 132.608 145.867 132.549 145.945 132.492C146.192 132.307 146.439 132.121 146.683 131.934L146.794 131.849C147.071 131.636 147.347 131.42 147.62 131.202L147.86 131.011C148.026 130.877 148.183 130.752 148.338 130.625C148.429 130.551 148.518 130.478 148.608 130.404C148.765 130.274 148.923 130.144 149.079 130.014L149.328 129.804C149.513 129.648 149.696 129.491 149.879 129.334L150.034 129.2C150.268 128.996 150.501 128.793 150.731 128.587L150.911 128.425C151.083 128.271 151.254 128.117 151.423 127.961L151.668 127.734C151.817 127.597 151.965 127.459 152.113 127.321C152.199 127.241 152.283 127.16 152.369 127.079C152.516 126.94 152.663 126.799 152.809 126.658L153.048 126.427C153.215 126.264 153.382 126.099 153.548 125.934L153.706 125.778C154.051 125.432 154.402 125.076 154.775 124.687L154.864 124.595C155.194 124.249 155.54 123.879 155.892 123.497L155.996 123.385C156.314 123.037 156.647 122.665 156.987 122.278L157.101 122.149C157.412 121.793 157.735 121.417 158.06 121.029L158.188 120.878C158.457 120.555 158.724 120.23 158.987 119.903L159.139 119.714C159.431 119.348 159.691 119.019 159.933 118.707L160.017 118.598C160.27 118.269 160.522 117.937 160.771 117.603L160.866 117.476C161.104 117.154 161.351 116.815 161.62 116.441L161.769 116.231C161.996 115.912 162.221 115.591 162.445 115.266L162.532 115.138C162.736 114.84 162.937 114.541 163.137 114.24L163.27 114.039C163.486 113.712 163.699 113.384 163.909 113.054L164.037 112.852C164.228 112.549 164.418 112.245 164.605 111.939L164.696 111.793C164.892 111.473 165.085 111.15 165.276 110.827L165.415 110.59C165.581 110.307 165.745 110.023 165.908 109.737L166.001 109.574C166.187 109.245 166.369 108.915 166.55 108.583L166.679 108.345C166.835 108.056 166.991 107.766 167.143 107.474L167.235 107.301C167.406 106.975 167.574 106.646 167.74 106.316L167.859 106.079C167.996 105.805 168.131 105.53 168.265 105.255L168.376 105.026C168.536 104.693 168.694 104.359 168.849 104.023L168.945 103.814C169.075 103.533 169.203 103.251 169.329 102.968L169.444 102.709C169.593 102.371 169.74 102.032 169.885 101.693L169.944 101.552C170.07 101.251 170.196 100.95 170.319 100.648L170.432 100.369C170.566 100.037 170.699 99.7039 170.829 99.3689L170.846 99.3248C170.98 98.9773 171.111 98.6275 171.241 98.2767L171.343 97.9982C171.455 97.6938 171.565 97.3882 171.672 97.0826L171.732 96.9128C171.856 96.5585 171.977 96.2031 172.096 95.8466L172.184 95.5795C172.281 95.284 172.377 94.9864 172.471 94.6887L172.545 94.4567C172.657 94.0979 172.766 93.7379 172.874 93.378L172.942 93.146C173.034 92.8279 173.126 92.5099 173.215 92.1918L173.284 91.9451C173.387 91.5727 173.488 91.1992 173.585 90.8234L173.645 90.5902C173.727 90.2688 173.809 89.9462 173.887 89.6236L173.948 89.3724C174.038 88.9943 174.126 88.6163 174.212 88.236L174.261 88.0164C174.342 87.6497 174.421 87.2818 174.497 86.914L174.538 86.7193C174.62 86.3152 174.699 85.91 174.775 85.5037L174.825 85.2332C174.901 84.82 174.975 84.4069 175.044 83.9915C175.115 83.5648 175.181 83.1449 175.244 82.7261L175.284 82.4624C175.351 82.0096 175.414 81.5524 175.473 81.1042L175.503 80.8687C175.568 80.356 175.623 79.8965 175.669 79.463L175.681 79.3498C175.729 78.8948 175.776 78.4262 175.817 77.9565L175.832 77.8014C175.871 77.36 175.907 76.9005 175.941 76.3968L175.962 76.0821C175.972 75.918 175.983 75.7539 175.993 75.5898C175.993 75.5898 176.011 75.2898 176.018 75.154C176.027 74.9887 176.035 74.8224 176.042 74.6571C176.042 74.6571 176.057 74.3538 176.063 74.2225C176.07 74.0674 176.075 73.9135 176.08 73.7584C176.08 73.7584 176.092 73.3985 176.096 73.2887C176.1 73.1235 176.105 72.9571 176.108 72.7918C176.108 72.7918 176.116 72.4681 176.118 72.3515C176.12 72.1965 176.123 72.0425 176.124 71.8875C176.124 71.8875 176.128 71.5219 176.129 71.4155C176.131 71.257 176.131 71.0974 176.131 70.9378C176.131 70.9378 176.131 70.5723 176.131 70.4738C176.13 70.3289 176.128 70.1852 176.126 70.0403C176.126 70.0403 176.122 69.6204 176.119 69.5309C176.117 69.3793 176.113 69.2265 176.109 69.0748L176.097 68.5881C176.088 68.2655 176.076 67.943 176.063 67.6204C176.044 67.1654 176.02 66.6923 175.988 66.1773C175.983 66.0822 175.976 65.9882 175.969 65.8932L175.957 65.7132C175.935 65.3884 175.912 65.0635 175.888 64.7398C175.876 64.5961 175.864 64.4523 175.851 64.3086L175.841 64.1954C175.816 63.8977 175.789 63.6012 175.761 63.3046C175.743 63.1179 175.724 62.9311 175.704 62.7443C175.674 62.4501 175.641 62.1569 175.607 61.8638L175.597 61.7777C175.579 61.6261 175.562 61.4744 175.543 61.3227C175.504 61.0115 175.464 60.7014 175.422 60.3912L175.399 60.2237C175.386 60.1207 175.372 60.0188 175.357 59.917C175.3 59.5084 175.238 59.102 175.174 58.6957L175.148 58.5271C175.078 58.0868 175.001 57.6374 174.914 57.1519C174.896 57.0489 174.876 56.947 174.857 56.844L174.82 56.6516C174.764 56.3516 174.709 56.0506 174.649 55.7518C174.623 55.6193 174.594 55.4869 174.567 55.3556L174.533 55.1926C174.476 54.9153 174.418 54.6391 174.358 54.363C174.322 54.1966 174.283 54.0313 174.246 53.8649L174.227 53.7812C174.167 53.5152 174.106 53.2492 174.043 52.9855C173.995 52.7886 173.948 52.5927 173.899 52.3969C173.835 52.1366 173.769 51.8763 173.702 51.6171C173.652 51.4213 173.601 51.2266 173.549 51.0308C173.48 50.7716 173.408 50.5135 173.336 50.2555C173.283 50.0642 173.229 49.8729 173.174 49.6816C173.099 49.419 173.021 49.1587 172.943 48.8972L172.905 48.7705C172.862 48.629 172.821 48.4875 172.778 48.346C172.694 48.0744 172.607 47.8039 172.52 47.5334L172.463 47.3545C172.428 47.2447 172.393 47.1349 172.358 47.0263C172.258 46.7218 172.155 46.4196 172.051 46.1163L171.993 45.9476C171.967 45.8718 171.942 45.796 171.915 45.7201C171.759 45.2753 171.602 44.8407 171.449 44.4287L171.377 44.2397C171.24 43.8752 171.102 43.5119 170.96 43.1508C170.925 43.0603 170.888 42.9697 170.851 42.8803L170.781 42.7071C170.672 42.4332 170.561 42.1582 170.448 41.8865C170.399 41.7688 170.349 41.6522 170.3 41.5357L170.235 41.3851C170.129 41.135 170.023 40.8848 169.913 40.6358C169.852 40.4966 169.79 40.3574 169.728 40.2193L169.681 40.1152C169.574 39.8764 169.467 39.6364 169.357 39.3987C169.275 39.2233 169.193 39.0478 169.112 38.8724C169.001 38.6381 168.89 38.4049 168.778 38.1729C168.693 37.9986 168.608 37.8243 168.523 37.6511C168.414 37.4315 168.303 37.2131 168.192 36.9947C168.09 36.7921 167.986 36.5883 167.88 36.3868C167.772 36.1775 167.661 35.9692 167.55 35.7609C167.443 35.5595 167.336 35.3591 167.227 35.1599C167.114 34.9528 167 34.7479 166.886 34.5431C166.775 34.345 166.664 34.148 166.552 33.9511C166.436 33.7462 166.317 33.5436 166.198 33.341C166.084 33.1463 165.97 32.9517 165.855 32.7581C165.735 32.5578 165.613 32.3574 165.491 32.1582C165.373 31.9658 165.256 31.7745 165.136 31.5844C165.011 31.3863 164.886 31.1894 164.76 30.9924C164.639 30.8034 164.518 30.6144 164.395 30.4276C164.267 30.233 164.139 30.0394 164.01 29.8459C163.885 29.6591 163.761 29.4735 163.634 29.289C163.503 29.0966 163.371 28.9064 163.238 28.7163C163.11 28.5329 162.982 28.3507 162.853 28.1696C162.642 27.873 162.429 27.5776 162.213 27.2856L162.183 27.2437C161.964 26.9472 161.733 26.6404 161.453 26.2749C161.39 26.1934 161.327 26.1119 161.264 26.0304C161.033 25.7316 160.8 25.435 160.565 25.1419L160.509 25.0717C160.284 24.791 160.034 24.4865 159.747 24.1424L159.551 23.9093C159.315 23.6286 159.078 23.3501 158.837 23.0728L158.759 22.9823C158.511 22.6993 158.261 22.4198 158.009 22.1413C157.813 21.9229 157.612 21.7078 157.413 21.4928L157.291 21.3603C157.209 21.2709 157.126 21.1815 157.043 21.0921C156.814 20.8499 156.583 20.6122 156.352 20.3734L156.226 20.2443C156.17 20.1855 156.113 20.1266 156.056 20.0678C155.717 19.7237 155.377 19.3864 155.049 19.0683L154.885 18.9121C154.566 18.6043 154.283 18.336 154.021 18.0927C153.899 17.9795 153.777 17.8686 153.654 17.7565L153.383 17.5109C153.267 17.4045 153.152 17.2993 153.034 17.1951C152.91 17.0842 152.784 16.9755 152.66 16.8669L152.381 16.6235C152.263 16.5205 152.145 16.4175 152.027 16.3157C151.902 16.2093 151.778 16.1051 151.653 16.001L151.355 15.752C151.239 15.6535 151.122 15.5562 151.004 15.4589C150.877 15.3547 150.749 15.2529 150.622 15.151L150.321 14.9099C150.202 14.8148 150.084 14.7186 149.964 14.6247C149.709 14.4255 149.453 14.2297 149.196 14.0339C149.196 14.0339 148.988 13.8731 148.943 13.8392C148.601 13.5822 148.252 13.3253 147.906 13.0752C147.86 13.0412 147.812 13.0084 147.765 12.9756L147.645 12.8918C147.382 12.7039 147.119 12.5172 146.854 12.3338C146.771 12.2772 146.689 12.2206 146.605 12.1652L146.429 12.0452C146.215 11.8992 146 11.7543 145.784 11.6117C145.7 11.5551 145.614 11.5008 145.529 11.4453L145.391 11.3559C145.169 11.2121 144.947 11.0673 144.723 10.9258C144.606 10.8522 144.489 10.7798 144.372 10.7073L144.29 10.6564C144.076 10.524 143.861 10.3915 143.645 10.2614C143.496 10.1708 143.346 10.0814 143.196 9.99313C142.981 9.86636 142.766 9.74073 142.55 9.61622C142.399 9.52907 142.248 9.44305 142.096 9.35703C141.871 9.23026 141.645 9.10576 141.418 8.98125L141.321 8.92806C141.215 8.8692 141.108 8.81147 141 8.75375C140.748 8.61793 140.495 8.4855 140.241 8.3542L140.099 8.2795C140.03 8.24328 139.962 8.20706 139.893 8.17198C139.5 7.97051 139.135 7.78828 138.777 7.6151L138.679 7.5687C138.337 7.40345 137.99 7.23933 137.647 7.08087C137.569 7.04465 137.49 7.00956 137.411 6.97447L137.27 6.91109C137.015 6.79677 136.761 6.68246 136.505 6.5704C136.386 6.51834 136.266 6.4674 136.146 6.41647L136.065 6.38138C135.826 6.27952 135.588 6.17991 135.348 6.08144C135.194 6.01806 135.04 5.95581 134.887 5.89469C134.648 5.79848 134.408 5.70453 134.169 5.61172L134.142 5.60153C133.999 5.54607 133.857 5.49174 133.713 5.43742C133.464 5.34347 133.215 5.25179 132.964 5.16124L132.821 5.10918C132.723 5.07296 132.625 5.03787 132.526 5.00278C132.235 4.89978 131.943 4.80018 131.65 4.70284C131.65 4.70284 131.392 4.61456 131.332 4.59532C130.932 4.46289 130.528 4.33499 130.131 4.21275C130.084 4.19803 129.862 4.13352 129.862 4.13352C129.546 4.03844 129.229 3.9445 128.911 3.85395C128.84 3.83358 128.566 3.75887 128.566 3.75887C128.284 3.68078 128.001 3.60494 127.718 3.53024C127.583 3.49515 127.447 3.46007 127.31 3.42611C127.031 3.35593 126.751 3.28689 126.47 3.22011C126.47 3.22011 126.185 3.1522 126.101 3.13183C125.659 3.02996 125.266 2.94281 124.901 2.86584L125.229 1.29596L134.833 3.30613C135.21 3.38536 135.614 3.47365 136.066 3.57891C136.154 3.59928 136.444 3.66946 136.444 3.66946C136.733 3.73737 137.02 3.80754 137.306 3.88112C137.446 3.9162 137.585 3.95242 137.725 3.98864C138.017 4.06448 138.307 4.14257 138.597 4.22294C138.597 4.22294 138.874 4.29877 138.951 4.32027L139.08 4.35536C139.349 4.43233 139.615 4.51269 139.882 4.59305C139.882 4.59305 140.15 4.67228 140.203 4.68813C140.611 4.81263 141.026 4.94506 141.439 5.08088C141.504 5.10239 141.57 5.12502 141.634 5.14766L141.764 5.1918C142.065 5.29254 142.365 5.3944 142.664 5.49967C142.766 5.53589 142.869 5.57324 142.971 5.61059L143.3 5.72943C143.421 5.77244 143.543 5.81659 143.664 5.86186C143.707 5.87771 143.885 5.94675 143.885 5.94675C144.021 5.99768 144.158 6.05088 144.293 6.10295L144.352 6.12558C144.6 6.22066 144.845 6.318 145.09 6.41647C145.248 6.47985 145.406 6.54324 145.563 6.60889C145.809 6.70962 146.055 6.81375 146.3 6.91788L146.386 6.9541C146.508 7.00617 146.63 7.05823 146.751 7.1103C147.014 7.22461 147.275 7.34233 147.538 7.46117L147.67 7.52116C147.755 7.55851 147.838 7.59699 147.922 7.63548L148.02 7.67962C148.344 7.82902 148.665 7.98182 148.985 8.13689L149.081 8.18216C149.453 8.36213 149.827 8.55002 150.228 8.75488C150.303 8.79337 150.379 8.83298 150.453 8.87146L150.585 8.94051C150.845 9.07633 151.107 9.21215 151.364 9.35137C151.477 9.41249 151.589 9.47361 151.701 9.53473L151.954 9.67282C152.049 9.72375 152.144 9.77582 152.238 9.82788C152.287 9.85505 152.334 9.88221 152.382 9.90937L152.487 9.96936C152.643 10.0576 152.798 10.1459 152.953 10.2353C153.174 10.3632 153.395 10.4911 153.615 10.6213C153.77 10.713 153.924 10.8047 154.077 10.8964C154.299 11.0299 154.519 11.1657 154.739 11.3016L154.828 11.357C154.947 11.4306 155.065 11.5042 155.183 11.5789C155.413 11.7237 155.641 11.872 155.869 12.0192L156.005 12.1063C156.095 12.164 156.185 12.2229 156.274 12.2817L156.382 12.3519C156.522 12.4436 156.659 12.5387 156.797 12.6326L157.11 12.8454C157.198 12.9043 157.285 12.9631 157.37 13.022C157.643 13.2099 157.912 13.4011 158.182 13.5936L158.293 13.6717C158.345 13.7079 158.397 13.7452 158.449 13.7826C158.805 14.0395 159.163 14.3032 159.513 14.5658C159.565 14.6043 159.616 14.6439 159.668 14.6847L159.826 14.8058C160.052 14.9778 160.278 15.1499 160.502 15.3253L160.56 15.3717C160.683 15.4679 160.805 15.5664 160.927 15.6649L161.225 15.9037C161.359 16.0101 161.493 16.1176 161.626 16.2263C161.75 16.3281 161.872 16.4311 161.995 16.5341L162.285 16.7763C162.415 16.885 162.546 16.9937 162.675 17.1046C162.798 17.2098 162.92 17.3174 163.042 17.4238L163.319 17.666C163.449 17.7792 163.578 17.8912 163.706 18.0055C163.825 18.1119 163.943 18.2206 164.062 18.3281L164.366 18.6043C164.463 18.6926 164.56 18.7797 164.656 18.8691L164.716 18.9257C164.986 19.177 165.276 19.452 165.601 19.7656C165.601 19.7656 165.737 19.8935 165.769 19.9252C166.107 20.2534 166.454 20.5986 166.8 20.9495C166.862 21.0129 166.924 21.0774 166.986 21.1419L167.106 21.2664C167.342 21.5086 167.578 21.752 167.81 21.9987C167.897 22.0904 167.983 22.1843 168.069 22.2772L168.192 22.4107C168.396 22.6303 168.599 22.8499 168.801 23.0728C168.801 23.0728 168.9 23.1804 168.924 23.2075C169.14 23.4486 169.355 23.6908 169.568 23.9353L169.65 24.0293C169.895 24.3111 170.138 24.5963 170.38 24.8838L170.58 25.1215C170.869 25.469 171.125 25.7802 171.361 26.0745L171.418 26.1458C171.658 26.4469 171.897 26.7502 172.133 27.0558L172.325 27.306C172.608 27.6738 172.852 27.9975 173.073 28.2964L173.103 28.3394C173.276 28.5737 173.448 28.8091 173.619 29.0468C173.646 29.0853 173.759 29.2471 173.759 29.2471C173.891 29.4327 174.022 29.6195 174.152 29.8074C174.288 30.0021 174.424 30.1967 174.558 30.3937C174.687 30.5827 174.815 30.7728 174.943 30.963C175.075 31.1599 175.207 31.358 175.337 31.5584C175.463 31.7508 175.587 31.9443 175.71 32.1367C175.839 32.3382 175.968 32.5397 176.094 32.7423C176.217 32.937 176.336 33.1328 176.456 33.3286C176.582 33.5334 176.706 33.7383 176.829 33.9443C176.948 34.1424 177.064 34.3405 177.181 34.5397C177.302 34.7479 177.424 34.9551 177.543 35.1644C177.658 35.3648 177.771 35.5674 177.884 35.7689C178.002 35.9794 178.118 36.1899 178.233 36.4016C178.344 36.6053 178.454 36.8102 178.563 37.015C178.676 37.2278 178.789 37.4417 178.901 37.6557C179.009 37.8628 179.115 38.0699 179.22 38.2782L179.297 38.4264C179.333 38.4978 179.371 38.5679 179.407 38.6404C179.436 38.7004 179.466 38.7603 179.495 38.8203L179.558 38.9494C179.646 39.1271 179.733 39.3048 179.819 39.4836C179.935 39.7202 180.048 39.959 180.161 40.1978C180.246 40.3766 180.329 40.5566 180.413 40.7366C180.525 40.9799 180.636 41.2244 180.745 41.47L180.787 41.5639C180.853 41.71 180.918 41.856 180.983 42.002C181.095 42.2566 181.203 42.5124 181.313 42.7694L181.376 42.9165C181.428 43.0376 181.479 43.1587 181.53 43.281C181.646 43.5605 181.759 43.8412 181.872 44.1231L181.938 44.2849C181.977 44.3811 182.016 44.4773 182.054 44.5736C182.2 44.9437 182.343 45.3161 182.483 45.6896L182.555 45.8797C182.713 46.3053 182.874 46.7501 183.031 47.1995C183.059 47.2798 183.086 47.3613 183.114 47.4417L183.17 47.6069C183.276 47.9159 183.381 48.2238 183.484 48.5339C183.523 48.6505 183.56 48.7671 183.596 48.8837L183.651 49.0523C183.74 49.3285 183.828 49.6046 183.914 49.8831C183.958 50.028 184.002 50.1728 184.045 50.3177L184.083 50.4456C184.164 50.7116 184.243 50.9787 184.32 51.2458C184.374 51.4349 184.427 51.625 184.48 51.8152L184.485 51.831C184.558 52.0947 184.631 52.3596 184.702 52.6244C184.755 52.8236 184.807 53.0228 184.859 53.2221C184.928 53.4869 184.995 53.7529 185.06 54.02C185.11 54.2192 185.159 54.4196 185.206 54.6199C185.27 54.8904 185.333 55.1621 185.395 55.4348L185.414 55.5197C185.452 55.6895 185.491 55.8593 185.528 56.0291C185.589 56.3098 185.648 56.5927 185.707 56.8745L185.741 57.0353C185.769 57.1722 185.798 57.3092 185.826 57.4473C185.887 57.7517 185.943 58.0585 186.001 58.3652L186.036 58.5497C186.056 58.6583 186.076 58.767 186.097 58.8757L186.114 58.9673C186.191 59.3986 186.265 59.84 186.337 60.2803L186.362 60.4512C186.428 60.8666 186.491 61.2831 186.55 61.6996C186.565 61.8049 186.58 61.9102 186.593 62.0154L186.616 62.1818C186.659 62.4976 186.701 62.8145 186.74 63.1326C186.76 63.2944 186.779 63.4563 186.798 63.6181L186.806 63.686C186.841 63.9849 186.873 64.2848 186.905 64.5859C186.925 64.776 186.945 64.9662 186.963 65.1575C186.992 65.4597 187.019 65.763 187.045 66.0663L187.055 66.1841C187.068 66.3301 187.08 66.4761 187.092 66.6221C187.118 66.9514 187.14 67.282 187.162 67.6124L187.173 67.7845C187.18 67.8852 187.187 67.9871 187.193 68.089C187.225 68.6141 187.25 69.0963 187.269 69.5615C187.283 69.8909 187.294 70.2202 187.304 70.5496L187.317 71.0454C187.32 71.2016 187.325 71.3566 187.327 71.5117C187.329 71.6079 187.329 71.703 187.33 71.7992L187.332 72.0335C187.335 72.1795 187.336 72.3266 187.337 72.4726C187.338 72.5745 187.337 72.9016 187.337 72.9016V72.999C187.337 73.1438 187.337 73.2887 187.336 73.4325C187.335 73.5388 187.331 73.8671 187.331 73.8671L187.33 73.9463C187.329 74.0935 187.327 74.2417 187.325 74.3889C187.322 74.4987 187.313 74.888 187.313 74.888C187.31 75.0397 187.306 75.1925 187.302 75.3442C187.299 75.4619 187.287 75.7844 187.287 75.7844C187.282 75.9599 187.275 76.1285 187.268 76.296C187.262 76.4296 187.256 76.5632 187.25 76.6967L187.248 76.7386C187.24 76.9084 187.232 77.077 187.223 77.2457C187.215 77.3939 187.206 77.5422 187.198 77.6905C187.188 77.858 187.178 78.0255 187.167 78.193L187.156 78.3696L187.145 78.5133C187.109 79.0306 187.072 79.5003 187.034 79.9474L187.019 80.1059C186.976 80.5824 186.93 81.06 186.88 81.5275L186.869 81.6418C186.82 82.09 186.765 82.5586 186.699 83.077L186.669 83.3192C186.609 83.7776 186.545 84.2439 186.477 84.7046L186.461 84.8189L186.436 84.974C186.372 85.4029 186.305 85.8297 186.234 86.2552C186.16 86.691 186.086 87.112 186.008 87.5331L185.957 87.8093C185.879 88.2247 185.798 88.6378 185.714 89.0509L185.672 89.2501C185.594 89.6259 185.514 90.0005 185.431 90.3752L185.399 90.5235L185.381 90.5993C185.294 90.9864 185.204 91.3723 185.111 91.7583L185.048 92.0164C184.967 92.3457 184.885 92.674 184.8 93.0022L184.739 93.241C184.64 93.6236 184.537 94.005 184.432 94.3853L184.362 94.6366C184.27 94.9626 184.177 95.2863 184.082 95.6111L184.036 95.7719L184.012 95.8488C183.903 96.2167 183.792 96.5823 183.677 96.9479L183.601 97.1867C183.505 97.49 183.407 97.7922 183.308 98.0944L183.218 98.3672C183.097 98.7305 182.973 99.0927 182.847 99.4538L182.783 99.6304C182.674 99.9416 182.562 100.253 182.449 100.562L182.392 100.72L182.344 100.848C182.211 101.205 182.078 101.561 181.94 101.916L181.922 101.962C181.789 102.305 181.654 102.644 181.518 102.982L181.402 103.268C181.277 103.575 181.15 103.882 181.021 104.187L180.96 104.334C180.813 104.681 180.663 105.027 180.51 105.371L180.464 105.476L180.391 105.635C180.262 105.923 180.132 106.211 180 106.498L179.902 106.714C179.742 107.056 179.582 107.397 179.418 107.737L179.305 107.97C179.168 108.251 179.03 108.53 178.891 108.81L178.769 109.054C178.6 109.39 178.428 109.727 178.254 110.059L178.229 110.108L178.16 110.237C178.004 110.532 177.847 110.828 177.687 111.122L177.554 111.368C177.37 111.705 177.183 112.042 176.993 112.376L176.897 112.544C176.731 112.836 176.564 113.125 176.394 113.414L176.253 113.655C176.057 113.986 175.86 114.315 175.66 114.642L175.569 114.79C175.377 115.104 175.183 115.414 174.987 115.723L174.857 115.928C174.642 116.265 174.425 116.6 174.204 116.933L174.068 117.139C173.864 117.446 173.658 117.75 173.451 118.054L173.362 118.185C173.134 118.516 172.904 118.844 172.673 119.171L172.598 119.277L172.52 119.385C172.246 119.766 171.995 120.111 171.751 120.441L171.653 120.573C171.4 120.913 171.143 121.251 170.884 121.587L170.799 121.698C170.547 122.024 170.282 122.36 169.989 122.726L169.834 122.919C169.558 123.261 169.283 123.596 169.018 123.914L168.965 123.98L168.888 124.069C168.554 124.467 168.225 124.85 167.91 125.211L167.792 125.345C167.448 125.738 167.107 126.118 166.779 126.476L166.673 126.591C166.315 126.982 165.961 127.359 165.623 127.713L165.534 127.806C165.162 128.193 164.794 128.568 164.44 128.922L164.278 129.083C164.109 129.251 163.94 129.419 163.769 129.585L163.524 129.823C163.374 129.966 163.225 130.109 163.076 130.252C162.989 130.334 162.902 130.417 162.814 130.499C162.663 130.641 162.513 130.781 162.36 130.922L162.109 131.154C161.936 131.312 161.762 131.469 161.588 131.626L161.403 131.793C161.167 132.004 160.929 132.213 160.691 132.42L160.532 132.556C160.345 132.718 160.157 132.879 159.968 133.039L159.714 133.253C159.555 133.387 159.395 133.52 159.234 133.653C159.142 133.729 159.05 133.803 158.958 133.879C158.798 134.009 158.638 134.138 158.477 134.266L158.307 134.404L158.222 134.47C157.94 134.693 157.659 134.914 157.375 135.132L157.262 135.218C157.011 135.411 156.759 135.601 156.506 135.79L156.265 135.967C156.011 136.155 155.754 136.342 155.497 136.527L155.387 136.607C155.095 136.815 154.802 137.021 154.509 137.224L154.276 137.383C154.04 137.546 153.803 137.707 153.564 137.866L153.352 138.008C153.056 138.205 152.757 138.4 152.457 138.592L152.275 138.708C152.028 138.866 151.778 139.022 151.528 139.177L151.276 139.332C150.977 139.516 150.676 139.699 150.374 139.878L150.355 139.889C150.047 140.072 149.738 140.25 149.427 140.428L149.168 140.575C148.912 140.72 148.656 140.863 148.397 141.004L148.209 141.107C147.896 141.277 147.583 141.444 147.269 141.61L147.04 141.727C146.786 141.86 146.532 141.99 146.276 142.118L146.024 142.245C145.705 142.403 145.385 142.56 145.063 142.714L144.933 142.776C144.65 142.91 144.366 143.043 144.08 143.174L143.806 143.298C143.519 143.429 143.229 143.558 142.94 143.684L142.813 143.74C142.487 143.881 142.158 144.021 141.828 144.158L141.565 144.265C141.301 144.374 141.035 144.48 140.768 144.585L140.528 144.68C140.196 144.809 139.863 144.936 139.529 145.061L139.327 145.134C139.05 145.236 138.772 145.336 138.494 145.434L138.214 145.533C137.88 145.648 137.548 145.762 137.213 145.872L137.181 145.882C136.846 145.993 136.502 146.102 136.157 146.208L135.874 146.296C135.59 146.383 135.305 146.468 135.02 146.55L134.813 146.611C134.468 146.71 134.122 146.806 133.776 146.899L133.526 146.965C133.246 147.038 132.967 147.111 132.687 147.181L132.409 147.25C132.058 147.336 131.708 147.42 131.356 147.5L131.217 147.53C130.905 147.601 130.593 147.669 130.281 147.734L129.982 147.796C129.668 147.861 129.354 147.923 129.039 147.983L128.901 148.01C128.544 148.077 128.186 148.141 127.827 148.202L127.543 148.249C127.255 148.297 126.967 148.342 126.677 148.386L126.418 148.426C126.058 148.479 125.696 148.529 125.335 148.575L125.117 148.602C124.819 148.64 124.518 148.676 124.217 148.709L123.914 148.742C123.548 148.781 123.181 148.817 122.811 148.85C120.942 149.022 119.05 149.107 117.188 149.107Z" fill="#59B68D"/>
<path d="M186.537 72.4828C186.536 72.304 186.533 72.124 186.531 71.9452C186.529 71.8071 186.529 71.669 186.525 71.5309C186.522 71.3419 186.517 71.1529 186.512 70.9639C186.508 70.8473 186.507 70.7318 186.504 70.6153C186.504 70.6028 186.503 70.5904 186.503 70.579C186.493 70.2531 186.481 69.9271 186.468 69.6011C186.447 69.1133 186.421 68.6277 186.392 68.1433C186.383 67.986 186.37 67.8298 186.36 67.6724C186.339 67.3453 186.316 67.0171 186.29 66.6911C186.276 66.5078 186.26 66.3244 186.244 66.141C186.218 65.84 186.191 65.54 186.162 65.2412C186.144 65.0522 186.125 64.8643 186.106 64.6764C186.075 64.3787 186.041 64.0822 186.008 63.7856C185.986 63.6034 185.966 63.4201 185.943 63.2378C185.905 62.9232 185.863 62.6096 185.82 62.2973C185.798 62.1377 185.778 61.9781 185.755 61.8196C185.697 61.4065 185.635 60.9945 185.57 60.5848C185.561 60.5282 185.553 60.4716 185.544 60.415C185.474 59.9803 185.402 59.548 185.325 59.1167C185.319 59.0862 185.313 59.0556 185.308 59.0251C185.277 58.8564 185.245 58.6878 185.213 58.5191C185.156 58.2158 185.1 57.9124 185.04 57.6114C185.003 57.4224 184.962 57.2333 184.923 57.0443C184.866 56.7647 184.807 56.4852 184.747 56.2079C184.704 56.0109 184.659 55.8162 184.615 55.6204C184.554 55.3511 184.492 55.0828 184.428 54.8146C184.381 54.6165 184.332 54.4184 184.284 54.2203C184.218 53.9566 184.152 53.694 184.085 53.4314C184.034 53.2334 183.982 53.0364 183.93 52.8395C183.86 52.5769 183.787 52.3154 183.715 52.054C183.661 51.8604 183.608 51.6669 183.552 51.4745C183.476 51.2096 183.397 50.9459 183.318 50.6822C183.263 50.4965 183.207 50.3098 183.15 50.1242C183.065 49.8491 182.977 49.5752 182.89 49.3024C182.834 49.1315 182.781 48.9606 182.725 48.7897C182.624 48.483 182.519 48.1774 182.414 47.8729C182.367 47.7382 182.323 47.6035 182.276 47.4688C182.122 47.0319 181.966 46.5962 181.804 46.1638C181.781 46.1004 181.756 46.0382 181.732 45.9759C181.593 45.6058 181.453 45.2379 181.309 44.8712C181.251 44.7218 181.19 44.5747 181.13 44.4253C181.018 44.1468 180.906 43.8684 180.792 43.5922C180.722 43.4224 180.649 43.2549 180.577 43.0863C180.469 42.8327 180.361 42.5792 180.251 42.3279C180.174 42.1514 180.095 41.9771 180.017 41.8016C179.909 41.5594 179.8 41.3172 179.688 41.0772C179.606 40.8995 179.523 40.7218 179.44 40.5441C179.329 40.3076 179.216 40.0721 179.103 39.8379C179.017 39.6613 178.931 39.4847 178.844 39.3093C178.793 39.2074 178.744 39.1044 178.695 39.0037C178.635 38.8837 178.571 38.7649 178.51 38.646C178.406 38.44 178.301 38.2351 178.195 38.0314C178.084 37.8198 177.973 37.6081 177.86 37.3976C177.752 37.195 177.643 36.9924 177.534 36.7909C177.419 36.5815 177.304 36.3732 177.188 36.1661C177.076 35.9658 176.964 35.7666 176.851 35.5674C176.732 35.3602 176.613 35.1554 176.492 34.9505C176.377 34.7536 176.262 34.5578 176.145 34.3619C176.023 34.1582 175.9 33.9556 175.776 33.753C175.657 33.5595 175.538 33.3659 175.417 33.1735C175.292 32.9732 175.165 32.7739 175.038 32.5747C174.915 32.3835 174.792 32.1922 174.668 32.0032C174.539 31.8062 174.408 31.6104 174.278 31.4146C174.152 31.2267 174.026 31.0377 173.898 30.8509C173.766 30.6562 173.631 30.4638 173.497 30.2714C173.368 30.0858 173.238 29.9013 173.107 29.7179C173.06 29.6523 173.015 29.5855 172.968 29.5199C172.799 29.2856 172.63 29.0524 172.459 28.8215C172.449 28.8079 172.439 28.7932 172.428 28.7796C172.185 28.4503 171.939 28.1254 171.69 27.8006C171.627 27.718 171.564 27.6353 171.499 27.5538C171.265 27.2516 171.03 26.9517 170.791 26.654C170.772 26.6302 170.754 26.6065 170.736 26.5838C170.482 26.2669 170.223 25.9534 169.964 25.6421C169.898 25.564 169.833 25.4848 169.767 25.4067C169.529 25.1226 169.288 24.8408 169.045 24.5612C169.018 24.5307 168.992 24.499 168.965 24.4684C168.754 24.2273 168.542 23.9874 168.328 23.7485C168.289 23.7044 168.247 23.6603 168.206 23.6161C168.007 23.3965 167.806 23.1792 167.605 22.9619C167.479 22.8261 167.354 22.6891 167.226 22.5544C166.995 22.3111 166.762 22.07 166.53 21.83C166.429 21.7259 166.33 21.6207 166.228 21.5177C165.891 21.177 165.552 20.8385 165.209 20.5058C165.155 20.4526 165.098 20.4016 165.044 20.3484C164.755 20.0689 164.464 19.7916 164.17 19.5188C164.15 19.5007 164.131 19.4814 164.112 19.4633C163.963 19.3264 163.813 19.1928 163.664 19.057C163.5 18.9076 163.337 18.7571 163.171 18.6099C162.999 18.4571 162.825 18.3066 162.652 18.156C162.486 18.01 162.32 17.864 162.151 17.7203C161.976 17.5709 161.799 17.4237 161.621 17.2755C161.453 17.134 161.285 16.9925 161.115 16.8533C160.936 16.7073 160.755 16.5635 160.574 16.4186C160.404 16.2817 160.234 16.1436 160.061 16.0078C160.042 15.9931 160.024 15.9772 160.005 15.9625C159.767 15.7769 159.527 15.5947 159.288 15.4124C159.201 15.3468 159.115 15.2789 159.028 15.2132C158.681 14.9518 158.33 14.6937 157.978 14.439C157.891 14.3757 157.801 14.3145 157.714 14.2523C157.449 14.0621 157.182 13.8731 156.913 13.6875C156.779 13.5958 156.645 13.5064 156.511 13.4158C156.32 13.2857 156.129 13.1544 155.936 13.0265C155.901 13.0027 155.865 12.9801 155.829 12.9574C155.696 12.8703 155.563 12.7843 155.43 12.6982C155.205 12.5522 154.98 12.4062 154.752 12.2625C154.607 12.1708 154.46 12.0802 154.314 11.9886C154.097 11.8539 153.88 11.7203 153.66 11.5879C153.509 11.4962 153.356 11.4057 153.204 11.3162C152.987 11.1872 152.768 11.0604 152.549 10.9348C152.396 10.8465 152.243 10.7594 152.089 10.6722C152.006 10.6258 151.925 10.5783 151.844 10.5319C151.698 10.4504 151.55 10.3711 151.403 10.2908C151.261 10.2138 151.121 10.1357 150.98 10.0599C150.725 9.92293 150.468 9.78824 150.211 9.65468C150.094 9.59356 149.977 9.53131 149.859 9.47132C149.483 9.27891 149.107 9.09102 148.727 8.90653C148.695 8.89068 148.664 8.8771 148.632 8.86125C148.315 8.70845 147.999 8.55679 147.679 8.40964C147.647 8.39493 147.615 8.38135 147.582 8.3655C147.455 8.30778 147.329 8.25118 147.202 8.19346C146.944 8.07688 146.685 7.9603 146.425 7.84711C146.277 7.7826 146.129 7.72034 145.98 7.65696C145.738 7.55396 145.495 7.45209 145.252 7.35136C145.097 7.28798 144.941 7.22459 144.785 7.16234C144.543 7.065 144.3 6.96992 144.056 6.87598C143.902 6.81712 143.748 6.75713 143.595 6.69941C143.521 6.67225 143.449 6.64282 143.376 6.61565C143.197 6.54887 143.015 6.48549 142.835 6.41984C142.687 6.36665 142.54 6.31232 142.392 6.25912C142.097 6.15499 141.801 6.05425 141.503 5.95465C141.396 5.91843 141.29 5.88108 141.182 5.84599C140.778 5.71243 140.372 5.5834 139.964 5.4589C139.873 5.43173 139.782 5.4057 139.691 5.37854C139.413 5.29478 139.135 5.21102 138.855 5.13066C138.813 5.11821 138.77 5.10802 138.727 5.09557C138.61 5.06275 138.494 5.03106 138.379 4.99936C138.093 4.92014 137.806 4.84317 137.518 4.76733C137.38 4.73112 137.243 4.69603 137.105 4.66094C136.822 4.58963 136.538 4.51946 136.253 4.45268C136.129 4.42325 136.005 4.39269 135.879 4.36439C135.474 4.27045 135.07 4.18103 134.663 4.09501L125.058 2.08484C125.465 2.16973 125.87 2.26028 126.275 2.35422C126.399 2.38252 126.523 2.41308 126.649 2.4425C126.934 2.51042 127.216 2.57946 127.5 2.65077C127.638 2.68585 127.776 2.72094 127.914 2.75716C128.201 2.83186 128.488 2.90996 128.773 2.98806C128.89 3.01975 129.006 3.05144 129.122 3.08427C129.445 3.17595 129.766 3.27102 130.086 3.36723C130.176 3.39439 130.268 3.42043 130.358 3.44759C130.766 3.5721 131.172 3.70226 131.577 3.83469C131.684 3.86977 131.791 3.90826 131.898 3.94334C132.195 4.04295 132.491 4.14368 132.786 4.24781C132.934 4.29988 133.082 4.35534 133.231 4.40854C133.485 4.50022 133.738 4.59303 133.99 4.6881C134.145 4.74583 134.299 4.80582 134.453 4.86581C134.696 4.95975 134.939 5.05483 135.181 5.15217C135.337 5.21442 135.493 5.2778 135.647 5.34118C135.891 5.44079 136.132 5.54266 136.374 5.64565C136.524 5.70904 136.673 5.77242 136.821 5.83694C137.08 5.95012 137.338 6.06557 137.594 6.18102C137.722 6.23875 137.85 6.29534 137.977 6.3542C138.328 6.51605 138.676 6.68017 139.024 6.84768C139.057 6.86353 139.09 6.87824 139.123 6.89409C139.501 7.07858 139.879 7.26647 140.254 7.45889C140.372 7.51887 140.489 7.58113 140.607 7.64225C140.865 7.7758 141.121 7.9105 141.377 8.04745C141.518 8.12328 141.658 8.20138 141.799 8.27835C142.029 8.40398 142.258 8.53075 142.486 8.65865C142.639 8.7458 142.793 8.83296 142.946 8.92124C143.165 9.04688 143.382 9.17478 143.6 9.30268C143.753 9.39323 143.904 9.48377 144.057 9.57432C144.275 9.70562 144.493 9.84031 144.71 9.975C144.857 10.0655 145.003 10.1561 145.149 10.2489C145.376 10.3927 145.601 10.5375 145.826 10.6847C145.96 10.7707 146.093 10.8567 146.225 10.9439C146.454 11.0944 146.681 11.2495 146.907 11.4034C147.04 11.4939 147.175 11.5834 147.308 11.675C147.577 11.8607 147.844 12.0497 148.11 12.2398C148.198 12.3021 148.286 12.3632 148.373 12.4266C148.726 12.6813 149.076 12.9393 149.423 13.2008C149.509 13.2653 149.594 13.3321 149.68 13.3977C149.94 13.5958 150.2 13.7939 150.457 13.9953C150.628 14.1312 150.799 14.2693 150.97 14.4062C151.15 14.55 151.33 14.6937 151.509 14.8397C151.68 14.9789 151.847 15.1215 152.017 15.263C152.193 15.4102 152.37 15.5573 152.546 15.7067C152.713 15.8505 152.879 15.9965 153.045 16.1413C153.219 16.293 153.394 16.4436 153.565 16.5963C153.73 16.7435 153.893 16.894 154.057 17.0423C154.227 17.1962 154.396 17.349 154.564 17.5052C154.858 17.7791 155.149 18.0553 155.439 18.3349C155.493 18.3881 155.549 18.439 155.604 18.4922C155.947 18.825 156.286 19.1634 156.623 19.5041C156.724 19.606 156.822 19.7112 156.923 19.8142C157.157 20.0553 157.391 20.2964 157.623 20.5409C157.749 20.6744 157.874 20.8114 157.999 20.9461C158.201 21.1634 158.403 21.3818 158.602 21.6025C158.856 21.8844 159.11 22.1673 159.36 22.4548C159.386 22.4854 159.412 22.5159 159.439 22.5465C159.682 22.8261 159.923 23.1079 160.163 23.392C160.228 23.4701 160.295 23.5493 160.361 23.6274C160.621 23.9387 160.878 24.2522 161.133 24.5691C161.152 24.5929 161.17 24.6167 161.188 24.6393C161.427 24.937 161.662 25.2369 161.896 25.5391C161.959 25.6218 162.024 25.7044 162.087 25.787C162.336 26.1107 162.582 26.4367 162.825 26.7649C162.836 26.7796 162.847 26.7944 162.858 26.8091C163.076 27.1045 163.291 27.4044 163.504 27.7044C163.636 27.8877 163.764 28.0722 163.893 28.2579C164.028 28.4503 164.162 28.6427 164.295 28.8374C164.422 29.0241 164.548 29.212 164.674 29.401C164.806 29.5968 164.936 29.7926 165.065 29.9896C165.189 30.1797 165.311 30.3699 165.433 30.5612C165.561 30.7604 165.687 30.9596 165.813 31.1599C165.934 31.3523 166.053 31.547 166.171 31.7406C166.294 31.942 166.418 32.1446 166.54 32.3484C166.657 32.5442 166.773 32.7411 166.888 32.9381C167.008 33.1429 167.128 33.3478 167.245 33.5549C167.359 33.7541 167.471 33.9533 167.583 34.1537C167.7 34.3608 167.815 34.5691 167.929 34.7785C168.039 34.9799 168.148 35.1837 168.256 35.3863C168.368 35.5968 168.48 35.8073 168.589 36.019C168.696 36.2238 168.801 36.4287 168.905 36.6347C169.017 36.8554 169.129 37.0761 169.238 37.298C169.325 37.4734 169.411 37.65 169.497 37.8265C169.611 38.0608 169.723 38.2974 169.835 38.534C169.919 38.7105 170.001 38.8882 170.084 39.0659C170.195 39.3059 170.304 39.5481 170.413 39.7903C170.492 39.9658 170.57 40.1412 170.648 40.3178C170.758 40.569 170.866 40.8226 170.973 41.0761C171.046 41.2448 171.118 41.4134 171.188 41.5832C171.302 41.8582 171.414 42.1355 171.525 42.4128C171.585 42.5622 171.646 42.7105 171.706 42.861C171.85 43.2266 171.99 43.5933 172.128 43.9623C172.151 44.0257 172.177 44.0891 172.201 44.1536C172.362 44.586 172.519 45.0218 172.673 45.4586C172.719 45.5922 172.763 45.7258 172.809 45.8593C172.914 46.1649 173.02 46.4705 173.12 46.7784C173.177 46.9482 173.23 47.1202 173.285 47.2911C173.373 47.565 173.461 47.8378 173.545 48.1128C173.602 48.2973 173.657 48.4841 173.714 48.6697C173.793 48.9334 173.871 49.1972 173.948 49.462C174.003 49.6544 174.057 49.848 174.112 50.0415C174.184 50.3019 174.256 50.5633 174.326 50.8259C174.38 51.0228 174.43 51.2209 174.482 51.4179C174.55 51.6805 174.617 51.943 174.681 52.2068C174.73 52.4048 174.779 52.6029 174.826 52.8021C174.889 53.0692 174.952 53.3386 175.013 53.6069C175.057 53.8027 175.102 53.9985 175.145 54.1954C175.206 54.4739 175.264 54.7534 175.322 55.0341C175.361 55.222 175.402 55.4099 175.439 55.5989C175.499 55.9011 175.555 56.2045 175.612 56.5078C175.643 56.6765 175.676 56.844 175.707 57.0126C175.789 57.4744 175.868 57.9373 175.944 58.4025C175.953 58.4591 175.961 58.5169 175.97 58.5734C176.035 58.9832 176.097 59.3952 176.156 59.8072C176.178 59.9668 176.198 60.1264 176.22 60.2859C176.263 60.5983 176.304 60.9119 176.342 61.2265C176.365 61.4087 176.385 61.591 176.407 61.7732C176.44 62.0698 176.474 62.3663 176.505 62.6628C176.524 62.8519 176.543 63.0397 176.563 63.2288C176.592 63.5276 176.619 63.8275 176.644 64.1286C176.66 64.312 176.676 64.4953 176.69 64.6787C176.716 65.0058 176.739 65.3329 176.76 65.6611C176.771 65.8173 176.782 65.9735 176.792 66.1297C176.821 66.6142 176.847 67.0997 176.868 67.5875C176.881 67.9135 176.893 68.2395 176.903 68.5655C176.906 68.6934 176.908 68.8201 176.912 68.948C176.916 69.1382 176.922 69.3295 176.925 69.5196C176.928 69.6554 176.929 69.7913 176.931 69.9259C176.933 70.107 176.936 70.2893 176.937 70.4704C176.938 70.6107 176.937 70.7499 176.937 70.8903C176.937 71.068 176.937 71.2446 176.937 71.4211C176.936 71.5638 176.933 71.7064 176.932 71.8478C176.93 72.021 176.929 72.1942 176.925 72.3674C176.923 72.5122 176.919 72.6571 176.915 72.802C176.911 72.9729 176.907 73.1427 176.903 73.3136C176.898 73.4596 176.893 73.6045 176.888 73.7505C176.882 73.9191 176.877 74.0878 176.869 74.2564C176.863 74.4024 176.855 74.5484 176.849 74.6956C176.841 74.8631 176.833 75.0306 176.824 75.1981C176.816 75.3453 176.807 75.4913 176.799 75.6384C176.789 75.8048 176.78 75.9701 176.768 76.1353C176.761 76.2417 176.754 76.347 176.747 76.4522C176.714 76.9265 176.678 77.3996 176.637 77.8716C176.633 77.9236 176.627 77.9757 176.622 78.0278C176.581 78.4986 176.534 78.9672 176.485 79.4358C176.48 79.4743 176.477 79.5116 176.473 79.5501C176.421 80.0244 176.365 80.4986 176.305 80.9706C176.295 81.0498 176.284 81.1291 176.274 81.2083C176.214 81.6667 176.151 82.1239 176.084 82.5801C176.071 82.6684 176.058 82.7578 176.045 82.8461C175.98 83.2705 175.915 83.6927 175.844 84.1149C175.844 84.1183 175.842 84.1217 175.841 84.1251C175.771 84.545 175.697 84.9626 175.62 85.3803C175.603 85.4708 175.586 85.5625 175.569 85.6531C175.492 86.0639 175.412 86.4725 175.328 86.8811C175.314 86.9468 175.301 87.0124 175.287 87.0781C175.21 87.4505 175.13 87.8217 175.049 88.1918C175.032 88.2654 175.016 88.3401 175 88.4137C174.914 88.7974 174.825 89.1799 174.733 89.5614C174.713 89.6463 174.692 89.7312 174.671 89.816C174.592 90.142 174.51 90.468 174.426 90.7928C174.406 90.8709 174.386 90.9502 174.366 91.0283C174.268 91.4074 174.166 91.7843 174.062 92.1612C174.039 92.2439 174.016 92.3276 173.992 92.4102C173.901 92.7328 173.81 93.0543 173.715 93.3746C173.692 93.4527 173.67 93.5319 173.646 93.61C173.537 93.9745 173.427 94.3378 173.314 94.7C173.289 94.7781 173.264 94.8562 173.239 94.9343C173.144 95.2354 173.047 95.5353 172.948 95.8341C172.919 95.9247 172.89 96.0141 172.859 96.1046C172.739 96.4646 172.617 96.8233 172.492 97.181C172.471 97.2387 172.451 97.2953 172.431 97.3531C172.322 97.6621 172.21 97.9711 172.098 98.2789C172.064 98.3729 172.029 98.4668 171.995 98.5596C171.864 98.9139 171.732 99.267 171.595 99.6179C171.59 99.6326 171.584 99.6473 171.578 99.662C171.447 100 171.314 100.338 171.178 100.673C171.141 100.767 171.102 100.86 171.064 100.953C170.94 101.259 170.813 101.564 170.685 101.867C170.665 101.914 170.646 101.962 170.625 102.01C170.479 102.354 170.33 102.695 170.18 103.036C170.141 103.123 170.102 103.21 170.063 103.298C169.936 103.583 169.807 103.868 169.677 104.152C169.644 104.222 169.612 104.294 169.58 104.364C169.422 104.703 169.263 105.041 169.1 105.377C169.063 105.454 169.026 105.531 168.988 105.608C168.854 105.886 168.717 106.163 168.578 106.44C168.538 106.52 168.498 106.6 168.458 106.68C168.29 107.012 168.12 107.345 167.947 107.676C167.917 107.734 167.886 107.792 167.855 107.85C167.7 108.144 167.544 108.437 167.385 108.729C167.342 108.81 167.298 108.89 167.255 108.97C167.072 109.305 166.888 109.638 166.7 109.97C166.669 110.025 166.637 110.08 166.605 110.135C166.441 110.424 166.275 110.711 166.108 110.998C166.062 111.077 166.015 111.157 165.968 111.236C165.774 111.563 165.579 111.889 165.382 112.213C165.352 112.262 165.321 112.312 165.292 112.36C165.102 112.669 164.91 112.977 164.716 113.283C164.673 113.351 164.63 113.419 164.587 113.487C164.375 113.82 164.159 114.152 163.942 114.481C163.897 114.549 163.852 114.617 163.806 114.685C163.605 114.988 163.402 115.291 163.196 115.592C163.166 115.635 163.137 115.678 163.108 115.721C162.883 116.048 162.654 116.374 162.425 116.696C162.375 116.767 162.324 116.837 162.275 116.907C162.024 117.258 161.769 117.608 161.513 117.954C161.481 117.997 161.448 118.04 161.416 118.082C161.166 118.419 160.911 118.755 160.655 119.088C160.626 119.124 160.599 119.16 160.571 119.197C160.306 119.539 160.038 119.878 159.768 120.214C159.717 120.278 159.667 120.342 159.615 120.406C159.348 120.736 159.079 121.064 158.807 121.39C158.764 121.441 158.721 121.492 158.679 121.544C158.36 121.924 158.038 122.301 157.711 122.675C157.672 122.719 157.634 122.763 157.594 122.806C157.264 123.183 156.93 123.557 156.593 123.926C156.558 123.964 156.523 124.001 156.488 124.04C156.145 124.413 155.798 124.784 155.449 125.15C155.419 125.182 155.389 125.213 155.358 125.243C155.001 125.614 154.642 125.983 154.278 126.347C154.226 126.399 154.172 126.451 154.119 126.503C153.951 126.67 153.782 126.837 153.612 127.002C153.531 127.08 153.451 127.157 153.371 127.235C153.223 127.378 153.075 127.519 152.927 127.661C152.841 127.742 152.755 127.824 152.668 127.905C152.519 128.046 152.369 128.185 152.219 128.323C152.136 128.399 152.054 128.476 151.971 128.551C151.8 128.709 151.628 128.865 151.454 129.02C151.393 129.074 151.333 129.13 151.272 129.184C151.038 129.392 150.804 129.6 150.567 129.804C150.515 129.85 150.462 129.895 150.41 129.94C150.225 130.1 150.039 130.259 149.853 130.417C149.769 130.488 149.684 130.557 149.601 130.628C149.443 130.761 149.284 130.892 149.126 131.023C149.036 131.098 148.944 131.173 148.852 131.248C148.695 131.375 148.537 131.503 148.378 131.63C148.294 131.698 148.209 131.765 148.124 131.832C147.847 132.051 147.568 132.27 147.288 132.486C147.251 132.514 147.213 132.542 147.176 132.571C146.928 132.761 146.68 132.949 146.43 133.134C146.351 133.193 146.27 133.252 146.191 133.311C145.939 133.497 145.687 133.681 145.433 133.864C145.395 133.89 145.359 133.918 145.322 133.945C145.035 134.15 144.745 134.353 144.456 134.554C144.379 134.607 144.302 134.66 144.224 134.713C143.991 134.873 143.757 135.031 143.522 135.189C143.451 135.236 143.381 135.284 143.31 135.331C143.017 135.526 142.723 135.717 142.427 135.907C142.367 135.946 142.306 135.983 142.246 136.022C142.001 136.178 141.755 136.333 141.508 136.486C141.425 136.537 141.342 136.589 141.259 136.64C140.957 136.825 140.654 137.009 140.349 137.19C140.349 137.19 140.349 137.19 140.348 137.19C140.044 137.37 139.737 137.547 139.43 137.723C139.345 137.772 139.26 137.819 139.175 137.868C138.921 138.01 138.667 138.153 138.413 138.292C138.35 138.326 138.289 138.361 138.227 138.394C137.919 138.562 137.609 138.727 137.299 138.89C137.223 138.929 137.148 138.968 137.072 139.008C136.821 139.138 136.57 139.267 136.318 139.394C136.235 139.435 136.152 139.477 136.069 139.519C135.754 139.676 135.437 139.832 135.12 139.983C135.077 140.004 135.035 140.023 134.992 140.043C134.711 140.177 134.43 140.308 134.147 140.437C134.057 140.478 133.968 140.52 133.877 140.56C133.593 140.69 133.307 140.816 133.021 140.941C132.98 140.959 132.939 140.978 132.897 140.996C132.574 141.137 132.248 141.274 131.923 141.409C131.837 141.446 131.75 141.481 131.664 141.516C131.403 141.623 131.14 141.729 130.877 141.833C130.798 141.864 130.719 141.896 130.638 141.927C130.311 142.055 129.983 142.18 129.653 142.302C129.586 142.327 129.518 142.351 129.45 142.376C129.178 142.477 128.903 142.575 128.63 142.671C128.537 142.704 128.444 142.737 128.351 142.769C128.016 142.885 127.679 143.001 127.341 143.112H127.34C127.002 143.223 126.662 143.33 126.322 143.435C126.228 143.465 126.136 143.493 126.042 143.521C125.761 143.607 125.48 143.691 125.199 143.773C125.131 143.792 125.063 143.813 124.994 143.833C124.654 143.93 124.312 144.025 123.97 144.117C123.887 144.139 123.805 144.16 123.723 144.182C123.447 144.255 123.172 144.326 122.895 144.396C122.803 144.419 122.712 144.443 122.62 144.465C122.274 144.55 121.928 144.633 121.58 144.712C121.534 144.722 121.487 144.732 121.441 144.743C121.133 144.812 120.826 144.878 120.517 144.943C120.419 144.963 120.321 144.984 120.222 145.004C119.912 145.068 119.602 145.129 119.291 145.189C119.245 145.198 119.199 145.207 119.154 145.215C118.802 145.28 118.449 145.343 118.095 145.403C118.001 145.418 117.907 145.433 117.813 145.449C117.529 145.495 117.245 145.541 116.959 145.584C116.873 145.596 116.788 145.61 116.702 145.622C116.347 145.674 115.991 145.724 115.634 145.77C115.562 145.779 115.49 145.789 115.419 145.798C115.123 145.835 114.826 145.87 114.529 145.903C114.43 145.914 114.33 145.925 114.23 145.936C113.868 145.974 113.505 146.011 113.141 146.043C106.946 146.597 100.909 146.215 95.145 145.009L104.749 147.019C110.514 148.225 116.55 148.607 122.745 148.053C123.109 148.021 123.472 147.984 123.834 147.946C123.934 147.936 124.034 147.924 124.134 147.913C124.431 147.88 124.727 147.845 125.023 147.808C125.095 147.799 125.167 147.791 125.238 147.781C125.595 147.734 125.951 147.686 126.306 147.632C126.392 147.62 126.477 147.606 126.563 147.594C126.848 147.551 127.133 147.506 127.418 147.459C127.511 147.443 127.605 147.429 127.699 147.413C128.053 147.353 128.407 147.29 128.758 147.225C128.804 147.216 128.85 147.207 128.895 147.199C129.206 147.14 129.517 147.079 129.827 147.014C129.925 146.994 130.023 146.974 130.122 146.953C130.43 146.889 130.738 146.822 131.045 146.753C131.092 146.743 131.138 146.732 131.184 146.722C131.531 146.643 131.878 146.56 132.224 146.476C132.316 146.453 132.408 146.43 132.499 146.407C132.776 146.337 133.052 146.266 133.328 146.193C133.41 146.171 133.493 146.15 133.574 146.127C133.917 146.035 134.258 145.94 134.598 145.843C134.666 145.824 134.734 145.803 134.803 145.783C135.084 145.701 135.366 145.618 135.646 145.532C135.74 145.503 135.834 145.474 135.927 145.446C136.267 145.34 136.606 145.233 136.944 145.122H136.945C137.283 145.011 137.62 144.895 137.956 144.779C138.049 144.747 138.141 144.714 138.233 144.682C138.508 144.584 138.782 144.486 139.056 144.385C139.123 144.36 139.189 144.336 139.256 144.311C139.586 144.189 139.915 144.064 140.243 143.936C140.322 143.905 140.401 143.873 140.48 143.842C140.744 143.738 141.006 143.632 141.268 143.525C141.354 143.49 141.441 143.455 141.527 143.418C141.853 143.284 142.178 143.146 142.501 143.005C142.543 142.987 142.584 142.969 142.626 142.951C142.912 142.826 143.198 142.699 143.482 142.57C143.572 142.529 143.661 142.488 143.751 142.446C144.033 142.316 144.315 142.185 144.596 142.051C144.638 142.031 144.681 142.012 144.723 141.991C145.041 141.839 145.357 141.683 145.672 141.527C145.755 141.485 145.839 141.443 145.921 141.403C146.173 141.276 146.425 141.147 146.676 141.017C146.752 140.977 146.827 140.939 146.902 140.9C147.213 140.737 147.523 140.572 147.832 140.403C147.894 140.369 147.955 140.335 148.017 140.301C148.271 140.161 148.526 140.019 148.779 139.877C148.864 139.828 148.95 139.781 149.034 139.732C149.342 139.557 149.648 139.38 149.952 139.199C149.952 139.199 149.952 139.199 149.954 139.199C150.259 139.018 150.562 138.834 150.865 138.649C150.947 138.598 151.031 138.547 151.113 138.495C151.361 138.342 151.607 138.187 151.853 138.031C151.913 137.992 151.973 137.955 152.032 137.916C152.329 137.726 152.623 137.534 152.917 137.339C152.987 137.293 153.057 137.245 153.127 137.199C153.362 137.042 153.597 136.882 153.831 136.722C153.908 136.669 153.985 136.617 154.062 136.564C154.352 136.362 154.64 136.16 154.929 135.955C154.966 135.929 155.002 135.902 155.04 135.875C155.294 135.692 155.547 135.507 155.799 135.321C155.878 135.262 155.957 135.203 156.037 135.145C156.286 134.958 156.536 134.77 156.784 134.58C156.821 134.551 156.858 134.523 156.896 134.495C157.176 134.279 157.454 134.06 157.732 133.841C157.761 133.819 157.788 133.798 157.816 133.775C157.872 133.73 157.929 133.683 157.986 133.638C158.144 133.511 158.302 133.383 158.46 133.255C158.552 133.181 158.642 133.107 158.734 133.031C158.893 132.9 159.052 132.769 159.209 132.636C159.292 132.566 159.377 132.496 159.461 132.425C159.647 132.266 159.834 132.107 160.019 131.947C160.071 131.902 160.123 131.858 160.175 131.813C160.412 131.609 160.647 131.402 160.881 131.193C160.942 131.139 161.003 131.082 161.064 131.028C161.236 130.873 161.409 130.718 161.579 130.562C161.663 130.486 161.745 130.409 161.829 130.332C161.978 130.194 162.129 130.055 162.277 129.915C162.364 129.834 162.45 129.752 162.536 129.671C162.684 129.531 162.832 129.389 162.979 129.246C163.06 129.168 163.142 129.09 163.222 129.012C163.39 128.848 163.559 128.682 163.726 128.515C163.772 128.469 163.82 128.424 163.867 128.377C163.874 128.37 163.881 128.364 163.888 128.357C164.252 127.993 164.612 127.625 164.968 127.253C164.998 127.223 165.028 127.192 165.058 127.16C165.408 126.795 165.754 126.424 166.098 126.05C166.133 126.012 166.168 125.974 166.203 125.936C166.541 125.567 166.874 125.193 167.204 124.818C167.243 124.773 167.282 124.729 167.321 124.685C167.647 124.312 167.97 123.935 168.289 123.554C168.313 123.525 168.338 123.497 168.363 123.467C168.381 123.446 168.399 123.423 168.417 123.402C168.689 123.077 168.958 122.748 169.225 122.418C169.277 122.355 169.328 122.29 169.378 122.226C169.649 121.888 169.916 121.55 170.181 121.208C170.209 121.172 170.236 121.134 170.265 121.098C170.521 120.765 170.775 120.43 171.025 120.093C171.058 120.05 171.09 120.007 171.123 119.963C171.379 119.617 171.633 119.268 171.883 118.917C171.91 118.881 171.936 118.846 171.962 118.81C171.986 118.775 172.01 118.739 172.035 118.705C172.264 118.383 172.493 118.058 172.718 117.731C172.748 117.687 172.778 117.644 172.807 117.6C173.013 117.3 173.215 116.999 173.416 116.695C173.462 116.627 173.507 116.56 173.552 116.492C173.769 116.162 173.985 115.831 174.198 115.497C174.241 115.429 174.283 115.361 174.326 115.293C174.52 114.987 174.712 114.679 174.902 114.37C174.923 114.335 174.946 114.3 174.967 114.265C174.975 114.252 174.984 114.237 174.992 114.223C175.19 113.9 175.386 113.574 175.579 113.247C175.625 113.167 175.672 113.088 175.718 113.009C175.885 112.723 176.052 112.435 176.215 112.148C176.247 112.092 176.279 112.037 176.31 111.981C176.498 111.65 176.682 111.317 176.865 110.983C176.91 110.902 176.954 110.821 176.997 110.741C177.155 110.45 177.311 110.157 177.465 109.863C177.487 109.822 177.51 109.78 177.532 109.737C177.54 109.721 177.549 109.704 177.557 109.688C177.73 109.358 177.9 109.026 178.068 108.693C178.109 108.613 178.149 108.531 178.189 108.451C178.327 108.175 178.464 107.897 178.598 107.62C178.636 107.543 178.673 107.466 178.71 107.389C178.872 107.053 179.033 106.716 179.19 106.376C179.223 106.306 179.254 106.235 179.287 106.163C179.418 105.879 179.547 105.595 179.674 105.309C179.697 105.256 179.722 105.204 179.745 105.15C179.761 105.116 179.774 105.081 179.79 105.046C179.94 104.706 180.09 104.364 180.235 104.02C180.256 103.971 180.276 103.922 180.296 103.875C180.424 103.573 180.55 103.269 180.674 102.965C180.712 102.871 180.751 102.776 180.789 102.682C180.924 102.347 181.057 102.012 181.188 101.674C181.194 101.659 181.201 101.643 181.208 101.627C181.343 101.276 181.476 100.923 181.607 100.57C181.622 100.528 181.638 100.486 181.654 100.444C181.673 100.392 181.691 100.339 181.711 100.287C181.823 99.9801 181.933 99.6734 182.042 99.3655C182.062 99.3066 182.084 99.2489 182.104 99.1901C182.228 98.8324 182.351 98.4747 182.47 98.1148C182.5 98.0254 182.529 97.9348 182.56 97.8454C182.658 97.5466 182.755 97.2467 182.85 96.9467C182.875 96.8675 182.9 96.7894 182.925 96.7113C183.038 96.3491 183.149 95.9869 183.257 95.6225C183.265 95.5964 183.273 95.5715 183.281 95.5455C183.297 95.4923 183.311 95.4391 183.326 95.387C183.42 95.0667 183.513 94.7453 183.603 94.4227C183.627 94.3401 183.649 94.2563 183.673 94.1737C183.777 93.7968 183.879 93.4199 183.977 93.0407C183.998 92.9626 184.018 92.8834 184.038 92.8053C184.122 92.4804 184.203 92.1556 184.282 91.8296C184.303 91.7447 184.324 91.6598 184.345 91.5749C184.436 91.1935 184.526 90.8109 184.611 90.4272C184.617 90.4023 184.623 90.3774 184.628 90.3525C184.64 90.3039 184.649 90.2541 184.66 90.2054C184.743 89.8353 184.822 89.464 184.899 89.0917C184.912 89.026 184.926 88.9604 184.939 88.8947C185.023 88.4861 185.102 88.0775 185.179 87.6666C185.196 87.575 185.213 87.4844 185.23 87.3927C185.307 86.9762 185.381 86.5597 185.451 86.1409C185.453 86.1364 185.453 86.1319 185.454 86.1273C185.524 85.7063 185.59 85.283 185.654 84.8608C185.662 84.8087 185.671 84.7578 185.679 84.7068C185.684 84.6684 185.689 84.631 185.694 84.5925C185.761 84.1364 185.826 83.6803 185.884 83.2219C185.895 83.1415 185.905 83.0623 185.915 82.9819C185.975 82.5099 186.031 82.0368 186.083 81.5626C186.088 81.5241 186.091 81.4867 186.095 81.4482C186.144 80.9796 186.191 80.5111 186.233 80.0402C186.237 79.9881 186.243 79.9361 186.247 79.884C186.288 79.412 186.324 78.9389 186.357 78.4647C186.36 78.4171 186.365 78.3696 186.368 78.3221C186.372 78.2643 186.375 78.2055 186.378 78.1478C186.39 77.9825 186.399 77.8161 186.409 77.6509C186.418 77.5037 186.426 77.3577 186.434 77.2106C186.443 77.0431 186.451 76.8755 186.459 76.708C186.465 76.562 186.472 76.416 186.479 76.2689C186.486 76.1002 186.491 75.9316 186.498 75.7629C186.504 75.6169 186.508 75.472 186.513 75.326C186.517 75.1551 186.522 74.9853 186.525 74.8144C186.529 74.6696 186.532 74.5247 186.536 74.3798C186.539 74.2078 186.54 74.0357 186.542 73.8625C186.543 73.7188 186.546 73.5762 186.547 73.4324C186.548 73.257 186.548 73.0816 186.547 72.9073C186.538 72.7658 186.538 72.6243 186.537 72.4828Z" fill="#59B68D"/>
<path d="M107.585 147.097C90.6618 147.096 74.6792 140.212 62.5809 127.713C50.4318 115.161 43.3132 98.0526 42.5389 79.5411C42.1251 69.6555 43.5065 59.9068 46.6447 50.5645C49.6766 41.5402 54.2121 33.2731 60.1256 25.993C66.0424 18.7084 73.0412 12.7786 80.9273 8.3678C89.0995 3.79737 97.8697 1.06734 106.996 0.252404C108.866 0.0848891 110.758 0 112.62 0C129.542 0 145.525 6.88394 157.623 19.3841C169.772 31.9375 176.891 49.0455 177.665 67.557C178.079 77.4426 176.697 87.1913 173.559 96.5336C170.527 105.558 165.992 113.825 160.078 121.105C154.161 128.39 147.163 134.319 139.276 138.73C131.105 143.301 122.334 146.031 113.208 146.846C111.338 147.012 109.447 147.097 107.588 147.097C107.587 147.097 107.586 147.097 107.585 147.097Z" fill="url(#paint1_linear)"/>
<path d="M176.864 67.5898C175.188 27.5504 143.938 -2.23997 107.066 1.05033C70.1921 4.34063 41.6614 39.4678 43.3378 79.5071C45.0143 119.546 76.2639 149.338 113.137 146.047C150.01 142.756 178.541 107.629 176.864 67.5898Z" fill="url(#paint2_linear)"/>
<path d="M99.2834 86.7136L87.6837 75.6894C87.6249 75.6328 87.565 75.5785 87.5051 75.5241C87.4983 75.5185 87.4926 75.5139 87.4858 75.5083C87.4225 75.4517 87.3581 75.3974 87.2937 75.343C87.2778 75.3294 87.262 75.3147 87.2451 75.3023C87.1637 75.2355 87.0823 75.171 86.9986 75.1076C86.9952 75.1053 86.993 75.1031 86.9896 75.1008C86.9647 75.0816 86.9387 75.0635 86.9127 75.0454C86.8607 75.0069 86.8098 74.9684 86.7567 74.9322C86.7239 74.9084 86.69 74.8869 86.6561 74.8643C86.6075 74.8314 86.5589 74.7986 86.5103 74.7669C86.5012 74.7613 86.4933 74.7556 86.4843 74.7499C86.4549 74.7318 86.4255 74.7149 86.3972 74.6967C86.3531 74.6696 86.309 74.6413 86.2649 74.6152C86.2265 74.5926 86.1869 74.57 86.1485 74.5485C86.1044 74.5236 86.0592 74.4975 86.0151 74.4726C86.0027 74.4658 85.9914 74.459 85.9801 74.4523C85.9518 74.4375 85.9235 74.424 85.8953 74.4092C85.8512 74.3866 85.8071 74.3628 85.763 74.3413C85.7223 74.321 85.6816 74.3017 85.6409 74.2825C85.5968 74.261 85.5516 74.2406 85.5075 74.2202C85.4928 74.2134 85.4793 74.2066 85.4646 74.1999C85.4386 74.1885 85.4114 74.1772 85.3854 74.1659C85.3391 74.1467 85.2939 74.1263 85.2475 74.1082C85.2057 74.0912 85.165 74.0754 85.1232 74.0595C85.0768 74.0414 85.0316 74.0244 84.9853 74.0074C84.9672 74.0006 84.9502 73.9939 84.9321 73.9871C84.9084 73.9791 84.8858 73.9712 84.862 73.9633C84.8123 73.9463 84.7625 73.9293 84.7128 73.9135C84.6721 73.8999 84.6314 73.8875 84.5896 73.875C84.5398 73.8603 84.489 73.8456 84.4381 73.8309C84.4155 73.8241 84.3918 73.8173 84.3691 73.8105C84.3522 73.806 84.3352 73.8026 84.3171 73.798C84.2595 73.7833 84.2018 73.7686 84.1442 73.755C84.1069 73.746 84.0684 73.7369 84.0311 73.729C83.969 73.7154 83.9079 73.703 83.8457 73.6905C83.8186 73.6849 83.7926 73.6792 83.7655 73.6747C83.7508 73.6724 83.7361 73.669 83.7203 73.6667L80.5459 73.1031C80.5877 73.111 80.6284 73.1189 80.6702 73.128C80.7324 73.1404 80.7946 73.1529 80.8568 73.1665C80.8941 73.1744 80.9314 73.1834 80.9687 73.1925C81.0263 73.2061 81.084 73.2208 81.1417 73.2355C81.1824 73.2457 81.2219 73.257 81.2626 73.2683C81.3124 73.2819 81.3632 73.2966 81.413 73.3125C81.4537 73.3249 81.4955 73.3374 81.5362 73.351C81.5859 73.3668 81.6357 73.3838 81.6854 73.4008C81.7261 73.4143 81.7668 73.4291 81.8075 73.4438C81.8538 73.4608 81.9002 73.4789 81.9466 73.4958C81.9884 73.5117 82.0291 73.5275 82.0709 73.5445C82.1172 73.5638 82.1625 73.583 82.2088 73.6022C82.2495 73.6203 82.2913 73.6373 82.332 73.6566C82.3761 73.6769 82.4202 73.6973 82.4643 73.7188C82.505 73.7381 82.5468 73.7573 82.5875 73.7777C82.6316 73.7992 82.6757 73.8218 82.7187 73.8456C82.7594 73.8671 82.7989 73.8875 82.8396 73.909C82.8848 73.9339 82.9289 73.9588 82.973 73.9837C83.0114 74.0063 83.051 74.0278 83.0895 74.0504C83.1347 74.0776 83.1788 74.1048 83.2228 74.1319C83.2602 74.1557 83.2975 74.1784 83.3348 74.2021C83.3845 74.2338 83.4331 74.2666 83.4817 74.3006C83.5145 74.3232 83.5484 74.3447 83.5812 74.3685C83.6332 74.4047 83.6852 74.4432 83.7372 74.4817C83.7655 74.5032 83.7949 74.5236 83.8231 74.5451C83.9057 74.6085 83.9882 74.673 84.0696 74.7398C84.0854 74.7533 84.1024 74.768 84.1182 74.7816C84.1826 74.836 84.2471 74.8903 84.3104 74.9469C84.3771 75.0057 84.4438 75.0669 84.5082 75.128L96.1079 86.1522L99.2834 86.7136Z" fill="#E0F8CD"/>
<path d="M149.483 47.7348C149.482 47.6907 149.482 47.6454 149.481 47.6013C149.481 47.5945 149.48 47.5866 149.48 47.5798C149.479 47.5492 149.477 47.5198 149.474 47.4892C149.469 47.3885 149.462 47.2866 149.454 47.1859C149.451 47.1406 149.446 47.0965 149.441 47.0523C149.432 46.964 149.422 46.8758 149.412 46.7875C149.406 46.7422 149.401 46.6969 149.394 46.6517C149.38 46.5566 149.366 46.4615 149.349 46.3664C149.343 46.3325 149.337 46.2974 149.332 46.2634C149.33 46.2532 149.328 46.2442 149.327 46.234C149.305 46.1152 149.28 45.9963 149.254 45.8775C149.248 45.8537 149.243 45.8299 149.237 45.8073C149.212 45.7032 149.186 45.599 149.158 45.496C149.146 45.453 149.134 45.4111 149.122 45.3681C149.098 45.2832 149.072 45.1995 149.046 45.1157C149.031 45.0705 149.016 45.0252 149.002 44.9799C148.973 44.8961 148.944 44.8124 148.914 44.7298C148.899 44.689 148.884 44.6471 148.868 44.6064C148.829 44.5023 148.787 44.3993 148.743 44.2974C148.735 44.2793 148.728 44.2612 148.72 44.2419C148.668 44.122 148.613 44.0031 148.555 43.8865C148.538 43.8526 148.521 43.8186 148.504 43.7858C148.474 43.7258 148.444 43.6647 148.413 43.6047C148.4 43.5809 148.386 43.5572 148.373 43.5334C148.353 43.4972 148.333 43.461 148.312 43.4236C148.267 43.3432 148.219 43.2629 148.171 43.1825C148.151 43.1497 148.131 43.1157 148.11 43.0829C148.041 42.9731 147.971 42.8656 147.897 42.7592C147.895 42.7558 147.893 42.7535 147.892 42.7513C147.832 42.6641 147.77 42.5781 147.705 42.4921C147.695 42.4785 147.685 42.4661 147.675 42.4536C147.628 42.3925 147.58 42.3325 147.531 42.2725C147.488 42.2193 147.446 42.165 147.402 42.1129C147.352 42.0541 147.299 41.9963 147.248 41.9375C147.211 41.8967 147.176 41.8537 147.139 41.813C147.131 41.8039 147.122 41.796 147.114 41.7869C147.004 41.6704 146.892 41.556 146.776 41.4451C146.717 41.3897 146.657 41.3342 146.597 41.281C146.59 41.2753 146.585 41.2697 146.578 41.264C146.516 41.2086 146.453 41.1542 146.388 41.101C146.371 41.0863 146.354 41.0716 146.337 41.058C146.256 40.9913 146.174 40.9267 146.091 40.8634C146.087 40.8611 146.085 40.8588 146.082 40.8566C146.057 40.8373 146.032 40.8203 146.007 40.8022C145.955 40.7637 145.902 40.7241 145.849 40.6868C145.816 40.6641 145.782 40.6415 145.749 40.6189C145.701 40.586 145.652 40.5521 145.602 40.5204C145.595 40.5147 145.585 40.5091 145.578 40.5034C145.548 40.4853 145.519 40.4672 145.491 40.4491C145.446 40.4219 145.402 40.3936 145.357 40.3676C145.319 40.345 145.28 40.3235 145.242 40.3008C145.197 40.2748 145.153 40.2499 145.107 40.225C145.096 40.2182 145.085 40.2114 145.072 40.2057C145.044 40.191 145.016 40.1774 144.987 40.1627C144.943 40.1401 144.899 40.1163 144.855 40.0948C144.814 40.0744 144.774 40.0552 144.733 40.036C144.689 40.0145 144.645 39.9941 144.6 39.9737C144.585 39.9669 144.571 39.9601 144.557 39.9533C144.531 39.942 144.504 39.9307 144.478 39.9194C144.431 39.899 144.386 39.8798 144.34 39.8605C144.299 39.8436 144.257 39.8277 144.216 39.8119C144.17 39.7937 144.124 39.7756 144.077 39.7587C144.059 39.7519 144.042 39.7451 144.024 39.7383C144.001 39.7304 143.978 39.7224 143.954 39.7145C143.904 39.6975 143.855 39.6806 143.805 39.6647C143.764 39.6511 143.724 39.6387 143.682 39.6262C143.632 39.6115 143.581 39.5968 143.53 39.5821C143.508 39.5753 143.485 39.5685 143.461 39.5617C143.444 39.5572 143.427 39.5538 143.409 39.5493C143.352 39.5346 143.294 39.5198 143.236 39.5063C143.199 39.4972 143.162 39.4881 143.123 39.4802C143.061 39.4666 142.999 39.4542 142.937 39.4417C142.911 39.4361 142.884 39.4304 142.858 39.4259C142.843 39.4236 142.828 39.4202 142.812 39.418L139.638 38.8543C139.68 38.8622 139.721 38.8702 139.762 38.8792C139.825 38.8917 139.887 38.9041 139.949 38.9177C139.986 38.9256 140.025 38.9347 140.062 38.9437C140.12 38.9573 140.177 38.972 140.235 38.9867C140.276 38.9969 140.315 39.0082 140.356 39.0196C140.407 39.0331 140.457 39.0479 140.506 39.0637C140.547 39.0762 140.588 39.0886 140.628 39.1022C140.678 39.118 140.729 39.135 140.779 39.152C140.819 39.1656 140.86 39.1803 140.901 39.195C140.947 39.212 140.994 39.2301 141.04 39.2482C141.081 39.264 141.122 39.2799 141.163 39.2969C141.209 39.3161 141.256 39.3353 141.302 39.3557C141.343 39.3727 141.384 39.3908 141.424 39.4089C141.469 39.4293 141.514 39.4508 141.559 39.4712C141.599 39.4904 141.64 39.5097 141.68 39.53C141.724 39.5527 141.768 39.5753 141.813 39.5979C141.853 39.6183 141.892 39.6398 141.932 39.6613C141.977 39.6862 142.022 39.7111 142.066 39.7372C142.105 39.7587 142.143 39.7813 142.182 39.8039C142.226 39.83 142.271 39.8583 142.315 39.8854C142.352 39.9092 142.391 39.9318 142.428 39.9556C142.477 39.9873 142.525 40.0201 142.574 40.0529C142.608 40.0756 142.641 40.0982 142.675 40.1209C142.728 40.1582 142.779 40.1967 142.831 40.234C142.859 40.2555 142.888 40.2748 142.915 40.2963C142.998 40.3585 143.08 40.4242 143.161 40.491C143.178 40.5046 143.195 40.5204 143.211 40.534C143.275 40.5872 143.338 40.6415 143.401 40.697C143.468 40.7558 143.534 40.8158 143.599 40.8781C143.716 40.989 143.828 41.1033 143.937 41.2199C143.984 41.2686 144.028 41.3195 144.072 41.3704C144.124 41.4281 144.176 41.4859 144.226 41.5459C144.27 41.5979 144.311 41.6523 144.354 41.7055C144.403 41.7654 144.452 41.8254 144.498 41.8865C144.573 41.985 144.646 42.0835 144.715 42.1854C144.717 42.1876 144.718 42.1899 144.721 42.1933C144.794 42.2997 144.864 42.4083 144.933 42.5181C144.954 42.5509 144.974 42.5838 144.993 42.6177C145.042 42.697 145.088 42.7773 145.134 42.8588C145.155 42.895 145.175 42.9312 145.195 42.9675C145.241 43.0512 145.285 43.135 145.327 43.2199C145.344 43.2538 145.362 43.2878 145.379 43.3217C145.436 43.4395 145.491 43.5572 145.544 43.6771C145.552 43.6953 145.558 43.7145 145.566 43.7326C145.61 43.8345 145.652 43.9375 145.692 44.0416C145.708 44.0823 145.722 44.1242 145.737 44.165C145.767 44.2476 145.797 44.3314 145.825 44.4151C145.84 44.4604 145.856 44.5057 145.869 44.5509C145.896 44.6347 145.921 44.7196 145.945 44.8033C145.957 44.8463 145.97 44.8882 145.981 44.9312C146.009 45.0342 146.035 45.1384 146.06 45.2425C146.066 45.2663 146.073 45.2889 146.077 45.3127C146.107 45.4406 146.133 45.5696 146.156 45.6986C146.163 45.7326 146.168 45.7677 146.173 45.8016C146.189 45.8967 146.205 45.9918 146.219 46.0869C146.225 46.1321 146.231 46.1774 146.237 46.2227C146.248 46.311 146.258 46.3993 146.266 46.4875C146.271 46.5317 146.275 46.577 146.278 46.6211C146.287 46.7218 146.294 46.8237 146.299 46.9244C146.3 46.955 146.303 46.9844 146.304 47.015C146.307 47.067 146.307 47.118 146.308 47.17C146.311 47.2696 146.313 47.3681 146.313 47.4677C146.313 47.5277 146.311 47.5866 146.31 47.6466C146.308 47.7371 146.307 47.8276 146.302 47.9182C146.299 47.9997 146.292 48.0812 146.286 48.1627C146.282 48.217 146.28 48.2725 146.274 48.3268C146.266 48.4185 146.255 48.509 146.245 48.6007C146.239 48.6471 146.234 48.6935 146.229 48.7399C146.212 48.8712 146.191 49.0025 146.169 49.1327C146.163 49.1644 146.156 49.1961 146.151 49.2278C146.133 49.3285 146.112 49.4292 146.091 49.5288C146.082 49.5684 146.073 49.6081 146.064 49.6477C146.042 49.7405 146.02 49.8333 145.996 49.9261C145.986 49.9646 145.977 50.0031 145.965 50.0416C145.931 50.1661 145.895 50.2906 145.857 50.4139C145.853 50.4241 145.85 50.4343 145.847 50.4456C145.81 50.5599 145.771 50.6743 145.729 50.7874C145.717 50.8214 145.704 50.8554 145.692 50.8893C145.654 50.99 145.615 51.0908 145.573 51.1904C145.563 51.2142 145.554 51.2379 145.544 51.2617C145.493 51.3817 145.44 51.4994 145.384 51.6182C145.371 51.6465 145.356 51.676 145.342 51.7043C145.297 51.7982 145.25 51.891 145.201 51.9838C145.184 52.0155 145.168 52.0472 145.151 52.0789C145.089 52.1943 145.025 52.3098 144.957 52.423C144.948 52.4377 144.938 52.4535 144.929 52.4683C144.869 52.5679 144.807 52.6675 144.742 52.7648C144.72 52.7988 144.697 52.8327 144.674 52.8667C144.619 52.9482 144.562 53.0297 144.505 53.11C144.48 53.144 144.456 53.1779 144.431 53.2119C144.35 53.3217 144.266 53.4315 144.179 53.539L108.355 97.7877L102.816 104.629C102.723 104.744 102.627 104.857 102.529 104.966C102.506 104.992 102.481 105.017 102.457 105.043C102.385 105.122 102.312 105.2 102.239 105.275C102.127 105.389 102.014 105.499 101.899 105.605C101.887 105.617 101.875 105.626 101.862 105.637C101.758 105.732 101.652 105.824 101.545 105.912C101.449 105.991 101.35 106.069 101.252 106.144C101.233 106.159 101.212 106.174 101.192 106.188C101.108 106.251 101.024 106.311 100.939 106.369C100.907 106.391 100.875 106.412 100.844 106.434C100.761 106.489 100.678 106.543 100.593 106.595C100.569 106.609 100.545 106.625 100.522 106.639C100.415 106.703 100.308 106.764 100.199 106.823C100.175 106.837 100.149 106.849 100.124 106.863C100.038 106.908 99.9519 106.952 99.8648 106.994C99.8309 107.01 99.797 107.027 99.7631 107.043C99.6704 107.086 99.5777 107.128 99.485 107.166C99.4646 107.175 99.4443 107.184 99.4251 107.192C99.3132 107.239 99.199 107.282 99.0859 107.324C99.0565 107.334 99.026 107.344 98.9966 107.354C98.9096 107.385 98.8214 107.413 98.7332 107.441C98.6993 107.451 98.6643 107.463 98.6303 107.473C98.5275 107.504 98.4235 107.532 98.3206 107.558C98.307 107.561 98.2946 107.565 98.281 107.568C98.1646 107.596 98.0482 107.621 97.9306 107.645C97.8978 107.652 97.865 107.657 97.8322 107.663C97.7441 107.679 97.6548 107.694 97.5654 107.707C97.5315 107.713 97.4965 107.717 97.4626 107.722C97.345 107.738 97.2263 107.751 97.1076 107.763C96.4429 107.82 95.7737 107.792 95.1157 107.676L98.2901 108.239C98.948 108.356 99.6172 108.384 100.282 108.326C100.401 108.316 100.518 108.301 100.637 108.286C100.672 108.281 100.706 108.275 100.74 108.271C100.829 108.257 100.917 108.243 101.007 108.227C101.039 108.221 101.072 108.215 101.105 108.209C101.221 108.186 101.339 108.16 101.455 108.132C101.469 108.128 101.481 108.125 101.495 108.122C101.599 108.095 101.702 108.067 101.805 108.037C101.84 108.026 101.874 108.016 101.909 108.005C101.997 107.978 102.085 107.948 102.172 107.919C102.201 107.909 102.232 107.899 102.261 107.888C102.376 107.848 102.489 107.803 102.601 107.757C102.621 107.749 102.641 107.739 102.662 107.731C102.754 107.691 102.847 107.651 102.94 107.608C102.974 107.592 103.008 107.576 103.041 107.559C103.128 107.517 103.214 107.473 103.299 107.428C103.325 107.414 103.351 107.402 103.376 107.387C103.485 107.328 103.592 107.267 103.698 107.202C103.722 107.188 103.746 107.173 103.769 107.158C103.854 107.106 103.937 107.053 104.02 106.998C104.052 106.976 104.085 106.955 104.117 106.933C104.201 106.875 104.286 106.814 104.37 106.753C104.39 106.738 104.41 106.724 104.43 106.709C104.52 106.641 104.609 106.571 104.698 106.498C104.705 106.492 104.715 106.484 104.722 106.477C104.83 106.389 104.936 106.296 105.04 106.202C105.051 106.192 105.064 106.182 105.076 106.17C105.192 106.064 105.306 105.953 105.417 105.84C105.422 105.833 105.429 105.827 105.436 105.822C105.504 105.753 105.569 105.68 105.635 105.608C105.658 105.582 105.683 105.557 105.707 105.531C105.801 105.427 105.892 105.319 105.982 105.208C105.986 105.204 105.99 105.198 105.994 105.193L111.532 98.3525L147.357 54.1038C147.444 53.9963 147.528 53.8876 147.609 53.7767C147.634 53.7427 147.658 53.7088 147.682 53.6748C147.715 53.6295 147.749 53.5843 147.781 53.5379C147.806 53.5028 147.828 53.4665 147.852 53.4315C147.875 53.3975 147.897 53.3636 147.92 53.3296C147.984 53.2311 148.047 53.1315 148.106 53.0319C148.115 53.0172 148.125 53.0025 148.134 52.9878C148.136 52.9844 148.138 52.981 148.14 52.9765C148.206 52.8667 148.268 52.7546 148.328 52.6426C148.345 52.6109 148.361 52.5803 148.378 52.5486C148.4 52.5056 148.424 52.4626 148.446 52.4185C148.47 52.3686 148.494 52.3177 148.519 52.2679C148.533 52.2396 148.547 52.2113 148.561 52.1819C148.612 52.0732 148.661 51.9634 148.709 51.8537C148.712 51.8446 148.716 51.8355 148.72 51.8265C148.73 51.8027 148.739 51.779 148.75 51.7552C148.79 51.6556 148.83 51.5548 148.868 51.4541C148.881 51.4202 148.893 51.3862 148.906 51.3522C148.915 51.3262 148.926 51.299 148.935 51.273C148.966 51.1859 148.995 51.0976 149.023 51.0093C149.027 50.9991 149.03 50.9889 149.033 50.9776C149.066 50.8746 149.097 50.7705 149.126 50.6663C149.132 50.646 149.136 50.6256 149.142 50.6052C149.152 50.5667 149.162 50.5283 149.172 50.4898C149.196 50.397 149.219 50.3041 149.24 50.2113C149.249 50.1717 149.258 50.1321 149.267 50.0925C149.272 50.0687 149.279 50.0461 149.283 50.0223C149.299 49.9454 149.313 49.8673 149.327 49.7903C149.333 49.7586 149.34 49.7269 149.345 49.6952C149.367 49.5707 149.386 49.4473 149.403 49.3228C149.404 49.316 149.404 49.3092 149.405 49.3025C149.411 49.2561 149.416 49.2096 149.421 49.1632C149.432 49.0716 149.443 48.9799 149.451 48.8882C149.455 48.8339 149.458 48.7795 149.463 48.7252C149.468 48.6618 149.473 48.5973 149.477 48.5339C149.478 48.5158 149.478 48.4988 149.478 48.4807C149.482 48.3902 149.483 48.3008 149.486 48.2102C149.487 48.1502 149.489 48.0902 149.489 48.0303C149.489 47.9329 149.486 47.8344 149.483 47.7348Z" fill="#E0F8CD"/>
<path d="M143.597 40.8792C141.906 39.2731 139.754 38.5838 137.644 38.7683C135.533 38.9528 133.463 40.0122 131.934 41.9001L96.1091 86.1488L84.5094 75.1246C82.8182 73.5173 80.6669 72.8281 78.5563 73.0125C76.4457 73.197 74.3759 74.2565 72.8463 76.1455C69.7884 79.9225 70.0507 85.5908 73.4308 88.8053L85.0317 99.8307L91.1554 105.65C92.8466 107.257 94.9979 107.946 97.1085 107.762C99.219 107.577 101.289 106.518 102.818 104.629L108.357 97.7877L144.181 53.539C147.241 49.762 146.979 44.0937 143.597 40.8792Z" fill="white"/>
</g>
<defs>
<radialGradient id="paint0_radial" cx="0" cy="0" r="1" gradientUnits="userSpaceOnUse" gradientTransform="translate(116.873 154.677) scale(112.427 15.7815)">
<stop stop-color="#9D9D9C"/>
<stop offset="0.1771" stop-color="#BDBDBC"/>
<stop offset="0.3782" stop-color="#DADAD9"/>
<stop offset="0.5778" stop-color="#EEEEEE"/>
<stop offset="0.7734" stop-color="#FBFBFB"/>
<stop offset="0.96" stop-color="white"/>
</radialGradient>
<linearGradient id="paint1_linear" x1="59.2866" y1="124.426" x2="161.042" y2="22.7955" gradientUnits="userSpaceOnUse">
<stop stop-color="#A6FF6E"/>
<stop offset="1" stop-color="#68E407"/>
</linearGradient>
<linearGradient id="paint2_linear" x1="43.2679" y1="73.5484" x2="176.935" y2="73.5484" gradientUnits="userSpaceOnUse">
<stop stop-color="#59B68D"/>
<stop offset="1" stop-color="#59B68D"/>
</linearGradient>
<clipPath id="clip0">
<rect width="223.364" height="180" fill="white"/>
</clipPath>
</defs>
</svg>
