<svg width="233" height="180" viewBox="0 0 233 180" fill="none" xmlns="http://www.w3.org/2000/svg">
<g clip-path="url(#clip0)">
<path d="M116.204 180.001C180.382 180.001 232.409 168.738 232.409 154.844C232.409 140.95 180.382 129.686 116.204 129.686C52.0264 129.686 0 140.95 0 154.844C0 168.738 52.0264 180.001 116.204 180.001Z" fill="url(#paint0_radial)"/>
<path d="M118.581 154.954C114.166 154.954 109.753 154.499 105.464 153.603L95.4707 151.514L95.8118 149.882C99.9875 150.755 104.287 151.199 108.588 151.199C110.476 151.199 112.396 151.113 114.293 150.943C114.667 150.91 115.04 150.873 115.412 150.833L115.708 150.8C116.024 150.764 116.329 150.728 116.632 150.69L116.851 150.663C117.219 150.616 117.586 150.566 117.951 150.512L118.213 150.472C118.507 150.427 118.8 150.381 119.092 150.333L119.381 150.285C119.745 150.223 120.107 150.159 120.469 150.092L120.61 150.065C120.929 150.005 121.248 149.941 121.567 149.876L121.871 149.813C122.187 149.747 122.503 149.679 122.818 149.607L122.961 149.575C123.318 149.494 123.673 149.409 124.029 149.322L124.311 149.252C124.596 149.181 124.879 149.108 125.163 149.033L125.415 148.966C125.768 148.871 126.119 148.774 126.469 148.674L126.678 148.613C126.968 148.528 127.257 148.443 127.544 148.354L127.831 148.266C128.168 148.161 128.503 148.056 128.837 147.946L128.879 147.932C129.226 147.818 129.572 147.7 129.918 147.58L130.2 147.482C130.486 147.38 130.767 147.28 131.048 147.177L131.257 147.102C131.595 146.976 131.933 146.848 132.269 146.716L132.515 146.618C132.783 146.512 133.053 146.404 133.322 146.294L133.589 146.184C133.923 146.045 134.257 145.904 134.59 145.761L134.718 145.704C135.014 145.576 135.305 145.446 135.598 145.314L135.876 145.187C136.166 145.054 136.456 144.919 136.744 144.782L136.874 144.721C137.201 144.565 137.526 144.406 137.851 144.243L138.107 144.115C138.366 143.985 138.625 143.853 138.882 143.719L139.115 143.598C139.435 143.429 139.753 143.26 140.07 143.088L140.26 142.984C140.523 142.839 140.784 142.694 141.044 142.547L141.305 142.399C141.609 142.226 141.911 142.052 142.211 141.874L142.236 141.856L142.277 141.836C142.581 141.656 142.885 141.471 143.186 141.286L143.442 141.128C143.697 140.971 143.949 140.812 144.201 140.651L144.387 140.534C144.692 140.338 144.994 140.141 145.295 139.942L145.513 139.796C145.754 139.635 145.995 139.471 146.235 139.308L146.472 139.144C146.771 138.937 147.069 138.729 147.364 138.519L147.479 138.435C147.739 138.248 147.999 138.059 148.258 137.868C148.34 137.808 148.421 137.747 148.503 137.687C148.76 137.495 149.017 137.302 149.271 137.107L149.386 137.019C149.674 136.798 149.961 136.573 150.246 136.347L150.495 136.149C150.668 136.01 150.832 135.879 150.993 135.747C151.087 135.671 151.18 135.595 151.274 135.518C151.437 135.383 151.601 135.248 151.763 135.112L152.023 134.895C152.215 134.732 152.405 134.569 152.596 134.405L152.757 134.267C153.001 134.055 153.243 133.843 153.483 133.629L153.67 133.461C153.849 133.301 154.026 133.141 154.203 132.979L154.458 132.743C154.612 132.601 154.766 132.458 154.92 132.314C155.01 132.23 155.098 132.147 155.187 132.062C155.34 131.918 155.493 131.772 155.645 131.625L155.893 131.385C156.067 131.215 156.241 131.044 156.414 130.872L156.578 130.711C156.937 130.351 157.302 129.98 157.69 129.577L157.783 129.48C158.127 129.122 158.487 128.737 158.852 128.339L158.961 128.223C159.291 127.862 159.638 127.475 159.992 127.073L160.111 126.939C160.434 126.569 160.77 126.179 161.108 125.775L161.241 125.618C161.521 125.282 161.799 124.945 162.073 124.605L162.231 124.409C162.535 124.029 162.806 123.686 163.057 123.362L163.144 123.249C163.408 122.906 163.67 122.562 163.929 122.215L164.028 122.083C164.276 121.748 164.532 121.396 164.812 121.007L164.968 120.789C165.204 120.458 165.438 120.123 165.671 119.786L165.762 119.653C165.973 119.344 166.183 119.033 166.391 118.72L166.53 118.511C166.754 118.171 166.976 117.83 167.194 117.487L167.327 117.277C167.526 116.963 167.724 116.646 167.919 116.329L168.013 116.177C168.216 115.844 168.418 115.509 168.616 115.173L168.761 114.927C168.934 114.633 169.104 114.338 169.274 114.04L169.37 113.871C169.564 113.529 169.754 113.186 169.942 112.841L170.076 112.593C170.238 112.293 170.401 111.992 170.56 111.689L170.655 111.509C170.832 111.17 171.008 110.828 171.181 110.485L171.304 110.238C171.446 109.954 171.588 109.668 171.726 109.382L171.842 109.144C172.009 108.799 172.173 108.452 172.334 108.102L172.434 107.885C172.57 107.593 172.703 107.3 172.833 107.006L172.953 106.737C173.108 106.385 173.261 106.033 173.412 105.68L173.473 105.535C173.605 105.222 173.735 104.909 173.864 104.595L173.981 104.305C174.121 103.96 174.259 103.614 174.394 103.266L174.412 103.22C174.552 102.859 174.688 102.495 174.823 102.131L174.929 101.841C175.046 101.525 175.16 101.207 175.272 100.89L175.334 100.713C175.463 100.345 175.589 99.9756 175.713 99.6051L175.804 99.3275C175.906 99.0205 176.006 98.7112 176.103 98.4018L176.18 98.1607C176.296 97.7878 176.41 97.4138 176.522 97.0397L176.592 96.7986C176.689 96.4681 176.784 96.1376 176.877 95.8071L176.949 95.5506C177.056 95.1637 177.161 94.7755 177.262 94.385L177.324 94.1427C177.41 93.8086 177.495 93.4734 177.576 93.1382L177.639 92.877C177.733 92.4842 177.825 92.0913 177.915 91.6961L177.965 91.4679C178.05 91.0868 178.132 90.7045 178.211 90.3223L178.253 90.1199C178.339 89.7 178.422 89.2789 178.5 88.8567L178.552 88.5755C178.631 88.1462 178.709 87.7169 178.78 87.2852C178.854 86.8418 178.923 86.4054 178.988 85.9702L179.03 85.6961C179.099 85.2256 179.165 84.7504 179.226 84.2846L179.258 84.04C179.325 83.5071 179.382 83.0296 179.431 82.5791L179.442 82.4614C179.493 81.9886 179.541 81.5016 179.585 81.0135L179.6 80.8523C179.64 80.3936 179.678 79.9161 179.713 79.3926L179.735 79.0656C179.746 78.8951 179.757 78.7245 179.767 78.554C179.767 78.554 179.786 78.2423 179.793 78.1011C179.802 77.9294 179.811 77.7565 179.819 77.5847C179.819 77.5847 179.834 77.2695 179.84 77.1331C179.847 76.9719 179.853 76.812 179.858 76.6508C179.858 76.6508 179.871 76.2768 179.874 76.1627C179.879 75.991 179.884 75.818 179.887 75.6463C179.887 75.6463 179.895 75.3099 179.898 75.1888C179.9 75.0276 179.902 74.8676 179.904 74.7065C179.904 74.7065 179.908 74.3266 179.908 74.216C179.909 74.0513 179.909 73.8855 179.909 73.7196C179.909 73.7196 179.909 73.3397 179.909 73.2374C179.908 73.0868 179.907 72.9374 179.905 72.7869C179.905 72.7869 179.9 72.3505 179.898 72.2576C179.895 72.0999 179.891 71.9412 179.887 71.7835L179.874 71.2778C179.865 70.9425 179.853 70.6073 179.839 70.2721C179.819 69.7992 179.794 69.3076 179.761 68.7724C179.755 68.6736 179.748 68.5759 179.741 68.4771L179.728 68.2901C179.706 67.9525 179.682 67.6149 179.657 67.2785C179.645 67.1292 179.632 66.9798 179.619 66.8304L179.608 66.7128C179.582 66.4034 179.554 66.0952 179.525 65.7871C179.506 65.593 179.486 65.3989 179.466 65.2048C179.434 64.899 179.4 64.5944 179.365 64.2897L179.354 64.2003C179.335 64.0427 179.318 63.8851 179.298 63.7275C179.258 63.404 179.215 63.0817 179.172 62.7594L179.148 62.5854C179.134 62.4783 179.12 62.3724 179.105 62.2666C179.045 61.842 178.98 61.4197 178.914 60.9974L178.887 60.8222C178.814 60.3646 178.734 59.8976 178.644 59.393C178.625 59.286 178.604 59.1801 178.584 59.0731L178.546 58.8731C178.487 58.5614 178.43 58.2486 178.367 57.938C178.34 57.8004 178.311 57.6628 178.283 57.5263L178.247 57.357C178.187 57.0688 178.127 56.7818 178.065 56.4948C178.027 56.3219 177.987 56.1501 177.949 55.9772L177.929 55.8902C177.866 55.6138 177.803 55.3374 177.737 55.0633C177.688 54.8586 177.638 54.6551 177.588 54.4517C177.521 54.1811 177.452 53.9106 177.383 53.6412C177.33 53.4377 177.277 53.2354 177.223 53.0319C177.151 52.7626 177.077 52.4944 177.002 52.2262C176.946 52.0274 176.89 51.8286 176.834 51.6299C176.755 51.357 176.674 51.0864 176.592 50.8147L176.554 50.683C176.509 50.536 176.465 50.3889 176.421 50.2419C176.334 49.9596 176.243 49.6785 176.153 49.3974L176.094 49.2115C176.057 49.0974 176.021 48.9833 175.984 48.8704C175.88 48.554 175.773 48.2399 175.664 47.9247L175.604 47.7494C175.577 47.6706 175.551 47.5918 175.523 47.513C175.361 47.0508 175.197 46.5991 175.039 46.1709L174.963 45.9745C174.821 45.5957 174.678 45.2182 174.529 44.843C174.493 44.7489 174.454 44.6548 174.416 44.5618L174.343 44.3819C174.229 44.0972 174.114 43.8114 173.996 43.5291C173.946 43.4068 173.894 43.2856 173.842 43.1645L173.775 43.008C173.665 42.7481 173.554 42.4881 173.44 42.2294C173.377 42.0847 173.312 41.94 173.247 41.7965L173.199 41.6883C173.087 41.4401 172.976 41.1907 172.861 40.9437C172.777 40.7614 172.691 40.5791 172.606 40.3968C172.491 40.1533 172.376 39.911 172.259 39.6699C172.171 39.4887 172.083 39.3076 171.993 39.1276C171.88 38.8994 171.765 38.6724 171.65 38.4454C171.543 38.2348 171.435 38.0231 171.325 37.8138C171.212 37.5961 171.097 37.3797 170.982 37.1633C170.87 36.9539 170.758 36.7457 170.645 36.5387C170.528 36.3235 170.409 36.1106 170.29 35.8977C170.175 35.6918 170.06 35.4871 169.943 35.2825C169.822 35.0696 169.699 34.859 169.575 34.6485C169.456 34.4462 169.337 34.2439 169.217 34.0427C169.093 33.8345 168.966 33.6263 168.839 33.4193C168.716 33.2194 168.594 33.0206 168.469 32.823C168.34 32.6171 168.209 32.4125 168.079 32.2078C167.953 32.0114 167.827 31.8149 167.699 31.6208C167.566 31.4185 167.432 31.2174 167.298 31.0163C167.168 30.8222 167.039 30.6293 166.907 30.4376C166.771 30.2376 166.633 30.04 166.494 29.8424C166.362 29.6518 166.229 29.4625 166.094 29.2743C165.875 28.9661 165.653 28.6591 165.429 28.3556L165.397 28.3121C165.169 28.0039 164.929 27.6852 164.637 27.3052C164.572 27.2205 164.507 27.1358 164.441 27.0512C164.201 26.7406 163.958 26.4325 163.714 26.1278L163.655 26.0549C163.421 25.7632 163.161 25.4468 162.862 25.0892L162.659 24.8469C162.413 24.5552 162.166 24.2658 161.915 23.9776L161.834 23.8835C161.577 23.5895 161.317 23.299 161.054 23.0096C160.85 22.7826 160.641 22.5591 160.434 22.3356L160.307 22.198C160.222 22.1051 160.136 22.0122 160.049 21.9192C159.811 21.6675 159.57 21.4205 159.33 21.1723L159.199 21.0382C159.141 20.9771 159.082 20.9159 159.022 20.8547C158.669 20.4972 158.316 20.1466 157.974 19.8161L157.803 19.6538C157.471 19.3339 157.177 19.0551 156.905 18.8022C156.777 18.6846 156.65 18.5693 156.522 18.4529L156.241 18.1976C156.12 18.087 156 17.9776 155.878 17.8694C155.748 17.7542 155.618 17.6412 155.488 17.5283L155.198 17.2754C155.075 17.1684 154.953 17.0614 154.83 16.9555C154.7 16.8449 154.571 16.7367 154.44 16.6285L154.131 16.3697C154.01 16.2674 153.889 16.1662 153.765 16.0651C153.633 15.9569 153.5 15.851 153.368 15.7451L153.055 15.4946C152.931 15.3958 152.808 15.2958 152.683 15.1982C152.418 14.9912 152.151 14.7877 151.884 14.5842C151.884 14.5842 151.668 14.4172 151.621 14.3819C151.266 14.1149 150.902 13.8479 150.542 13.5879C150.494 13.5526 150.445 13.5185 150.395 13.4844L150.271 13.3974C149.996 13.2021 149.724 13.008 149.447 12.8175C149.361 12.7587 149.275 12.6999 149.188 12.6422L149.005 12.5175C148.783 12.3658 148.559 12.2153 148.334 12.067C148.246 12.0082 148.157 11.9518 148.069 11.8941L147.925 11.8012C147.695 11.6518 147.463 11.5013 147.23 11.3542C147.109 11.2778 146.986 11.2025 146.865 11.1272L146.779 11.0743C146.557 10.9367 146.334 10.7991 146.109 10.6638C145.954 10.5697 145.797 10.4768 145.641 10.385C145.417 10.2533 145.194 10.1227 144.969 9.99334C144.812 9.90277 144.655 9.81337 144.496 9.72398C144.262 9.59224 144.027 9.46285 143.792 9.33347L143.691 9.27818C143.58 9.21702 143.468 9.15703 143.357 9.09704C143.094 8.95589 142.831 8.81827 142.566 8.68183L142.419 8.6042C142.347 8.56656 142.277 8.52892 142.205 8.49246C141.796 8.28308 141.416 8.09371 141.043 7.91375L140.942 7.86552C140.585 7.69379 140.224 7.52323 139.868 7.35856C139.787 7.32092 139.704 7.28446 139.622 7.24799L139.475 7.18213C139.21 7.06332 138.946 6.94452 138.68 6.82808C138.555 6.77397 138.431 6.72104 138.306 6.66811L138.221 6.63165C137.973 6.52578 137.725 6.42227 137.475 6.31994C137.315 6.25407 137.155 6.18938 136.995 6.12586C136.747 6.02588 136.498 5.92825 136.249 5.8318L136.22 5.82122C136.072 5.76358 135.924 5.70712 135.775 5.65066C135.516 5.55303 135.256 5.45776 134.995 5.36366L134.847 5.30955C134.744 5.27191 134.642 5.23545 134.54 5.19899C134.236 5.09195 133.933 4.98844 133.628 4.88728C133.628 4.88728 133.36 4.79554 133.297 4.77554C132.881 4.63792 132.46 4.505 132.047 4.37797C131.999 4.36268 131.767 4.29563 131.767 4.29563C131.439 4.19683 131.108 4.0992 130.778 4.0051C130.704 3.98393 130.419 3.9063 130.419 3.9063C130.125 3.82514 129.831 3.74633 129.537 3.6687C129.396 3.63224 129.255 3.59577 129.112 3.56048C128.822 3.48756 128.53 3.41581 128.238 3.34641C128.238 3.34641 127.942 3.27583 127.854 3.25466C127.394 3.1488 126.986 3.05823 126.605 2.97825L126.946 1.3468L136.939 3.4358C137.331 3.51814 137.751 3.60989 138.221 3.71928C138.313 3.74045 138.615 3.81338 138.615 3.81338C138.915 3.88395 139.214 3.95688 139.511 4.03333C139.657 4.0698 139.802 4.10744 139.948 4.14508C140.251 4.22388 140.554 4.30504 140.855 4.38856C140.855 4.38856 141.143 4.46736 141.223 4.48971L141.357 4.52618C141.637 4.60616 141.915 4.68967 142.192 4.77319C142.192 4.77319 142.471 4.85552 142.526 4.87199C142.951 5.00138 143.382 5.139 143.812 5.28015C143.88 5.30249 143.948 5.32602 144.015 5.34954L144.151 5.39542C144.463 5.5001 144.775 5.60596 145.087 5.71535C145.193 5.75299 145.3 5.79181 145.406 5.83063L145.748 5.95413C145.874 5.99883 146.001 6.0447 146.127 6.09175C146.171 6.10822 146.357 6.17997 146.357 6.17997C146.498 6.2329 146.641 6.28818 146.782 6.34229L146.843 6.36581C147.101 6.46462 147.356 6.56578 147.611 6.66811C147.776 6.73398 147.939 6.79985 148.103 6.86807C148.359 6.97275 148.614 7.08097 148.87 7.18918L148.959 7.22682C149.086 7.28093 149.213 7.33504 149.339 7.38914C149.613 7.50794 149.885 7.63027 150.158 7.75378L150.295 7.81612C150.383 7.85493 150.471 7.89493 150.558 7.93492L150.66 7.98079C150.996 8.13605 151.33 8.29485 151.663 8.45599L151.763 8.50304C152.15 8.69006 152.54 8.88532 152.957 9.09822C153.035 9.13821 153.114 9.17938 153.191 9.21937L153.329 9.29112C153.6 9.43227 153.871 9.57342 154.139 9.7181C154.257 9.78161 154.373 9.84513 154.49 9.90865L154.753 10.0521C154.852 10.1051 154.951 10.1592 155.048 10.2133C155.099 10.2415 155.148 10.2698 155.198 10.298L155.307 10.3603C155.47 10.4521 155.631 10.5438 155.792 10.6367C156.022 10.7697 156.252 10.9026 156.481 11.0378C156.642 11.1331 156.802 11.2284 156.962 11.3237C157.193 11.4625 157.422 11.6036 157.65 11.7448L157.743 11.8024C157.867 11.8788 157.99 11.9553 158.113 12.0329C158.351 12.1835 158.589 12.3376 158.827 12.4905L158.968 12.5811C159.062 12.6411 159.155 12.7022 159.248 12.7634L159.361 12.8363C159.505 12.9316 159.649 13.0304 159.792 13.128L160.118 13.3491C160.209 13.4103 160.299 13.4715 160.389 13.5326C160.672 13.7279 160.952 13.9267 161.233 14.1266L161.348 14.2078C161.402 14.2454 161.457 14.2843 161.511 14.3231C161.881 14.5901 162.254 14.8641 162.618 15.137C162.672 15.177 162.725 15.2182 162.779 15.2605L162.943 15.3864C163.179 15.5652 163.414 15.744 163.647 15.9263L163.707 15.9745C163.835 16.0745 163.962 16.1768 164.089 16.2792L164.4 16.5273C164.538 16.6379 164.678 16.7497 164.816 16.8626C164.945 16.9684 165.072 17.0755 165.201 17.1825L165.502 17.4342C165.637 17.5471 165.773 17.6601 165.907 17.7753C166.036 17.8847 166.163 17.9965 166.29 18.107L166.578 18.3588C166.713 18.4764 166.847 18.5928 166.98 18.7116C167.105 18.8222 167.227 18.9351 167.351 19.0469L167.667 19.3339C167.768 19.4256 167.869 19.5162 167.969 19.6091L168.032 19.6679C168.313 19.929 168.614 20.2149 168.953 20.5407C168.953 20.5407 169.094 20.6736 169.127 20.7065C169.479 21.0476 169.84 21.4064 170.2 21.771C170.264 21.8369 170.329 21.9039 170.394 21.971L170.518 22.1004C170.764 22.3521 171.009 22.605 171.251 22.8614C171.342 22.9567 171.431 23.0543 171.52 23.1508L171.649 23.2895C171.86 23.5177 172.072 23.7459 172.282 23.9776C172.282 23.9776 172.385 24.0894 172.41 24.1176C172.634 24.3682 172.858 24.6199 173.08 24.8739L173.165 24.9716C173.42 25.2645 173.673 25.5609 173.925 25.8596L174.133 26.1066C174.434 26.4677 174.7 26.7912 174.946 27.097L175.005 27.1711C175.255 27.484 175.503 27.7992 175.749 28.1168L175.949 28.3768C176.243 28.7591 176.497 29.0955 176.727 29.406L176.758 29.4507C176.938 29.6942 177.117 29.9388 177.295 30.1858C177.323 30.2258 177.441 30.394 177.441 30.394C177.578 30.5869 177.715 30.781 177.85 30.9763C177.991 31.1786 178.132 31.3809 178.272 31.5856C178.406 31.782 178.539 31.9796 178.672 32.1772C178.81 32.3819 178.947 32.5877 179.083 32.7959C179.213 32.9959 179.342 33.197 179.471 33.397C179.605 33.6063 179.739 33.8157 179.871 34.0263C179.998 34.2286 180.122 34.4321 180.247 34.6355C180.378 34.8484 180.507 35.0613 180.635 35.2754C180.759 35.4813 180.88 35.6871 181.001 35.8941C181.127 36.1106 181.254 36.3258 181.377 36.5434C181.497 36.7516 181.615 36.9622 181.733 37.1715C181.855 37.3903 181.976 37.6091 182.096 37.829C182.211 38.0408 182.325 38.2537 182.44 38.4666C182.557 38.6877 182.675 38.91 182.791 39.1323C182.903 39.3476 183.014 39.5628 183.123 39.7792L183.203 39.9333C183.241 40.0074 183.279 40.0804 183.317 40.1556C183.348 40.218 183.378 40.2803 183.409 40.3427L183.475 40.4768C183.566 40.6614 183.657 40.8461 183.746 41.0319C183.866 41.2778 183.984 41.526 184.102 41.7741C184.19 41.96 184.277 42.147 184.364 42.334C184.48 42.5869 184.596 42.841 184.71 43.0962L184.753 43.1939C184.821 43.3456 184.89 43.4973 184.957 43.6491C185.073 43.9137 185.186 44.1796 185.3 44.4466L185.366 44.5995C185.42 44.7253 185.473 44.8512 185.526 44.9782C185.647 45.2688 185.765 45.5605 185.882 45.8533L185.951 46.0215C185.992 46.1215 186.032 46.2215 186.072 46.3215C186.223 46.7061 186.372 47.0931 186.518 47.4813L186.593 47.6789C186.757 48.1211 186.925 48.5834 187.088 49.0504C187.117 49.1339 187.146 49.2186 187.174 49.3021L187.233 49.4738C187.343 49.7949 187.453 50.1149 187.56 50.4371C187.6 50.5583 187.639 50.6795 187.676 50.8006L187.733 50.9759C187.826 51.2629 187.917 51.5499 188.007 51.8392C188.053 51.9898 188.098 52.1403 188.143 52.2909L188.183 52.4238C188.267 52.7002 188.349 52.9778 188.429 53.2554C188.485 53.4519 188.541 53.6495 188.596 53.8471L188.601 53.8635C188.677 54.1376 188.752 54.4128 188.827 54.6881C188.882 54.8951 188.936 55.1021 188.99 55.3091C189.062 55.5844 189.131 55.8608 189.199 56.1384C189.251 56.3454 189.302 56.5536 189.351 56.7618C189.418 57.0429 189.483 57.3252 189.548 57.6087L189.568 57.6969C189.608 57.8733 189.648 58.0498 189.686 58.2262C189.75 58.5179 189.811 58.812 189.872 59.1049L189.907 59.2719C189.937 59.4142 189.967 59.5565 189.996 59.7C190.059 60.0164 190.118 60.3352 190.178 60.654L190.214 60.8457C190.236 60.9586 190.257 61.0715 190.278 61.1844L190.296 61.2797C190.376 61.7279 190.453 62.1866 190.527 62.6442L190.554 62.8218C190.623 63.2535 190.688 63.6863 190.75 64.1192C190.765 64.2286 190.78 64.3379 190.794 64.4473L190.818 64.6202C190.863 64.9484 190.906 65.2778 190.947 65.6083C190.968 65.7765 190.987 65.9447 191.007 66.1129L191.015 66.1835C191.052 66.494 191.086 66.8057 191.119 67.1186C191.14 67.3162 191.16 67.5138 191.179 67.7126C191.21 68.0266 191.238 68.3419 191.265 68.6571L191.275 68.7794C191.288 68.9312 191.301 69.0829 191.313 69.2346C191.34 69.5769 191.364 69.9204 191.386 70.2638L191.398 70.4426C191.405 70.5473 191.412 70.6532 191.419 70.759C191.452 71.3048 191.478 71.8059 191.498 72.2893C191.512 72.6316 191.524 72.9739 191.534 73.3162L191.547 73.8314C191.551 73.9937 191.555 74.1548 191.558 74.316C191.56 74.416 191.56 74.5148 191.561 74.6147L191.565 74.8582C191.567 75.01 191.568 75.1629 191.57 75.3146C191.571 75.4205 191.57 75.7604 191.57 75.7604V75.8616C191.57 76.0121 191.57 76.1627 191.568 76.3121C191.567 76.4226 191.564 76.7637 191.564 76.7637L191.562 76.8461C191.561 76.999 191.559 77.1531 191.557 77.306C191.554 77.4201 191.545 77.8247 191.545 77.8247C191.541 77.9823 191.538 78.1411 191.533 78.2987C191.53 78.4211 191.518 78.7563 191.518 78.7563C191.512 78.9386 191.505 79.1139 191.498 79.2879C191.492 79.4267 191.485 79.5655 191.479 79.7043L191.477 79.7479C191.468 79.9243 191.46 80.0995 191.451 80.2748C191.442 80.4289 191.433 80.583 191.425 80.7371C191.414 80.9112 191.404 81.0852 191.393 81.2593L191.381 81.4428L191.37 81.5922C191.332 82.1297 191.294 82.6179 191.254 83.0825L191.239 83.2472C191.194 83.7424 191.146 84.2387 191.094 84.7245L191.083 84.8433C191.032 85.3091 190.974 85.7961 190.906 86.3348L190.874 86.5865C190.812 87.0629 190.745 87.5475 190.674 88.0262L190.658 88.145L190.632 88.3062C190.565 88.752 190.496 89.1954 190.421 89.6377C190.345 90.0905 190.267 90.5281 190.186 90.9657L190.133 91.2527C190.052 91.6843 189.969 92.1137 189.88 92.543L189.837 92.75C189.756 93.1405 189.672 93.5298 189.586 93.9192L189.553 94.0733L189.535 94.1521C189.444 94.5544 189.35 94.9555 189.253 95.3566L189.188 95.6247C189.104 95.967 189.018 96.3081 188.93 96.6492L188.867 96.8974C188.763 97.295 188.656 97.6914 188.547 98.0866L188.474 98.3477C188.378 98.6865 188.282 99.0229 188.183 99.3605L188.135 99.5275L188.11 99.6075C187.996 99.9898 187.881 100.37 187.761 100.75L187.682 100.998C187.582 101.313 187.481 101.627 187.377 101.941L187.283 102.225C187.157 102.602 187.029 102.979 186.897 103.354L186.833 103.537C186.719 103.861 186.602 104.184 186.485 104.505L186.426 104.67L186.375 104.803C186.238 105.173 186.099 105.544 185.955 105.912L185.936 105.96C185.798 106.317 185.658 106.67 185.517 107.02L185.395 107.318C185.265 107.636 185.133 107.955 184.999 108.273L184.936 108.426C184.783 108.786 184.626 109.146 184.467 109.503L184.419 109.613L184.344 109.777C184.21 110.077 184.075 110.376 183.937 110.675L183.835 110.898C183.669 111.255 183.502 111.609 183.331 111.962L183.213 112.204C183.071 112.496 182.928 112.786 182.783 113.077L182.656 113.331C182.48 113.68 182.301 114.029 182.12 114.375L182.094 114.426L182.022 114.56C181.861 114.867 181.696 115.174 181.53 115.48L181.392 115.735C181.2 116.085 181.006 116.436 180.808 116.783L180.708 116.957C180.535 117.26 180.361 117.562 180.185 117.862L180.038 118.112C179.834 118.456 179.629 118.798 179.421 119.138L179.326 119.292C179.126 119.618 178.925 119.94 178.72 120.261L178.585 120.474C178.362 120.824 178.136 121.173 177.906 121.518L177.764 121.733C177.552 122.051 177.338 122.368 177.123 122.683L177.03 122.819C176.792 123.164 176.554 123.504 176.312 123.844L176.235 123.954L176.154 124.066C175.869 124.463 175.608 124.821 175.354 125.164L175.252 125.301C174.988 125.654 174.721 126.006 174.452 126.355L174.363 126.47C174.101 126.809 173.825 127.159 173.52 127.538L173.359 127.74C173.072 128.095 172.786 128.443 172.51 128.774L172.454 128.842L172.374 128.935C172.027 129.348 171.685 129.746 171.357 130.121L171.235 130.26C170.876 130.668 170.522 131.064 170.181 131.435L170.07 131.555C169.697 131.961 169.329 132.353 168.977 132.721L168.885 132.817C168.498 133.22 168.115 133.61 167.747 133.977L167.578 134.145C167.402 134.319 167.226 134.494 167.048 134.666L166.793 134.913C166.638 135.063 166.483 135.211 166.327 135.359C166.237 135.445 166.146 135.531 166.055 135.617C165.898 135.764 165.742 135.91 165.583 136.056L165.322 136.297C165.142 136.461 164.961 136.625 164.779 136.787L164.587 136.961C164.341 137.18 164.094 137.398 163.846 137.613L163.681 137.754C163.486 137.922 163.29 138.089 163.094 138.256L162.829 138.479C162.663 138.617 162.498 138.756 162.329 138.894C162.234 138.973 162.139 139.05 162.042 139.129C161.877 139.264 161.709 139.398 161.542 139.531L161.365 139.675L161.277 139.743C160.984 139.975 160.691 140.204 160.396 140.431L160.278 140.521C160.017 140.721 159.755 140.918 159.491 141.115L159.241 141.299C158.976 141.495 158.709 141.689 158.442 141.88L158.327 141.964C158.023 142.18 157.718 142.394 157.414 142.605L157.172 142.771C156.926 142.94 156.679 143.107 156.431 143.272L156.209 143.42C155.901 143.625 155.591 143.827 155.279 144.027L155.09 144.147C154.831 144.312 154.572 144.474 154.312 144.635L154.05 144.796C153.738 144.987 153.425 145.177 153.111 145.363L153.091 145.375C152.771 145.564 152.449 145.75 152.125 145.935L151.856 146.088C151.59 146.238 151.323 146.387 151.054 146.534L150.859 146.641C150.533 146.817 150.207 146.991 149.88 147.163L149.642 147.285C149.378 147.423 149.113 147.558 148.847 147.691L148.585 147.823C148.253 147.987 147.92 148.151 147.585 148.311L147.45 148.374C147.156 148.514 146.859 148.652 146.562 148.788L146.277 148.918C145.978 149.053 145.677 149.187 145.376 149.319L145.244 149.377C144.905 149.524 144.562 149.668 144.219 149.811L143.946 149.922C143.671 150.035 143.394 150.146 143.117 150.255L142.866 150.354C142.521 150.488 142.174 150.62 141.827 150.749L141.617 150.826C141.329 150.932 141.039 151.035 140.75 151.137L140.458 151.24C140.111 151.36 139.766 151.478 139.417 151.593L139.384 151.603C139.035 151.718 138.678 151.831 138.319 151.942L138.024 152.032C137.728 152.123 137.432 152.211 137.135 152.297L136.92 152.361C136.561 152.463 136.202 152.563 135.842 152.659L135.582 152.728C135.291 152.804 135.001 152.879 134.709 152.952L134.42 153.024C134.055 153.113 133.69 153.2 133.324 153.284L133.18 153.316C132.855 153.389 132.53 153.459 132.206 153.527L131.894 153.592C131.568 153.659 131.241 153.724 130.913 153.786L130.77 153.814C130.398 153.884 130.026 153.95 129.652 154.013L129.357 154.063C129.057 154.112 128.757 154.159 128.456 154.205L128.187 154.246C127.811 154.301 127.435 154.353 127.06 154.401L126.833 154.43C126.522 154.468 126.209 154.506 125.896 154.54L125.581 154.574C125.2 154.615 124.818 154.653 124.433 154.687C122.489 154.866 120.52 154.954 118.581 154.954C118.583 154.954 118.583 154.954 118.581 154.954Z" fill="url(#paint1_linear)"/>
<path d="M190.739 75.3253C190.738 75.1394 190.736 74.9524 190.734 74.7665C190.731 74.623 190.731 74.4795 190.728 74.336C190.724 74.1396 190.719 73.9432 190.714 73.7467C190.71 73.6256 190.709 73.5056 190.705 73.3845C190.705 73.3715 190.704 73.3586 190.704 73.3468C190.694 73.0081 190.682 72.6693 190.668 72.3305C190.647 71.8236 190.619 71.319 190.589 70.8155C190.579 70.6521 190.567 70.4897 190.556 70.3262C190.534 69.9863 190.51 69.6452 190.483 69.3064C190.468 69.1159 190.451 68.9253 190.435 68.7348C190.408 68.4219 190.38 68.1102 190.35 67.7997C190.331 67.6032 190.311 67.408 190.291 67.2127C190.26 66.9034 190.224 66.5952 190.189 66.287C190.167 66.0976 190.145 65.9071 190.122 65.7177C190.082 65.3907 190.038 65.0649 189.995 64.7403C189.973 64.5744 189.951 64.4086 189.928 64.2439C189.867 63.8146 189.802 63.3864 189.735 62.9606C189.726 62.9018 189.717 62.843 189.708 62.7842C189.635 62.3325 189.56 61.8832 189.48 61.435C189.474 61.4033 189.468 61.3715 189.462 61.3398C189.43 61.1645 189.396 60.9892 189.363 60.814C189.304 60.4987 189.246 60.1835 189.183 59.8706C189.144 59.6742 189.102 59.4778 189.062 59.2813C189.002 58.9908 188.941 58.7003 188.879 58.4121C188.834 58.2074 188.787 58.0051 188.741 57.8016C188.677 57.5217 188.613 57.2429 188.547 56.9641C188.498 56.7583 188.447 56.5525 188.396 56.3466C188.328 56.0725 188.26 55.7997 188.189 55.5268C188.136 55.3209 188.082 55.1163 188.028 54.9116C187.955 54.6387 187.88 54.367 187.805 54.0953C187.748 53.8941 187.693 53.693 187.635 53.4931C187.557 53.2178 187.474 52.9437 187.392 52.6697C187.334 52.4768 187.277 52.2827 187.217 52.0898C187.128 51.804 187.037 51.5193 186.946 51.2358C186.888 51.0582 186.833 50.8806 186.774 50.703C186.67 50.3842 186.56 50.0667 186.451 49.7503C186.403 49.6103 186.357 49.4703 186.307 49.3303C186.147 48.8763 185.985 48.4235 185.817 47.9741C185.792 47.9083 185.766 47.8436 185.742 47.7789C185.597 47.3942 185.451 47.012 185.302 46.6309C185.241 46.4756 185.177 46.3227 185.115 46.1674C184.998 45.8781 184.882 45.5887 184.763 45.3017C184.69 45.1253 184.615 44.9512 184.539 44.7759C184.428 44.5125 184.315 44.249 184.201 43.9879C184.121 43.8044 184.038 43.6232 183.957 43.4409C183.844 43.1892 183.731 42.9375 183.615 42.6881C183.529 42.5034 183.443 42.3188 183.356 42.1341C183.241 41.8883 183.123 41.6436 183.006 41.4001C182.916 41.2166 182.827 41.0331 182.736 40.8508C182.683 40.745 182.633 40.6379 182.581 40.5332C182.519 40.4086 182.453 40.285 182.389 40.1615C182.281 39.9475 182.172 39.7346 182.061 39.5228C181.946 39.3029 181.831 39.0829 181.713 38.8642C181.6 38.6536 181.487 38.4431 181.373 38.2337C181.254 38.0161 181.134 37.7997 181.013 37.5844C180.897 37.3762 180.78 37.1692 180.663 36.9622C180.539 36.7469 180.416 36.534 180.29 36.3211C180.17 36.1165 180.05 35.913 179.929 35.7095C179.802 35.4977 179.673 35.2872 179.544 35.0767C179.421 34.8755 179.297 34.6744 179.171 34.4744C179.041 34.2662 178.909 34.0592 178.776 33.8522C178.649 33.6534 178.521 33.4546 178.391 33.2582C178.257 33.0535 178.121 32.85 177.985 32.6465C177.855 32.4513 177.723 32.2549 177.59 32.0608C177.453 31.8585 177.313 31.6585 177.173 31.4585C177.039 31.2656 176.903 31.0739 176.767 30.8834C176.719 30.8151 176.672 30.7457 176.622 30.6775C176.447 30.434 176.271 30.1917 176.093 29.9518C176.082 29.9377 176.072 29.9224 176.061 29.9083C175.808 29.566 175.552 29.2284 175.293 28.8908C175.227 28.8049 175.161 28.7191 175.094 28.6344C174.851 28.3203 174.606 28.0086 174.358 27.6993C174.338 27.6746 174.319 27.6499 174.3 27.6264C174.036 27.297 173.766 26.9712 173.497 26.6477C173.429 26.5666 173.361 26.4842 173.292 26.4031C173.044 26.1078 172.794 25.8149 172.541 25.5244C172.512 25.4927 172.485 25.4597 172.457 25.428C172.238 25.1774 172.017 24.9281 171.795 24.6799C171.754 24.634 171.71 24.5881 171.668 24.5422C171.461 24.3141 171.252 24.0882 171.042 23.8624C170.91 23.7212 170.781 23.5789 170.648 23.4389C170.408 23.186 170.166 22.9355 169.924 22.6861C169.819 22.5779 169.715 22.4685 169.609 22.3615C169.259 22.0075 168.906 21.6558 168.55 21.3099C168.493 21.2547 168.434 21.2017 168.378 21.1464C168.077 20.8559 167.775 20.5677 167.469 20.2843C167.448 20.2654 167.428 20.2454 167.408 20.2266C167.253 20.0843 167.097 19.9455 166.942 19.8044C166.771 19.6491 166.602 19.4926 166.429 19.3397C166.25 19.1809 166.069 19.0245 165.889 18.8681C165.715 18.7163 165.543 18.5646 165.368 18.4152C165.186 18.2599 165.001 18.107 164.816 17.9529C164.641 17.8059 164.467 17.6589 164.289 17.5142C164.104 17.3625 163.915 17.2131 163.727 17.0625C163.549 16.9202 163.373 16.7767 163.193 16.6356C163.173 16.6203 163.154 16.6038 163.134 16.5885C162.887 16.3956 162.638 16.2062 162.389 16.0169C162.298 15.9486 162.209 15.8781 162.118 15.8098C161.757 15.5381 161.392 15.2699 161.025 15.0053C160.935 14.9394 160.842 14.8759 160.751 14.8112C160.475 14.6136 160.197 14.4172 159.917 14.2243C159.778 14.129 159.639 14.0361 159.5 13.942C159.301 13.8067 159.102 13.6703 158.901 13.5373C158.865 13.5126 158.827 13.4891 158.789 13.4656C158.652 13.375 158.513 13.2856 158.374 13.1962C158.14 13.0445 157.906 12.8928 157.669 12.7434C157.518 12.6481 157.365 12.554 157.213 12.4587C156.987 12.3188 156.761 12.18 156.533 12.0423C156.376 11.9471 156.217 11.853 156.058 11.76C155.832 11.626 155.605 11.4942 155.377 11.3637C155.218 11.2719 155.058 11.1813 154.898 11.0908C154.812 11.0425 154.728 10.9931 154.643 10.9449C154.491 10.8602 154.337 10.7779 154.184 10.6944C154.037 10.6144 153.891 10.5332 153.744 10.4544C153.479 10.3121 153.212 10.1721 152.945 10.0333C152.822 9.96981 152.701 9.90511 152.578 9.84277C152.187 9.64281 151.794 9.44756 151.4 9.25583C151.367 9.23936 151.334 9.22524 151.301 9.20878C150.972 9.04999 150.643 8.89237 150.31 8.73946C150.277 8.72417 150.243 8.71005 150.209 8.69358C150.077 8.6336 149.945 8.57478 149.813 8.5148C149.545 8.39364 149.276 8.27249 149.005 8.15487C148.851 8.08782 148.697 8.02313 148.542 7.95726C148.29 7.85022 148.037 7.74436 147.784 7.63967C147.623 7.5738 147.461 7.50793 147.299 7.44324C147.047 7.34208 146.794 7.24328 146.54 7.14565C146.38 7.08449 146.22 7.02215 146.06 6.96216C145.984 6.93393 145.908 6.90335 145.833 6.87512C145.646 6.80572 145.457 6.73985 145.27 6.67163C145.115 6.61634 144.963 6.55988 144.808 6.5046C144.501 6.39639 144.193 6.2917 143.884 6.18819C143.772 6.15055 143.662 6.11174 143.55 6.07527C143.129 5.93648 142.707 5.80239 142.282 5.673C142.188 5.64477 142.093 5.61772 141.998 5.58949C141.709 5.50244 141.42 5.4154 141.128 5.33189C141.085 5.31895 141.04 5.30836 140.995 5.29543C140.874 5.26131 140.753 5.22838 140.633 5.19544C140.335 5.11311 140.036 5.03312 139.738 4.95432C139.594 4.91668 139.451 4.88021 139.307 4.84375C139.013 4.76965 138.718 4.69672 138.422 4.62732C138.292 4.59674 138.163 4.56498 138.032 4.53557C137.611 4.43795 137.19 4.34502 136.767 4.25563L126.773 2.16663C127.197 2.25484 127.618 2.34894 128.039 2.44657C128.168 2.47598 128.298 2.50774 128.428 2.53832C128.725 2.60889 129.019 2.68064 129.314 2.75475C129.457 2.79121 129.601 2.82767 129.744 2.86531C130.043 2.94294 130.342 3.02411 130.638 3.10527C130.759 3.1382 130.881 3.17114 131.002 3.20525C131.337 3.30052 131.671 3.39933 132.004 3.49931C132.098 3.52754 132.193 3.55459 132.287 3.58282C132.712 3.71221 133.134 3.84747 133.555 3.98509C133.667 4.02156 133.779 4.06155 133.889 4.09801C134.199 4.20152 134.507 4.30621 134.814 4.41442C134.968 4.46853 135.122 4.52616 135.276 4.58145C135.54 4.67672 135.804 4.77317 136.067 4.87198C136.228 4.93197 136.388 4.99431 136.548 5.05665C136.801 5.15428 137.054 5.25308 137.305 5.35424C137.468 5.41893 137.63 5.4848 137.791 5.55067C138.044 5.65418 138.296 5.76004 138.547 5.86708C138.703 5.93295 138.858 5.99882 139.012 6.06586C139.281 6.18349 139.55 6.30346 139.817 6.42344C139.949 6.48343 140.082 6.54224 140.215 6.6034C140.58 6.77161 140.942 6.94216 141.304 7.11625C141.339 7.13271 141.373 7.148 141.407 7.16447C141.801 7.3562 142.194 7.55146 142.584 7.75142C142.707 7.81376 142.829 7.87845 142.951 7.94197C143.219 8.08076 143.486 8.22074 143.752 8.36306C143.899 8.44187 144.045 8.52303 144.192 8.60301C144.431 8.73358 144.67 8.86532 144.906 8.99823C145.066 9.0888 145.226 9.17937 145.385 9.27112C145.613 9.40168 145.839 9.5346 146.066 9.66751C146.225 9.76161 146.382 9.85571 146.541 9.94981C146.768 10.0863 146.995 10.2262 147.221 10.3662C147.374 10.4603 147.526 10.5544 147.677 10.6508C147.914 10.8002 148.148 10.9508 148.382 11.1037C148.521 11.1931 148.659 11.2825 148.797 11.3731C149.035 11.5295 149.271 11.6906 149.506 11.8506C149.645 11.9447 149.785 12.0376 149.924 12.1329C150.204 12.3258 150.481 12.5222 150.758 12.7199C150.85 12.7845 150.941 12.8481 151.032 12.9139C151.399 13.1786 151.764 13.4468 152.125 13.7185C152.214 13.7855 152.302 13.8549 152.392 13.9232C152.662 14.129 152.933 14.3348 153.2 14.5442C153.379 14.6854 153.556 14.8289 153.734 14.9712C153.921 15.1206 154.109 15.2699 154.295 15.4217C154.472 15.5664 154.647 15.7146 154.823 15.8616C155.006 16.0145 155.191 16.1674 155.373 16.3227C155.548 16.4721 155.72 16.6238 155.893 16.7744C156.075 16.932 156.256 17.0884 156.434 17.2472C156.606 17.4001 156.776 17.5566 156.946 17.7106C157.123 17.8706 157.299 18.0294 157.473 18.1917C157.779 18.4764 158.082 18.7634 158.383 19.0539C158.44 19.1092 158.499 19.1621 158.555 19.2174C158.913 19.5632 159.266 19.9149 159.616 20.269C159.721 20.3748 159.823 20.4842 159.928 20.5913C160.171 20.8418 160.415 21.0923 160.656 21.3464C160.788 21.4852 160.917 21.6275 161.048 21.7675C161.258 21.9933 161.468 22.2204 161.675 22.4497C161.939 22.7426 162.204 23.0367 162.464 23.3354C162.491 23.3672 162.518 23.3989 162.546 23.4307C162.799 23.7212 163.05 24.0141 163.299 24.3094C163.367 24.3905 163.437 24.4729 163.505 24.554C163.775 24.8775 164.044 25.2033 164.308 25.5326C164.328 25.5573 164.347 25.582 164.366 25.6056C164.614 25.9149 164.859 26.2266 165.102 26.5407C165.168 26.6265 165.235 26.7124 165.301 26.7983C165.56 27.1347 165.816 27.4734 166.069 27.8145C166.081 27.8298 166.091 27.8451 166.103 27.8604C166.33 28.1674 166.554 28.4791 166.776 28.7908C166.912 28.9814 167.046 29.1731 167.181 29.366C167.321 29.566 167.46 29.7659 167.598 29.9682C167.731 30.1623 167.862 30.3576 167.993 30.554C168.13 30.7575 168.265 30.961 168.399 31.1657C168.529 31.3633 168.656 31.5609 168.783 31.7597C168.916 31.9667 169.047 32.1737 169.178 32.3819C169.304 32.5818 169.427 32.7842 169.551 32.9853C169.679 33.1947 169.807 33.4052 169.934 33.6169C170.056 33.8204 170.176 34.0251 170.296 34.2298C170.421 34.4427 170.546 34.6556 170.668 34.8708C170.786 35.0778 170.903 35.2849 171.02 35.493C171.141 35.7083 171.261 35.9247 171.38 36.1423C171.494 36.3517 171.608 36.5634 171.72 36.774C171.836 36.9928 171.953 37.2115 172.067 37.4315C172.177 37.6444 172.287 37.8573 172.395 38.0714C172.511 38.3007 172.628 38.5301 172.742 38.7606C172.832 38.943 172.922 39.1265 173.011 39.3099C173.13 39.5534 173.246 39.7993 173.363 40.0451C173.45 40.2286 173.536 40.4133 173.622 40.5979C173.737 40.8473 173.851 41.099 173.964 41.3507C174.046 41.533 174.127 41.7154 174.209 41.8988C174.324 42.16 174.436 42.4235 174.547 42.6869C174.623 42.8622 174.698 43.0375 174.771 43.2139C174.89 43.4997 175.006 43.7879 175.121 44.0761C175.184 44.2313 175.247 44.3854 175.31 44.5419C175.459 44.9218 175.605 45.3029 175.748 45.6863C175.773 45.7522 175.8 45.8181 175.825 45.8851C175.992 46.3345 176.155 46.7873 176.315 47.2413C176.363 47.3801 176.409 47.5189 176.458 47.6577C176.567 47.9753 176.676 48.2929 176.781 48.6128C176.84 48.7893 176.895 48.9681 176.953 49.1457C177.044 49.4303 177.135 49.7138 177.223 49.9996C177.282 50.1913 177.34 50.3854 177.399 50.5783C177.481 50.8524 177.562 51.1265 177.642 51.4017C177.7 51.6017 177.756 51.8028 177.813 52.0039C177.888 52.2745 177.963 52.5462 178.036 52.8191C178.091 53.0237 178.144 53.2296 178.198 53.4342C178.269 53.7071 178.338 53.98 178.405 54.2541C178.456 54.4599 178.507 54.6658 178.556 54.8728C178.622 55.1504 178.687 55.4303 178.75 55.7091C178.796 55.9126 178.843 56.1161 178.888 56.3207C178.951 56.6101 179.011 56.9006 179.072 57.1923C179.112 57.3876 179.155 57.5828 179.193 57.7793C179.256 58.0933 179.315 58.4086 179.373 58.7238C179.406 58.8991 179.44 59.0731 179.472 59.2484C179.558 59.7283 179.64 60.2094 179.719 60.6928C179.729 60.7516 179.737 60.8116 179.746 60.8704C179.813 61.2962 179.878 61.7244 179.939 62.1525C179.963 62.3184 179.984 62.4842 180.006 62.6501C180.051 62.9747 180.093 63.3005 180.133 63.6275C180.157 63.8169 180.178 64.0063 180.2 64.1957C180.236 64.5038 180.271 64.812 180.303 65.1202C180.323 65.3166 180.343 65.5119 180.363 65.7083C180.393 66.0188 180.421 66.3305 180.447 66.6434C180.464 66.834 180.48 67.0245 180.496 67.2151C180.523 67.555 180.546 67.8949 180.569 68.2361C180.579 68.3984 180.591 68.5607 180.601 68.723C180.632 69.2264 180.659 69.7311 180.68 70.238C180.694 70.5768 180.706 70.9155 180.717 71.2543C180.72 71.3872 180.723 71.5189 180.726 71.6519C180.731 71.8495 180.737 72.0482 180.74 72.2459C180.743 72.387 180.744 72.5282 180.746 72.6681C180.748 72.8563 180.751 73.0457 180.752 73.2339C180.753 73.3798 180.752 73.5244 180.752 73.6703C180.752 73.855 180.752 74.0385 180.751 74.2219C180.75 74.3701 180.747 74.5184 180.746 74.6654C180.744 74.8454 180.743 75.0253 180.739 75.2053C180.737 75.3558 180.732 75.5064 180.728 75.657C180.724 75.8346 180.72 76.011 180.716 76.1886C180.711 76.3403 180.705 76.4909 180.7 76.6426C180.694 76.8179 180.688 76.9932 180.68 77.1684C180.674 77.3202 180.666 77.4719 180.659 77.6248C180.651 77.7989 180.643 77.973 180.633 78.1471C180.625 78.3 180.616 78.4517 180.607 78.6046C180.597 78.7775 180.587 78.9492 180.576 79.121C180.568 79.2315 180.56 79.3409 180.553 79.4503C180.519 79.9432 180.481 80.4348 180.439 80.9253C180.434 80.9794 180.429 81.0336 180.424 81.0877C180.38 81.577 180.332 82.0639 180.28 82.5509C180.276 82.5909 180.272 82.6297 180.269 82.6697C180.214 83.1625 180.156 83.6554 180.093 84.1459C180.083 84.2282 180.072 84.3106 180.062 84.3929C179.999 84.8693 179.933 85.3445 179.864 85.8185C179.85 85.9102 179.837 86.0032 179.823 86.0949C179.756 86.536 179.688 86.9747 179.613 87.4135C179.613 87.417 179.612 87.4205 179.611 87.4241C179.538 87.8605 179.46 88.2945 179.381 88.7285C179.363 88.8226 179.345 88.9179 179.328 89.012C179.248 89.439 179.164 89.8636 179.077 90.2882C179.063 90.3564 179.049 90.4247 179.035 90.4929C178.955 90.8799 178.871 91.2657 178.786 91.6503C178.769 91.7268 178.752 91.8044 178.736 91.8808C178.647 92.2796 178.554 92.6772 178.458 93.0735C178.437 93.1618 178.415 93.25 178.394 93.3382C178.311 93.677 178.225 94.0157 178.138 94.3533C178.117 94.4345 178.097 94.5168 178.076 94.598C177.974 94.992 177.868 95.3837 177.76 95.7754C177.736 95.8612 177.711 95.9483 177.687 96.0341C177.593 96.3694 177.497 96.7034 177.399 97.0363C177.375 97.1175 177.351 97.1998 177.327 97.281C177.214 97.6597 177.099 98.0373 176.981 98.4137C176.955 98.4948 176.929 98.576 176.903 98.6572C176.805 98.97 176.703 99.2817 176.601 99.5923C176.57 99.6864 176.54 99.7793 176.508 99.8734C176.383 100.247 176.256 100.62 176.126 100.992C176.105 101.052 176.083 101.111 176.062 101.171C175.949 101.492 175.833 101.813 175.717 102.133C175.681 102.231 175.645 102.328 175.609 102.425C175.473 102.793 175.335 103.16 175.193 103.524C175.187 103.54 175.181 103.555 175.175 103.57C175.039 103.922 174.9 104.273 174.759 104.621C174.72 104.718 174.68 104.815 174.64 104.912C174.511 105.23 174.379 105.546 174.246 105.862C174.225 105.911 174.205 105.96 174.184 106.01C174.032 106.367 173.877 106.723 173.72 107.077C173.68 107.167 173.639 107.258 173.599 107.348C173.466 107.645 173.332 107.941 173.197 108.236C173.163 108.309 173.13 108.383 173.096 108.456C172.932 108.809 172.767 109.16 172.597 109.509C172.558 109.589 172.52 109.669 172.481 109.749C172.341 110.038 172.198 110.327 172.054 110.614C172.013 110.697 171.97 110.781 171.929 110.863C171.754 111.209 171.577 111.555 171.397 111.898C171.366 111.959 171.334 112.019 171.301 112.079C171.14 112.385 170.977 112.69 170.813 112.993C170.768 113.077 170.722 113.16 170.676 113.244C170.486 113.592 170.294 113.938 170.099 114.282C170.066 114.34 170.033 114.396 170 114.454C169.829 114.754 169.657 115.053 169.482 115.35C169.434 115.433 169.386 115.516 169.337 115.599C169.135 115.938 168.932 116.277 168.727 116.614C168.696 116.664 168.664 116.716 168.633 116.767C168.436 117.088 168.236 117.408 168.034 117.725C167.99 117.796 167.945 117.866 167.9 117.937C167.679 118.284 167.455 118.629 167.229 118.971C167.182 119.041 167.135 119.112 167.088 119.183C166.878 119.498 166.667 119.812 166.452 120.125C166.422 120.169 166.391 120.214 166.361 120.259C166.127 120.599 165.889 120.938 165.65 121.273C165.599 121.346 165.546 121.419 165.494 121.492C165.233 121.856 164.968 122.22 164.701 122.58C164.668 122.624 164.634 122.669 164.601 122.712C164.34 123.063 164.075 123.412 163.808 123.758C163.779 123.796 163.751 123.833 163.721 123.871C163.446 124.226 163.167 124.579 162.886 124.928C162.833 124.994 162.78 125.061 162.726 125.127C162.449 125.471 162.169 125.812 161.886 126.151C161.842 126.204 161.797 126.256 161.752 126.311C161.421 126.706 161.085 127.097 160.745 127.486C160.705 127.532 160.665 127.577 160.624 127.622C160.281 128.014 159.933 128.402 159.582 128.785C159.546 128.825 159.509 128.864 159.473 128.904C159.116 129.292 158.755 129.677 158.392 130.058C158.361 130.091 158.329 130.123 158.298 130.155C157.926 130.54 157.552 130.924 157.173 131.301C157.119 131.355 157.064 131.41 157.008 131.464C156.833 131.638 156.658 131.811 156.48 131.982C156.397 132.064 156.313 132.144 156.23 132.225C156.076 132.373 155.922 132.52 155.768 132.667C155.678 132.752 155.589 132.836 155.498 132.921C155.343 133.067 155.188 133.212 155.031 133.355C154.945 133.434 154.859 133.514 154.774 133.593C154.595 133.756 154.415 133.918 154.235 134.08C154.171 134.136 154.109 134.194 154.045 134.25C153.802 134.467 153.559 134.682 153.313 134.895C153.259 134.942 153.203 134.989 153.148 135.036C152.955 135.202 152.762 135.368 152.568 135.531C152.481 135.605 152.393 135.677 152.306 135.751C152.141 135.889 151.976 136.025 151.812 136.162C151.718 136.239 151.622 136.317 151.527 136.394C151.364 136.527 151.199 136.66 151.033 136.792C150.946 136.863 150.858 136.932 150.77 137.001C150.481 137.23 150.191 137.457 149.899 137.681C149.86 137.711 149.822 137.74 149.783 137.77C149.525 137.967 149.266 138.162 149.006 138.355C148.924 138.416 148.841 138.478 148.758 138.539C148.496 138.732 148.234 138.923 147.969 139.114C147.93 139.141 147.893 139.169 147.854 139.197C147.555 139.41 147.254 139.622 146.953 139.83C146.873 139.886 146.793 139.941 146.712 139.996C146.469 140.162 146.226 140.327 145.981 140.49C145.907 140.54 145.834 140.589 145.76 140.638C145.455 140.841 145.15 141.039 144.841 141.237C144.779 141.277 144.716 141.316 144.653 141.356C144.398 141.518 144.143 141.679 143.885 141.838C143.799 141.891 143.712 141.945 143.625 141.998C143.311 142.191 142.996 142.382 142.678 142.57C142.678 142.57 142.678 142.57 142.677 142.57C142.361 142.757 142.042 142.941 141.722 143.124C141.634 143.174 141.546 143.224 141.456 143.274C141.193 143.423 140.928 143.571 140.663 143.715C140.599 143.751 140.535 143.787 140.471 143.821C140.149 143.995 139.827 144.167 139.505 144.336C139.426 144.378 139.347 144.418 139.268 144.459C139.007 144.594 138.746 144.728 138.484 144.86C138.398 144.903 138.311 144.947 138.225 144.99C137.897 145.154 137.568 145.315 137.237 145.473C137.192 145.494 137.149 145.514 137.104 145.535C136.812 145.674 136.52 145.81 136.225 145.944C136.131 145.987 136.038 146.03 135.944 146.073C135.649 146.207 135.352 146.338 135.054 146.468C135.01 146.487 134.968 146.507 134.925 146.525C134.588 146.671 134.249 146.814 133.911 146.955C133.821 146.992 133.731 147.029 133.641 147.065C133.37 147.177 133.097 147.286 132.823 147.395C132.74 147.428 132.658 147.461 132.574 147.492C132.233 147.625 131.892 147.756 131.549 147.883C131.479 147.909 131.409 147.933 131.338 147.959C131.055 148.064 130.769 148.166 130.484 148.266C130.388 148.3 130.291 148.334 130.195 148.367C129.846 148.489 129.495 148.609 129.143 148.724H129.142C128.79 148.839 128.438 148.951 128.084 149.06C127.986 149.091 127.889 149.12 127.792 149.15C127.5 149.239 127.207 149.326 126.914 149.411C126.844 149.431 126.773 149.453 126.701 149.473C126.347 149.574 125.992 149.673 125.636 149.768C125.55 149.792 125.464 149.813 125.379 149.837C125.092 149.912 124.805 149.986 124.517 150.059C124.422 150.082 124.327 150.107 124.231 150.131C123.871 150.219 123.511 150.305 123.149 150.387C123.101 150.398 123.053 150.408 123.005 150.419C122.685 150.491 122.365 150.56 122.044 150.627C121.941 150.648 121.839 150.669 121.737 150.691C121.414 150.756 121.091 150.82 120.767 150.882C120.72 150.892 120.672 150.901 120.625 150.909C120.259 150.978 119.891 151.042 119.523 151.105C119.425 151.121 119.328 151.136 119.23 151.153C118.935 151.201 118.638 151.248 118.341 151.293C118.251 151.306 118.163 151.32 118.074 151.333C117.704 151.387 117.334 151.439 116.962 151.487C116.888 151.496 116.813 151.506 116.739 151.515C116.431 151.554 116.122 151.59 115.813 151.624C115.71 151.636 115.606 151.648 115.501 151.659C115.125 151.699 114.747 151.737 114.369 151.77C107.923 152.345 101.642 151.949 95.644 150.695L105.637 152.784C111.635 154.038 117.916 154.434 124.362 153.859C124.741 153.825 125.118 153.788 125.495 153.748C125.598 153.737 125.703 153.725 125.806 153.713C126.116 153.679 126.424 153.643 126.732 153.604C126.806 153.595 126.881 153.586 126.956 153.576C127.327 153.528 127.698 153.477 128.067 153.422C128.156 153.409 128.245 153.395 128.334 153.382C128.63 153.337 128.927 153.29 129.223 153.242C129.321 153.225 129.419 153.21 129.516 153.194C129.884 153.131 130.253 153.067 130.618 152.998C130.665 152.989 130.714 152.979 130.761 152.971C131.084 152.91 131.408 152.847 131.73 152.78C131.832 152.758 131.935 152.737 132.037 152.716C132.358 152.649 132.678 152.58 132.998 152.508C133.046 152.497 133.094 152.487 133.143 152.476C133.504 152.394 133.865 152.308 134.225 152.22C134.32 152.196 134.415 152.173 134.511 152.148C134.799 152.076 135.086 152.002 135.373 151.926C135.459 151.903 135.544 151.881 135.629 151.857C135.986 151.762 136.341 151.663 136.695 151.562C136.765 151.542 136.836 151.521 136.908 151.5C137.201 151.415 137.493 151.328 137.785 151.239C137.883 151.209 137.98 151.179 138.077 151.149C138.431 151.04 138.784 150.928 139.135 150.813H139.137C139.488 150.698 139.839 150.578 140.188 150.456C140.285 150.423 140.381 150.389 140.476 150.355C140.762 150.254 141.048 150.152 141.333 150.047C141.402 150.021 141.471 149.997 141.541 149.971C141.884 149.844 142.227 149.713 142.568 149.58C142.65 149.548 142.732 149.515 142.815 149.482C143.089 149.374 143.362 149.265 143.635 149.153C143.724 149.117 143.815 149.08 143.904 149.043C144.243 148.903 144.581 148.759 144.918 148.613C144.961 148.594 145.004 148.576 145.047 148.557C145.345 148.427 145.642 148.294 145.938 148.16C146.032 148.118 146.125 148.076 146.218 148.032C146.512 147.897 146.805 147.76 147.097 147.622C147.141 147.601 147.186 147.581 147.229 147.559C147.56 147.402 147.889 147.239 148.217 147.077C148.303 147.034 148.39 146.99 148.476 146.948C148.738 146.816 149.001 146.682 149.262 146.547C149.341 146.505 149.418 146.465 149.497 146.425C149.82 146.256 150.143 146.084 150.464 145.909C150.529 145.874 150.592 145.839 150.657 145.803C150.921 145.657 151.186 145.51 151.45 145.362C151.538 145.312 151.627 145.262 151.715 145.212C152.035 145.029 152.354 144.846 152.67 144.658C152.67 144.658 152.67 144.658 152.672 144.658C152.989 144.469 153.304 144.279 153.62 144.086C153.706 144.033 153.793 143.98 153.878 143.926C154.136 143.767 154.392 143.606 154.648 143.444C154.71 143.404 154.772 143.365 154.835 143.325C155.143 143.127 155.449 142.927 155.755 142.725C155.827 142.677 155.9 142.627 155.973 142.579C156.218 142.416 156.463 142.25 156.706 142.084C156.786 142.029 156.866 141.975 156.946 141.919C157.248 141.71 157.548 141.499 157.848 141.286C157.887 141.259 157.925 141.231 157.964 141.203C158.228 141.014 158.492 140.821 158.754 140.628C158.836 140.567 158.919 140.505 159.001 140.444C159.261 140.25 159.521 140.055 159.778 139.857C159.817 139.828 159.856 139.799 159.895 139.769C160.187 139.544 160.476 139.317 160.765 139.089C160.795 139.067 160.823 139.045 160.852 139.021C160.911 138.974 160.97 138.926 161.029 138.879C161.193 138.747 161.358 138.614 161.523 138.481C161.618 138.403 161.712 138.327 161.807 138.248C161.973 138.112 162.138 137.975 162.302 137.838C162.389 137.765 162.477 137.692 162.564 137.618C162.758 137.453 162.952 137.287 163.145 137.121C163.199 137.074 163.253 137.028 163.307 136.983C163.553 136.77 163.798 136.554 164.041 136.338C164.105 136.282 164.168 136.223 164.232 136.166C164.411 136.005 164.59 135.844 164.768 135.682C164.855 135.603 164.941 135.523 165.028 135.443C165.183 135.299 165.34 135.155 165.494 135.01C165.584 134.925 165.674 134.841 165.763 134.756C165.917 134.61 166.071 134.463 166.224 134.315C166.309 134.234 166.394 134.153 166.477 134.071C166.652 133.901 166.828 133.728 167.002 133.555C167.05 133.507 167.099 133.46 167.149 133.412C167.156 133.404 167.163 133.397 167.17 133.39C167.549 133.013 167.924 132.629 168.294 132.244C168.325 132.212 168.357 132.18 168.387 132.147C168.752 131.767 169.112 131.381 169.47 130.993C169.506 130.953 169.542 130.914 169.579 130.874C169.931 130.491 170.278 130.103 170.621 129.712C170.661 129.666 170.702 129.621 170.742 129.575C171.081 129.186 171.417 128.795 171.749 128.4C171.775 128.369 171.801 128.34 171.827 128.309C171.846 128.287 171.864 128.263 171.883 128.241C172.165 127.903 172.445 127.562 172.723 127.219C172.777 127.153 172.83 127.086 172.883 127.019C173.164 126.668 173.443 126.316 173.718 125.961C173.747 125.924 173.776 125.885 173.805 125.847C174.072 125.501 174.336 125.153 174.597 124.803C174.631 124.758 174.664 124.713 174.698 124.667C174.965 124.307 175.228 123.945 175.49 123.581C175.517 123.543 175.544 123.506 175.571 123.469C175.597 123.432 175.621 123.396 175.647 123.361C175.886 123.025 176.123 122.688 176.358 122.348C176.389 122.302 176.42 122.257 176.45 122.211C176.665 121.9 176.875 121.587 177.084 121.272C177.132 121.201 177.179 121.13 177.226 121.06C177.451 120.718 177.676 120.373 177.897 120.026C177.942 119.955 177.987 119.885 178.031 119.814C178.232 119.497 178.432 119.177 178.63 118.856C178.652 118.819 178.676 118.783 178.698 118.746C178.707 118.732 178.716 118.717 178.724 118.703C178.93 118.366 179.133 118.027 179.335 117.688C179.383 117.605 179.431 117.523 179.479 117.441C179.653 117.143 179.826 116.844 179.997 116.545C180.03 116.488 180.063 116.43 180.096 116.373C180.291 116.028 180.483 115.682 180.673 115.335C180.719 115.252 180.765 115.167 180.81 115.083C180.974 114.781 181.137 114.476 181.297 114.172C181.32 114.128 181.344 114.085 181.367 114.04C181.375 114.024 181.385 114.006 181.393 113.989C181.573 113.646 181.749 113.301 181.925 112.956C181.967 112.872 182.008 112.787 182.051 112.704C182.194 112.417 182.336 112.129 182.476 111.84C182.515 111.76 182.554 111.68 182.593 111.601C182.761 111.251 182.928 110.901 183.092 110.548C183.126 110.475 183.159 110.401 183.193 110.327C183.329 110.031 183.463 109.736 183.595 109.439C183.62 109.383 183.646 109.329 183.669 109.274C183.686 109.239 183.7 109.202 183.716 109.166C183.873 108.812 184.028 108.456 184.18 108.099C184.201 108.048 184.222 107.998 184.243 107.948C184.376 107.634 184.507 107.319 184.636 107.003C184.676 106.905 184.716 106.806 184.756 106.709C184.896 106.36 185.035 106.012 185.171 105.662C185.177 105.645 185.184 105.629 185.191 105.612C185.332 105.248 185.47 104.881 185.606 104.514C185.623 104.47 185.639 104.427 185.656 104.383C185.676 104.329 185.695 104.274 185.715 104.22C185.831 103.901 185.946 103.582 186.059 103.262C186.08 103.201 186.103 103.141 186.124 103.08C186.253 102.708 186.38 102.336 186.505 101.962C186.536 101.869 186.566 101.775 186.598 101.682C186.7 101.372 186.801 101.06 186.9 100.749C186.926 100.666 186.952 100.585 186.978 100.504C187.095 100.127 187.211 99.7511 187.324 99.3723C187.332 99.3453 187.34 99.3194 187.348 99.2923C187.365 99.2371 187.38 99.1818 187.395 99.1277C187.493 98.7948 187.589 98.4607 187.684 98.1255C187.708 98.0396 187.732 97.9526 187.757 97.8667C187.865 97.475 187.971 97.0834 188.073 96.6893C188.094 96.6082 188.115 96.5258 188.136 96.4446C188.223 96.1071 188.308 95.7695 188.39 95.4307C188.412 95.3425 188.434 95.2543 188.455 95.1661C188.55 94.7697 188.643 94.3721 188.733 93.9734C188.739 93.9475 188.745 93.9216 188.75 93.8957C188.762 93.8452 188.772 93.7934 188.783 93.7428C188.869 93.3582 188.952 92.9724 189.032 92.5854C189.046 92.5172 189.06 92.449 189.074 92.3807C189.161 91.9561 189.243 91.5315 189.323 91.1045C189.341 91.0092 189.359 90.9151 189.376 90.8199C189.456 90.387 189.534 89.9542 189.607 89.519C189.608 89.5142 189.608 89.5095 189.609 89.5048C189.682 89.0673 189.751 88.6274 189.817 88.1886C189.826 88.1345 189.835 88.0816 189.843 88.0287C189.849 87.9887 189.854 87.9498 189.86 87.9099C189.929 87.4358 189.996 86.9618 190.057 86.4854C190.068 86.4019 190.078 86.3196 190.089 86.2361C190.151 85.7456 190.21 85.2539 190.264 84.7611C190.269 84.7211 190.272 84.6822 190.276 84.6423C190.328 84.1553 190.376 83.6683 190.42 83.179C190.424 83.1249 190.43 83.0708 190.435 83.0167C190.477 82.5262 190.515 82.0345 190.549 81.5417C190.552 81.4923 190.557 81.4429 190.561 81.3935C190.564 81.3335 190.568 81.2723 190.571 81.2123C190.583 81.0406 190.592 80.8677 190.603 80.696C190.612 80.5431 190.621 80.3913 190.629 80.2384C190.638 80.0643 190.647 79.8902 190.655 79.7162C190.662 79.5644 190.669 79.4127 190.676 79.2598C190.683 79.0845 190.689 78.9093 190.696 78.734C190.702 78.5823 190.707 78.4317 190.711 78.28C190.716 78.1024 190.721 77.9259 190.724 77.7483C190.728 77.5977 190.731 77.4472 190.735 77.2966C190.738 77.1179 190.739 76.9391 190.742 76.7591C190.743 76.6097 190.745 76.4615 190.747 76.3121C190.748 76.1298 190.748 75.9475 190.747 75.7663C190.739 75.6193 190.741 75.4723 190.739 75.3253Z" fill="url(#paint2_linear)"/>
<path d="M108.589 152.865C90.9808 152.864 74.3511 145.71 61.763 132.721C49.1219 119.677 41.7152 101.898 40.9094 82.6603C40.4789 72.387 41.9163 62.256 45.1815 52.5473C48.3362 43.1692 53.0553 34.5779 59.2082 27.0123C65.3646 19.4421 72.6467 13.2797 80.8522 8.69594C89.3552 3.94628 98.4805 1.10919 107.976 0.262302C109.922 0.088218 111.891 0 113.828 0C131.435 0 148.065 7.15389 160.653 20.1443C173.294 33.19 180.701 50.9688 181.507 70.2062C181.937 80.4795 180.5 90.6105 177.234 100.319C174.08 109.697 169.361 118.289 163.208 125.854C157.051 133.424 149.769 139.587 141.564 144.171C133.062 148.92 123.936 151.757 114.44 152.604C112.494 152.777 110.526 152.865 108.593 152.865C108.593 152.865 108.59 152.865 108.589 152.865Z" fill="url(#paint3_linear)"/>
<path d="M114.368 151.773C76.6331 155.137 44.5582 125.244 41.854 84.6693C41.807 83.9906 41.7705 83.3095 41.7423 82.6238C41.0036 65.0355 45.8827 48.3576 54.6598 34.7073C66.6468 16.0663 85.9019 3.06645 108.05 1.09272C132.851 -1.11979 155.208 11.0378 168.387 31.1515C171.669 36.1588 174.381 41.6601 176.419 47.5565C178.86 54.6116 180.336 62.229 180.674 70.2415C182.419 111.85 152.732 148.354 114.368 151.773Z" fill="url(#paint4_linear)"/>
<path d="M87.7317 46.1286C87.7705 46.1369 87.8093 46.1463 87.8493 46.1557C87.9093 46.1698 87.9693 46.1851 88.0293 46.2004C88.0716 46.211 88.1128 46.2227 88.1551 46.2345C88.2081 46.2486 88.2598 46.2639 88.3116 46.2803C88.3539 46.2933 88.3962 46.3062 88.4386 46.3203C88.4903 46.3368 88.5433 46.3545 88.595 46.3721C88.6374 46.3862 88.6797 46.4015 88.7221 46.4168C88.7703 46.4344 88.8185 46.4533 88.8667 46.4721C88.9091 46.4885 88.9526 46.505 88.995 46.5227C89.0432 46.5427 89.0914 46.5626 89.1396 46.5838C89.182 46.6015 89.2243 46.6203 89.2667 46.6391C89.3137 46.6603 89.3596 46.6826 89.4066 46.7038C89.449 46.7238 89.4913 46.7438 89.5337 46.765C89.5795 46.7873 89.6254 46.812 89.6713 46.8355C89.7125 46.8567 89.7548 46.8791 89.796 46.9014C89.843 46.9273 89.8889 46.9532 89.9359 46.9802C89.9759 47.0026 90.0159 47.0261 90.0559 47.0496C90.103 47.0778 90.1488 47.1061 90.1947 47.1355C90.2335 47.1602 90.2723 47.1837 90.3112 47.2084C90.3629 47.2413 90.4135 47.2766 90.4641 47.3107C90.4982 47.3343 90.5335 47.3566 90.5676 47.3813C90.6229 47.4201 90.677 47.4601 90.7311 47.5001C90.7605 47.5213 90.7899 47.5425 90.8181 47.5636C90.904 47.6295 90.9899 47.6965 91.0745 47.7659C91.0922 47.7801 91.1098 47.7965 91.1275 47.8106C91.1933 47.8659 91.2592 47.9224 91.3251 47.98C91.3945 48.0412 91.4627 48.1035 91.5298 48.1682L108.949 64.7038L112.252 65.2896L94.8326 48.7528C94.7715 48.6952 94.7103 48.6375 94.648 48.5823C94.6409 48.5764 94.6338 48.5705 94.6268 48.5646C94.5621 48.507 94.4974 48.4517 94.4315 48.3964C94.4127 48.3811 94.3951 48.3646 94.3762 48.3494C94.2916 48.28 94.2069 48.2129 94.121 48.1482C94.1175 48.1459 94.1151 48.1435 94.1116 48.1412C94.0857 48.1212 94.0587 48.1035 94.0328 48.0835C93.9787 48.0435 93.9246 48.0035 93.8693 47.9647C93.8352 47.9412 93.7999 47.9177 93.7658 47.8942C93.7152 47.86 93.6646 47.8248 93.6129 47.7918C93.6046 47.7859 93.5952 47.7801 93.587 47.7742C93.5564 47.7554 93.5258 47.7377 93.4964 47.7189C93.4506 47.6907 93.4047 47.6613 93.3576 47.6342C93.3176 47.6107 93.2776 47.5883 93.2376 47.5648C93.1906 47.5378 93.1447 47.5119 93.0977 47.486C93.0859 47.4789 93.0742 47.4719 93.0612 47.466C93.0318 47.4507 93.0024 47.4366 92.973 47.4213C92.9271 47.3978 92.8813 47.3731 92.8354 47.3507C92.793 47.3296 92.7507 47.3096 92.7083 47.2896C92.6625 47.2672 92.6154 47.246 92.5684 47.2249C92.5531 47.2178 92.539 47.2108 92.5248 47.2049C92.4978 47.1931 92.4696 47.1813 92.4425 47.1696C92.3943 47.1484 92.3461 47.1284 92.2978 47.1084C92.2555 47.0908 92.212 47.0743 92.1696 47.0578C92.1214 47.039 92.0732 47.0202 92.0249 47.0026C92.0061 46.9955 91.9885 46.9884 91.9708 46.9814C91.9473 46.9732 91.9226 46.9649 91.8979 46.9567C91.8462 46.939 91.7944 46.9214 91.7415 46.9049C91.6991 46.8908 91.6568 46.8779 91.6144 46.8649C91.5627 46.8496 91.5098 46.8344 91.458 46.8191C91.4345 46.812 91.4098 46.805 91.3862 46.7979C91.3686 46.7932 91.3498 46.7897 91.3321 46.785C91.2722 46.7697 91.2122 46.7544 91.1522 46.7403C91.1134 46.7308 91.0745 46.7214 91.0346 46.7132C90.9699 46.6991 90.9052 46.6862 90.8405 46.6732C90.8134 46.6673 90.7852 46.6615 90.7581 46.6567C90.7428 46.6544 90.7276 46.6509 90.7111 46.6485L87.4082 46.0627C87.4517 46.071 87.4941 46.0792 87.5376 46.0886C87.6035 46.1016 87.6682 46.1145 87.7317 46.1286Z" fill="#ECD8D8"/>
<path d="M94.4103 110.455C94.3127 110.575 94.2127 110.692 94.1115 110.805C94.0868 110.834 94.061 110.859 94.0351 110.887C93.961 110.968 93.8857 111.049 93.8092 111.126C93.6928 111.245 93.5752 111.359 93.4552 111.47C93.4434 111.482 93.4305 111.491 93.4175 111.503C93.3093 111.602 93.1988 111.697 93.087 111.789C92.987 111.871 92.8847 111.952 92.7824 112.03C92.7612 112.045 92.7412 112.06 92.72 112.076C92.633 112.14 92.5448 112.203 92.4566 112.263C92.4236 112.285 92.3907 112.307 92.3578 112.33C92.2719 112.387 92.1848 112.443 92.0978 112.497C92.0731 112.512 92.0484 112.529 92.0225 112.544C91.912 112.611 91.8002 112.674 91.6873 112.736C91.6602 112.75 91.6344 112.764 91.6073 112.778C91.5179 112.825 91.4285 112.871 91.338 112.914C91.3027 112.931 91.2674 112.948 91.2321 112.965C91.1368 113.01 91.0404 113.052 90.9439 113.093C90.9227 113.103 90.9016 113.112 90.8792 113.121C90.7628 113.17 90.6451 113.214 90.5275 113.257C90.4969 113.268 90.4652 113.278 90.4334 113.29C90.3429 113.321 90.2511 113.351 90.1605 113.379C90.1241 113.39 90.0888 113.401 90.0523 113.412C89.9453 113.444 89.8382 113.473 89.73 113.5C89.7159 113.504 89.7018 113.507 89.6889 113.511C89.5677 113.54 89.4466 113.566 89.3254 113.591C89.2913 113.598 89.2572 113.604 89.2231 113.61C89.1313 113.626 89.0384 113.641 88.9467 113.655C88.9114 113.66 88.8749 113.666 88.8396 113.671C88.7173 113.687 88.5938 113.701 88.4703 113.713C87.7787 113.773 87.0823 113.744 86.3989 113.622L89.7018 114.208C90.3852 114.329 91.0815 114.359 91.7732 114.299C91.8967 114.288 92.019 114.273 92.1425 114.256C92.1778 114.252 92.2143 114.246 92.2495 114.241C92.3425 114.227 92.4342 114.212 92.526 114.195C92.5601 114.189 92.5942 114.184 92.6283 114.176C92.7494 114.153 92.8718 114.126 92.9918 114.096C93.0059 114.093 93.02 114.089 93.0329 114.086C93.1411 114.059 93.2482 114.029 93.3552 113.998C93.3917 113.987 93.427 113.975 93.4634 113.965C93.5552 113.937 93.6457 113.907 93.7363 113.875C93.7681 113.865 93.7987 113.854 93.8304 113.842C93.948 113.8 94.0657 113.755 94.1821 113.707C94.2033 113.698 94.2256 113.688 94.2468 113.679C94.3432 113.638 94.4397 113.595 94.535 113.551C94.5703 113.534 94.6055 113.518 94.6408 113.5C94.7314 113.457 94.8208 113.411 94.909 113.364C94.9361 113.35 94.962 113.337 94.989 113.321C95.1019 113.26 95.2137 113.197 95.3242 113.13C95.3489 113.114 95.3736 113.099 95.3983 113.084C95.4854 113.03 95.5724 112.974 95.6595 112.917C95.6924 112.894 95.7265 112.872 95.7594 112.85C95.8477 112.789 95.9359 112.726 96.0229 112.663C96.0429 112.647 96.0641 112.633 96.0853 112.618C96.1794 112.547 96.2723 112.474 96.364 112.399C96.3734 112.392 96.3817 112.384 96.3899 112.377C96.5016 112.285 96.6122 112.189 96.7204 112.091C96.7322 112.079 96.7451 112.07 96.7581 112.058C96.878 111.948 96.9968 111.832 97.1121 111.715C97.118 111.708 97.1251 111.703 97.1321 111.696C97.2015 111.624 97.2697 111.55 97.338 111.475C97.3627 111.448 97.3897 111.421 97.4144 111.392C97.512 111.284 97.6073 111.172 97.7002 111.057C97.7049 111.052 97.7085 111.047 97.7132 111.042L113.469 91.6056L110.166 91.0198L94.4103 110.455Z" fill="#ECD8D8"/>
<path d="M145.237 100.456C145.236 100.41 145.236 100.363 145.235 100.317C145.235 100.31 145.233 100.301 145.233 100.294C145.232 100.263 145.23 100.232 145.227 100.2C145.222 100.094 145.215 99.9898 145.206 99.8851C145.203 99.8392 145.198 99.7922 145.193 99.7463C145.184 99.6546 145.173 99.5628 145.162 99.4711C145.156 99.424 145.15 99.377 145.143 99.3311C145.129 99.2311 145.112 99.1323 145.096 99.0335C145.09 98.9982 145.084 98.9629 145.078 98.9265C145.076 98.9159 145.075 98.9065 145.073 98.8959C145.05 98.7724 145.024 98.6489 144.997 98.5254C144.991 98.5007 144.985 98.476 144.979 98.4513C144.953 98.343 144.926 98.2348 144.898 98.1278C144.886 98.0831 144.873 98.0396 144.86 97.9949C144.836 97.9067 144.809 97.8196 144.782 97.7314C144.766 97.6844 144.751 97.6373 144.736 97.5903C144.706 97.5032 144.676 97.4162 144.644 97.3303C144.629 97.288 144.613 97.2444 144.597 97.2021C144.556 97.0939 144.511 96.9868 144.466 96.8798C144.458 96.861 144.451 96.8422 144.443 96.8245C144.389 96.6998 144.331 96.5763 144.271 96.454C144.254 96.4187 144.236 96.3846 144.218 96.3493C144.186 96.287 144.156 96.2235 144.123 96.1623C144.11 96.1376 144.095 96.1129 144.081 96.087C144.059 96.0494 144.038 96.0117 144.017 95.9741C143.97 95.8894 143.921 95.8071 143.87 95.7236C143.849 95.6894 143.829 95.6542 143.807 95.6201C143.735 95.506 143.662 95.3942 143.585 95.2836C143.583 95.2801 143.58 95.2754 143.577 95.2719C143.515 95.1825 143.451 95.0943 143.387 95.0072C143.376 94.9931 143.364 94.9802 143.354 94.9661C143.305 94.9025 143.255 94.8402 143.204 94.7779C143.16 94.7226 143.116 94.6661 143.07 94.612C143.018 94.5508 142.963 94.4909 142.909 94.4297C142.871 94.3874 142.835 94.3427 142.796 94.3015C142.788 94.2921 142.779 94.2838 142.769 94.2744C142.655 94.1533 142.539 94.0345 142.417 93.9192L124.998 77.3836L140.754 57.9475C140.845 57.8357 140.932 57.7228 141.017 57.6075C141.042 57.5723 141.067 57.537 141.093 57.5017C141.127 57.4546 141.162 57.4076 141.195 57.3594C141.22 57.3229 141.245 57.2852 141.269 57.2488C141.293 57.2135 141.316 57.1782 141.34 57.1429C141.407 57.0406 141.472 56.9383 141.534 56.8347C141.543 56.8195 141.554 56.803 141.563 56.7877C141.566 56.7842 141.568 56.7806 141.571 56.7759C141.639 56.6618 141.703 56.5454 141.766 56.4289C141.783 56.396 141.801 56.3631 141.818 56.3301C141.841 56.2854 141.866 56.2407 141.888 56.1961C141.914 56.1443 141.939 56.0925 141.963 56.0396C141.978 56.0102 141.993 55.9808 142.007 55.9502C142.06 55.8373 142.112 55.7232 142.161 55.6091C142.165 55.5997 142.168 55.5903 142.173 55.5809C142.183 55.5562 142.193 55.5315 142.203 55.5068C142.246 55.4033 142.287 55.2998 142.326 55.1951C142.339 55.1598 142.353 55.1245 142.366 55.088C142.375 55.061 142.387 55.0339 142.396 55.0057C142.428 54.9151 142.459 54.8234 142.488 54.7316C142.492 54.721 142.495 54.7105 142.499 54.6999C142.533 54.5928 142.564 54.4846 142.595 54.3764C142.601 54.3552 142.606 54.3341 142.612 54.3117C142.622 54.2717 142.633 54.2317 142.643 54.1929C142.668 54.0965 142.693 54 142.714 53.9024C142.723 53.8612 142.733 53.8212 142.742 53.7801C142.747 53.7554 142.754 53.7318 142.759 53.7071C142.775 53.6271 142.789 53.546 142.804 53.466C142.81 53.4331 142.817 53.4001 142.823 53.3672C142.846 53.2378 142.866 53.1096 142.883 52.9802C142.884 52.9732 142.884 52.9661 142.886 52.959C142.891 52.9108 142.896 52.8638 142.902 52.8155C142.914 52.7203 142.924 52.625 142.933 52.5297C142.937 52.4733 142.941 52.4156 142.946 52.3592C142.95 52.2933 142.956 52.2274 142.96 52.1616C142.961 52.1427 142.961 52.1251 142.961 52.1063C142.966 52.0122 142.967 51.9181 142.969 51.824C142.97 51.7616 142.973 51.7005 142.973 51.6381C142.973 51.5346 142.97 51.4323 142.967 51.3288C142.966 51.2829 142.966 51.2359 142.964 51.19C142.964 51.1829 142.963 51.1747 142.963 51.1676C142.962 51.1359 142.96 51.1053 142.957 51.0735C142.951 50.9688 142.944 50.863 142.936 50.7583C142.933 50.7112 142.928 50.6654 142.923 50.6195C142.914 50.5278 142.903 50.436 142.893 50.3443C142.887 50.2972 142.881 50.2502 142.874 50.2043C142.86 50.1043 142.843 50.0055 142.827 49.9055C142.821 49.8702 142.815 49.835 142.809 49.7997C142.807 49.7891 142.806 49.7785 142.804 49.7691C142.781 49.6456 142.755 49.5221 142.728 49.3986C142.722 49.3739 142.716 49.3492 142.71 49.3256C142.684 49.2174 142.657 49.1092 142.628 49.0022C142.616 48.9575 142.603 48.914 142.59 48.8693C142.564 48.781 142.539 48.6928 142.51 48.6058C142.495 48.5587 142.48 48.5117 142.464 48.4646C142.435 48.3776 142.404 48.2905 142.373 48.2047C142.357 48.1623 142.342 48.1188 142.326 48.0765C142.285 47.9683 142.241 47.8612 142.195 47.7554C142.187 47.7365 142.18 47.7177 142.172 47.6977C142.117 47.573 142.06 47.4495 142 47.3284C141.982 47.2931 141.963 47.2578 141.946 47.2225C141.914 47.1602 141.883 47.0967 141.85 47.0355C141.838 47.0108 141.822 46.9861 141.809 46.9614C141.788 46.9226 141.767 46.8849 141.746 46.8473C141.699 46.7638 141.649 46.6803 141.6 46.5979C141.579 46.5638 141.559 46.5285 141.536 46.4944C141.465 46.3803 141.392 46.2686 141.315 46.158C141.313 46.1545 141.311 46.151 141.308 46.1486C141.246 46.058 141.181 45.9687 141.115 45.8804C141.105 45.8663 141.094 45.8534 141.084 45.8404C141.035 45.7769 140.985 45.7146 140.934 45.6522C140.889 45.597 140.846 45.5405 140.8 45.4864C140.748 45.4252 140.693 45.3652 140.64 45.3041C140.601 45.2617 140.565 45.217 140.526 45.1747C140.518 45.1653 140.508 45.157 140.5 45.1476C140.386 45.0265 140.27 44.9077 140.148 44.7924C140.087 44.7336 140.025 44.6771 139.963 44.6207C139.956 44.6148 139.95 44.6089 139.943 44.603C139.877 44.5454 139.811 44.4889 139.745 44.4325C139.727 44.4184 139.711 44.4031 139.693 44.3878C139.609 44.3184 139.524 44.2513 139.438 44.1867C139.434 44.1843 139.432 44.1819 139.429 44.1796C139.403 44.1596 139.376 44.1408 139.349 44.122C139.294 44.082 139.242 44.0431 139.187 44.0043C139.153 43.9796 139.118 43.9573 139.083 43.9338C139.032 43.8996 138.982 43.8655 138.931 43.8326C138.922 43.8267 138.913 43.8208 138.904 43.815C138.873 43.7961 138.843 43.7773 138.813 43.7585C138.768 43.7303 138.722 43.702 138.676 43.6738C138.636 43.6503 138.595 43.6268 138.555 43.6044C138.509 43.5785 138.462 43.5515 138.416 43.5268C138.404 43.5197 138.391 43.5127 138.379 43.5056C138.35 43.4903 138.321 43.4762 138.291 43.4609C138.245 43.4374 138.199 43.4127 138.154 43.3903C138.111 43.3692 138.069 43.3492 138.027 43.3292C137.981 43.3068 137.934 43.2857 137.888 43.2645C137.872 43.2574 137.858 43.2504 137.843 43.2433C137.816 43.2315 137.788 43.2198 137.761 43.208C137.712 43.1868 137.665 43.1669 137.617 43.1469C137.575 43.1292 137.531 43.1127 137.489 43.0963C137.441 43.0775 137.393 43.0598 137.344 43.0422C137.325 43.0351 137.308 43.0281 137.289 43.021C137.265 43.0128 137.241 43.0057 137.217 42.9963C137.165 42.9787 137.114 42.961 137.061 42.9445C137.018 42.9304 136.976 42.9175 136.934 42.9046C136.881 42.8893 136.829 42.874 136.776 42.8587C136.753 42.8516 136.729 42.8446 136.704 42.8375C136.687 42.8328 136.669 42.8293 136.65 42.8246C136.59 42.8093 136.53 42.794 136.47 42.7799C136.432 42.7705 136.393 42.761 136.354 42.7528C136.289 42.7387 136.225 42.7258 136.16 42.7128C136.133 42.7069 136.105 42.7011 136.077 42.6964C136.062 42.694 136.047 42.6905 136.03 42.6881L132.728 42.1024C132.771 42.1106 132.813 42.1188 132.857 42.1282C132.922 42.1412 132.986 42.1541 133.051 42.1682C133.09 42.1765 133.129 42.1859 133.167 42.1953C133.227 42.2094 133.287 42.2247 133.347 42.24C133.389 42.2506 133.431 42.2623 133.472 42.2741C133.525 42.2894 133.577 42.3035 133.63 42.32C133.672 42.3329 133.714 42.3458 133.757 42.36C133.809 42.3764 133.86 42.3941 133.913 42.4117C133.956 42.4258 133.998 42.4411 134.04 42.4564C134.088 42.474 134.137 42.4929 134.186 42.5117C134.228 42.5282 134.272 42.5446 134.314 42.5623C134.363 42.5823 134.411 42.6023 134.458 42.6234C134.5 42.6422 134.542 42.6599 134.585 42.6787C134.631 42.6999 134.678 42.7211 134.724 42.7434C134.766 42.7634 134.808 42.7834 134.851 42.8046C134.897 42.8269 134.942 42.8516 134.988 42.8751C135.029 42.8963 135.072 42.9187 135.113 42.941C135.16 42.9669 135.206 42.9928 135.253 43.0198C135.293 43.0422 135.333 43.0657 135.373 43.0892C135.42 43.1163 135.466 43.1457 135.512 43.1739C135.551 43.1986 135.589 43.2221 135.628 43.2468C135.68 43.2798 135.73 43.3139 135.781 43.3492C135.815 43.3727 135.85 43.395 135.885 43.4197C135.939 43.4574 135.993 43.4974 136.047 43.5374C136.076 43.5597 136.107 43.5809 136.136 43.6032C136.222 43.6679 136.308 43.7362 136.392 43.8056C136.409 43.8197 136.426 43.835 136.442 43.8491C136.509 43.9055 136.575 43.962 136.641 44.0196C136.71 44.0808 136.779 44.1443 136.847 44.2078C136.968 44.3231 137.084 44.4419 137.198 44.563C137.247 44.6136 137.293 44.6666 137.338 44.7195C137.393 44.7795 137.447 44.8395 137.498 44.9018C137.544 44.9559 137.589 45.0124 137.634 45.0677C137.684 45.13 137.735 45.1923 137.783 45.2559C137.861 45.357 137.936 45.4605 138.009 45.5652C138.011 45.5687 138.014 45.5711 138.016 45.5746C138.092 45.6852 138.165 45.7981 138.237 45.911C138.258 45.9451 138.279 45.9804 138.301 46.0145C138.351 46.0969 138.399 46.1804 138.448 46.2639C138.469 46.3015 138.49 46.3392 138.511 46.378C138.558 46.4639 138.603 46.5509 138.648 46.6391C138.665 46.6744 138.684 46.7097 138.702 46.7461C138.762 46.8685 138.818 46.9908 138.872 47.1155C138.88 47.1355 138.889 47.1555 138.897 47.1743C138.942 47.2802 138.985 47.386 139.026 47.4931C139.043 47.5354 139.058 47.5789 139.075 47.6224C139.106 47.7083 139.137 47.7942 139.166 47.8812C139.182 47.9283 139.198 47.9753 139.212 48.0235C139.24 48.1106 139.266 48.1976 139.291 48.2858C139.304 48.3305 139.317 48.3752 139.329 48.4199C139.358 48.527 139.385 48.6352 139.41 48.7434C139.416 48.7681 139.423 48.7916 139.427 48.8163C139.458 48.9492 139.485 49.0833 139.51 49.2174C139.517 49.2527 139.522 49.2892 139.527 49.3245C139.544 49.4233 139.56 49.5221 139.574 49.6209C139.582 49.6679 139.587 49.715 139.593 49.762C139.605 49.8538 139.616 49.9455 139.625 50.0384C139.63 50.0843 139.634 50.1314 139.638 50.1772C139.647 50.2819 139.654 50.3878 139.659 50.4925C139.66 50.5242 139.664 50.5548 139.665 50.5866C139.667 50.6407 139.667 50.6948 139.669 50.7477C139.672 50.85 139.674 50.9536 139.674 51.0571C139.674 51.1194 139.672 51.1817 139.671 51.2429C139.669 51.337 139.667 51.4311 139.663 51.5252C139.659 51.6099 139.652 51.6946 139.646 51.7793C139.641 51.8357 139.639 51.8922 139.633 51.9498C139.625 52.0451 139.613 52.1404 139.603 52.2357C139.597 52.2839 139.592 52.3321 139.586 52.3803C139.569 52.5168 139.547 52.6532 139.524 52.7885C139.518 52.8214 139.511 52.8544 139.505 52.8873C139.486 52.992 139.465 53.0967 139.443 53.2013C139.433 53.2425 139.424 53.2837 139.414 53.3237C139.392 53.4201 139.369 53.5178 139.344 53.6142C139.333 53.6542 139.324 53.693 139.312 53.733C139.277 53.8624 139.239 53.9918 139.198 54.1212C139.195 54.1318 139.191 54.1423 139.187 54.1529C139.15 54.2717 139.109 54.3905 139.065 54.5081C139.052 54.5434 139.039 54.5787 139.025 54.6152C138.986 54.7199 138.945 54.8234 138.903 54.9269C138.892 54.9516 138.883 54.9763 138.872 55.001C138.819 55.1257 138.764 55.248 138.706 55.3703C138.692 55.3997 138.677 55.4291 138.663 55.4597C138.616 55.5574 138.566 55.6538 138.516 55.7503C138.498 55.7832 138.482 55.8161 138.464 55.8491C138.399 55.969 138.332 56.089 138.262 56.2078C138.252 56.2231 138.242 56.2396 138.232 56.2549C138.17 56.3584 138.105 56.4619 138.038 56.563C138.015 56.5983 137.991 56.6336 137.968 56.6689C137.91 56.7536 137.851 56.8383 137.791 56.9218C137.765 56.9571 137.741 56.9935 137.715 57.0288C137.63 57.1429 137.543 57.257 137.453 57.3688L121.697 76.8049L139.116 93.3405C139.237 93.4558 139.354 93.5746 139.467 93.6957C139.516 93.7463 139.562 93.7992 139.607 93.851C139.661 93.911 139.716 93.971 139.769 94.0333C139.814 94.0874 139.858 94.1439 139.903 94.1992C139.953 94.2615 140.004 94.3238 140.052 94.3874C140.128 94.4873 140.203 94.5885 140.274 94.692C140.278 94.6967 140.281 94.7014 140.284 94.7061C140.36 94.8167 140.433 94.9296 140.505 95.0425C140.526 95.0766 140.547 95.1119 140.568 95.146C140.619 95.2284 140.667 95.3119 140.715 95.3954C140.737 95.433 140.758 95.4707 140.779 95.5095C140.826 95.5965 140.872 95.6836 140.917 95.7718C140.934 95.8071 140.953 95.8412 140.969 95.8765C141.029 95.9988 141.087 96.1223 141.141 96.247C141.149 96.2658 141.156 96.2846 141.165 96.3034C141.211 96.4105 141.254 96.5175 141.295 96.6257C141.312 96.6681 141.327 96.7116 141.342 96.7539C141.374 96.8398 141.405 96.9269 141.434 97.0139C141.449 97.0609 141.465 97.108 141.48 97.155C141.508 97.2421 141.534 97.3303 141.559 97.4185C141.572 97.4632 141.585 97.5067 141.596 97.5514C141.626 97.6585 141.653 97.7667 141.678 97.8749C141.683 97.8996 141.691 97.9243 141.695 97.949C141.726 98.0819 141.753 98.216 141.778 98.3501C141.785 98.3854 141.789 98.4207 141.795 98.4571C141.813 98.5559 141.828 98.6559 141.842 98.7547C141.849 98.8018 141.855 98.8488 141.861 98.8959C141.873 98.9876 141.883 99.0794 141.892 99.1711C141.896 99.217 141.901 99.264 141.905 99.3099C141.914 99.4146 141.921 99.5205 141.926 99.6251C141.927 99.6569 141.93 99.6875 141.932 99.7192C141.934 99.7734 141.934 99.8263 141.935 99.8804C141.938 99.9839 141.941 100.086 141.941 100.19C141.941 100.252 141.939 100.313 141.938 100.376C141.935 100.47 141.934 100.564 141.929 100.658C141.926 100.743 141.919 100.827 141.913 100.912C141.908 100.968 141.906 101.026 141.9 101.083C141.892 101.178 141.88 101.273 141.869 101.367C141.863 101.415 141.859 101.464 141.853 101.512C141.835 101.648 141.814 101.785 141.79 101.92C141.785 101.953 141.778 101.986 141.772 102.02C141.753 102.125 141.732 102.229 141.709 102.333C141.7 102.374 141.691 102.415 141.681 102.455C141.659 102.552 141.635 102.649 141.611 102.746C141.6 102.786 141.591 102.826 141.579 102.865C141.543 102.994 141.506 103.123 141.466 103.251C141.462 103.262 141.459 103.273 141.455 103.284C141.418 103.403 141.376 103.522 141.333 103.641C141.32 103.676 141.307 103.711 141.294 103.747C141.255 103.851 141.214 103.956 141.171 104.06C141.16 104.084 141.151 104.109 141.14 104.134C141.087 104.258 141.032 104.382 140.974 104.504C140.96 104.534 140.946 104.563 140.931 104.594C140.884 104.691 140.834 104.788 140.784 104.884C140.766 104.917 140.75 104.95 140.732 104.982C140.667 105.102 140.6 105.222 140.53 105.34C140.52 105.356 140.511 105.371 140.501 105.386C140.439 105.49 140.373 105.593 140.307 105.696C140.284 105.731 140.26 105.766 140.237 105.802C140.179 105.886 140.12 105.971 140.06 106.054C140.034 106.09 140.01 106.125 139.984 106.16C139.899 106.274 139.812 106.389 139.721 106.5C139.624 106.62 139.524 106.738 139.423 106.852C139.399 106.879 139.373 106.904 139.35 106.931C139.274 107.013 139.199 107.095 139.122 107.174C139.005 107.293 138.888 107.407 138.768 107.518C138.753 107.531 138.739 107.542 138.725 107.555C138.618 107.652 138.51 107.746 138.401 107.836C138.301 107.919 138.199 108 138.096 108.076C138.076 108.092 138.055 108.106 138.035 108.121C137.948 108.186 137.859 108.248 137.771 108.309C137.738 108.332 137.705 108.354 137.672 108.376C137.587 108.434 137.5 108.489 137.413 108.542C137.388 108.558 137.362 108.574 137.337 108.589C137.227 108.656 137.115 108.72 137.002 108.781C136.976 108.795 136.949 108.808 136.922 108.822C136.833 108.869 136.743 108.915 136.653 108.959C136.617 108.975 136.583 108.993 136.548 109.009C136.453 109.054 136.356 109.096 136.259 109.137C136.237 109.147 136.216 109.156 136.195 109.164C136.079 109.213 135.961 109.257 135.842 109.301C135.812 109.313 135.78 109.322 135.749 109.333C135.659 109.364 135.567 109.394 135.475 109.422C135.439 109.433 135.403 109.444 135.367 109.455C135.26 109.487 135.152 109.516 135.045 109.543C135.031 109.547 135.018 109.55 135.004 109.554C134.882 109.583 134.761 109.609 134.639 109.634C134.605 109.641 134.571 109.647 134.537 109.653C134.444 109.669 134.352 109.684 134.259 109.698C134.224 109.703 134.188 109.709 134.152 109.714C134.03 109.73 133.906 109.744 133.783 109.756C133.091 109.816 132.395 109.787 131.71 109.666L135.013 110.251C135.698 110.372 136.393 110.402 137.086 110.342C137.209 110.331 137.331 110.316 137.455 110.3C137.491 110.295 137.527 110.289 137.562 110.284C137.655 110.27 137.747 110.255 137.839 110.238C137.874 110.232 137.908 110.227 137.942 110.22C138.064 110.196 138.185 110.169 138.306 110.14C138.321 110.136 138.334 110.132 138.348 110.129C138.456 110.102 138.563 110.073 138.67 110.041C138.706 110.03 138.742 110.02 138.778 110.008C138.87 109.98 138.96 109.949 139.052 109.918C139.083 109.908 139.115 109.897 139.145 109.887C139.264 109.844 139.382 109.798 139.498 109.75C139.519 109.742 139.54 109.731 139.562 109.723C139.658 109.682 139.754 109.64 139.851 109.595C139.886 109.578 139.921 109.562 139.956 109.544C140.046 109.501 140.136 109.455 140.225 109.408C140.252 109.394 140.278 109.381 140.305 109.367C140.418 109.306 140.53 109.242 140.64 109.175C140.665 109.16 140.691 109.143 140.715 109.128C140.802 109.074 140.889 109.019 140.975 108.962C141.008 108.94 141.041 108.917 141.074 108.895C141.162 108.834 141.251 108.772 141.338 108.707C141.358 108.692 141.379 108.677 141.399 108.662C141.493 108.592 141.586 108.52 141.676 108.445C141.686 108.438 141.694 108.429 141.702 108.422C141.813 108.332 141.921 108.238 142.027 108.141C142.041 108.128 142.055 108.116 142.069 108.103C142.189 107.993 142.307 107.879 142.423 107.76C142.429 107.754 142.436 107.748 142.442 107.741C142.514 107.667 142.583 107.591 142.654 107.514C142.677 107.488 142.702 107.464 142.726 107.438C142.822 107.33 142.917 107.218 143.01 107.104C143.015 107.098 143.02 107.092 143.024 107.086C143.115 106.974 143.202 106.861 143.287 106.746C143.313 106.711 143.337 106.676 143.363 106.64C143.397 106.593 143.433 106.546 143.465 106.498C143.491 106.461 143.515 106.424 143.54 106.387C143.563 106.352 143.587 106.317 143.61 106.281C143.677 106.179 143.742 106.076 143.805 105.972C143.815 105.957 143.824 105.942 143.834 105.926C143.836 105.923 143.838 105.919 143.841 105.914C143.909 105.8 143.974 105.684 144.036 105.568C144.054 105.535 144.07 105.502 144.088 105.47C144.111 105.425 144.136 105.38 144.158 105.335C144.184 105.283 144.209 105.23 144.235 105.178C144.249 105.149 144.264 105.119 144.278 105.09C144.331 104.977 144.384 104.863 144.432 104.748C144.436 104.738 144.439 104.729 144.444 104.719C144.455 104.695 144.464 104.67 144.475 104.645C144.517 104.542 144.558 104.437 144.598 104.332C144.611 104.297 144.624 104.262 144.637 104.227C144.646 104.2 144.658 104.171 144.668 104.144C144.699 104.054 144.73 103.962 144.759 103.871C144.763 103.861 144.766 103.85 144.77 103.838C144.804 103.731 144.836 103.623 144.866 103.515C144.872 103.494 144.877 103.473 144.883 103.451C144.893 103.411 144.904 103.371 144.915 103.333C144.939 103.236 144.963 103.14 144.985 103.043C144.995 103.002 145.004 102.961 145.013 102.92C145.018 102.895 145.025 102.872 145.03 102.847C145.046 102.767 145.06 102.686 145.076 102.606C145.082 102.573 145.089 102.54 145.095 102.507C145.117 102.378 145.137 102.249 145.155 102.12C145.156 102.113 145.156 102.106 145.157 102.099C145.163 102.051 145.167 102.002 145.173 101.954C145.185 101.859 145.196 101.765 145.204 101.669C145.209 101.613 145.212 101.557 145.217 101.499C145.222 101.433 145.227 101.367 145.231 101.3C145.232 101.281 145.232 101.264 145.232 101.245C145.237 101.151 145.238 101.057 145.24 100.963C145.242 100.9 145.244 100.839 145.244 100.777C145.243 100.663 145.239 100.559 145.237 100.456Z" fill="#ECD8D8"/>
<path d="M139.112 93.3335L121.693 76.7979L137.449 57.3617C140.632 53.4343 140.36 47.5436 136.841 44.2031C135.082 42.534 132.844 41.8177 130.648 42.0094C128.452 42.2012 126.298 43.3021 124.707 45.2641L108.948 64.7026L91.5295 48.1671C89.7698 46.498 87.5314 45.7816 85.3354 45.9734C83.1394 46.1651 80.9857 47.2661 79.3954 49.228C76.2125 53.1555 76.4842 59.0461 80.0035 62.3866L97.4225 78.921L81.6679 98.3596C78.485 102.285 78.7567 108.175 82.276 111.516C84.0345 113.186 86.2729 113.902 88.4689 113.711C90.665 113.519 92.8187 112.418 94.4101 110.455L110.166 91.0175L127.586 107.552C129.346 109.222 131.584 109.938 133.78 109.747C135.976 109.555 138.13 108.454 139.72 106.491C142.904 102.563 142.631 96.6728 139.112 93.3335Z" fill="white"/>
</g>
<defs>
<radialGradient id="paint0_radial" cx="0" cy="0" r="1" gradientUnits="userSpaceOnUse" gradientTransform="translate(121.605 153.684) scale(116.979 16.4004)">
<stop stop-color="#9D9D9C"/>
<stop offset="0.1771" stop-color="#BDBDBC"/>
<stop offset="0.3782" stop-color="#DADAD9"/>
<stop offset="0.5778" stop-color="#EEEEEE"/>
<stop offset="0.7734" stop-color="#FBFBFB"/>
<stop offset="0.96" stop-color="white"/>
</radialGradient>
<linearGradient id="paint1_linear" x1="95.472" y1="78.1527" x2="191.573" y2="78.1527" gradientUnits="userSpaceOnUse">
<stop stop-color="#BB1F1E"/>
<stop offset="1" stop-color="#9E1B1A"/>
</linearGradient>
<linearGradient id="paint2_linear" x1="95.643" y1="78.1439" x2="190.74" y2="78.1439" gradientUnits="userSpaceOnUse">
<stop stop-color="#910606"/>
<stop offset="1" stop-color="#BB1F1E"/>
</linearGradient>
<linearGradient id="paint3_linear" x1="58.3358" y1="129.305" x2="164.081" y2="23.5598" gradientUnits="userSpaceOnUse">
<stop stop-color="#FF716E"/>
<stop offset="1" stop-color="#E40707"/>
</linearGradient>
<linearGradient id="paint4_linear" x1="41.669" y1="76.4325" x2="180.747" y2="76.4325" gradientUnits="userSpaceOnUse">
<stop stop-color="#FF313D"/>
<stop offset="1" stop-color="#E9423E"/>
</linearGradient>
<clipPath id="clip0">
<rect width="232.407" height="180" fill="white"/>
</clipPath>
</defs>
</svg>
