<svg width="40" height="40" viewBox="0 0 40 40" fill="none" xmlns="http://www.w3.org/2000/svg">
<path fill-rule="evenodd" clip-rule="evenodd" d="M14.4106 10.1591C14.0228 9.23031 13.7287 9.195 13.1412 9.17125C12.9412 9.15969 12.7184 9.14812 12.4713 9.14812C11.7069 9.14812 10.9078 9.37156 10.4256 9.86531C9.83813 10.465 8.38031 11.8641 8.38031 14.7328C8.38031 17.6019 10.4725 20.3766 10.7547 20.765C11.0487 21.1525 14.8338 27.1256 20.7109 29.56C25.3069 31.4647 26.6706 31.2881 27.7166 31.065C29.2447 30.7359 31.1606 29.6066 31.6428 28.2431C32.1247 26.8791 32.1247 25.715 31.9834 25.4681C31.8425 25.2213 31.4544 25.0806 30.8669 24.7863C30.2794 24.4922 27.4228 23.0813 26.8822 22.8931C26.3531 22.6934 25.8478 22.7641 25.4484 23.3284C24.8841 24.1163 24.3319 24.9159 23.885 25.3978C23.5325 25.7741 22.9562 25.8212 22.4744 25.6213C21.8278 25.3512 20.0178 24.7156 17.7844 22.7288C16.0562 21.1888 14.8809 19.2725 14.5403 18.6962C14.1994 18.1084 14.505 17.7672 14.7753 17.45C15.0694 17.0853 15.3512 16.8269 15.645 16.4856C15.9391 16.1447 16.1034 15.9684 16.2916 15.5684C16.4916 15.1806 16.3503 14.7806 16.2094 14.4866C16.0681 14.1919 14.8928 11.3228 14.4106 10.1591ZM19.9941 0C8.96844 0 0 8.97094 0 19.9997C0 24.3734 1.41063 28.43 3.80844 31.7222L1.31625 39.1531L9.00375 36.6963C12.1656 38.7891 15.9387 40 20.0059 40C31.0316 40 40 31.0284 40 20.0003C40 8.97156 31.0316 0.000625 20.0059 0.000625H19.9944V0H19.9941Z" fill="#365899"/>
</svg>
