<?xml version="1.0" encoding="utf-8"?>
<!-- Generator: Adobe Illustrator 24.1.2, SVG Export Plug-In . SVG Version: 6.00 Build 0)  -->
<svg version="1.1" id="Layer_1" xmlns="http://www.w3.org/2000/svg" xmlns:xlink="http://www.w3.org/1999/xlink" x="0px" y="0px"
	 viewBox="0 0 260.99 1130.32" style="enable-background:new 0 0 260.99 1130.32;" xml:space="preserve">
<style type="text/css">
	.st0{fill:url(#SVGID_1_);}
	.st1{fill:#59B58C;}
	.st2{fill:#FFFFFF;}
	.st3{fill:#1C9AC5;}
	.st4{fill:#E9B44B;}
</style>
<g>
	
		<linearGradient id="SVGID_1_" gradientUnits="userSpaceOnUse" x1="-417.2003" y1="573.7909" x2="710.2015" y2="573.7909" gradientTransform="matrix(6.123234e-17 -1 1 6.123234e-17 -433.3003 710.2015)">
		<stop  offset="0" style="stop-color:#36589A"/>
		<stop  offset="0.1863" style="stop-color:#34619F"/>
		<stop  offset="0.5566" style="stop-color:#2F78AE"/>
		<stop  offset="1" style="stop-color:#1C9AC5"/>
	</linearGradient>
	<path class="st0" d="M259.94,0v1127.4H53.77c-18.08,0-32.73-14.64-32.73-32.73V32.73C21.04,14.64,35.69,0,53.77,0L259.94,0
		L259.94,0z"/>
	<path class="st1" d="M68.71,987.92v78.2c0,3.16-2.57,5.73-5.73,5.73l0,0c-3.16,0-5.73-2.57-5.73-5.73v-78.2
		c0-3.16,2.57-5.73,5.73-5.73l0,0C66.14,982.2,68.71,984.75,68.71,987.92z"/>
	<path class="st2" d="M218.08,987.92v78.2c0,3.16-2.57,5.73-5.73,5.73l0,0c-3.16,0-5.73-2.57-5.73-5.73v-78.2
		c0-3.16,2.57-5.73,5.73-5.73l0,0C215.53,982.2,218.08,984.75,218.08,987.92z"/>
	<path class="st3" d="M160.06,887.9v78.2c0,3.16-2.57,5.73-5.73,5.73l0,0c-3.16,0-5.73-2.57-5.73-5.73v-78.2
		c0-3.16,2.57-5.73,5.73-5.73l0,0C157.49,882.17,160.06,884.74,160.06,887.9z"/>
	<path class="st1" d="M139.1,715.74v78.2c0,3.16-2.57,5.73-5.73,5.73l0,0c-3.16,0-5.73-2.57-5.73-5.73v-78.2
		c0-3.16,2.57-5.73,5.73-5.73l0,0C136.53,710.02,139.1,712.57,139.1,715.74z"/>
	<path class="st1" d="M141.6,402.05v78.2c0,3.16-2.57,5.73-5.73,5.73l0,0c-3.16,0-5.73-2.57-5.73-5.73v-78.2
		c0-3.16,2.57-5.73,5.73-5.73l0,0C139.03,396.33,141.6,398.89,141.6,402.05z"/>
	<path class="st1" d="M66.46,398.58v78.2c0,3.16-2.57,5.73-5.73,5.73l0,0c-3.16,0-5.73-2.57-5.73-5.73v-78.2
		c0-3.16,2.57-5.73,5.73-5.73l0,0C63.9,392.86,66.46,395.44,66.46,398.58z"/>
	<path class="st2" d="M87.97,575.11v78.2c0,3.16-2.57,5.73-5.73,5.73l0,0c-3.16,0-5.73-2.57-5.73-5.73v-78.2
		c0-3.16,2.57-5.73,5.73-5.73l0,0C85.41,569.38,87.97,571.95,87.97,575.11z"/>
	<path class="st2" d="M60.35,741.42v78.2c0,3.16-2.57,5.73-5.73,5.73l0,0c-3.16,0-5.73-2.57-5.73-5.73v-78.2
		c0-3.16,2.57-5.73,5.73-5.73l0,0C57.78,735.69,60.35,738.26,60.35,741.42z"/>
	<path class="st3" d="M188.81,569.31v78.2c0,3.16-2.57,5.73-5.73,5.73l0,0c-3.16,0-5.73-2.57-5.73-5.73v-78.2
		c0-3.16,2.57-5.73,5.73-5.73l0,0C186.24,563.59,188.81,566.14,188.81,569.31z"/>
	<path class="st3" d="M222.04,732.11v78.2c0,3.16-2.57,5.73-5.73,5.73l0,0c-3.16,0-5.73-2.57-5.73-5.73v-78.2
		c0-3.16,2.57-5.73,5.73-5.73l0,0C219.49,726.38,222.04,728.93,222.04,732.11z"/>
	<path class="st1" d="M227.85,426.43v78.21c0,3.16-2.57,5.73-5.73,5.73l0,0c-3.16,0-5.73-2.57-5.73-5.73v-78.2
		c0-3.16,2.57-5.73,5.73-5.73l0,0C225.32,420.71,227.85,423.27,227.85,426.43z"/>
	<circle class="st2" cx="107.94" cy="971.82" r="5.19"/>
	<circle class="st3" cx="171.99" cy="852.16" r="5.19"/>
	<circle class="st1" cx="124.75" cy="608.4" r="5.19"/>
	<circle class="st1" cx="221" cy="371.93" r="5.19"/>
	<polygon class="st1" points="98.19,385.85 111.84,386.21 111.45,399.86 	"/>
	<polygon class="st2" points="194.83,556.57 208.46,556.93 208.12,570.57 	"/>
	<polygon class="st2" points="150.72,764.2 164.36,764.56 163.99,778.22 	"/>
	<path class="st1" d="M139.1,233.68v78.2c0,3.16-2.57,5.73-5.73,5.73l0,0c-3.16,0-5.73-2.57-5.73-5.73v-78.2
		c0-3.16,2.57-5.73,5.73-5.73l0,0C136.53,227.95,139.1,230.54,139.1,233.68z"/>
	<path class="st4" d="M87.97,93.04v78.2c0,3.16-2.57,5.73-5.73,5.73l0,0c-3.16,0-5.73-2.57-5.73-5.73v-78.2
		c0-3.16,2.57-5.73,5.73-5.73l0,0C85.41,87.31,87.97,89.88,87.97,93.04z"/>
	<path class="st2" d="M60.35,259.38v78.2c0,3.16-2.57,5.73-5.73,5.73l0,0c-3.16,0-5.73-2.57-5.73-5.73v-78.2
		c0-3.16,2.57-5.73,5.73-5.73l0,0C57.78,253.66,60.35,256.23,60.35,259.38z"/>
	<path class="st1" d="M188.81,87.26v78.2c0,3.16-2.57,5.73-5.73,5.73l0,0c-3.16,0-5.73-2.57-5.73-5.73v-78.2
		c0-3.16,2.57-5.73,5.73-5.73l0,0C186.24,81.54,188.81,84.11,188.81,87.26z"/>
	<path class="st3" d="M222.04,250.04v78.2c0,3.16-2.57,5.73-5.73,5.73l0,0c-3.16,0-5.73-2.57-5.73-5.73v-78.2
		c0-3.16,2.57-5.73,5.73-5.73l0,0C219.49,244.31,222.04,246.9,222.04,250.04z"/>
	<circle class="st4" cx="124.75" cy="126.35" r="5.19"/>
	<polygon class="st4" points="195.19,88.54 208.85,88.18 208.46,74.52 	"/>
	<polygon class="st4" points="150.72,282.15 164.36,282.52 163.99,296.15 	"/>
	<polygon class="st4" points="101.48,946.95 111.74,947.2 111.45,957.46 	"/>
</g>
</svg>
