<?xml version="1.0" encoding="utf-8"?>
<!-- Generator: Adobe Illustrator 24.1.2, SVG Export Plug-In . SVG Version: 6.00 Build 0)  -->
<svg version="1.1" id="Layer_1" xmlns="http://www.w3.org/2000/svg" xmlns:xlink="http://www.w3.org/1999/xlink" x="0px" y="0px"
	 viewBox="0 0 300 701.7" style="enable-background:new 0 0 300 701.7;" xml:space="preserve">
<style type="text/css">
	.st0{fill:url(#SVGID_1_);}
	.st1{fill:#1C9AC5;}
	.st2{fill:#59B58C;}
	.st3{fill:#FFFFFF;}
	.st4{fill:#E9B44B;}
</style>
<linearGradient id="SVGID_1_" gradientUnits="userSpaceOnUse" x1="148.6765" y1="709.3601" x2="153.0438" y2="-43.9269">
	<stop  offset="0" style="stop-color:#36589A"/>
	<stop  offset="0.1863" style="stop-color:#34619F"/>
	<stop  offset="0.5566" style="stop-color:#2F78AE"/>
	<stop  offset="1" style="stop-color:#1C9AC5"/>
</linearGradient>
<rect y="1" class="st0" width="301.5" height="701.7"/>
<path class="st1" d="M185.5,657.1v39.1c0,1.6-1.9,2.9-4.3,2.9l0,0c-2.4,0-4.3-1.3-4.3-2.9v-39.1c0-1.6,1.9-2.9,4.3-2.9l0,0
	C183.5,654.2,185.5,655.5,185.5,657.1z"/>
<path class="st2" d="M161.6,487.8V566c0,3.2-2.6,5.7-5.7,5.7l0,0c-3.2,0-5.7-2.6-5.7-5.7v-78.2c0-3.2,2.6-5.7,5.7-5.7l0,0
	C159,482.1,161.6,484.6,161.6,487.8z"/>
<path class="st2" d="M164.1,174.1v78.2c0,3.2-2.6,5.7-5.7,5.7l0,0c-3.2,0-5.7-2.6-5.7-5.7v-78.2c0-3.2,2.6-5.7,5.7-5.7l0,0
	C161.5,168.4,164.1,170.9,164.1,174.1z"/>
<path class="st2" d="M89,170.6v78.2c0,3.2-2.6,5.7-5.7,5.7l0,0c-3.2,0-5.7-2.6-5.7-5.7v-78.2c0-3.2,2.6-5.7,5.7-5.7l0,0
	C86.4,164.9,89,167.5,89,170.6z"/>
<path class="st3" d="M110.5,347.2v78.2c0,3.2-2.6,5.7-5.7,5.7l0,0c-3.2,0-5.7-2.6-5.7-5.7v-78.2c0-3.2,2.6-5.7,5.7-5.7l0,0
	C107.9,341.4,110.5,344,110.5,347.2z"/>
<path class="st3" d="M82.8,513.5v78.2c0,3.2-2.6,5.7-5.7,5.7l0,0c-3.2,0-5.7-2.6-5.7-5.7v-78.2c0-3.2,2.6-5.7,5.7-5.7l0,0
	C80.3,507.7,82.8,510.3,82.8,513.5z"/>
<path class="st1" d="M211.3,341.4v78.2c0,3.2-2.6,5.7-5.7,5.7l0,0c-3.2,0-5.7-2.6-5.7-5.7v-78.2c0-3.2,2.6-5.7,5.7-5.7l0,0
	C208.7,335.6,211.3,338.2,211.3,341.4z"/>
<path class="st1" d="M244.5,504.2v78.2c0,3.2-2.6,5.7-5.7,5.7l0,0c-3.2,0-5.7-2.6-5.7-5.7v-78.2c0-3.2,2.6-5.7,5.7-5.7l0,0
	C242,498.4,244.5,501,244.5,504.2z"/>
<path class="st2" d="M250.4,198.5v78.2c0,3.2-2.6,5.7-5.7,5.7l0,0c-3.2,0-5.7-2.6-5.7-5.7v-78.2c0-3.2,2.6-5.7,5.7-5.7l0,0
	C247.8,192.8,250.4,195.3,250.4,198.5z"/>
<circle class="st1" cx="194.5" cy="624.2" r="5.2"/>
<circle class="st2" cx="147.3" cy="380.5" r="5.2"/>
<circle class="st2" cx="243.5" cy="144" r="5.2"/>
<polygon class="st2" points="120.7,157.9 134.3,158.3 133.9,171.9 "/>
<polygon class="st2" points="43.8,153 57.4,153.4 57,167 "/>
<polygon class="st2" points="92.3,612 105.9,612.4 105.5,626 "/>
<polygon class="st3" points="217.3,328.6 231,329 230.6,342.6 "/>
<polygon class="st3" points="173.2,536.3 186.9,536.6 186.5,550.3 "/>
<path class="st2" d="M161.6,5.7v78.2c0,3.2-2.6,5.7-5.7,5.7l0,0c-3.2,0-5.7-2.6-5.7-5.7V5.7c0-3.2,2.6-5.7,5.7-5.7l0,0
	C159,0,161.6,2.6,161.6,5.7z"/>
<path class="st3" d="M82.8,31.4v78.2c0,3.2-2.6,5.7-5.7,5.7l0,0c-3.2,0-5.7-2.6-5.7-5.7V31.4c0-3.2,2.6-5.7,5.7-5.7l0,0
	C80.3,25.7,82.8,28.3,82.8,31.4z"/>
<path class="st1" d="M244.5,22.1v78.2c0,3.2-2.6,5.7-5.7,5.7l0,0c-3.2,0-5.7-2.6-5.7-5.7V22.1c0-3.2,2.6-5.7,5.7-5.7l0,0
	C242,16.4,244.5,18.9,244.5,22.1z"/>
<polygon class="st4" points="173.2,54.2 186.9,54.6 186.5,68.2 "/>
<path class="st1" d="M49.2,656.2v39.1c0,1.6-1.9,2.9-4.3,2.9l0,0c-2.4,0-4.3-1.3-4.3-2.9v-39.1c0-1.6,1.9-2.9,4.3-2.9l0,0
	C47.2,653.3,49.2,654.6,49.2,656.2z"/>
<path class="st2" d="M25.3,486.9v78.2c0,3.2-2.6,5.7-5.7,5.7l0,0c-3.2,0-5.7-2.6-5.7-5.7v-78.2c0-3.2,2.6-5.7,5.7-5.7l0,0
	C22.7,481.2,25.3,483.7,25.3,486.9z"/>
<path class="st2" d="M27.8,173.2v78.2c0,3.2-2.6,5.7-5.7,5.7l0,0c-3.2,0-5.7-2.6-5.7-5.7v-78.2c0-3.2,2.6-5.7,5.7-5.7l0,0
	C25.2,167.5,27.8,170,27.8,173.2z"/>
<path class="st1" d="M55,353.5v78.2c0,3.2-2.6,5.7-5.7,5.7l0,0c-3.2,0-5.7-2.6-5.7-5.7v-78.2c0-3.2,2.6-5.7,5.7-5.7l0,0
	C52.4,347.7,55,350.3,55,353.5z"/>
<circle class="st1" cx="58.2" cy="623.3" r="5.2"/>
<path class="st2" d="M25.3,4.8V83c0,3.2-2.6,5.7-5.7,5.7l0,0c-3.2,0-5.7-2.6-5.7-5.7V4.8c0-3.2,2.6-5.7,5.7-5.7l0,0
	C22.7-0.9,25.3,1.7,25.3,4.8z"/>
<polygon class="st4" points="36.9,53.3 50.6,53.7 50.2,67.3 "/>
</svg>
