<svg xmlns="http://www.w3.org/2000/svg" viewBox="0 0 210 297"><defs><linearGradient id="a" x1="0" x2="1" y1="0" y2="0" gradientTransform="rotate(90 -81.481 656.034) scale(133.0555)" gradientUnits="userSpaceOnUse" spreadMethod="pad"><stop offset="0" stop-color="#fff"/><stop offset=".002" stop-color="#fff"/><stop offset="1" stop-color="#fff" stop-opacity="0"/></linearGradient><linearGradient id="b" x1="0" x2="1" y1="0" y2="0" gradientTransform="translate(760.371 618.744) scale(172.21559)" gradientUnits="userSpaceOnUse" spreadMethod="pad"><stop offset="0" stop-color="#fff"/><stop offset=".002" stop-color="#fff"/><stop offset="1" stop-color="#fff" stop-opacity="0"/></linearGradient><linearGradient id="af" x1="0" x2="1" y1="0" y2="0" gradientTransform="scale(903.3537) rotate(-90 1.147 .528)" gradientUnits="userSpaceOnUse" spreadMethod="pad"><stop offset="0" stop-color="#001e95"/><stop offset=".676" stop-color="#00a9ff"/><stop offset=".78" stop-color="#00a9ff"/><stop offset="1" stop-color="#00a9ff"/></linearGradient><clipPath id="c" clipPathUnits="userSpaceOnUse"><path d="M120 468h274V187H120z"/></clipPath><clipPath id="d" clipPathUnits="userSpaceOnUse"><path d="M2 499h506V19H2z"/></clipPath><linearGradient id="e" x1="0" x2="1" y1="0" y2="0" gradientTransform="matrix(42.90164 0 0 -42.90164 364.836 199.258)" gradientUnits="userSpaceOnUse" spreadMethod="pad"><stop offset="0" stop-color="#fff" stop-opacity=".8"/><stop offset=".99" stop-color="#fff" stop-opacity="0"/><stop offset="1" stop-color="#fff" stop-opacity="0"/></linearGradient><linearGradient id="f" x1="0" x2="1" y1="0" y2="0" gradientTransform="matrix(206 161 161 -206 237.406 130.972)" gradientUnits="userSpaceOnUse" spreadMethod="pad"><stop offset="0" stop-color="#fff" stop-opacity=".8"/><stop offset=".99" stop-color="#fff" stop-opacity="0"/><stop offset="1" stop-color="#fff" stop-opacity="0"/></linearGradient><linearGradient id="g" x1="0" x2="1" y1="0" y2="0" gradientTransform="rotate(179.983 188.651 29.482) scale(42.90164)" gradientUnits="userSpaceOnUse" spreadMethod="pad"><stop offset="0" stop-color="#fff" stop-opacity=".8"/><stop offset=".99" stop-color="#fff" stop-opacity="0"/><stop offset="1" stop-color="#fff" stop-opacity="0"/></linearGradient><linearGradient id="h" x1="0" x2="1" y1="0" y2="0" gradientTransform="matrix(189 -5 -5 -189 196.87 138.697)" gradientUnits="userSpaceOnUse" spreadMethod="pad"><stop offset="0" stop-color="#fff" stop-opacity=".8"/><stop offset=".99" stop-color="#fff" stop-opacity="0"/><stop offset="1" stop-color="#fff" stop-opacity="0"/></linearGradient><linearGradient id="i" x1="0" x2="1" y1="0" y2="0" gradientTransform="matrix(0 -30.84261 -30.84261 0 362.604 154.112)" gradientUnits="userSpaceOnUse" spreadMethod="pad"><stop offset="0" stop-color="#fff" stop-opacity=".8"/><stop offset=".99" stop-color="#fff" stop-opacity="0"/><stop offset="1" stop-color="#fff" stop-opacity="0"/></linearGradient><linearGradient id="j" x1="0" x2="1" y1="0" y2="0" gradientTransform="matrix(0 -30.84261 -30.84261 0 343.25 154.112)" gradientUnits="userSpaceOnUse" spreadMethod="pad"><stop offset="0" stop-color="#fff" stop-opacity=".8"/><stop offset=".99" stop-color="#fff" stop-opacity="0"/><stop offset="1" stop-color="#fff" stop-opacity="0"/></linearGradient><linearGradient id="k" x1="0" x2="1" y1="0" y2="0" gradientTransform="matrix(-111.71077 0 0 111.71077 150.342 142.324)" gradientUnits="userSpaceOnUse" spreadMethod="pad"><stop offset="0" stop-color="#fff" stop-opacity=".8"/><stop offset=".99" stop-color="#fff" stop-opacity="0"/><stop offset="1" stop-color="#fff" stop-opacity="0"/></linearGradient><linearGradient id="l" x1="0" x2="1" y1="0" y2="0" gradientTransform="matrix(42.90164 0 0 -42.90164 402.633 203.3)" gradientUnits="userSpaceOnUse" spreadMethod="pad"><stop offset="0" stop-color="#fff" stop-opacity=".8"/><stop offset=".99" stop-color="#fff" stop-opacity="0"/><stop offset="1" stop-color="#fff" stop-opacity="0"/></linearGradient><linearGradient id="m" x1="0" x2="1" y1="0" y2="0" gradientTransform="scale(-17.508 17.508) rotate(-51.569 2.132 32.237)" gradientUnits="userSpaceOnUse" spreadMethod="pad"><stop offset="0" stop-color="#fff" stop-opacity=".8"/><stop offset=".99" stop-color="#fff" stop-opacity="0"/><stop offset="1" stop-color="#fff" stop-opacity="0"/></linearGradient><linearGradient id="n" x1="0" x2="1" y1="0" y2="0" gradientTransform="scale(113.94995 -113.94995) rotate(1.515 32.83 28.375)" gradientUnits="userSpaceOnUse" spreadMethod="pad"><stop offset="0" stop-color="#fff" stop-opacity=".8"/><stop offset=".99" stop-color="#fff" stop-opacity="0"/><stop offset="1" stop-color="#fff" stop-opacity="0"/></linearGradient><linearGradient id="o" x1="0" x2="1" y1="0" y2="0" gradientTransform="scale(113.94995 -113.94995) rotate(1.515 22.993 35.407)" gradientUnits="userSpaceOnUse" spreadMethod="pad"><stop offset="0" stop-color="#fff" stop-opacity=".8"/><stop offset=".99" stop-color="#fff" stop-opacity="0"/><stop offset="1" stop-color="#fff" stop-opacity="0"/></linearGradient><linearGradient id="p" x1="0" x2="1" y1="0" y2="0" gradientTransform="matrix(42.90164 0 0 -42.90164 150.633 121.964)" gradientUnits="userSpaceOnUse" spreadMethod="pad"><stop offset="0" stop-color="#fff" stop-opacity=".8"/><stop offset=".99" stop-color="#fff" stop-opacity="0"/><stop offset="1" stop-color="#fff" stop-opacity="0"/></linearGradient><linearGradient id="q" x1="0" x2="1" y1="0" y2="0" gradientTransform="rotate(179.983 129.694 36.982) scale(42.90164)" gradientUnits="userSpaceOnUse" spreadMethod="pad"><stop offset="0" stop-color="#fff" stop-opacity=".8"/><stop offset=".99" stop-color="#fff" stop-opacity="0"/><stop offset="1" stop-color="#fff" stop-opacity="0"/></linearGradient><linearGradient id="r" x1="0" x2="1" y1="0" y2="0" gradientTransform="matrix(5.33368 0 0 -5.33368 230.685 101.443)" gradientUnits="userSpaceOnUse" spreadMethod="pad"><stop offset="0" stop-color="#fff" stop-opacity=".8"/><stop offset=".99" stop-color="#fff" stop-opacity="0"/><stop offset="1" stop-color="#fff" stop-opacity="0"/></linearGradient><linearGradient id="s" x1="0" x2="1" y1="0" y2="0" gradientTransform="scale(-69.17722 69.17722) rotate(62.282 -7.693 -1.815)" gradientUnits="userSpaceOnUse" spreadMethod="pad"><stop offset="0" stop-color="#fff"/><stop offset=".005" stop-color="#fff"/><stop offset=".31" stop-color="#fff"/><stop offset="1" stop-color="#fff" stop-opacity=".97"/></linearGradient><linearGradient id="t" x1="0" x2="1" y1="0" y2="0" gradientTransform="scale(53.89711 -53.89711) rotate(62.543 9.93 1.442)" gradientUnits="userSpaceOnUse" spreadMethod="pad"><stop offset="0" stop-color="#fff"/><stop offset=".107" stop-color="#fff"/><stop offset="1" stop-color="#fff" stop-opacity=".97"/></linearGradient><clipPath id="u" clipPathUnits="userSpaceOnUse"><path d="M18 407h482V72H18z"/></clipPath><clipPath id="v" clipPathUnits="userSpaceOnUse"><path d="M31 237h135v-91H31z"/></clipPath><linearGradient id="as" x1="0" x2="1" y1="0" y2="0" gradientTransform="scale(-266.9976 266.9976) rotate(-23.683 1.89 4.988)" gradientUnits="userSpaceOnUse" spreadMethod="pad"><stop offset="0" stop-color="#0d42bf"/><stop offset=".995" stop-color="#08cbec"/><stop offset="1" stop-color="#08cbec"/></linearGradient><linearGradient id="w" x1="0" x2="1" y1="0" y2="0" gradientTransform="matrix(0 49.22113 49.22113 0 410.08 303.962)" gradientUnits="userSpaceOnUse" spreadMethod="pad"><stop offset="0" stop-color="#fff"/><stop offset=".794" stop-color="#fff" stop-opacity="0"/><stop offset=".996" stop-color="#fff" stop-opacity="0"/><stop offset="1" stop-color="#fff" stop-opacity="0"/></linearGradient><linearGradient id="P" x1="0" x2="1" y1="0" y2="0" gradientTransform="scale(39.34984 -39.34984) rotate(64.373 9.013 3.188)" gradientUnits="userSpaceOnUse" spreadMethod="pad"><stop offset="0" stop-color="#22ddec"/><stop offset=".002" stop-color="#22ddec"/><stop offset="1" stop-color="#0d5fcf"/></linearGradient><linearGradient id="aA" x1="0" x2="1" y1="0" y2="0" gradientTransform="matrix(31.6739 0 0 -31.6739 292.22 269.983)" gradientUnits="userSpaceOnUse" spreadMethod="pad"><stop offset="0" stop-color="#22ddec"/><stop offset=".002" stop-color="#22ddec"/><stop offset="1" stop-color="#0d5fcf"/></linearGradient><linearGradient id="x" x1="0" x2="1" y1="0" y2="0" gradientTransform="matrix(0 46.45337 46.45337 0 308.783 269.652)" gradientUnits="userSpaceOnUse" spreadMethod="pad"><stop offset="0" stop-color="#fff"/><stop offset=".859" stop-color="#fff" stop-opacity="0"/><stop offset=".996" stop-color="#fff" stop-opacity="0"/><stop offset="1" stop-color="#fff" stop-opacity="0"/></linearGradient><linearGradient id="az" x1="0" x2="1" y1="0" y2="0" gradientTransform="matrix(43.6356 0 0 -43.6356 205.902 270.512)" gradientUnits="userSpaceOnUse" spreadMethod="pad"><stop offset="0" stop-color="#22ddec"/><stop offset=".002" stop-color="#22ddec"/><stop offset="1" stop-color="#0d5fcf"/></linearGradient><linearGradient id="y" x1="0" x2="1" y1="0" y2="0" gradientTransform="matrix(0 32.58948 32.58948 0 228.47 286.347)" gradientUnits="userSpaceOnUse" spreadMethod="pad"><stop offset="0" stop-color="#fff"/><stop offset=".859" stop-color="#fff" stop-opacity="0"/><stop offset=".996" stop-color="#fff" stop-opacity="0"/><stop offset="1" stop-color="#fff" stop-opacity="0"/></linearGradient><clipPath id="z" clipPathUnits="userSpaceOnUse"><path d="M240.61 469.227h106.837V241.761H240.61z"/></clipPath><clipPath id="A" clipPathUnits="userSpaceOnUse"><path d="M240.61 469.227h106.837V241.761H240.61z"/></clipPath><clipPath id="B" clipPathUnits="userSpaceOnUse"><path d="M365 469.466h106.837V242H365z"/></clipPath><clipPath id="C" clipPathUnits="userSpaceOnUse"><path d="M365 469.466h106.837V242H365z"/></clipPath><clipPath id="D" clipPathUnits="userSpaceOnUse"><path d="M116 469.466h106.837V242H116z"/></clipPath><clipPath id="E" clipPathUnits="userSpaceOnUse"><path d="M116 469.466h106.837V242H116z"/></clipPath><radialGradient id="F" cx="0" cy="0" r="1" fx="0" fy="0" gradientTransform="matrix(48.79916 0 0 -10.29177 441.867 165.912)" gradientUnits="userSpaceOnUse" spreadMethod="pad"><stop offset="0" stop-color="#fff"/><stop offset=".064" stop-color="#fff"/><stop offset="1" stop-color="#fff" stop-opacity="0"/></radialGradient><radialGradient id="G" cx="0" cy="0" r="1" fx="0" fy="0" gradientTransform="matrix(48.79916 0 0 -10.29177 78.868 178.912)" gradientUnits="userSpaceOnUse" spreadMethod="pad"><stop offset="0" stop-color="#fff"/><stop offset=".064" stop-color="#fff"/><stop offset="1" stop-color="#fff" stop-opacity="0"/></radialGradient><radialGradient id="H" cx="0" cy="0" r="1" fx="0" fy="0" gradientTransform="matrix(64.55878 0 0 -10.29177 72.868 93.912)" gradientUnits="userSpaceOnUse" spreadMethod="pad"><stop offset="0" stop-color="#fff"/><stop offset=".064" stop-color="#fff"/><stop offset="1" stop-color="#fff" stop-opacity="0"/></radialGradient><radialGradient id="I" cx="0" cy="0" r="1" fx="0" fy="0" gradientTransform="matrix(64.55878 0 0 -10.29177 72.868 93.912)" gradientUnits="userSpaceOnUse" spreadMethod="pad"><stop offset="0" stop-color="#fff"/><stop offset=".064" stop-color="#fff"/><stop offset="1" stop-color="#fff" stop-opacity="0"/></radialGradient><radialGradient id="J" cx="0" cy="0" r="1" fx="0" fy="0" gradientTransform="matrix(48.79916 0 0 -10.29177 78.868 178.912)" gradientUnits="userSpaceOnUse" spreadMethod="pad"><stop offset="0" stop-color="#fff"/><stop offset=".064" stop-color="#fff"/><stop offset="1" stop-color="#fff" stop-opacity="0"/></radialGradient><clipPath id="K" clipPathUnits="userSpaceOnUse"><path d="M18 407h482V72H18z"/></clipPath><clipPath id="L" clipPathUnits="userSpaceOnUse"><path d="M31 237h135v-91H31z"/></clipPath><linearGradient id="M" x1="0" x2="1" y1="0" y2="0" gradientTransform="scale(349.7706) rotate(-90 2.36 -1.162)" gradientUnits="userSpaceOnUse" spreadMethod="pad"><stop offset="0" stop-color="#fff"/><stop offset=".415" stop-color="#fff" stop-opacity="0"/><stop offset="1" stop-color="#fff" stop-opacity="0"/></linearGradient><linearGradient id="N" x1="0" x2="1" y1="0" y2="0" gradientTransform="matrix(122.29714 0 0 -122.29714 2182.407 713.42)" gradientUnits="userSpaceOnUse" spreadMethod="pad"><stop offset="0" stop-color="#fff"/><stop offset=".415" stop-color="#fff" stop-opacity="0"/><stop offset="1" stop-color="#fff" stop-opacity="0"/></linearGradient><linearGradient id="O" x1="0" x2="1" y1="0" y2="0" gradientTransform="matrix(243.32353 0 0 -243.32353 1702.956 870.212)" gradientUnits="userSpaceOnUse" spreadMethod="pad"><stop offset="0" stop-color="#fff" stop-opacity="0"/><stop offset=".585" stop-color="#fff" stop-opacity="0"/><stop offset="1" stop-color="#fff"/></linearGradient><clipPath id="Q" clipPathUnits="userSpaceOnUse"><path d="M-4 423h508V58H-4z"/></clipPath><linearGradient id="R" x1="0" x2="1" y1="0" y2="0" gradientTransform="matrix(8.23903 0 0 -8.23903 341.966 249.533)" gradientUnits="userSpaceOnUse" spreadMethod="pad"><stop offset="0" stop-color="#fff"/><stop offset="1" stop-color="#fff" stop-opacity=".97"/></linearGradient><linearGradient id="S" x1="0" x2="1" y1="0" y2="0" gradientTransform="matrix(5.99676 0 0 -5.99676 348.583 249.611)" gradientUnits="userSpaceOnUse" spreadMethod="pad"><stop offset="0" stop-color="#fff"/><stop offset="1" stop-color="#fff" stop-opacity=".97"/></linearGradient><linearGradient id="T" x1="0" x2="1" y1="0" y2="0" gradientTransform="matrix(6.94085 0 0 -6.94085 347.776 247.617)" gradientUnits="userSpaceOnUse" spreadMethod="pad"><stop offset="0" stop-color="#fff"/><stop offset="1" stop-color="#fff" stop-opacity=".97"/></linearGradient><linearGradient id="U" x1="0" x2="1" y1="0" y2="0" gradientTransform="matrix(6.94085 0 0 -6.94085 346.093 246.263)" gradientUnits="userSpaceOnUse" spreadMethod="pad"><stop offset="0" stop-color="#fff"/><stop offset="1" stop-color="#fff" stop-opacity=".97"/></linearGradient><linearGradient id="V" x1="0" x2="1" y1="0" y2="0" gradientTransform="matrix(6.25748 0 0 -6.25748 343.892 245.336)" gradientUnits="userSpaceOnUse" spreadMethod="pad"><stop offset="0" stop-color="#fff"/><stop offset="1" stop-color="#fff" stop-opacity=".97"/></linearGradient><linearGradient id="W" x1="0" x2="1" y1="0" y2="0" gradientTransform="scale(-18.38298 18.38298) rotate(-69.007 2.043 20.149)" gradientUnits="userSpaceOnUse" spreadMethod="pad"><stop offset="0" stop-color="#fff"/><stop offset="1" stop-color="#fff" stop-opacity=".97"/></linearGradient><linearGradient id="X" x1="0" x2="1" y1="0" y2="0" gradientTransform="matrix(19.75514 0 0 -19.75514 295.772 301.515)" gradientUnits="userSpaceOnUse" spreadMethod="pad"><stop offset="0" stop-color="#fff"/><stop offset="1" stop-color="#fff" stop-opacity=".97"/></linearGradient><linearGradient id="Y" x1="0" x2="1" y1="0" y2="0" gradientTransform="matrix(8.2252 0 0 -8.2252 332.23 244.931)" gradientUnits="userSpaceOnUse" spreadMethod="pad"><stop offset="0" stop-color="#fff"/><stop offset="1" stop-color="#fff" stop-opacity=".97"/></linearGradient><linearGradient id="Z" x1="0" x2="1" y1="0" y2="0" gradientTransform="matrix(5.63839 0 0 -5.63839 338.806 244.144)" gradientUnits="userSpaceOnUse" spreadMethod="pad"><stop offset="0" stop-color="#fff"/><stop offset="1" stop-color="#fff" stop-opacity=".97"/></linearGradient><linearGradient id="aa" x1="0" x2="1" y1="0" y2="0" gradientTransform="matrix(6.5107 0 0 -6.5107 337.765 242.215)" gradientUnits="userSpaceOnUse" spreadMethod="pad"><stop offset="0" stop-color="#fff"/><stop offset="1" stop-color="#fff" stop-opacity=".97"/></linearGradient><linearGradient id="ab" x1="0" x2="1" y1="0" y2="0" gradientTransform="matrix(6.51073 0 0 -6.51073 335.911 241.105)" gradientUnits="userSpaceOnUse" spreadMethod="pad"><stop offset="0" stop-color="#fff"/><stop offset="1" stop-color="#fff" stop-opacity=".97"/></linearGradient><linearGradient id="ac" x1="0" x2="1" y1="0" y2="0" gradientTransform="matrix(5.66584 0 0 -5.66584 333.69 240.548)" gradientUnits="userSpaceOnUse" spreadMethod="pad"><stop offset="0" stop-color="#fff"/><stop offset="1" stop-color="#fff" stop-opacity=".97"/></linearGradient><linearGradient id="ad" x1="0" x2="1" y1="0" y2="0" gradientTransform="matrix(44.28923 0 0 -44.28923 289.988 265.235)" gradientUnits="userSpaceOnUse" spreadMethod="pad"><stop offset="0" stop-color="#fff"/><stop offset="1" stop-color="#fff" stop-opacity=".97"/></linearGradient><linearGradient id="ae" x1="0" x2="1" y1="0" y2="0" gradientTransform="scale(156.35074 -156.35074) rotate(37.725 3.77 2.274)" gradientUnits="userSpaceOnUse" spreadMethod="pad"><stop offset="0" stop-color="#fff"/><stop offset="1" stop-color="#fff" stop-opacity="0"/></linearGradient><clipPath id="ag" clipPathUnits="userSpaceOnUse"><path d="M45.84 85.04H157.2V1.52H45.84z"/></clipPath><clipPath id="ah" clipPathUnits="userSpaceOnUse"><path d="M389.36 460.76h111.12v-83.52H389.36z"/></clipPath><clipPath id="ai" clipPathUnits="userSpaceOnUse"><path d="M49.68 482h125.76V356H49.68z"/></clipPath><clipPath id="aj" clipPathUnits="userSpaceOnUse"><path d="M360 291.241h134.4v-124.56H360z"/></clipPath><clipPath id="ak" clipPathUnits="userSpaceOnUse"><path d="M15.316 334.64h153.12V231.2H15.316z"/></clipPath><clipPath id="al" clipPathUnits="userSpaceOnUse"><path d="M276 433.04h138.96V332H276z"/></clipPath><clipPath id="am" clipPathUnits="userSpaceOnUse"><path d="M45.84 85.04H157.2V1.52H45.84z"/></clipPath><clipPath id="an" clipPathUnits="userSpaceOnUse"><path d="M389.36 460.76h111.12v-83.52H389.36z"/></clipPath><clipPath id="ao" clipPathUnits="userSpaceOnUse"><path d="M49.68 482h125.76V356H49.68z"/></clipPath><clipPath id="ap" clipPathUnits="userSpaceOnUse"><path d="M360 291.241h134.4v-124.56H360z"/></clipPath><clipPath id="aq" clipPathUnits="userSpaceOnUse"><path d="M15.316 334.64h153.12V231.2H15.316z"/></clipPath><clipPath id="ar" clipPathUnits="userSpaceOnUse"><path d="M276 433.04h138.96V332H276z"/></clipPath><clipPath id="at" clipPathUnits="userSpaceOnUse"><path d="M45.84 85.04H157.2V1.52H45.84z"/></clipPath><clipPath id="au" clipPathUnits="userSpaceOnUse"><path d="M389.36 460.76h111.12v-83.52H389.36z"/></clipPath><clipPath id="av" clipPathUnits="userSpaceOnUse"><path d="M49.68 482h125.76V356H49.68z"/></clipPath><clipPath id="aw" clipPathUnits="userSpaceOnUse"><path d="M360 291.241h134.4v-124.56H360z"/></clipPath><clipPath id="ax" clipPathUnits="userSpaceOnUse"><path d="M15.316 334.64h153.12V231.2H15.316z"/></clipPath><clipPath id="ay" clipPathUnits="userSpaceOnUse"><path d="M276 433.04h138.96V332H276z"/></clipPath><clipPath id="aB" clipPathUnits="userSpaceOnUse"><path d="M45.84 85.04H157.2V1.52H45.84z"/></clipPath><clipPath id="aC" clipPathUnits="userSpaceOnUse"><path d="M389.36 460.76h111.12v-83.52H389.36z"/></clipPath><clipPath id="aD" clipPathUnits="userSpaceOnUse"><path d="M49.68 482h125.76V356H49.68z"/></clipPath><clipPath id="aE" clipPathUnits="userSpaceOnUse"><path d="M360 291.241h134.4v-124.56H360z"/></clipPath><clipPath id="aF" clipPathUnits="userSpaceOnUse"><path d="M15.316 334.64h153.12V231.2H15.316z"/></clipPath><clipPath id="aG" clipPathUnits="userSpaceOnUse"><path d="M276 433.04h138.96V332H276z"/></clipPath></defs><g data-name="Vector Smart Object"><g data-name="Group 177"><path fill="#e6e6e6" d="M85.338 165.007l73.127 20.83c2.088.595 4.02-1.813 4.02-5.009V52.438c0-3.545-2.345-6.006-4.558-4.785L83.962 88.51c-1.643.907-2.724 3.279-2.695 5.91l.724 64.615c.033 2.933 1.431 5.429 3.347 5.973z" data-name="Path 487" opacity=".5"/><g data-name="Group 168" transform="matrix(.26458 0 0 .26458 96.714 168.56)"><path fill="#ffc02d" d="M196.226 220.837l-31.778 2.974v3.7c-.821-.062-1.651-.1-2.492-.1s-1.669.038-2.491.1v-3.7l-31.778-2.974c2.375 22.869 7.711 37.107 7.711 37.107 3.443 9.736 14.029 16.826 26.558 16.826s23.115-7.091 26.559-16.826c0 0 5.335-14.238 7.711-37.107z" data-name="Path 464"/><ellipse cx="30.604" cy="13.275" fill="#e4e5ed" data-name="Ellipse 21" rx="30.604" ry="13.275" transform="translate(131.352 207.562)"/><path fill="#ccc" d="M161.969 234.105c12.272 0 22.851-3.135 27.729-7.658-.282-6.54-12.584-11.805-27.729-11.805s-27.447 5.265-27.729 11.805c4.879 4.523 15.458 7.658 27.729 7.658z" data-name="Path 465"/><path fill="#fff" d="M161.956 205.972c-18.927 0-34.269 6.655-34.269 14.865s15.343 14.865 34.269 14.865 34.27-6.656 34.27-14.865-15.344-14.865-34.27-14.865zm0 28.139c-16.9 0-30.6-5.943-30.6-13.275 0-7.332 13.7-13.276 30.6-13.276 16.9 0 30.6 5.943 30.6 13.276s-13.7 13.276-30.6 13.276z" data-name="Path 466"/><path fill="#027123" d="M169.72 89.3c8.133-19.871 28.7-5.331 68.159-20.084s37.724-20.7 47.664-21.038c9.94-.338 2.991-5.532-12.341-8.807-15.332-3.275-43.456 4.966-69.659 3.556-26.203-1.41-43.372 28.283-41.452 39.009 1.92 10.726 2.067 8.479-1.209 18.414-3.276 9.935-7.177 105.7-5.907 123.619.049.694 2.778.992 2.786 0 .115-14.241 4.607-107.57 6.3-117.618A57.327 57.327 0 0 1 169.72 89.3z" data-name="Path 467"/><path fill="#027123" d="M167.387 224.814c-5.431-74.255-13.811-171.763-20.894-204.689-7.083-32.926-67.818-17.244-92.573-9.892-24.755 7.352-45.917 6.9-49.916 21.872-3.999 14.972-5.526 24.29-2.135 25.476s3.158-6.709 16.838-6.574c13.68.135 46.741 10.982 79.973.134 33.232-10.848 36.857-21.134 42.144-15.991 5.287 5.143 5.287 13.194 6.686 18.914 1.399 5.72 14.846 164.452 15.683 171.547.263 2.252 4.285.448 4.194-.797z" data-name="Path 468"/><path fill="#027123" d="M228.797 187.529c-17.291-7.575-45.378-21.328-51.826-43.769-4.76-16.568-8.621-12.484-9.262-4.742-.728 8.8-5.013 84.1-5.26 88.851-.141 2.714-3.007 1.82-2.985.936.14-5.706 4.593-90.949 6.174-95.618 1.581-4.669 4.1-4.946 5.8-8.077 2.145-3.964 2.861-5.812 14.457-8.446 11.596-2.634 40.25 24.65 42.9 40.758 2.65 16.108 3.348 22.783 4.048 25.816.713 3.065-1.342 5.475-4.046 4.291z" data-name="Path 469"/><path d="M116.427 18.031c-11.351 4.255-24.606 4.112-38.3 3.4-14.808-.764-30.092-2.24-43.022 1.111-22.542 5.842-29.974 9.065-25.587 30.121a20.776 20.776 0 0 1 9.185-1.659c13.679.134 46.742 10.981 79.973.134s36.857-21.134 42.144-15.991a14.958 14.958 0 0 1 2.613 3.451s-2.855-29.622-27.006-20.567z" data-name="Path 470" opacity=".5"/><path fill="#027123" d="M152.334 220.837c-.823-16.13-3.934-84.133-13.072-112.675-9.138-28.542-44.257-18.125-60.391-11.845-16.134 6.28-25.126 18.834-33.835 24.974-8.709 6.14-.571 6.85 2.856 5.281 3.427-1.569 28.166 8.991 48.847.285s29.337-21.059 35.217-17.095c5.88 3.964 9.734 28.867 10.733 45.243.999 16.376 6.6 64.362 7.21 66.531.217.769 2.487.315 2.435-.699z" data-name="Path 471"/></g><g data-name="Group 170"><path fill="#fff" d="M115.588 86.209l30.946-8.233a1.17 1.17 0 0 1 1.471 1.13v41.324a1.17 1.17 0 0 1-1.074 1.164l-31.343 2.585-23.416 1.932a1.17 1.17 0 0 1-1.266-1.164V93.673a1.17 1.17 0 0 1 .869-1.13z" data-name="Path 488"/><path fill="#e4e5ed" d="M123.365 91.962L141.1 87.89a.265.265 0 0 0 .205-.258V85.31a.265.265 0 0 0-.327-.257l-17.735 4.29a.265.265 0 0 0-.202.258v2.104a.265.265 0 0 0 .324.258z" data-name="Path 489"/><path fill="#0888ca" d="M121.307 92.434l-1.446.332a.265.265 0 0 1-.324-.257v-2.061a.265.265 0 0 1 .203-.257l1.445-.35a.265.265 0 0 1 .327.257v2.08a.265.265 0 0 1-.205.256z" data-name="Path 490"/><path fill="#e4e5ed" d="M123.36 95.79l17.735-3.755a.265.265 0 0 0 .21-.259v-2.325a.265.265 0 0 0-.323-.258l-17.734 3.975a.265.265 0 0 0-.207.258v2.106a.265.265 0 0 0 .32.258z" data-name="Path 491"/><path fill="#0048be" d="M121.302 96.226l-1.445.307a.265.265 0 0 1-.32-.26V94.21a.265.265 0 0 1 .207-.258l1.446-.324a.265.265 0 0 1 .322.258v2.081a.265.265 0 0 1-.21.26z" data-name="Path 492"/><path fill="#0056cb" d="M141.305 111.308c-4.896.703-4.674-3.122-7.718-2.613-4.314.724-5.967 8.646-9.12 8.921-3.065.268-3.414-4.5-6.868-3.992-3.344.491-2.436 3.617-6.583 4.087-3.984.45-5.118-6.937-9.118-6.319-3.28.507-3.208 3.668-7.24 4.224v6.304l46.646-4.848z" data-name="Path 493"/><path fill="#0888ca" d="M94.658 113.59c4.445-.697 4.197 2.57 7.941 2.075 3.54-.468 5.037-6.973 8.904-7.606 4.058-.664 7.072 5.593 10.01 5.417 3.75-.225 3.552-3.855 6.848-4.337 3.418-.5 3.97 4.956 6.988 4.717 2.493-.198 2.31-1.16 5.956-1.586v4.802L94.66 121.92z" data-name="Path 494"/></g><g data-name="Group 173"><path fill="#fff" d="M121.124 163.294l31.501 4.378a1.914 1.914 0 0 0 2.179-1.896v-41.8a1.914 1.914 0 0 0-2-1.912l-31.503 1.405a1.914 1.914 0 0 0-1.828 1.912V161.4a1.914 1.914 0 0 0 1.651 1.895z" data-name="Path 501"/><g fill="#e4e5ed" data-name="Group 172"><path d="M139.728 131.23l8.443-.069a.18.18 0 0 0 .179-.18v-2.65a.18.18 0 0 0-.184-.18l-8.443.173a.18.18 0 0 0-.177.18v2.546a.18.18 0 0 0 .182.18z" data-name="Path 502"/><path d="M126.453 131.339l-1.797.014a.18.18 0 0 1-.181-.18v-2.36a.18.18 0 0 1 .176-.18l1.797-.037a.18.18 0 0 1 .185.18v2.381a.18.18 0 0 1-.18.182z" data-name="Path 503"/></g><path fill="#0888ca" d="M126.632 148.035c0 6.127 4.012 11.562 9.166 12.165 5.395.63 9.955-4.232 9.955-10.885 0-6.654-4.56-12.125-9.955-12.217-5.154-.088-9.166 4.81-9.166 10.937zm2.381.159c0-4.535 2.988-8.12 6.784-8.005 3.926.12 7.207 4.124 7.207 8.94 0 4.818-3.28 8.383-7.207 7.977-3.795-.392-6.783-4.377-6.783-8.911z" data-name="Path 504"/><path fill="#027123" d="M135.798 140.19v-3.093c5.395.092 9.955 5.564 9.955 12.218l-2.748-.186c0-4.815-3.28-8.82-7.207-8.94z" data-name="Path 505"/><path fill="#0056cb" d="M134.53 138.612c0-.849.567-1.527 1.27-1.515.707.012 1.284.717 1.284 1.575s-.577 1.535-1.284 1.514c-.704-.021-1.27-.726-1.27-1.574z" data-name="Path 506"/><path fill="#0056cb" d="M143.005 149.13c0-.879.609-1.555 1.365-1.51.76.046 1.38.805 1.38 1.694 0 .889-.62 1.565-1.38 1.508-.756-.054-1.365-.812-1.365-1.691z" data-name="Path 507"/></g><g data-name="Group 175"><path fill="#fff" d="M94.931 158.883l22.365 3.108a1.253 1.253 0 0 0 1.426-1.241v-35.378a1.253 1.253 0 0 0-1.31-1.252l-22.364.997a1.253 1.253 0 0 0-1.198 1.252v31.274a1.253 1.253 0 0 0 1.081 1.24z" data-name="Path 508"/><path fill="#0888ca" d="M112.336 153.089l1.729.17v2.338l-1.729-.19z" data-name="Path 509"/><path fill="#0888ca" d="M109.659 150.85l1.682.149v4.3l-1.682-.186z" data-name="Path 510"/><path fill="#0888ca" d="M107.052 147.86l1.638.122v7.026l-1.638-.18z" data-name="Path 511"/><path fill="#0888ca" d="M104.512 145.09l1.596.098v9.537l-1.596-.176z" data-name="Path 512"/><path fill="#0888ca" d="M102.037 141.469l1.556.066v12.914l-1.556-.171z" data-name="Path 513"/><path fill="#0888ca" d="M99.625 142.224l1.517.072v11.884l-1.517-.166z" data-name="Path 514"/><path fill="#0888ca" d="M97.273 137.63l1.479.035v16.253l-1.479-.163z" data-name="Path 515"/><path fill="#0888ca" d="M112.336 151.011l1.729.152v4.434l-1.729-.19z" data-name="Path 516"/><path fill="#0888ca" d="M109.659 144.595l1.682.096v10.608l-1.682-.186z" data-name="Path 517"/><path fill="#0888ca" d="M107.052 146.343l1.638.108v8.557l-1.638-.18z" data-name="Path 518"/><path fill="#0888ca" d="M104.512 141.574l1.596.068v13.083l-1.596-.176z" data-name="Path 519"/><path fill="#0888ca" d="M102.037 138.856l1.556.045v15.548l-1.556-.171z" data-name="Path 520"/><path fill="#0888ca" d="M99.625 141.457l1.517.065v12.658l-1.517-.166z" data-name="Path 521"/><path fill="#0888ca" d="M97.273 136.17l1.479.023v17.725l-1.479-.163z" data-name="Path 522"/><g fill="#e4e5ed" data-name="Group 174"><path d="M108.197 132.061l5.612-.036a.257.257 0 0 0 .255-.257v-1.988a.257.257 0 0 0-.261-.257l-5.613.106a.257.257 0 0 0-.252.257v1.919a.257.257 0 0 0 .259.256z" data-name="Path 523"/><path d="M98.813 132.122l-1.54.01v-2.299l1.54-.029z" data-name="Path 524"/></g></g><g data-name="Group 176"><path fill="#0888ca" d="M88.022 225.3c.34 1.324.217 2.423.288 3.18.108 1.153 1.515 2.191 3.523 1.922 2.008-.269 1.22-.397 5.645-.754 2.995-.242 6.184-2.622 5.212-5.043-.464-1.155-1.66-.586-4.864-.155-4.535.61-5.115-1.715-5.115-1.715.644 1.87-1.79 2.95-3.113 2.657-1.546-.343-1.576-.091-1.576-.091z" data-name="Path 526"/><path fill="#0888ca" d="M66.674 221.707c.259 1.64 0 3.325.07 4.468.089 1.473 3.124 2.192 4.587.81 1.463-1.383 1.183-2.09 3.585-4.25 2.593-2.33.941-4.225-.935-4.116-1.877.11-3.19 1.58-3.19 1.58z" data-name="Path 527"/><path fill="#deaa87" d="M98.644 106.417c2.104-2.67 3.497-4.368 4.76-5.06 1.262-.694.558-1.294 0-.994-.56.3-1.512.87-1.688.715-.176-.155-.386-.507.259-1.191.663-.702 1.371-.979 2.256-1.304.885-.324 1.093-1.082.812-1.438-.258-.327-1.355-.543-2.768-.155-1.413.388-1.811.497-2.62 1.429-.808.932-1.443 2.436-1.893 3.383-.45.946-.662 1.161-1.207 1.598-.545.437 2.09 3.017 2.09 3.017z" data-name="Path 528"/><path d="M86.182 117.024s2.919-5.013 5.186-7.247c2.267-2.235 6.998-2.917 8.01-5.504 1.012-2.586.145-3.641 1.444-5.068 1.298-1.428 4.119-1.112 4.312-1.874.11.389-.151.976-.903 1.253-.885.325-1.593.601-2.256 1.303-.645.683-.435 1.035-.259 1.19.176.157 1.128-.413 1.687-.714.56-.3 1.263.3 0 .993-1.262.693-2.655 2.39-4.759 5.06-1.255 2.038-5.884 8.78-9.496 13.308z" data-name="Path 529" opacity=".5"/><path fill="#edeffa" d="M96.556 103.4c-12.553 10.077-15.2 11.076-19.437 11.562-4.236.486-17.006 1.292-17.006 1.292l1.387 7.096s21.082 2.377 23.886.45c2.804-1.928 11.942-15.16 13.391-17.6.726-1.226-1.12-3.684-2.221-2.8z" data-name="Path 530"/><path fill="#a1a6d4" d="M91.368 109.779c2.005-1.977 5.936-2.74 7.518-4.68a1.475 1.475 0 0 1-.108 1.1l-.132.22-.273.434-.002.002c-.154.242-.336.521-.54.832l-.007.01c-.204.309-.431.649-.678 1.015l-.01.015q-.247.367-.52.768l-.004.005-.27.394-.014.021q-.282.411-.584.847l-.01.013-.3.433-.007.01q-.311.447-.638.91l-.015.021c-.659.936-1.359 1.914-2.071 2.89l-.005.007c-.595.817-1.2 1.632-1.796 2.42l-.003.003c-.355.47-.707.93-1.053 1.374l-.016.02q-.344.442-.68.863l-2.966-2.7s2.918-5.013 5.184-7.247z" data-name="Path 531" opacity=".5"/><path fill="#0888ca" d="M84.44 147.111c.302 3.368 2.304 7.206 2.813 15.921 2.064 35.339 5.284 59.267 5.457 59.703 1.373 3.457-4.365 3.774-4.688 2.567-.302-1.13-5.863-14.795-7.236-27.261-.994-9.02-8.585-31.2-9.397-27.596-1.15 5.111-3.29-13.37-2.609-23.602.68-10.232 15.66.268 15.66.268z" data-name="Path 532"/><path fill="#0888ca" d="M72.862 159.508c-2.072 13.61-2.292 18.795-2.292 29.786 0 8.945 1.486 25.858 1.715 30.559.05 1.034-1.893 3.493-2.805 3.026-2.297-1.174-2.68.23-2.738-.652-.151-2.302-5.03-20.923-5.18-31.59-.113-8.123-1.838-19.523-1.821-28.792.02-10.76 11.397-19.481 11.397-19.481z" data-name="Path 533"/><path fill="#deaa87" d="M77.78 92.73c.863 2.262.468 3.553.299 4.737-.19 1.336-.816 1.473-.276 3.334.287.99-.626 5.76-1.806 5.599-1.18-.16-1.46.012-1.766 1.126-.306 1.113-8.466.956-8.061-1.234a9.53 9.53 0 0 0 .1-1.573 7.687 7.687 0 0 0-1.07-3.429c-.961-1.615-2.817-6.066 1.42-8.374 4.237-2.308 9.372-4.864 11.16-.185z" data-name="Path 534"/><path fill="#1a1a1a" d="M77.958 89.418c.736 2.42.7 3.171-.266 4.853-1.522 2.65-1.542 3.28-1.398 4.943a3.71 3.71 0 0 1-.683.71 2.66 2.66 0 0 0-.543-1.588c-.714-.807-1.568.697-.637 3.248.355.972-.397 2.21-.844 2.492-1.655 1.048-3.549-.692-7.317.644 0 0-.41-1.865-2.19-5.206-3.397-6.377 2.957-11.849 6.606-12.482 2.736-.474 6.669.4 7.272 2.386z" data-name="Path 535"/><path fill="#deaa87" d="M112.132 114.31l-3.285 6.185-4.81 2.205c2.686-4.217 5.407-10.083 5.498-10.356.22-.665.143-.823.275-2.057.131-1.235.478-3.349.797-4.327.32-.979.891-.49.885.103-.006.593-.3 1.486-.182 1.561.117.076.38.069.952-.78.573-.85 2.018-2.582 3.126-2.572.624.006 2.484 1.168 2.01 2.339-.16.397-.11.244-.383.845-.53 1.163-2.476 2.995-3.832 4.865a10.98 10.98 0 0 0-1.051 1.99z" data-name="Path 537"/><path fill="#1a1a1a" d="M70.695 87.05c2.736-.475 6.668.399 7.272 2.385l.044.147c-.315.407-1.462-.797-2.945-1.264-1.905-.6-8.176.33-9.335 2.751-1.159 2.42.776 3.735.373 7.055-.167 1.376-.902 1.89-1.715 1.981a40.795 40.795 0 0 0-.3-.575c-3.397-6.377 2.957-11.848 6.606-12.48z" data-name="Path 538"/><path d="M111.996 114.477l-1.09.802-4.634 15.627c-2.73 4.815-6.227 3.547-9.344 2.574-1.987-.62-5.271-2.475-8.966-4.265-1.214-.588-2.436-.615-2.385 1.005v.006c.041.822.106 1.622.201 2.39.57 4.558 1.347 27.136 1.475 30.416 2.064 35.339 5.284 59.267 5.457 59.703.014.035.023.068.035.102.176.44 1.119 2.146 5.08 1.614 3.204-.431 4.4-1 4.864.155.614 1.527-.428 3.036-2.032 4.004.75-2.916-7.644.186-9.259-2.02-1.614-2.204-.59-9.65-1.707-14.895-1.118-5.246-3.478-11.235-7.017-16.945-3.54-5.71-2.348-14.522-3.93-18.229-1.987-4.657-5.818-9.693-7.237-6.369a.781.781 0 0 0-.117.29c-.718 6.583-.82 11.375-.82 18.852 0 8.528 1.35 24.299 1.675 29.823a4.344 4.344 0 0 1 1.736-.498c1.877-.11 3.529 1.786.935 4.116-2.28 2.049-2.143 2.792-3.376 4.045-.122-.254-.395-.385-.943-.19-1.584.56-2.111-1.644-1.149-3.102.963-1.459 1.344-3.29.58-9.145-.765-5.855-7.327-12.72-6.712-17.298.615-4.577 3.152-5.462 2.985-11.11-.167-5.648-4.18-11.917-2.63-17.621 1.55-5.704 9.917-3.875 14.287-10.11 4.371-6.236-10.828-18.593-3.211-22.923 7.617-4.33 6.333-13.132 9.152-14.498 2.82-1.365 5.33 5.745 7.856 8.229 2.525 2.484 4.083-1.622 7.925-.523 5.626 1.61 7.614-2.635 8.39-5.18.776-2.545.31-4.128 1.832-8.1 1.521-3.973 4.238-5.757 5.309-6.828 1.071-1.07 2.187-1.768 1.82-3.185l.052.063c.066.077.195.284.195.284a1.274 1.274 0 0 1 .121 1.07c-.16.397-.11.244-.384.845-.529 1.163-2.502 2.991-3.831 4.865a11.518 11.518 0 0 0-1.12 2.076z" data-name="Path 539" opacity=".5"/><path fill="#fff" d="M112.082 114.457l-5.559 16.594c-2.487 5.73-6.478 3.402-9.595 2.429-1.987-.62-5.271-2.475-8.965-4.265-1.215-.588-2.437-.615-2.386 1.005v.006c.041.822.106 1.622.202 2.389.57 4.56 1.346 27.137 1.475 30.417.068 1.747-14.24 7.193-21.78 5.795-4.744-.88-5.977-4.128-5.765-8.028.354-6.537 2.631-17.412 2.282-20.905-.35-3.493-7.77-22.68-.763-28.215 5.157-4.075 4.942-5.385 4.942-5.385 2.262-.35 5.073-.562 8.11 1.065.798.427.892.553 1.42 1.66 2.49.485 8.104.953 9.506 1.905 1.754 1.193 11.872 11.8 14.223 14.106.703.687 1.791 1.503 2.544.539.526-.674 6.633-11.68 7.562-13.224.593-.985 3.186.519 2.547 2.112z" data-name="Path 540"/><path fill="#a1a6d4" d="M106.523 131.05c-2.21 5.028-5.22 3.99-9.595 2.43-2.425-.865-5.271-2.475-8.965-4.265-1.215-.588-2.437-.615-2.386 1.005v.006c.041.822.106 1.622.202 2.39.57 4.558 1.346 27.136 1.475 30.416.068 1.747-14.24 7.193-21.78 5.795a9.549 9.549 0 0 1-1.803-.512c1.55-5.704 9.917-3.875 14.288-10.11 4.37-6.235-10.829-18.592-3.212-22.923 7.617-4.33 6.334-13.132 9.153-14.497 2.819-1.365 5.087 6.248 7.612 8.731 2.525 2.483 4.326-2.126 8.168-1.027 5.626 1.61 7.614-2.635 8.39-5.18.776-2.545.311-4.127 1.832-8.1a13.58 13.58 0 0 1 1.42-2.736c.616.457 1.07 1.21.76 1.985z" data-name="Path 541" opacity=".5"/></g><path fill="#fff" d="M157.128 47.604L90.905 73.77c9.39 12.594 14.054 17.988 24.046 20.747.313.086.67.18 1.034.27a73.223 73.223 0 0 0 9.421 1.568c18.083 2.015.227 18.467 8.229 33.99 8.002 15.522 12.73 18.404 12.641 31.083l11.483 2.34c2.454.5 4.725-1.525 4.725-4.21V51.625c.003-2.98-2.755-5.05-5.356-4.022z" data-name="Path 543" opacity=".2"/></g></g></svg>