<svg width="94" height="74" viewBox="0 0 94 74" fill="none" xmlns="http://www.w3.org/2000/svg">
<g clip-path="url(#clip0)">
<path d="M14.8594 55.724H14.6054C10.3272 54.9657 6.48539 52.6398 3.83023 49.2006C1.17507 45.7615 -0.102707 41.4561 0.246454 37.1253C0.595615 32.7945 2.54664 28.7494 5.71847 25.78C8.8903 22.8107 13.0551 21.1303 17.3995 21.0672C17.3995 20.6068 17.3995 20.1622 17.3995 19.7177C17.4018 15.6465 18.6663 11.6762 21.0188 8.35347C23.3713 5.03077 26.6961 2.51916 30.5354 1.16454C34.3746 -0.190069 38.5394 -0.321044 42.4561 0.789645C46.3729 1.90033 49.849 4.19806 52.4056 7.36637C54.6388 6.13205 57.1154 5.40211 59.6611 5.22792C62.2068 5.05373 64.7598 5.43953 67.1403 6.35815C69.5209 7.27677 71.6712 8.7059 73.44 10.545C75.2087 12.3841 76.553 14.5884 77.3782 17.003C81.7418 17.9131 85.6674 20.2771 88.5127 23.7083C91.358 27.1396 92.9546 31.4349 93.0412 35.8915C93.1279 40.3482 91.6995 44.7023 88.9897 48.2416C86.28 51.7808 82.4493 54.2957 78.1244 55.3747C77.7662 55.3798 77.4167 55.2636 77.1329 55.045C76.8491 54.8263 76.6476 54.5181 76.5611 54.1704C76.4747 53.8228 76.5084 53.4561 76.6567 53.1299C76.8051 52.8038 77.0593 52.5375 77.3782 52.3742C81.1035 51.4623 84.3972 49.2867 86.698 46.2183C88.9988 43.1498 90.1642 39.3784 89.9957 35.5468C89.8272 31.7153 88.3351 28.0608 85.7737 25.2062C83.2124 22.3516 79.7403 20.4736 75.9494 19.8924C75.6556 19.8412 75.3821 19.7084 75.1603 19.509C74.9385 19.3097 74.7773 19.0519 74.6952 18.7652C73.85 15.7522 72.0462 13.0966 69.5569 11.2003C67.0677 9.30398 64.0284 8.2702 60.8992 8.25541C58.0686 8.26059 55.3042 9.11201 52.9613 10.7003C52.6209 10.9202 52.2093 11.0016 51.8108 10.9278C51.4123 10.854 51.0571 10.6306 50.818 10.3034C48.797 7.4271 45.9146 5.26713 42.5865 4.13505C39.2584 3.00297 35.6567 2.9573 32.301 4.00464C28.9453 5.05197 26.009 7.13816 23.9157 9.96228C21.8224 12.7864 20.6803 16.2025 20.6541 19.7177C20.6605 20.6381 20.7402 21.5565 20.8922 22.4642C20.9291 22.6996 20.9126 22.9402 20.8439 23.1683C20.7752 23.3964 20.6561 23.6061 20.4953 23.7819C20.3302 23.9524 20.1289 24.0836 19.9064 24.1661C19.6839 24.2485 19.4457 24.28 19.2094 24.2582C18.6825 24.195 18.1524 24.1632 17.6218 24.1629C13.8323 23.8577 10.0768 25.0703 7.18137 27.534C4.28595 29.9977 2.48784 33.5107 2.18258 37.3001C1.87731 41.0896 3.08992 44.8451 5.55362 47.7406C8.01733 50.636 11.5303 52.4341 15.3198 52.7393C15.7218 52.8132 16.0799 53.0392 16.3194 53.3704C16.5589 53.7017 16.6615 54.1125 16.6057 54.5174C16.5149 54.8986 16.2862 55.2327 15.9638 55.4555C15.6415 55.6782 15.2481 55.7739 14.8594 55.724Z" fill="url(#paint0_linear)"/>
<path d="M75.4256 32.9264H71.5519C71.1309 32.9264 70.7271 32.7591 70.4293 32.4614C70.1316 32.1637 69.9644 31.7599 69.9644 31.3388C69.9644 30.9178 70.1316 30.5139 70.4293 30.2162C70.7271 29.9185 71.1309 29.7512 71.5519 29.7512H75.4256C75.8467 29.7512 76.2505 29.9185 76.5482 30.2162C76.8459 30.5139 77.0132 30.9178 77.0132 31.3388C77.0132 31.7599 76.8459 32.1637 76.5482 32.4614C76.2505 32.7591 75.8467 32.9264 75.4256 32.9264Z" fill="url(#paint1_linear)"/>
<path d="M63.4079 32.9264H55.2477C54.8267 32.9264 54.4229 32.7591 54.1251 32.4614C53.8274 32.1637 53.6602 31.7599 53.6602 31.3388C53.6602 30.9178 53.8274 30.5139 54.1251 30.2162C54.4229 29.9185 54.8267 29.7512 55.2477 29.7512H63.4079C63.829 29.7512 64.2328 29.9185 64.5305 30.2162C64.8282 30.5139 64.9955 30.9178 64.9955 31.3388C64.9955 31.7599 64.8282 32.1637 64.5305 32.4614C64.2328 32.7591 63.829 32.9264 63.4079 32.9264Z" fill="url(#paint2_linear)"/>
<path d="M47.1036 32.9264H43.2458C42.8247 32.9264 42.4209 32.7591 42.1232 32.4614C41.8255 32.1637 41.6582 31.7599 41.6582 31.3388C41.6582 30.9178 41.8255 30.5139 42.1232 30.2162C42.4209 29.9185 42.8247 29.7512 43.2458 29.7512H47.1036C47.5246 29.7512 47.9284 29.9185 48.2262 30.2162C48.5239 30.5139 48.6912 30.9178 48.6912 31.3388C48.6912 31.7599 48.5239 32.1637 48.2262 32.4614C47.9284 32.7591 47.5246 32.9264 47.1036 32.9264Z" fill="url(#paint3_linear)"/>
<path d="M63.6794 44.1205H53.8819L54.1692 43.8214C55.3492 42.594 55.1163 40.7989 53.6568 39.8093C52.1973 38.8197 50.0623 39.0115 48.8823 40.2389L47.1355 42.057C46.9647 41.9649 46.7784 41.8959 46.5688 41.8959C46.3592 41.8959 46.1728 41.9649 46.002 42.057L44.2553 40.2389C43.0752 39.0115 40.9403 38.8197 39.4808 39.8093C38.0212 40.7989 37.7961 42.594 38.9684 43.8214L39.2556 44.1205H29.4737C28.5809 44.1205 27.8589 44.8493 27.8589 45.7545V48.6772C27.8589 49.5748 28.5809 50.3112 29.4737 50.3112H30.6149H43.1296H50.0235H62.5382H63.6794C64.5722 50.3112 65.2942 49.5825 65.2942 48.6772V45.7545C65.2942 44.8493 64.5722 44.1205 63.6794 44.1205ZM49.185 40.7912C50.14 39.8016 51.8712 39.6405 53.0512 40.446C54.2313 41.2438 54.4176 42.7014 53.4627 43.6909L53.0512 44.1205H47.9972L47.6013 43.714C47.7022 43.5375 47.7799 43.3381 47.7799 43.1156C47.7799 42.8701 47.6945 42.663 47.5703 42.4712L49.185 40.7912ZM46.5765 42.1644C47.0967 42.1644 47.5081 42.5863 47.5081 43.1079C47.5081 43.6296 47.0889 44.0515 46.5765 44.0515C46.0641 44.0515 45.6449 43.6296 45.6449 43.1079C45.6449 42.5863 46.0564 42.1644 46.5765 42.1644ZM39.6904 43.6909C38.7355 42.7014 38.9218 41.2438 40.1018 40.446C41.2819 39.6482 43.0131 39.8016 43.968 40.7912L45.5751 42.4712C45.4508 42.663 45.3654 42.8701 45.3654 43.1156C45.3654 43.3381 45.4431 43.5375 45.544 43.714L45.1481 44.1205H40.0941L39.6904 43.6909Z" fill="url(#paint4_linear)"/>
<path d="M50.0239 51.9452V74H62.5386C63.5711 74 64.4018 73.1561 64.4018 72.1128V52.1906C64.4018 52.1063 64.3863 52.0295 64.3785 51.9452H50.0239Z" fill="url(#paint5_linear)"/>
<path d="M28.7515 52.1906V72.1128C28.7515 73.1561 29.5899 74 30.6225 74H43.1371V51.9452H28.7748C28.7592 52.0295 28.7515 52.1063 28.7515 52.1906Z" fill="url(#paint6_linear)"/>
</g>
<defs>
<linearGradient id="paint0_linear" x1="0.189943" y1="92.2261" x2="104.019" y2="77.5187" gradientUnits="userSpaceOnUse">
<stop offset="0.0104167" stop-color="#365899"/>
<stop offset="0.8125" stop-color="#1F9AC5"/>
</linearGradient>
<linearGradient id="paint1_linear" x1="69.9644" y1="35.0067" x2="77.7282" y2="33.5423" gradientUnits="userSpaceOnUse">
<stop offset="0.0104167" stop-color="#365899"/>
<stop offset="0.8125" stop-color="#1F9AC5"/>
</linearGradient>
<linearGradient id="paint2_linear" x1="53.6602" y1="35.0067" x2="65.5003" y2="31.4155" gradientUnits="userSpaceOnUse">
<stop offset="0.0104167" stop-color="#365899"/>
<stop offset="0.8125" stop-color="#1F9AC5"/>
</linearGradient>
<linearGradient id="paint3_linear" x1="41.6582" y1="35.0067" x2="49.4058" y2="33.5487" gradientUnits="userSpaceOnUse">
<stop offset="0.0104167" stop-color="#365899"/>
<stop offset="0.8125" stop-color="#1F9AC5"/>
</linearGradient>
<linearGradient id="paint4_linear" x1="27.8589" y1="57.6064" x2="67.3375" y2="46.3298" gradientUnits="userSpaceOnUse">
<stop offset="0.0104167" stop-color="#365899"/>
<stop offset="0.8125" stop-color="#1F9AC5"/>
</linearGradient>
<linearGradient id="paint5_linear" x1="50.0239" y1="88.4496" x2="66.3735" y2="87.5441" gradientUnits="userSpaceOnUse">
<stop offset="0.0104167" stop-color="#365899"/>
<stop offset="0.8125" stop-color="#1F9AC5"/>
</linearGradient>
<linearGradient id="paint6_linear" x1="28.7515" y1="88.4496" x2="45.1099" y2="87.5431" gradientUnits="userSpaceOnUse">
<stop offset="0.0104167" stop-color="#365899"/>
<stop offset="0.8125" stop-color="#1F9AC5"/>
</linearGradient>
<clipPath id="clip0">
<rect width="93.1529" height="74" fill="white"/>
</clipPath>
</defs>
</svg>
