<svg width="14" height="14" viewBox="0 0 14 14" fill="none" xmlns="http://www.w3.org/2000/svg">
<path d="M13.4802 6.58233V11.5863C13.4798 11.8074 13.3918 12.0192 13.2356 12.1755C13.0793 12.3317 12.8675 12.4197 12.6464 12.4201H10.6895C10.5095 12.5872 9.37472 13.6931 9.31426 13.6758C9.31426 13.6758 9.30271 12.5411 9.31426 12.4201H6.79858C6.5773 12.4201 6.36507 12.3323 6.20857 12.176C6.05197 12.0196 5.96378 11.8076 5.96338 11.5863V7.83383H8.04996C8.27145 7.83383 8.48389 7.74584 8.64049 7.58914C8.79719 7.43255 8.88518 7.22009 8.88518 6.99862V5.74726H12.642C12.8641 5.74646 13.0773 5.83414 13.2345 5.99084C13.3918 6.14754 13.4802 6.36048 13.4802 6.58248L13.4802 6.58233Z" fill="#365899"/>
<path d="M7.71999 0.732943H7.16562C7.14261 0.732943 7.11951 0.724304 7.09359 0.724304H1.90959C1.88508 0.724304 1.86208 0.724304 1.83757 0.732943H1.28181C1.08041 0.731838 0.88686 0.810888 0.743914 0.95272C0.600978 1.09465 0.520421 1.2876 0.52002 1.48891V6.78812C0.520421 6.98891 0.600276 7.18126 0.742307 7.32328C0.884237 7.46521 1.0767 7.54517 1.27747 7.54557H3.40865C3.44893 7.5758 4.61822 8.72783 4.67588 8.70904C4.67588 8.70904 4.68883 7.55701 4.67588 7.54557H7.71994C7.92093 7.54557 8.11378 7.46581 8.25603 7.32378C8.39836 7.18175 8.47842 6.98908 8.47882 6.7881V1.4889C8.47842 1.28801 8.39826 1.09555 8.25593 0.953813C8.11359 0.811983 7.92084 0.732529 7.71994 0.732932L7.71999 0.732943ZM2.60799 4.89583C2.45711 4.89583 2.31227 4.83586 2.20561 4.72909C2.09893 4.62231 2.03907 4.47757 2.03927 4.32661C2.03937 4.17564 2.09943 4.031 2.20631 3.92431C2.31318 3.81773 2.45803 3.75797 2.609 3.75827C2.75987 3.75857 2.90461 3.81874 3.01109 3.92571C3.11757 4.03269 3.17723 4.17753 3.17683 4.3285C3.17683 4.47927 3.11686 4.6237 3.01009 4.73019C2.90341 4.83666 2.75877 4.89622 2.60799 4.89582L2.60799 4.89583ZM4.503 4.89583C4.35203 4.89623 4.20708 4.83656 4.10011 4.72999C3.99313 4.62332 3.93297 4.47858 3.93277 4.32751C3.93267 4.17654 3.99263 4.03169 4.09941 3.92493C4.20618 3.81806 4.35103 3.75819 4.50209 3.75829C4.65306 3.75839 4.79791 3.81856 4.90447 3.92553C5.01104 4.03251 5.07081 4.17755 5.07041 4.32853C5.07001 4.47889 5.01014 4.62293 4.90377 4.72931C4.79749 4.83558 4.65335 4.89555 4.50298 4.89585L4.503 4.89583ZM6.39802 3.75967H6.39812C6.54849 3.76158 6.69203 3.82305 6.79728 3.93053C6.90253 4.03801 6.96091 4.18285 6.9596 4.33321C6.9584 4.48368 6.89753 4.62741 6.79055 4.7332C6.68347 4.83887 6.53893 4.89783 6.38846 4.89723C6.23809 4.89662 6.09395 4.83646 5.98788 4.72988C5.88171 4.62321 5.82204 4.47897 5.82204 4.32851C5.82164 4.17623 5.88241 4.03028 5.99079 3.9233C6.09907 3.81633 6.24583 3.75737 6.39811 3.75968L6.39802 3.75967Z" fill="#365899"/>
</svg>
