<svg width="13" height="13" viewBox="0 0 13 13" fill="none" xmlns="http://www.w3.org/2000/svg">
<path d="M11.1575 10.937C11.1575 11.4904 10.7132 11.957 10.1666 11.957H2.23719C1.69048 11.957 1.2463 11.4904 1.2463 10.937L1.2462 2.91099C1.2462 2.35761 1.69048 1.92433 2.23709 1.92433H6.86234L6.86244 1.25604H2.23719C1.32629 1.25604 0.585449 1.98963 0.585449 2.91164V10.9369C0.585449 11.8589 1.32629 12.6251 2.23719 12.6251H10.1658C11.0767 12.6251 11.8175 11.8583 11.8175 10.9369V6.27166H11.1566V10.9369L11.1575 10.937Z" fill="black"/>
<path d="M11.9021 1.15425C11.4032 0.648617 10.5327 0.648617 10.0332 1.15425L5.60097 5.64045C5.55879 5.68314 5.52836 5.73718 5.51413 5.79554L5.04761 7.68665C5.01967 7.80031 5.0526 7.92091 5.13445 8.00451C5.19709 8.06791 5.28154 8.1025 5.36776 8.1025C5.39446 8.1025 5.42115 8.09935 5.44785 8.09241L7.3168 7.61948C7.37508 7.60508 7.42785 7.57427 7.47002 7.53158L11.9022 3.04538C12.1516 2.79293 12.2894 2.4569 12.2894 2.0995C12.2894 1.74223 12.1522 1.40682 11.9021 1.15427L11.9021 1.15425ZM7.06784 6.99328L5.82192 7.30861L6.13346 6.04751L9.80005 2.33624L10.7345 3.28212L7.06784 6.99328ZM11.4349 2.57222L11.2016 2.80837L10.2671 1.86249L10.5004 1.62634C10.7498 1.37389 11.1855 1.37389 11.4349 1.62634C11.5596 1.75262 11.6285 1.92032 11.6285 2.09926C11.6285 2.27832 11.5596 2.44603 11.4349 2.57219V2.57222Z" fill="black"/>
</svg>
